<?xml version="1.0" encoding="utf-8"?>
<!-- Generator: Adobe Illustrator 16.0.0, SVG Export Plug-In . SVG Version: 6.00 Build 0)  -->
<!DOCTYPE svg PUBLIC "-//W3C//DTD SVG 1.1//EN" "http://www.w3.org/Graphics/SVG/1.1/DTD/svg11.dtd">
<svg version="1.1" id="Layer_1" xmlns="http://www.w3.org/2000/svg" xmlns:xlink="http://www.w3.org/1999/xlink" x="0px" y="0px"
	 width="388.845px" height="106.747px" viewBox="0 0 388.845 106.747" enable-background="new 0 0 388.845 106.747"
	 xml:space="preserve">
<g>
	<g>
		<path fill="#FFC20E" d="M3.78,47.188h19v6.255H11.509v6.576h10.582v6.257H11.509v7.501h11.778v6.259H3.78V47.188z"/>
		<path fill="#FFC20E" d="M26.682,47.188h8.877l6.349,21.347h0.093V47.188h7.176v32.848h-8.742l-6.763-22.637h-0.091v22.637h-6.9
			V47.188z"/>
		<path fill="#FFC20E" d="M58.854,53.443h-6.901v-6.255h21.529v6.255h-6.899v26.593h-7.729V53.443z"/>
		<path fill="#FFC20E" d="M76.257,47.188h12.975c6.578,0,8.831,4.048,8.831,8.557c0,4.781-1.932,7.131-5.519,8.003v0.091
			c4.923,0.691,5.198,3.773,5.29,8.191c0.138,6.486,0.37,7.133,1.472,7.59v0.416H90.98c-0.599-1.105-0.829-2.945-0.829-6.672
			c0-5.704-0.784-6.901-3.22-6.901h-2.947v13.573h-7.728V47.188z M83.985,61.036h2.394c3.13,0,3.958-2.349,3.958-4.281
			c0-2.484-0.921-4.14-4.003-4.14h-2.348V61.036z"/>
		<path fill="#FFC20E" d="M102.416,47.188h19v6.255h-11.271v6.576h10.583v6.257h-10.583v7.501h11.778v6.259h-19.507V47.188z"/>
		<path fill="#FFC20E" d="M125.319,47.188h11.96c8.144,0,9.707,5.888,9.707,9.981c0,5.889-2.806,10.03-10.534,10.03h-3.404v12.836
			h-7.729V47.188z M133.048,61.496h2.116c3.082,0,3.818-1.934,3.818-4.144c0-2.53-0.827-4.463-3.957-4.463h-1.977V61.496z"/>
		<path fill="#FFC20E" d="M150.364,47.188h12.974c6.579,0,8.833,4.048,8.833,8.557c0,4.781-1.933,7.131-5.521,8.003v0.091
			c4.922,0.691,5.198,3.773,5.291,8.191c0.138,6.486,0.369,7.133,1.472,7.59v0.416h-8.326c-0.599-1.105-0.828-2.945-0.828-6.672
			c0-5.704-0.783-6.901-3.221-6.901h-2.945v13.573h-7.729V47.188z M158.093,61.036h2.393c3.129,0,3.958-2.349,3.958-4.281
			c0-2.484-0.919-4.14-4.002-4.14h-2.348V61.036z"/>
		<path fill="#FFC20E" d="M176.522,47.188h19.001v6.255h-11.272v6.576h10.582v6.257h-10.582v7.501h11.778v6.259h-19.507V47.188z"/>
		<path fill="#FFC20E" d="M199.426,47.188h8.878l6.35,21.347h0.093V47.188h7.178v32.848h-8.741l-6.766-22.637h-0.09v22.637h-6.901
			V47.188z"/>
		<path fill="#FFC20E" d="M226.415,47.188h18.997v6.255h-11.271v6.576h10.582v6.257h-10.582v7.501h11.778v6.259h-19.505V47.188z"/>
		<path fill="#FFC20E" d="M270.427,69.179c0,6.439-1.839,11.498-10.812,11.498c-8.97,0-10.809-5.059-10.809-11.498V47.188h7.727
			v24.243c0,2.577,1.014,4.095,3.082,4.095c2.071,0,3.082-1.518,3.082-4.095V47.188h7.73V69.179z"/>
		<path fill="#FFC20E" d="M274.674,47.188h12.974c6.579,0,8.834,4.048,8.834,8.557c0,4.781-1.933,7.131-5.521,8.003v0.091
			c4.923,0.691,5.199,3.773,5.292,8.191c0.136,6.486,0.367,7.133,1.471,7.59v0.416h-8.327c-0.597-1.105-0.829-2.945-0.829-6.672
			c0-5.704-0.78-6.901-3.221-6.901h-2.943v13.573h-7.729V47.188z M282.403,61.036h2.392c3.128,0,3.957-2.349,3.957-4.281
			c0-2.484-0.918-4.14-4.001-4.14h-2.348V61.036z"/>
		<path fill="#FFC20E" d="M307.038,70.005v1.149c0,2.486,0.691,4.371,3.359,4.371c2.715,0,3.496-2.022,3.496-3.909
			c0-7.087-14.123-3.129-14.123-15.414c0-5.244,2.805-9.658,10.765-9.658c7.729,0,10.489,3.909,10.489,8.971v0.779h-7.453
			c0-1.562-0.183-2.714-0.643-3.449c-0.46-0.783-1.196-1.15-2.347-1.15c-1.932,0-3.082,1.15-3.082,3.545
			c0,6.852,14.122,3.401,14.122,14.997c0,7.449-4.139,10.44-11.225,10.44c-5.612,0-10.812-1.702-10.812-8.556v-2.116H307.038z"/>
		<path fill="#FFC20E" d="M324.99,47.188h7.73v12.283h6.164V47.188h7.729v32.848h-7.729V66.002h-6.164v14.033h-7.73V47.188z"/>
		<path fill="#FFC20E" d="M351.163,47.188h7.73v32.848h-7.73V47.188z"/>
		<path fill="#FFC20E" d="M363.394,47.188h11.963c8.143,0,9.708,5.888,9.708,9.981c0,5.889-2.808,10.03-10.536,10.03h-3.404v12.836
			h-7.73V47.188z M371.124,61.496h2.115c3.082,0,3.819-1.934,3.819-4.144c0-2.53-0.83-4.463-3.957-4.463h-1.978V61.496z"/>
	</g>
	<g>
		<g>
			<path fill="#ED1C24" d="M13.704,0.564h3.764l9.925,33.586h-3.199l-2.729-9.784H9.706L6.977,34.15H3.78L13.704,0.564z
				 M20.807,21.824L15.632,2.913h-0.094l-5.175,18.911H20.807z"/>
			<path fill="#ED1C24" d="M30.263,0.564h2.823V34.15h-2.823V0.564z"/>
			<path fill="#ED1C24" d="M54.113,25.869c-0.422,5.316-3.338,8.845-8.043,8.845c-5.268,0-8.372-3.67-8.372-13.08
				c0-8.653,3.104-13.027,8.607-13.027c5.551,0,8.043,3.81,8.043,12.134v1.035H40.707v1.175c0,7.196,2.54,9.41,5.316,9.41
				c2.962,0,4.798-2.116,5.268-6.493H54.113z M51.338,19.427c-0.094-6.211-1.833-8.47-5.314-8.47c-3.481,0-5.222,2.258-5.316,8.47
				H51.338z"/>
			<path fill="#ED1C24" d="M64.746,23.422L59.523,34.15h-3.197l6.726-12.891L56.608,9.173h3.198l4.94,9.876l4.938-9.876h3.198
				l-6.443,12.086l6.726,12.891h-3.199L64.746,23.422z"/>
			<path fill="#ED1C24" d="M77.496,29.351h3.197v4.799h-3.197V29.351z"/>
			<path fill="#ED1C24" d="M96.929,0.564h9.266c6.493,0,9.031,3.431,9.031,8.42c0,3.292-1.787,6.445-5.173,7.291v0.094
				c4.138,0.797,6.256,3.998,6.256,8.371c0,5.881-3.811,9.41-10.16,9.41h-9.22V0.564z M99.938,15.332h4.752
				c5.175,0,7.525-2.208,7.525-6.115c0-4.467-2.303-6.114-7.007-6.114h-5.27V15.332z M99.938,31.608h5.599
				c5.22,0,7.76-2.352,7.76-6.868c0-4.516-2.54-6.867-7.76-6.867h-5.599V31.608z"/>
			<path fill="#ED1C24" d="M120.545,9.173h2.822v3.904h0.094c1.082-2.778,3.387-4.469,6.304-4.469c0.329,0,0.657,0.044,0.987,0.139
				v2.823c-0.47-0.091-0.94-0.139-1.364-0.139c-3.104,0-6.021,2.258-6.021,7.102V34.15h-2.822V9.173z"/>
			<path fill="#ED1C24" d="M140.913,8.608c5.504,0,8.608,4.374,8.608,13.027c0,8.703-3.104,13.08-8.608,13.08
				c-5.502,0-8.608-4.377-8.608-13.08C132.305,12.982,135.411,8.608,140.913,8.608z M140.913,32.362
				c3.153,0,5.599-2.73,5.599-10.727c0-7.947-2.446-10.677-5.599-10.677c-3.151,0-5.596,2.73-5.596,10.677
				C135.316,29.631,137.762,32.362,140.913,32.362z"/>
			<path fill="#ED1C24" d="M151.405,9.173h3.011l4.232,22.154h0.094l4.516-22.154h3.481l4.233,22.154h0.094L175.3,9.173h3.01
				l-5.55,24.977h-3.34l-4.516-22.155h-0.093l-4.517,22.155h-3.339L151.405,9.173z"/>
			<path fill="#ED1C24" d="M181.512,9.173h2.541v3.479h0.094c1.411-2.775,3.856-4.043,6.398-4.043c3.809,0,6.396,1.975,6.396,6.679
				V34.15h-2.822V16.085c0-3.434-1.411-5.127-4.283-5.127c-3.29,0-5.502,2.542-5.502,6.398V34.15h-2.823V9.173z"/>
			<path fill="#ED1C24" d="M234.01,22.766c-0.424,7.666-3.952,11.948-9.974,11.948c-6.867,0-10.724-5.316-10.724-17.358
				C213.312,5.314,217.169,0,224.036,0c6.82,0,9.646,4.844,9.646,10.346h-3.012c0-4.562-2.305-7.807-6.634-7.807
				c-4.798,0-7.713,3.951-7.713,14.817c0,10.865,2.915,14.817,7.713,14.817c4.236,0,6.634-3.624,6.963-9.407H234.01z"/>
			<path fill="#ED1C24" d="M253.486,25.869c-0.423,5.316-3.341,8.845-8.046,8.845c-5.266,0-8.37-3.67-8.37-13.08
				c0-8.653,3.104-13.027,8.606-13.027c5.55,0,8.045,3.81,8.045,12.134v1.035h-13.641v1.175c0,7.196,2.54,9.41,5.314,9.41
				c2.963,0,4.798-2.116,5.268-6.493H253.486z M250.709,19.427c-0.093-6.211-1.832-8.47-5.313-8.47s-5.221,2.258-5.314,8.47H250.709
				z"/>
			<path fill="#ED1C24" d="M258.145,9.173h2.539v3.479h0.096c1.413-2.775,3.856-4.043,6.396-4.043c3.81,0,6.396,1.975,6.396,6.679
				V34.15h-2.822V16.085c0-3.434-1.41-5.127-4.28-5.127c-3.293,0-5.505,2.542-5.505,6.398V34.15h-2.82V9.173z"/>
			<path fill="#ED1C24" d="M280.066,11.522h-3.434V9.173h3.434V2.258h2.822v6.915h4.421v2.349h-4.421v17.923
				c0,1.974,0.847,2.633,2.681,2.633c0.563,0,1.131-0.095,1.74-0.281v2.353c-0.328,0.186-1.034,0.28-1.976,0.28
				c-3.811,0-5.268-1.034-5.268-4.373V11.522z"/>
			<path fill="#ED1C24" d="M305.75,25.869c-0.423,5.316-3.339,8.845-8.045,8.845c-5.267,0-8.371-3.67-8.371-13.08
				c0-8.653,3.104-13.027,8.608-13.027c5.55,0,8.043,3.81,8.043,12.134v1.035h-13.642v1.175c0,7.196,2.54,9.41,5.315,9.41
				c2.964,0,4.798-2.116,5.269-6.493H305.75z M302.975,19.427c-0.093-6.211-1.834-8.47-5.315-8.47c-3.48,0-5.221,2.258-5.315,8.47
				H302.975z"/>
			<path fill="#ED1C24" d="M310.408,9.173h2.822v3.904h0.096c1.081-2.778,3.386-4.469,6.303-4.469c0.326,0,0.658,0.044,0.986,0.139
				v2.823c-0.47-0.091-0.941-0.139-1.363-0.139c-3.104,0-6.021,2.258-6.021,7.102V34.15h-2.822V9.173z"/>
			<path fill="#ED1C24" d="M334.685,0.564h16.649v2.539h-13.641v12.229h12.748v2.542h-12.748V34.15h-3.009V0.564z"/>
			<path fill="#ED1C24" d="M362.107,8.608c5.504,0,8.607,4.374,8.607,13.027c0,8.703-3.104,13.08-8.607,13.08
				c-5.502,0-8.607-4.377-8.607-13.08C353.5,12.982,356.605,8.608,362.107,8.608z M362.107,32.362c3.151,0,5.599-2.73,5.599-10.727
				c0-7.947-2.447-10.677-5.599-10.677c-3.15,0-5.598,2.73-5.598,10.677C356.51,29.631,358.957,32.362,362.107,32.362z"/>
			<path fill="#ED1C24" d="M374.856,9.173h2.823v3.904h0.095c1.081-2.778,3.386-4.469,6.304-4.469c0.328,0,0.656,0.044,0.986,0.139
				v2.823c-0.469-0.091-0.94-0.139-1.364-0.139c-3.104,0-6.021,2.258-6.021,7.102V34.15h-2.823V9.173z"/>
		</g>
	</g>
	<rect y="93.904" width="388.845" height="7.843"/>
</g>
</svg>
