<?xml version="1.0" standalone="no"?>
<!DOCTYPE svg PUBLIC "-//W3C//DTD SVG 20010904//EN"
 "http://www.w3.org/TR/2001/REC-SVG-20010904/DTD/svg10.dtd">
<svg version="1.0" xmlns="http://www.w3.org/2000/svg"
 width="352.000000pt" height="352.000000pt" viewBox="0 0 352.000000 352.000000"
 preserveAspectRatio="xMidYMid meet">
<metadata>
Created by potrace 1.11, written by Peter Selinger 2001-2013
</metadata>
<g transform="translate(0.000000,352.000000) scale(0.100000,-0.100000)"
fill="#000000" stroke="none">
<path d="M1496 3035 c-15 -8 -32 -15 -37 -15 -5 0 -32 -10 -61 -23 -29 -13
-73 -32 -98 -42 -25 -10 -58 -24 -75 -31 -104 -44 -136 -52 -240 -58 l-110 -7
-102 -102 c-57 -56 -103 -108 -103 -116 0 -8 -3 -11 -7 -7 -4 3 -14 -8 -23
-26 -9 -18 -38 -76 -65 -128 -26 -52 -115 -194 -197 -315 l-149 -220 -89 -263
c-49 -144 -87 -268 -84 -275 2 -7 21 -20 42 -30 20 -9 95 -49 167 -87 72 -39
160 -85 197 -102 l68 -31 51 -106 c28 -58 62 -129 75 -158 13 -28 32 -54 41
-57 45 -12 164 -29 169 -23 4 3 8 23 9 44 2 21 6 85 10 143 4 58 9 123 10 145
2 22 4 45 4 50 1 6 23 -38 49 -97 42 -94 114 -199 186 -270 7 -7 24 -47 38
-88 57 -164 49 -154 133 -175 64 -16 79 -16 100 -5 22 12 30 9 91 -29 l67 -42
100 21 c56 12 112 20 126 17 14 -2 61 -12 104 -21 l79 -17 64 42 c60 39 67 41
90 28 22 -11 36 -11 102 7 l77 20 40 111 c35 98 49 121 116 203 54 65 88 117
115 178 55 126 60 132 63 73 0 -26 3 -73 5 -102 3 -30 8 -94 11 -144 4 -49 9
-92 11 -94 2 -2 37 1 76 8 101 18 118 22 118 31 0 4 31 73 69 152 l69 144 213
114 c118 62 227 120 242 128 22 11 27 19 23 40 -10 61 -171 510 -179 505 -6
-3 -7 -1 -3 6 4 6 -20 52 -58 106 -36 52 -66 99 -66 104 0 5 -4 11 -8 13 -18
7 -152 219 -207 328 -33 63 -67 126 -78 140 -35 47 -208 219 -225 224 -9 3
-60 8 -112 11 -52 4 -102 9 -110 10 -8 2 -103 41 -210 86 -210 89 -221 92
-360 73 -72 -9 -123 -10 -190 -1 -128 17 -145 18 -174 2z"/>
</g>
</svg>
