<?xml version="1.0" encoding="utf-8"?>
<!-- Generator: Adobe Illustrator 19.1.0, SVG Export Plug-In . SVG Version: 6.00 Build 0)  -->
<svg version="1.1" xmlns="http://www.w3.org/2000/svg" xmlns:xlink="http://www.w3.org/1999/xlink" x="0px" y="0px"
	 viewBox="0 0 392.8 688" style="enable-background:new 0 0 392.8 688;" xml:space="preserve">
<style type="text/css">
	.st0{fill:#F7F7F7;}
	.st1{display:none;opacity:8.000000e-02;}
	.st2{opacity:0.42;fill:#E0E0E0;}
	.st3{display:none;}
	.st4{display:inline;}
	.st5{fill:#FFFFFF;}
	.st6{fill:#6B7373;}
	.st7{fill:#353535;}
	.st8{fill:#C53C02;}
	.st9{fill:#751B00;}
	.st10{fill:#265A8F;}
	.st11{fill:#162F51;}
	.st12{fill:#FDEE00;}
	.st13{fill:#ECC700;}
	.st14{opacity:0.42;fill:#BC1B00;}
	.st15{fill:#1D486B;}
	.st16{fill:#D3AA00;}
	.st17{opacity:0.42;fill:#232323;}
</style>
<g id="Layer_1">
	<g>
		<path class="st10" d="M22,267.7c0-2.6,5.6-3.7,9.3-3.7h332.3c3.7,0,4.5,1.1,4.5,3.7V622c0,2.6-1.6,5.7-4.9,6.9l-159,58.2
			c-3.3,1.2-8.4,1.2-11.7,0L29.1,628.9c-3.3-1.2-7.1-4.3-7.1-6.9V267.7z"/>
		<path class="st1" d="M38.9,379c0,0,161.3,34,315.5-0.1v-17.5c0,0-141.9,28.5-315.5,0.1V379z"/>
		<polygon class="st15" points="356.1,400.7 356.1,360 34.5,360 		"/>
		<g class="st3">
			<g class="st4">
				<g>
					<polygon class="st5" points="63,601.7 63,426.8 41.7,426.8 41.7,352.8 142,352.8 142,601.7 					"/>
					<path d="M128.7,366.1v222.2H76.3V413.4H55v-47.3H128.7 M155.4,339.4h-26.7H55H28.3v26.7v47.3v26.7h21.3v148.3V615h26.7h52.4
						h26.7v-26.7V366.1V339.4L155.4,339.4z"/>
				</g>
				<g>
					<polygon class="st5" points="167.6,601.2 241.3,425.7 156,425.7 156,351.8 358.7,351.8 248.8,601.2 					"/>
					<path d="M338.2,365.1l-98.2,222.8h-52.4l73.7-175.5h-92v-47.3H338.2 M379.1,338.4h-40.9H169.4h-26.7v26.7v47.3v26.7h26.7h51.9
						l-58.2,138.4l-15.6,37h40.2h52.4h17.4l7-15.9l98.2-222.8L379.1,338.4L379.1,338.4z"/>
				</g>
			</g>
		</g>
		<g>
			<path class="st5" d="M377.3,342.5c0,0-159.8,52.8-361.4,0V239.7c186,48.4,361.4,0,361.4,0V342.5z"/>
			<path class="st10" d="M377.3,239.7v102.8c0,0-71,23.5-178.1,23.5c-53.5,0-116.1-5.9-183.3-23.5V239.7
				c62,16.1,122.8,21.5,176.3,21.5C299.3,261.2,377.3,239.7,377.3,239.7 M392.9,219.3l-19.7,5.4c-0.8,0.2-77.5,21-180.9,21
				c-60.8,0-118.8-7.1-172.4-21l-19.5-5.1v20.2v102.8v12l11.6,3c60.7,15.9,123.7,24,187.2,24c108.3,0,180-23.3,183-24.3l10.7-3.5
				v-11.3V239.7V219.3L392.9,219.3z"/>
		</g>
		<g>
			<path class="st10" d="M393.1,219.2l-19.9-9.9V-0.5H18.4V211L0.1,220l18.3,12.7v0.3h0.4l1.1,0.8L20,233h6.2v0
				c0,0,170.4,51.2,344.5,0.8l2.6,0V233c0,0,0.1,0,0.1,0L393.1,219.2z"/>
		</g>
		<g class="st3">
			<g class="st4">
				<g>
					<g>
						<g>
							<g>
								<polygon class="st5" points="140.5,204.5 139.5,204.5 139.5,163 140.5,163 140.5,204.5 								"/>
							</g>
							<g>
								<g>
									<path class="st5" d="M108.4,165.2c-5.1,0-9.7,2-13,5.3l0,0c-3.3,3.3-5.4,7.8-5.4,12.8l0,0c0,5,2.1,9.6,5.4,12.8l0,0
										c3.3,3.3,7.9,5.3,13,5.3l0,0c5.1,0,9.7-2,13-5.3l0,0c3.3-3.3,5.4-7.8,5.4-12.8l0,0c0-5-2.1-9.6-5.4-12.8l0,0
										C118.1,167.2,113.4,165.2,108.4,165.2L108.4,165.2 M122.9,169L122.9,169 M108.4,163c11.4,0,20.6,9.1,20.6,20.4l0,0
										c0,11.3-9.2,20.4-20.6,20.4l0,0c-11.4,0-20.6-9.1-20.6-20.4l0,0C87.7,172.1,97,163,108.4,163L108.4,163 M93.8,169L93.8,169
										"/>
								</g>
								<g>
									<path class="st5" d="M98.6,183.2c0-1.2-0.8-1.9-1.9-1.9H96v3.7h0.7C97.7,185.1,98.6,184.5,98.6,183.2L98.6,183.2z
										 M110.9,184.6l-5.1,4l-4.7-3.6c-0.7,1.6-2.3,2.7-4.2,2.7h-4v-8.8h4c2.1,0,3.6,1.3,4.2,2.7l4.7-3.6l1.7,1.3l-4.3,3.3
										l0.8,0.6l4.3-3.3l1.7,1.3l-4.3,3.3l0.8,0.6l4.3-3.3v-3h3.1v6.2h3.1v2.6h-6.2V184.6L110.9,184.6z M121,185h3.1v2.6h-6.2
										v-8.8h3.1V185L121,185z"/>
								</g>
							</g>
						</g>
					</g>
					<g>
						<g>
							<path class="st5" d="M150.2,173.2l12.6-1.7v12h-12.6 M164.3,171.2l16.7-2.4v14.6h-16.7 M150.2,184.8h12.6v12.1l-12.6-1.7
								 M164.3,184.9H181v14.4l-16.7-2.3"/>
						</g>
						<g>
							<g>
								<path class="st5" d="M191.5,174.9c0.7,0,1.4,0,2.1,0c1.1,4,2.2,8,3.3,11.9c0.2,0.8,0.4,1.7,0.5,2.6
									c1.2-4.9,2.7-9.7,4.1-14.5c0.6,0,1.2,0,1.8,0c1,3.4,1.9,6.9,2.9,10.4c0.4,1.4,0.8,2.7,1,4.1c1-4.9,2.5-9.6,3.7-14.5
									c0.7,0,1.4,0,2.1,0c-1.5,5.5-3.1,11.1-4.7,16.6h-2.3c-1.1-4-2.2-8-3.4-11.9c-0.2-0.6-0.3-1.3-0.3-2
									c-0.1,0.6-0.2,1.2-0.3,1.7c-1.1,4-2.3,8.1-3.4,12.1c-0.8,0-1.5,0-2.3,0C194.8,186,193.1,180.5,191.5,174.9"/>
							</g>
							<g>
								<path class="st5" d="M214.3,175.1c0.1-0.7,0.7-1.2,1.4-1.1s1.2,0.7,1.1,1.4s-0.7,1.2-1.4,1.1c-0.6-0.1-1-0.5-1.1-1.1
									 M214.6,179.6h1.9v11.9h-1.9"/>
							</g>
							<g>
								<path class="st5" d="M221.5,181.5c1.1-1.9,3.6-2.8,5.6-1.9c1.6,0.6,2.2,2.5,2.3,4.1c0.1,2.6,0,5.2,0,7.8c-0.6,0-1.3,0-1.9,0
									c0-2.5,0.1-5,0-7.5c-0.1-1.2-0.6-2.7-1.9-3c-2-0.6-4,1.2-4,3.1c-0.1,2.5,0,5,0,7.4h-1.9c0-4,0-7.9,0-11.9h1.9
									C221.5,180.3,221.5,180.9,221.5,181.5"/>
							</g>
							<g>
								<path class="st5" d="M240.8,174c0.6,0,1.3,0,1.9,0v17.5h-1.9c0-0.6,0-1.3-0.1-1.9c-1.4,2.4-5,3-7.1,1.2
									c-1.5-1.3-1.9-3.3-1.9-5.2c0-1.9,0.6-3.9,2.2-5.2c2-1.6,5.5-1.5,6.9,0.9C240.8,178.8,240.8,176.4,240.8,174 M236.7,180.9
									c-1.5,0.2-2.5,1.6-2.8,3c-0.4,1.7-0.3,3.7,0.8,5.1c1.2,1.5,3.8,1.6,5,0.1c0.9-0.9,1.1-2.1,1.1-3.3c0-1.3,0.1-2.7-0.7-3.7
									C239.3,181.1,238,180.7,236.7,180.9"/>
							</g>
							<g>
								<path class="st5" d="M250,179.3c1.7-0.1,3.6,0.1,4.8,1.3c1.4,1.3,1.9,3.4,1.8,5.2c0,1.7-0.6,3.4-1.9,4.5
									c-2.6,2.3-7.4,1.8-9-1.4c-1.3-2.7-1-6.4,1.3-8.4C247.9,179.9,249,179.6,250,179.3 M249.7,181c-2.8,0.8-3.2,4.5-2.4,6.8
									c0.7,2.1,3.4,3,5.3,2.1c1.3-0.6,1.9-2.1,2-3.4c0.1-1.6,0-3.3-1.1-4.6C252.6,180.9,251,180.6,249.7,181"/>
							</g>
							<g>
								<path class="st5" d="M257.4,179.6h2c0.8,2.8,1.5,5.7,2.3,8.5c0.2,0.5,0.2,1.1,0.3,1.6c0.9-3.4,2-6.8,3-10.1l1.7,0
									c0.9,3.4,1.9,6.7,2.7,10.1c0.7-3.4,1.8-6.7,2.6-10.1c0.6,0,1.3,0,1.9,0c-1.2,4-2.4,8-3.6,11.9h-2c-0.9-3.2-2-6.4-2.6-9.7
									c-0.8,3.3-2,6.4-2.9,9.7H261C259.8,187.6,258.6,183.6,257.4,179.6"/>
							</g>
							<g>
								<path class="st5" d="M278.7,179.3c1.2-0.1,2.4,0,3.5,0.5c0.3,0.6,0.1,1.3,0.1,2c-1.3-0.8-3.2-1.4-4.6-0.5
									c-1,0.5-1,2.1-0.1,2.7c1.4,0.9,3.1,1.1,4.4,2.3c1.3,1.3,1,3.8-0.6,4.7c-1.9,1.2-4.5,1.1-6.5,0.2c0-0.7,0-1.4,0-2.1
									c1.4,1.1,3.4,1.7,5.2,0.9c1-0.5,1.1-2,0.2-2.7c-1.4-1-3.3-1.2-4.5-2.4c-1.2-1.2-1-3.4,0.4-4.5
									C276.9,179.8,277.9,179.6,278.7,179.3"/>
							</g>
							<g>
								<path class="st5" d="M291.9,174.7c0.2,0,0.5-0.1,0.7-0.1c0,5.7,0,11.3,0,17h-1.9c0-4.7,0-9.4,0-14.1
									c-1.2,0.8-2.5,1.5-3.9,1.9c0-0.6,0-1.3,0-1.9C288.7,176.8,290.4,175.8,291.9,174.7"/>
							</g>
							<g>
								<path class="st5" d="M299.5,174.6c1.6-0.3,3.5,0.3,4.4,1.7c1.4,1.9,1.5,4.4,1.6,6.7c0,2.4-0.3,5.1-1.9,7
									c-1.4,1.9-4.4,2.3-6.3,0.9c-1.6-1.1-2.2-3.1-2.5-4.9c-0.3-2.7-0.3-5.5,0.7-8.1C296.1,176.4,297.6,174.9,299.5,174.6
									 M299.2,176.3c-1.7,0.7-2.2,2.7-2.4,4.3c-0.2,2.2-0.3,4.5,0.2,6.7c0.3,1.1,0.8,2.2,1.9,2.7c1.2,0.6,2.9,0.1,3.5-1.1
									c1-1.8,1.1-3.9,1.1-5.9c0-1.9-0.1-4-1.2-5.7C301.7,176.3,300.3,175.9,299.2,176.3"/>
							</g>
						</g>
					</g>
				</g>
			</g>
			<g class="st4">
				<g>
					<g>
						<g>
							<path class="st5" d="M157,60.5c1.5,0.6,2.8,1.5,3.8,2.5c1.1,1,1.9,2.3,2.6,3.7c0.7,1.5,1,3,1,4.6v58.9c0,0.5-0.2,1-0.6,1.4
								c-0.4,0.4-0.8,0.6-1.4,0.6h-14.4c-0.6,0-1-0.2-1.4-0.6c-0.3-0.4-0.5-0.8-0.5-1.4V76.7h-11.6v53.6c0,0.5-0.2,1-0.5,1.4
								c-0.3,0.4-0.8,0.6-1.4,0.6h-13.1c-0.6,0-1-0.2-1.4-0.6c-0.4-0.4-0.6-0.8-0.6-1.4V76.7H106v53.6c0,1.3-0.7,1.9-2,1.9H89.7
								c-1.3,0-2-0.6-2-1.9V61.4c0-1.3,0.7-1.9,2-1.9h62.6C154,59.5,155.6,59.8,157,60.5z"/>
						</g>
						<g>
							<path class="st5" d="M157,60.5c1.5,0.6,2.8,1.5,3.8,2.5c1.1,1,1.9,2.3,2.6,3.7c0.7,1.5,1,3,1,4.6v5.3l-18.3,0.1h-11.6h-16.9
								H106l-18.3-0.1V61.4c0-1.3,0.7-1.9,2-1.9h62.6C154,59.5,155.6,59.8,157,60.5z"/>
						</g>
					</g>
					<g>
						<g>
							<path class="st5" d="M227.4,114.5c0.6,0,1.1,0.2,1.4,0.6c0.4,0.4,0.6,0.8,0.6,1.4v13.7c0,0.6-0.2,1-0.6,1.4
								c-0.4,0.4-0.8,0.6-1.4,0.6H178c-1.4,0-2.1-0.7-2.1-2V61.5c0-1.3,0.7-2,2.1-2h15.2c1.4,0,2.1,0.7,2.1,2v51.2
								c0,0.6,0.2,1,0.6,1.4c0.4,0.3,0.9,0.5,1.5,0.5H227.4z"/>
						</g>
						<g>
							<path class="st5" d="M195.1,132.2H178c-1.4,0-2.1-0.7-2.1-2V61.5c0-1.3,0.7-2,2.1-2h15.1c1.4,0,2.1,0.7,2.1,2v51.2
								C195.2,113.2,195.1,132.2,195.1,132.2z"/>
						</g>
					</g>
					<g>
						<g>
							<path class="st5" d="M303.4,59.5c0.6,0,1.1,0.2,1.5,0.6c0.4,0.4,0.6,0.9,0.6,1.4v69c0,0.6-0.2,1-0.6,1.4
								c-0.4,0.4-0.9,0.6-1.5,0.6H288c-0.6,0-1.1-0.2-1.5-0.6c-0.4-0.4-0.6-0.8-0.6-1.4v-24.1c0-0.6-0.2-1-0.6-1.4
								c-0.4-0.3-0.8-0.5-1.4-0.5h-21.6c-0.6,0-1.1,0.2-1.5,0.5c-0.4,0.3-0.6,0.8-0.6,1.4v24.1c0,1.3-0.7,2-2.1,2h-15.3
								c-1.4,0-2.1-0.7-2.1-2v-69c0-1.3,0.7-2,2.1-2h15.3c1.4,0,2.1,0.7,2.1,2v23.3c0,1.3,0.7,2,2.1,2h21.6c0.6,0,1.1-0.2,1.4-0.6
								c0.4-0.4,0.6-0.8,0.6-1.4V61.5c0-0.6,0.2-1,0.6-1.4c0.4-0.4,0.9-0.6,1.5-0.6H303.4z"/>
						</g>
						<g>
							<path class="st5" d="M260.3,106.4v24.1c0,1.3-0.7,2-2.1,2h-15.3c-1.4,0-2.1-0.7-2.1-2v-69c0-1.3,0.7-2,2.1-2h15.3
								c1.4,0,2.1,0.7,2.1,2v23.3C260.3,86.1,260.3,105.8,260.3,106.4z"/>
						</g>
						<g>
							<path class="st5" d="M303.4,59.5c0.6,0,1.1,0.2,1.5,0.6c0.4,0.4,0.6,0.9,0.6,1.4v69c0,0.6-0.2,1-0.6,1.4
								c-0.4,0.4-0.9,0.6-1.5,0.6H288c-0.6,0-1.1-0.2-1.5-0.6c-0.4-0.4-0.6-0.8-0.6-1.4v-24.1c0-0.6,0-21,0-21.6V61.5
								c0-0.6,0.2-1,0.6-1.4c0.4-0.4,0.9-0.6,1.5-0.6H303.4z"/>
						</g>
					</g>
				</g>
			</g>
			<g class="st4">
				<g>
					<g>
						<path class="st5" d="M160.1,145.4c0,1-0.3,1.7-1,2.3c-0.7,0.5-1.6,0.8-2.9,0.8h-1.6v4.2H154v-10.2h2.5
							C158.9,142.4,160.1,143.4,160.1,145.4z M154.7,147.8h1.4c1.2,0,2-0.2,2.5-0.6c0.5-0.4,0.8-1,0.8-1.8c0-0.8-0.2-1.4-0.7-1.8
							c-0.5-0.4-1.2-0.6-2.2-0.6h-1.7V147.8z"/>
					</g>
					<g>
						<path class="st5" d="M170.9,147.5c0,1.6-0.4,2.9-1.2,3.8c-0.8,0.9-1.9,1.4-3.4,1.4c-1.4,0-2.5-0.5-3.3-1.4
							c-0.8-0.9-1.2-2.2-1.2-3.9c0-1.6,0.4-2.9,1.2-3.8c0.8-0.9,1.9-1.4,3.4-1.4c1.4,0,2.5,0.5,3.3,1.4
							C170.5,144.6,170.9,145.9,170.9,147.5z M162.6,147.5c0,1.5,0.3,2.6,1,3.4c0.7,0.8,1.6,1.2,2.8,1.2c1.2,0,2.2-0.4,2.8-1.2
							c0.6-0.8,1-1.9,1-3.4c0-1.5-0.3-2.6-1-3.4c-0.6-0.8-1.6-1.2-2.8-1.2c-1.2,0-2.2,0.4-2.8,1.2S162.6,146.1,162.6,147.5z"/>
					</g>
					<g>
						<path class="st5" d="M181.4,152.6h-0.6l-2.2-7.9c-0.2-0.6-0.3-1.2-0.4-1.6c-0.1,0.4-0.2,0.9-0.3,1.4c-0.1,0.5-0.9,3.2-2.3,8.1
							H175l-2.8-10.2h0.7l1.8,6.6c0.1,0.3,0.1,0.5,0.2,0.7c0.1,0.2,0.1,0.4,0.2,0.6c0,0.2,0.1,0.4,0.1,0.6c0,0.2,0.1,0.4,0.1,0.6
							c0.1-0.6,0.3-1.6,0.7-2.9l1.7-6.2h0.8l2,7.1c0.2,0.8,0.4,1.5,0.5,2c0.1-0.3,0.1-0.7,0.2-1.1c0.1-0.4,0.8-3.1,2.2-8h0.7
							L181.4,152.6z"/>
					</g>
					<g>
						<path class="st5" d="M191.6,152.6h-5.6v-10.2h5.6v0.7h-4.9v3.9h4.6v0.7h-4.6v4.4h4.9V152.6z"/>
					</g>
					<g>
						<path class="st5" d="M194.7,148.2v4.5H194v-10.2h2.4c1.3,0,2.2,0.2,2.8,0.7c0.6,0.5,0.9,1.2,0.9,2.1c0,0.7-0.2,1.3-0.5,1.7
							c-0.4,0.5-0.9,0.8-1.6,1l2.8,4.7h-0.9l-2.6-4.5H194.7z M194.7,147.6h1.9c0.9,0,1.5-0.2,2-0.6c0.5-0.4,0.7-1,0.7-1.7
							c0-0.8-0.2-1.3-0.7-1.7c-0.5-0.4-1.2-0.5-2.3-0.5h-1.7V147.6z"/>
					</g>
					<g>
						<path class="st5" d="M208,152.6h-5.6v-10.2h5.6v0.7h-4.9v3.9h4.6v0.7h-4.6v4.4h4.9V152.6z"/>
					</g>
					<g>
						<path class="st5" d="M218.1,147.4c0,1.7-0.4,3-1.3,3.9c-0.9,0.9-2.2,1.3-4,1.3h-2.4v-10.2h2.8c1.6,0,2.9,0.4,3.7,1.3
							C217.7,144.6,218.1,145.8,218.1,147.4z M217.3,147.5c0-1.5-0.4-2.6-1.1-3.3c-0.7-0.7-1.8-1.1-3.3-1.1h-1.9v9h1.7
							C215.8,152,217.3,150.5,217.3,147.5z"/>
					</g>
					<g>
						<path class="st5" d="M224.2,142.4h2.8c1.3,0,2.2,0.2,2.8,0.6c0.6,0.4,0.9,1.1,0.9,1.9c0,0.6-0.2,1.1-0.5,1.5
							c-0.4,0.4-0.9,0.6-1.6,0.8v0c0.8,0.1,1.4,0.4,1.8,0.8c0.4,0.4,0.6,0.9,0.6,1.6c0,0.9-0.3,1.7-0.9,2.2
							c-0.6,0.5-1.5,0.8-2.7,0.8h-3.1V142.4z M224.9,147h2.2c1,0,1.7-0.2,2.1-0.5c0.4-0.3,0.7-0.8,0.7-1.5c0-0.7-0.2-1.2-0.7-1.5
							c-0.5-0.3-1.2-0.5-2.2-0.5h-2.1V147z M224.9,147.6v4.4h2.4c1.9,0,2.8-0.8,2.8-2.3c0-1.4-1-2.1-3-2.1H224.9z"/>
					</g>
					<g>
						<path class="st5" d="M235.5,148l3-5.6h0.8l-3.4,6.3v3.9h-0.7v-3.9l-3.4-6.3h0.8L235.5,148z"/>
					</g>
				</g>
				<g>
					<g>
						<rect x="243.3" y="146.7" class="st5" width="62.2" height="3"/>
					</g>
					<g>
						<rect x="87.7" y="146.7" class="st5" width="62.2" height="3"/>
					</g>
				</g>
			</g>
		</g>
	</g>
	<g>
		<g>
			<path class="st10" d="M74.7,330.7c-12.7-2.2-19-3.5-31.5-6.3c0-4.3,0-6.5,0-10.8c10,2.2,15.1,3.3,25.1,5.1c0-3.8,0-5.7,0-9.6
				c-7.5-1.4-11.3-2.1-18.8-3.7c-1.7-0.4-3.2-1.2-4.5-2.5s-1.9-2.8-1.9-4.3c0-8-0.1-12-0.1-19.9c0-1.5,0.6-2.6,1.9-3.4
				c1.3-0.8,2.8-1,4.5-0.6c12.6,2.7,18.9,3.9,31.5,6c0,4.3,0,6.5,0,10.8c-10.1-1.7-15.1-2.6-25.1-4.7c0,3.6,0,5.4,0,9
				c7.5,1.5,11.3,2.2,18.8,3.6c1.7,0.3,3.2,1.1,4.4,2.3c1.2,1.3,1.9,2.7,1.9,4.2c0,8.2,0,12.2,0.1,20.4c0,1.6-0.6,2.8-1.8,3.6
				C77.9,330.7,76.4,331,74.7,330.7z"/>
			<path class="st10" d="M103.4,295.2c0,3.7,0,5.6,0,9.3c6.2,0.8,9.3,1.2,15.5,1.9c0,4.3,0,6.4,0,10.7c-6.2-0.7-9.3-1.1-15.5-1.9
				c0,3.7,0,5.5,0,9.2c11.2,1.5,16.9,2.1,28.1,3.2c0,4.3,0,6.4,0,10.7c-16.3-1.5-24.4-2.5-40.6-4.9C91,313,91,302.8,90.9,282.5
				c16.2,2.5,24.4,3.4,40.7,5c0,4.4,0,6.6,0,10.9C120.3,297.3,114.7,296.7,103.4,295.2z"/>
			<path class="st10" d="M178.2,341.1c-1.7-4.8-2.5-7.3-4.2-12.1c-8.1-0.3-12.1-0.4-20.2-0.9c-1.7,4.7-2.6,7-4.3,11.7
				c-5.3-0.4-7.9-0.6-13.2-1c7.1-19.7,10.6-29.6,17.7-49.5c7.8,0.5,11.7,0.7,19.6,0.9c5.9,17,11.9,34.1,17.8,51.1
				C186.1,341.3,183.4,341.2,178.2,341.1z M163.8,300.5c-2.5,6.7-3.7,10.1-6.2,16.8c4.9,0.3,7.4,0.4,12.3,0.6
				C167.5,310.9,166.3,307.5,163.8,300.5z"/>
			<path class="st10" d="M228.8,340.6c-12.8,0.6-19.2,0.7-32,0.8c0-4.3,0-6.5,0-10.8c10.2,0,15.3-0.1,25.5-0.5c0-3.8,0-5.7,0-9.5
				c-7.6,0.3-11.4,0.4-19.1,0.5c-1.7,0-3.3-0.5-4.5-1.5c-1.3-1-1.9-2.3-1.9-3.9c0-8,0-11.9,0-19.9c0-1.5,0.6-2.7,1.9-3.8
				c1.3-1.1,2.8-1.6,4.6-1.6c12.8-0.1,19.2-0.3,31.9-1c0,4.3,0,6.5,0,10.8c-10.2,0.6-15.2,0.8-25.4,1c0,3.6,0,5.4,0,9
				c7.6-0.1,11.4-0.3,19.1-0.6c1.7-0.1,3.2,0.4,4.5,1.3c1.2,1,1.9,2.2,1.9,3.8c0,8.2,0,12.2,0,20.4c0,1.6-0.6,2.9-1.9,4
				C232,339.9,230.6,340.5,228.8,340.6z"/>
			<path class="st10" d="M283.8,335.8c-12.4,1.6-18.6,2.2-31,3.2c-1.7,0.1-3.2-0.2-4.5-1.2c-1.2-0.9-1.9-2.2-1.9-3.7
				c0-16.1,0-24.1,0.1-40.2c0-1.5,0.6-2.8,1.9-3.9c1.2-1.1,2.7-1.8,4.5-1.9c12.4-1,18.6-1.6,31-3.2c1.7-0.2,3.2,0.1,4.5,1
				c1.2,0.9,1.9,2.1,1.8,3.5c0,16.1-0.1,24.1-0.1,40.2c0,1.6-0.6,2.9-1.9,4.1C287,334.9,285.5,335.6,283.8,335.8z M259.3,327.6
				c7.3-0.7,10.9-1,18.1-1.9c0-11.7,0-17.5,0.1-29.2c-7.2,0.8-10.9,1.2-18.1,1.9C259.3,310.1,259.3,316,259.3,327.6z"/>
			<path class="st10" d="M349.3,324.4c-4.4,1-6.6,1.5-11,2.4c-9.6-11.8-14.3-17.8-24-29.9c0,13.8-0.1,20.7-0.1,34.5
				c-5,0.9-7.5,1.3-12.6,2c0.1-20.4,0.1-30.5,0.2-50.9c7.3-1.1,10.9-1.7,18.1-3c6.8,8.6,10.1,12.8,16.9,21.2
				c0-9.8,0.1-14.7,0.1-24.5c5.1-1,7.6-1.6,12.6-2.7C349.4,293.9,349.4,304,349.3,324.4z"/>
		</g>
	</g>
	<g>
		<g>
			<g>
				<path class="st5" d="M80.9,157.5c0.3,0.1,0.5,0.3,0.7,0.5c0.2,0.2,0.4,0.4,0.5,0.7c0.1,0.3,0.2,0.6,0.2,0.9v11
					c0,0.1,0,0.2-0.1,0.3c-0.1,0.1-0.2,0.1-0.3,0.1h-2.7c-0.1,0-0.2,0-0.3-0.1c-0.1-0.1-0.1-0.2-0.1-0.3v-9.9h-2.2v9.9
					c0,0.1,0,0.2-0.1,0.3c-0.1,0.1-0.1,0.1-0.3,0.1h-2.4c-0.1,0-0.2,0-0.3-0.1c-0.1-0.1-0.1-0.2-0.1-0.3v-9.9h-2.2v9.9
					c0,0.2-0.1,0.4-0.4,0.4h-2.7c-0.2,0-0.4-0.1-0.4-0.4v-12.9c0-0.2,0.1-0.4,0.4-0.4H80C80.3,157.3,80.6,157.4,80.9,157.5z"/>
				<path class="st5" d="M94.5,157.3c0.3,0,0.6,0.1,0.9,0.2c0.3,0.1,0.5,0.3,0.7,0.5c0.2,0.2,0.4,0.4,0.5,0.7
					c0.1,0.3,0.2,0.6,0.2,0.9v11c0,0.1,0,0.2-0.1,0.3c-0.1,0.1-0.2,0.1-0.3,0.1h-2.7c-0.1,0-0.2,0-0.3-0.1c-0.1-0.1-0.1-0.2-0.1-0.3
					v-3.5c0-0.1,0-0.2-0.1-0.3c-0.1-0.1-0.2-0.1-0.3-0.1h-3.8c-0.1,0-0.2,0-0.3,0.1c-0.1,0.1-0.1,0.2-0.1,0.3v3.5
					c0,0.2-0.1,0.4-0.4,0.4h-2.7c-0.2,0-0.4-0.1-0.4-0.4v-11c0-0.3,0.1-0.6,0.2-0.9c0.1-0.3,0.3-0.5,0.5-0.7
					c0.2-0.2,0.4-0.4,0.7-0.5c0.3-0.1,0.6-0.2,0.9-0.2H94.5z M93.3,163.8v-3.4h-4.6v3.4H93.3z"/>
				<path class="st5" d="M109,157.4c0.1,0.1,0.1,0.2,0.1,0.3v11c0,0.3-0.1,0.6-0.2,0.9c-0.1,0.3-0.3,0.5-0.5,0.7
					c-0.2,0.2-0.4,0.4-0.7,0.5c-0.3,0.1-0.6,0.2-0.9,0.2h-5.8c-0.3,0-0.6-0.1-0.9-0.2c-0.3-0.1-0.5-0.3-0.7-0.5
					c-0.2-0.2-0.4-0.4-0.5-0.7c-0.1-0.3-0.2-0.6-0.2-0.9v-4.2c0-0.2,0.1-0.4,0.4-0.4h2.7c0.2,0,0.4,0.1,0.4,0.4v2.8
					c0,0.1,0,0.2,0.1,0.3c0.1,0.1,0.2,0.1,0.3,0.1h2.8c0.1,0,0.2,0,0.3-0.1s0.1-0.1,0.1-0.3v-9.6c0-0.1,0-0.2,0.1-0.3
					c0.1-0.1,0.1-0.1,0.3-0.1h2.7C108.8,157.3,108.9,157.4,109,157.4z"/>
				<path class="st5" d="M121.2,157.3c0.3,0,0.6,0.1,0.9,0.2c0.3,0.1,0.5,0.3,0.7,0.5c0.2,0.2,0.4,0.4,0.5,0.7
					c0.1,0.3,0.2,0.6,0.2,0.9v9.1c0,0.3-0.1,0.6-0.2,0.9c-0.1,0.3-0.3,0.5-0.5,0.7c-0.2,0.2-0.4,0.4-0.7,0.5
					c-0.3,0.1-0.6,0.2-0.9,0.2h-6.9c-0.3,0-0.6-0.1-0.9-0.2c-0.3-0.1-0.5-0.3-0.7-0.5c-0.2-0.2-0.4-0.4-0.5-0.7
					c-0.1-0.3-0.2-0.6-0.2-0.9v-9.1c0-0.3,0.1-0.6,0.2-0.9c0.1-0.3,0.3-0.5,0.5-0.7c0.2-0.2,0.5-0.4,0.7-0.5
					c0.3-0.1,0.6-0.2,0.9-0.2H121.2z M120.1,160.6h-4.6v7h4.6V160.6z"/>
				<path class="st5" d="M138.4,170.6c0.1,0.1,0.1,0.2,0,0.2c0,0.1-0.1,0.1-0.2,0.1h-3.1c-0.1,0-0.2,0-0.3-0.1
					c-0.1-0.1-0.2-0.1-0.2-0.2l-2.1-3.7c0-0.1-0.1-0.1-0.1-0.1h-2.3c-0.1,0-0.1,0-0.1,0.1v3.6c0,0.2-0.1,0.4-0.4,0.4h-2.7
					c-0.2,0-0.4-0.1-0.4-0.4v-12.9c0-0.2,0.1-0.4,0.4-0.4h8.8c0.3,0,0.6,0.1,0.9,0.2c0.3,0.1,0.5,0.3,0.7,0.5
					c0.2,0.2,0.4,0.4,0.5,0.7c0.1,0.3,0.2,0.6,0.2,0.9v5.1c0,0.5-0.1,0.9-0.4,1.3c-0.3,0.4-0.7,0.7-1.1,0.8l-0.1,0
					c-0.1,0-0.1,0.1-0.1,0.1l0,0L138.4,170.6z M134.5,160.5h-4.7v3.3h4.7V160.5z"/>
				<path class="st5" d="M156.7,167.6c0.1,0,0.2,0,0.3,0.1c0.1,0.1,0.1,0.2,0.1,0.3v2.6c0,0.1,0,0.2-0.1,0.3
					c-0.1,0.1-0.2,0.1-0.3,0.1h-8.4c-0.2,0-0.4-0.1-0.4-0.4v-12.9c0-0.2,0.1-0.4,0.4-0.4h2.7c0.2,0,0.4,0.1,0.4,0.4v9.6
					c0,0.1,0,0.2,0.1,0.3c0.1,0.1,0.2,0.1,0.3,0.1H156.7z"/>
				<path class="st5" d="M169.3,157.4c0.1,0.1,0.1,0.2,0.1,0.3v1.1v0.6v0.8c0,0.1,0,0.2-0.1,0.3c-0.1,0.1-0.2,0.1-0.3,0.1h-1.4h-4
					h-1.1c-0.1,0-0.1,0-0.1,0.1v2.1c0,0.1,0,0.1,0.1,0.1h5.6c0.1,0,0.2,0,0.3,0.1c0.1,0.1,0.1,0.2,0.1,0.3v1.9c0,0.1,0,0.2-0.1,0.3
					s-0.1,0.1-0.3,0.1h-5.6c-0.1,0-0.1,0-0.1,0.1v1v0v1.1c0,0.1,0,0.1,0.1,0.1h0.8h4.4h1.3c0.1,0,0.2,0,0.3,0.1
					c0.1,0.1,0.1,0.2,0.1,0.3v0.8v1v0.6c0,0.1,0,0.2-0.1,0.3c-0.1,0.1-0.2,0.1-0.3,0.1h-1.1h-7.4h-1.2c-0.2,0-0.4-0.1-0.4-0.4v-0.7
					v-11.3v-0.9c0-0.1,0-0.2,0.1-0.3c0.1-0.1,0.2-0.1,0.3-0.1h1.4h7.6h0.6C169.1,157.3,169.2,157.4,169.3,157.4z"/>
				<path class="st5" d="M181.6,157.3c0.3,0,0.6,0.1,0.9,0.2c0.3,0.1,0.5,0.3,0.7,0.5c0.2,0.2,0.4,0.4,0.5,0.7
					c0.1,0.3,0.2,0.6,0.2,0.9v11c0,0.1,0,0.2-0.1,0.3c-0.1,0.1-0.2,0.1-0.3,0.1h-2.7c-0.1,0-0.2,0-0.3-0.1c-0.1-0.1-0.1-0.2-0.1-0.3
					v-3.5c0-0.1,0-0.2-0.1-0.3c-0.1-0.1-0.2-0.1-0.3-0.1h-3.8c-0.1,0-0.2,0-0.3,0.1c-0.1,0.1-0.1,0.2-0.1,0.3v3.5
					c0,0.2-0.1,0.4-0.4,0.4h-2.7c-0.2,0-0.4-0.1-0.4-0.4v-11c0-0.3,0.1-0.6,0.2-0.9c0.1-0.3,0.3-0.5,0.5-0.7
					c0.2-0.2,0.4-0.4,0.7-0.5c0.3-0.1,0.6-0.2,0.9-0.2H181.6z M180.4,163.8v-3.4h-4.6v3.4H180.4z"/>
				<path class="st5" d="M198.2,163.6c0.1,0.1,0.1,0.2,0.1,0.3v4.8c0,0.3-0.1,0.6-0.2,0.9c-0.1,0.3-0.3,0.5-0.5,0.7
					c-0.2,0.2-0.4,0.4-0.7,0.5c-0.3,0.1-0.6,0.2-0.9,0.2h-6.9c-0.3,0-0.6-0.1-0.9-0.2c-0.3-0.1-0.5-0.3-0.7-0.5
					c-0.2-0.2-0.4-0.4-0.5-0.7c-0.1-0.3-0.2-0.6-0.2-0.9v-9.1c0-0.3,0.1-0.6,0.2-0.9c0.1-0.3,0.3-0.5,0.5-0.7
					c0.2-0.2,0.5-0.4,0.7-0.5c0.3-0.1,0.6-0.2,0.9-0.2h8c0.1,0,0.2,0,0.3,0.1c0.1,0.1,0.1,0.2,0.1,0.3v2.6c0,0.1,0,0.2-0.1,0.3
					c-0.1,0.1-0.2,0.1-0.3,0.1h-6.5c-0.1,0-0.2,0-0.3,0.1c-0.1,0.1-0.1,0.1-0.1,0.3v6.3c0,0.1,0,0.2,0.1,0.3
					c0.1,0.1,0.2,0.1,0.3,0.1h3.8c0.1,0,0.2,0,0.3-0.1c0.1-0.1,0.1-0.1,0.1-0.3v-3.4c0-0.1,0-0.2,0.1-0.3c0.1-0.1,0.2-0.1,0.3-0.1
					h2.7C198,163.5,198.1,163.5,198.2,163.6z"/>
				<path class="st5" d="M212.5,157.4c0.1,0.1,0.1,0.2,0.1,0.3v11c0,0.3-0.1,0.6-0.2,0.9c-0.1,0.3-0.3,0.5-0.5,0.7
					c-0.2,0.2-0.4,0.4-0.7,0.5c-0.3,0.1-0.6,0.2-0.9,0.2h-6.9c-0.3,0-0.6-0.1-0.9-0.2c-0.3-0.1-0.5-0.3-0.7-0.5
					c-0.2-0.2-0.4-0.4-0.5-0.7c-0.1-0.3-0.2-0.6-0.2-0.9v-11c0-0.2,0.1-0.4,0.4-0.4h2.7c0.2,0,0.4,0.1,0.4,0.4v9.6
					c0,0.1,0,0.2,0.1,0.3c0.1,0.1,0.2,0.1,0.3,0.1h3.8c0.1,0,0.2,0,0.3-0.1s0.1-0.1,0.1-0.3v-9.6c0-0.1,0-0.2,0.1-0.3
					c0.1-0.1,0.2-0.1,0.3-0.1h2.7C212.4,157.3,212.5,157.4,212.5,157.4z"/>
				<path class="st5" d="M226,157.4c0.1,0.1,0.1,0.2,0.1,0.3v1.1v0.6v0.8c0,0.1,0,0.2-0.1,0.3c-0.1,0.1-0.2,0.1-0.3,0.1h-1.4h-4
					h-1.1c-0.1,0-0.1,0-0.1,0.1v2.1c0,0.1,0,0.1,0.1,0.1h5.6c0.1,0,0.2,0,0.3,0.1c0.1,0.1,0.1,0.2,0.1,0.3v1.9c0,0.1,0,0.2-0.1,0.3
					s-0.1,0.1-0.3,0.1h-5.6c-0.1,0-0.1,0-0.1,0.1v1v0v1.1c0,0.1,0,0.1,0.1,0.1h0.8h4.4h1.3c0.1,0,0.2,0,0.3,0.1
					c0.1,0.1,0.1,0.2,0.1,0.3v0.8v1v0.6c0,0.1,0,0.2-0.1,0.3c-0.1,0.1-0.2,0.1-0.3,0.1h-1.1h-7.4h-1.2c-0.2,0-0.4-0.1-0.4-0.4v-0.7
					v-11.3v-0.9c0-0.1,0-0.2,0.1-0.3c0.1-0.1,0.2-0.1,0.3-0.1h1.4h7.6h0.6C225.8,157.3,225.9,157.4,226,157.4z"/>
				<path class="st5" d="M246.8,157.3c0.1,0,0.2,0,0.3,0.1c0.1,0.1,0.1,0.2,0.1,0.3v12.9c0,0.1,0,0.2-0.1,0.3
					c-0.1,0.1-0.2,0.1-0.3,0.1h-2.7c-0.1,0-0.2,0-0.3-0.1c-0.1-0.1-0.1-0.2-0.1-0.3v-4.5c0-0.1,0-0.2-0.1-0.3s-0.1-0.1-0.3-0.1h-3.8
					c-0.1,0-0.2,0-0.3,0.1c-0.1,0.1-0.1,0.1-0.1,0.3v4.5c0,0.2-0.1,0.4-0.4,0.4h-2.7c-0.2,0-0.4-0.1-0.4-0.4v-12.9
					c0-0.2,0.1-0.4,0.4-0.4h2.7c0.2,0,0.4,0.1,0.4,0.4v4.4c0,0.2,0.1,0.4,0.4,0.4h3.8c0.1,0,0.2,0,0.3-0.1c0.1-0.1,0.1-0.2,0.1-0.3
					v-4.4c0-0.1,0-0.2,0.1-0.3c0.1-0.1,0.2-0.1,0.3-0.1H246.8z"/>
				<path class="st5" d="M259.4,157.3c0.3,0,0.6,0.1,0.9,0.2c0.3,0.1,0.5,0.3,0.7,0.5c0.2,0.2,0.4,0.4,0.5,0.7
					c0.1,0.3,0.2,0.6,0.2,0.9v11c0,0.1,0,0.2-0.1,0.3c-0.1,0.1-0.2,0.1-0.3,0.1h-2.7c-0.1,0-0.2,0-0.3-0.1c-0.1-0.1-0.1-0.2-0.1-0.3
					v-3.5c0-0.1,0-0.2-0.1-0.3c-0.1-0.1-0.2-0.1-0.3-0.1h-3.8c-0.1,0-0.2,0-0.3,0.1c-0.1,0.1-0.1,0.2-0.1,0.3v3.5
					c0,0.2-0.1,0.4-0.4,0.4h-2.7c-0.2,0-0.4-0.1-0.4-0.4v-11c0-0.3,0.1-0.6,0.2-0.9c0.1-0.3,0.3-0.5,0.5-0.7
					c0.2-0.2,0.4-0.4,0.7-0.5c0.3-0.1,0.6-0.2,0.9-0.2H259.4z M258.3,163.8v-3.4h-4.6v3.4H258.3z"/>
				<path class="st5" d="M268.2,160.7c-0.1,0.1-0.1,0.1-0.1,0.3v6.3c0,0.1,0,0.2,0.1,0.3s0.2,0.1,0.3,0.1h6.2c0.1,0,0.2,0,0.3,0.1
					c0.1,0.1,0.1,0.2,0.1,0.3v2.6c0,0.1,0,0.2-0.1,0.3c-0.1,0.1-0.2,0.1-0.3,0.1h-4.1h-3.3H267c-0.3,0-0.6-0.1-0.9-0.2
					c-0.3-0.1-0.5-0.3-0.7-0.5c-0.2-0.2-0.4-0.4-0.5-0.7c-0.1-0.3-0.2-0.6-0.2-0.9v-0.4v-1.4v-4.5v-1.3v-1.5c0-0.3,0.1-0.6,0.2-0.9
					c0.1-0.3,0.3-0.5,0.5-0.7c0.2-0.2,0.5-0.4,0.7-0.5c0.3-0.1,0.6-0.2,0.9-0.2h0.3h7.4c0.1,0,0.2,0,0.3,0.1
					c0.1,0.1,0.1,0.2,0.1,0.3v2.6c0,0.1,0,0.2-0.1,0.3c-0.1,0.1-0.2,0.1-0.3,0.1h-6.2C268.4,160.6,268.3,160.7,268.2,160.7z"/>
				<path class="st5" d="M285.9,163c0,0,0,0.1,0,0.1l4.5,7.4c0.1,0.1,0.1,0.2,0,0.2c0,0.1-0.1,0.1-0.2,0.1H287c-0.1,0-0.2,0-0.3-0.1
					c-0.1-0.1-0.2-0.1-0.2-0.2l-2.9-5.3c0-0.1-0.1-0.1-0.1,0l-1.6,1.8c-0.1,0.1-0.1,0.2-0.2,0.3c0,0.1-0.1,0.2-0.1,0.3v2.9
					c0,0.2-0.1,0.4-0.4,0.4h-2.7c-0.2,0-0.4-0.1-0.4-0.4v-12.9c0-0.2,0.1-0.4,0.4-0.4h2.7c0.2,0,0.4,0.1,0.4,0.4v5.8l5-5.9
					c0.1-0.1,0.2-0.1,0.3-0.2c0.1-0.1,0.2-0.1,0.3-0.1h3.2c0.1,0,0.2,0,0.2,0.1c0,0.1,0,0.1-0.1,0.2L285.9,163z"/>
				<path class="st5" d="M296.4,170.5c0,0.2-0.1,0.4-0.4,0.4h-2.7c-0.2,0-0.4-0.1-0.4-0.4v-12.9c0-0.2,0.1-0.4,0.4-0.4h2.7
					c0.2,0,0.4,0.1,0.4,0.4V170.5z"/>
				<path class="st5" d="M309.5,157.5c0.3,0.1,0.5,0.3,0.7,0.5c0.2,0.2,0.4,0.4,0.5,0.7c0.1,0.3,0.2,0.6,0.2,0.9v11
					c0,0.1,0,0.2-0.1,0.3c-0.1,0.1-0.2,0.1-0.3,0.1h-2.7c-0.1,0-0.2,0-0.3-0.1c-0.1-0.1-0.1-0.2-0.1-0.3V161c0-0.1,0-0.2-0.1-0.3
					c-0.1-0.1-0.2-0.1-0.3-0.1h-3.8c-0.1,0-0.2,0-0.3,0.1c-0.1,0.1-0.1,0.1-0.1,0.3v9.6c0,0.2-0.1,0.4-0.4,0.4h-2.7
					c-0.2,0-0.4-0.1-0.4-0.4v-12.9c0-0.2,0.1-0.4,0.4-0.4h8.8C308.9,157.3,309.2,157.4,309.5,157.5z"/>
				<path class="st5" d="M325.2,163.6c0.1,0.1,0.1,0.2,0.1,0.3v4.8c0,0.3-0.1,0.6-0.2,0.9c-0.1,0.3-0.3,0.5-0.5,0.7
					c-0.2,0.2-0.4,0.4-0.7,0.5c-0.3,0.1-0.6,0.2-0.9,0.2h-6.9c-0.3,0-0.6-0.1-0.9-0.2c-0.3-0.1-0.5-0.3-0.7-0.5
					c-0.2-0.2-0.4-0.4-0.5-0.7c-0.1-0.3-0.2-0.6-0.2-0.9v-9.1c0-0.3,0.1-0.6,0.2-0.9c0.1-0.3,0.3-0.5,0.5-0.7
					c0.2-0.2,0.5-0.4,0.7-0.5c0.3-0.1,0.6-0.2,0.9-0.2h8c0.1,0,0.2,0,0.3,0.1c0.1,0.1,0.1,0.2,0.1,0.3v2.6c0,0.1,0,0.2-0.1,0.3
					c-0.1,0.1-0.2,0.1-0.3,0.1h-6.5c-0.1,0-0.2,0-0.3,0.1s-0.1,0.1-0.1,0.3v6.3c0,0.1,0,0.2,0.1,0.3s0.2,0.1,0.3,0.1h3.8
					c0.1,0,0.2,0,0.3-0.1c0.1-0.1,0.1-0.1,0.1-0.3v-3.4c0-0.1,0-0.2,0.1-0.3c0.1-0.1,0.2-0.1,0.3-0.1h2.7
					C325,163.5,325.1,163.5,325.2,163.6z"/>
			</g>
		</g>
		<g>
			<path class="st5" d="M149.8,63.7c1.8,0.8,3.3,1.8,4.5,3.1c1.3,1.3,2.3,2.8,3.1,4.5c0.8,1.8,1.2,3.6,1.2,5.6v71.3
				c0,0.7-0.2,1.2-0.7,1.7c-0.5,0.4-1,0.7-1.7,0.7h-17.1c-0.7,0-1.2-0.2-1.6-0.7c-0.4-0.4-0.6-1-0.6-1.7V83.4h-13.7v64.8
				c0,0.7-0.2,1.2-0.6,1.7c-0.4,0.4-0.9,0.7-1.6,0.7h-15.5c-0.7,0-1.2-0.2-1.7-0.7c-0.5-0.4-0.7-1-0.7-1.7V83.4H89.5v64.8
				c0,1.6-0.8,2.3-2.3,2.3H70.2c-1.6,0-2.3-0.8-2.3-2.3V64.9c0-1.6,0.8-2.3,2.3-2.3h74C146.2,62.6,148.1,62.9,149.8,63.7z"/>
			<path class="st5" d="M149.8,63.7c1.8,0.8,3.3,1.8,4.5,3.1c1.3,1.3,2.3,2.8,3.1,4.5c0.8,1.8,1.2,3.6,1.2,5.6v6.4L137,83.4h-13.7
				h-20H89.5l-21.6-0.1V64.9c0-1.6,0.8-2.3,2.3-2.3h74C146.2,62.6,148.1,62.9,149.8,63.7z"/>
		</g>
		<g>
			<path class="st5" d="M233,129.2c0.7,0,1.3,0.2,1.7,0.7c0.4,0.5,0.7,1,0.7,1.7v16.6c0,0.7-0.2,1.2-0.7,1.7c-0.4,0.5-1,0.7-1.7,0.7
				h-58.4c-1.6,0-2.5-0.8-2.5-2.4V64.9c0-1.6,0.8-2.4,2.5-2.4h17.9c1.6,0,2.5,0.8,2.5,2.4v62c0,0.7,0.2,1.2,0.7,1.6
				c0.5,0.4,1.1,0.6,1.8,0.6H233z"/>
			<path class="st5" d="M194.8,150.6h-20.2c-1.6,0-2.5-0.8-2.5-2.4V64.9c0-1.6,0.8-2.4,2.5-2.4h17.9c1.6,0,2.5,0.8,2.5,2.4v62
				C194.9,127.6,194.8,150.6,194.8,150.6z"/>
		</g>
		<g>
			<path class="st5" d="M322.8,62.6c0.7,0,1.3,0.2,1.8,0.7c0.5,0.5,0.7,1,0.7,1.7v83.5c0,0.7-0.2,1.2-0.7,1.7
				c-0.5,0.5-1.1,0.7-1.8,0.7h-18.2c-0.7,0-1.3-0.2-1.8-0.7c-0.5-0.5-0.7-1-0.7-1.7v-29.1c0-0.7-0.2-1.2-0.7-1.6
				c-0.4-0.4-1-0.6-1.7-0.6h-25.5c-0.7,0-1.3,0.2-1.8,0.6c-0.5,0.4-0.7,1-0.7,1.6v29.1c0,1.6-0.8,2.4-2.5,2.4h-18
				c-1.7,0-2.5-0.8-2.5-2.4V65c0-1.6,0.8-2.4,2.5-2.4h18c1.7,0,2.5,0.8,2.5,2.4v28.2c0,1.6,0.8,2.4,2.5,2.4h25.5
				c0.7,0,1.3-0.2,1.7-0.7c0.4-0.5,0.7-1,0.7-1.7V65c0-0.7,0.2-1.2,0.7-1.7c0.5-0.5,1.1-0.7,1.8-0.7H322.8z"/>
			<path class="st5" d="M271.8,119.3v29.1c0,1.6-0.8,2.4-2.5,2.4h-18c-1.7,0-2.5-0.8-2.5-2.4V65c0-1.6,0.8-2.4,2.5-2.4h18
				c1.7,0,2.5,0.8,2.5,2.4v28.2C271.8,94.8,271.8,118.6,271.8,119.3z"/>
			<path class="st5" d="M322.8,62.6c0.7,0,1.3,0.2,1.8,0.7c0.5,0.5,0.7,1,0.7,1.7v83.5c0,0.7-0.2,1.2-0.7,1.7
				c-0.5,0.5-1.1,0.7-1.8,0.7h-18.2c-0.7,0-1.3-0.2-1.8-0.7c-0.5-0.5-0.7-1-0.7-1.7v-29.1c0-0.7,0-25.4,0-26.1V65
				c0-0.7,0.2-1.2,0.7-1.7c0.5-0.5,1.1-0.7,1.8-0.7H322.8z"/>
		</g>
	</g>
	<g>
		<path class="st5" d="M144.6,419.5v158.8c0,3-1.5,4.6-4.6,4.6h-33.1c-3,0-4.6-1.5-4.6-4.6V459.8c0-0.6-0.4-0.9-1.1-0.8
			c-0.7,0.1-1.6,0.5-2.5,1.3L87,469.4c-1,0.8-1.8,1-2.5,0.6c-0.7-0.4-1.1-1.2-1.1-2.5v-33.6c0-1.3,0.4-2.6,1.1-4
			c0.7-1.4,1.6-2.4,2.5-3.2l11.8-9.1c1-0.8,2.2-1.4,3.8-1.9c1.6-0.5,3-0.7,4.3-0.7h5.5H140C143,414.9,144.6,416.5,144.6,419.5z"/>
		<path class="st5" d="M299.5,491.9c-0.8,0.8-1.6,1.8-2.4,3c-0.8,1.2-1.2,2.4-1.2,3.7c0.2,1.3,0.6,2.6,1.4,3.8
			c0.8,1.3,1.6,2.4,2.4,3.4l2.2,2.4l1.9,2.6l3.1,3.4c0.8,1,1.5,2.2,2,3.7c0.6,1.5,0.8,2.9,0.8,4.2v22.3v10.3c0,0.8,0,1.6-0.1,2.3
			c-0.1,0.7-0.2,1.5-0.4,2.3c0,0.5-0.1,0.9-0.2,1.2c-0.2,1.3-0.6,2.6-1.2,4.1c-0.2,0.5-0.4,1-0.7,1.7c-0.5,1.1-1,2.2-1.7,3.4
			c-0.3,0.3-0.5,0.6-0.5,1c-0.2,0.2-0.3,0.2-0.4,0.2c-0.1,0-0.2,0.1-0.4,0.2c-0.3,0.6-0.6,1.1-1,1.4c-0.2,0.5-0.5,0.8-1,1
			c-0.2,0.3-0.5,0.7-1,1.2l-1,1c-0.3,0.2-0.6,0.4-1,0.7c-0.3,0.3-0.6,0.5-0.7,0.6c-0.2,0.1-0.4,0.3-0.7,0.6
			c-0.2,0.2-0.3,0.2-0.4,0.2c-0.1,0-0.2,0.1-0.4,0.2l-1,0.5c-1.3,0.8-2.7,1.6-4.2,2.3c-1.5,0.7-3.2,1.2-4.9,1.6h-1.2
			c-0.8,0.2-1.5,0.3-2.2,0.4c-0.6,0.1-1.4,0.1-2.2,0.1h-72.4c-1.3,0-2.2-0.1-2.9-0.2c-3.5-0.3-6.8-1.3-9.8-2.9c-3-1.6-5.7-3.6-8-6.1
			c-2.3-2.5-4.1-5.3-5.4-8.5c-1.3-3.2-1.9-6.6-1.9-10.3v-10.3v-22.3c0-1.3,0.3-2.7,0.8-4.2c0.6-1.5,1.2-2.8,2-3.7l2.9-3.4l2.2-2.6
			l2.2-2.4c0.8-1,1.6-2.1,2.4-3.4c0.8-1.3,1.2-2.6,1.2-3.8c0.2-1.3-0.2-2.5-1-3.7c-0.8-1.2-1.6-2.2-2.4-3l-2.4-3.1l-5.3-6.7
			c-0.8-1-1.4-2.2-1.9-3.7c-0.5-1.5-0.7-2.9-0.7-4.2V443c0-3.8,0.7-7.5,2.2-10.9c1.4-3.4,3.4-6.4,6-8.9c2.6-2.5,5.6-4.5,9-6
			c3.4-1.5,7.1-2.3,10.9-2.3h25.9h9.4h17.8h19.4c3.8,0,7.5,0.8,10.9,2.3c3.4,1.5,6.4,3.5,8.9,6c2.5,2.5,4.5,5.4,6,8.9
			c1.5,3.4,2.3,7.1,2.3,10.9v31.2c0,1.3-0.3,2.7-0.8,4.2c-0.6,1.5-1.2,2.8-2,3.7l-5,6.7L299.5,491.9z M269.8,451.4h-48.7v6.2v19.2
			v4.6h4.6h21.1h18.7h4.3v-4.6v-19.2V451.4z M269.8,513.3h-48.7v3.1v28.1v1.7h48.7v-1.7v-28.1V513.3z"/>
	</g>
</g>
<g id="Layer_3">
</g>
<g id="Layer_2">
</g>
</svg>
