<?xml version="1.0" encoding="UTF-8" standalone="no"?>
<!-- Created with Inkscape (http://www.inkscape.org/) -->

<svg
   xmlns:dc="http://purl.org/dc/elements/1.1/"
   xmlns:cc="http://creativecommons.org/ns#"
   xmlns:rdf="http://www.w3.org/1999/02/22-rdf-syntax-ns#"
   xmlns:svg="http://www.w3.org/2000/svg"
   xmlns="http://www.w3.org/2000/svg"
   xmlns:sodipodi="http://sodipodi.sourceforge.net/DTD/sodipodi-0.dtd"
   xmlns:inkscape="http://www.inkscape.org/namespaces/inkscape"
   id="svg2"
   version="1.1"
   inkscape:version="0.46+devel r21714"
   width="205"
   height="33"
   xml:space="preserve"
   sodipodi:docname="BAHLogo.svg"
   inkscape:output_extension="org.inkscape.output.svg.inkscape"
   style="display:inline"><metadata
     id="metadata8"><rdf:RDF><cc:Work
         rdf:about=""><dc:format>image/svg+xml</dc:format><dc:type
           rdf:resource="http://purl.org/dc/dcmitype/StillImage" /><dc:title></dc:title></cc:Work></rdf:RDF></metadata><defs
     id="defs6"><inkscape:perspective
       sodipodi:type="inkscape:persp3d"
       inkscape:vp_x="0 : 0.5 : 1"
       inkscape:vp_y="0 : 1000 : 0"
       inkscape:vp_z="1 : 0.5 : 1"
       inkscape:persp3d-origin="0.5 : 0.33333333 : 1"
       id="perspective10" /><clipPath
       clipPathUnits="userSpaceOnUse"
       id="clipPath20"><path
         d="M 0,0 194,0 194,194 0,194 0,0 z"
         id="path22" /></clipPath><inkscape:perspective
       id="perspective2896"
       inkscape:persp3d-origin="0.5 : 0.33333333 : 1"
       inkscape:vp_z="1 : 0.5 : 1"
       inkscape:vp_y="0 : 1000 : 0"
       inkscape:vp_x="0 : 0.5 : 1"
       sodipodi:type="inkscape:persp3d" /><inkscape:perspective
       id="perspective3017"
       inkscape:persp3d-origin="0.5 : 0.33333333 : 1"
       inkscape:vp_z="1 : 0.5 : 1"
       inkscape:vp_y="0 : 1000 : 0"
       inkscape:vp_x="0 : 0.5 : 1"
       sodipodi:type="inkscape:persp3d" /></defs><sodipodi:namedview
     pagecolor="#ffffff"
     bordercolor="#666666"
     borderopacity="1"
     objecttolerance="10"
     gridtolerance="10"
     guidetolerance="10"
     inkscape:pageopacity="0"
     inkscape:pageshadow="2"
     inkscape:window-width="1449"
     inkscape:window-height="862"
     id="namedview4"
     showgrid="false"
     inkscape:zoom="5.3945641"
     inkscape:cx="87.670257"
     inkscape:cy="16.5"
     inkscape:window-x="0"
     inkscape:window-y="0"
     inkscape:window-maximized="0"
     inkscape:current-layer="g12" /><g
     id="g12"
     inkscape:groupmode="layer"
     inkscape:label="Unbenannt 2"
     transform="matrix(1.25,0,0,-1.25,-14.96282,150.46422)"
     style="display:inline"
     sodipodi:insensitive="true"><g
       id="g14" /><path
       sodipodi:nodetypes="ccc"
       d="m 0.26,16.567 0,192.756 0,-192.756 z"
       style="fill:#ffffff;fill-opacity:1;fill-rule:nonzero;stroke:none"
       id="path24" /><g
       id="g2902"
       transform="matrix(0.84027869,0,0,0.84027869,10.16646,22.438167)"><path
         id="path26"
         style="fill:#100e0d;fill-opacity:1;fill-rule:evenodd;stroke:none"
         d="m 15.091,95.787 0,4.762 2.876,0 c 0.718,0 1.527,0 2.066,-0.449 0.629,-0.449 0.988,-1.258 0.988,-1.977 0,-0.719 -0.269,-1.348 -0.808,-1.797 -0.539,-0.449 -1.348,-0.539 -2.067,-0.539 l -3.055,0 z m 0,5.93 0,4.223 2.876,0 c 0.629,0 1.167,0 1.707,-0.27 0.629,-0.359 0.988,-0.988 0.988,-1.707 0,-0.629 -0.359,-1.347 -0.809,-1.707 -0.629,-0.539 -1.527,-0.539 -2.336,-0.539 l -2.426,0 z m 3.145,-7.188 c 1.168,0 2.156,0.09 3.055,0.809 0.898,0.718 1.258,1.617 1.258,2.695 0,1.618 -1.078,2.876 -2.606,3.235 1.348,0.359 2.246,1.437 2.246,2.785 0,1.078 -0.539,1.977 -1.347,2.516 -0.899,0.539 -1.618,0.629 -2.606,0.629 l -4.672,0 0,-12.669 4.672,0" /><path
         id="path28"
         style="fill:#100e0d;fill-opacity:1;fill-rule:evenodd;stroke:none"
         d="m 25.514,99.291 c 0,0.809 0.09,1.707 0.449,2.336 0.449,0.809 1.258,1.348 2.157,1.348 0.808,0 1.617,-0.449 2.066,-1.078 0.449,-0.809 0.539,-1.707 0.539,-2.606 0,-0.808 -0.09,-1.617 -0.449,-2.426 -0.449,-0.809 -1.168,-1.348 -2.156,-1.348 -0.899,0 -1.708,0.45 -2.067,1.168 -0.449,0.809 -0.539,1.798 -0.539,2.606 z m -1.617,0 c 0,-2.426 1.258,-4.942 4.043,-4.942 2.875,0 4.402,2.336 4.402,4.942 0,2.426 -1.347,4.852 -4.132,4.852 -2.786,0 -4.313,-2.246 -4.313,-4.852" /><path
         id="path30"
         style="fill:#100e0d;fill-opacity:1;fill-rule:evenodd;stroke:none"
         d="m 35.308,99.291 c 0,0.809 0.09,1.707 0.449,2.336 0.359,0.809 1.258,1.348 2.156,1.348 0.809,0 1.528,-0.449 1.977,-1.078 0.539,-0.809 0.629,-1.707 0.629,-2.606 0,-0.808 -0.09,-1.617 -0.449,-2.426 -0.45,-0.809 -1.258,-1.348 -2.157,-1.348 -0.898,0 -1.707,0.45 -2.066,1.168 -0.449,0.809 -0.539,1.798 -0.539,2.606 z m -1.618,0 c 0,-2.426 1.258,-4.942 4.044,-4.942 2.875,0 4.313,2.336 4.313,4.942 0,2.426 -1.348,4.852 -4.044,4.852 -2.785,0 -4.313,-2.246 -4.313,-4.852" /><path
         id="path32"
         style="fill:#100e0d;fill-opacity:1;fill-rule:evenodd;stroke:none"
         d="m 49.863,103.065 -5.121,-7.368 5.121,0 0,-1.168 -6.918,0 0,1.168 5.032,7.098 -4.583,0 0,1.079 6.469,0 0,-0.809" /><path
         id="path34"
         style="fill:#100e0d;fill-opacity:1;fill-rule:nonzero;stroke:none"
         d="m 58.04,90.396 1.168,0 0,19.498 -1.168,0 0,-19.498 z" /><path
         id="path36"
         style="fill:#100e0d;fill-opacity:1;fill-rule:evenodd;stroke:none"
         d="m 73.225,99.471 -3.864,0 1.887,6.02 1.977,-6.02 z m -0.989,7.727 -1.707,0 -4.133,-12.669 1.348,0 1.168,3.684 4.672,0 1.258,-3.684 1.527,0 -4.133,12.669" /><path
         id="path38"
         style="fill:#100e0d;fill-opacity:1;fill-rule:evenodd;stroke:none"
         d="m 87.062,100.19 c 0,1.437 1.078,2.875 2.695,2.875 1.618,0 2.606,-1.348 2.516,-2.875 l -5.211,0 z m 5.301,-2.876 c -0.449,-1.078 -1.348,-1.797 -2.516,-1.797 -0.988,0 -2.067,0.629 -2.516,1.528 -0.359,0.629 -0.359,1.348 -0.359,2.066 l 6.828,0 c 0.09,2.606 -1.167,5.032 -4.043,5.032 -2.785,0 -4.313,-2.336 -4.313,-4.942 0,-2.605 1.438,-4.852 4.223,-4.852 1.797,0 3.415,1.078 4.044,2.786 l -1.348,0.179" /><path
         id="path40"
         style="fill:#100e0d;fill-opacity:1;fill-rule:evenodd;stroke:none"
         d="m 97.215,102.346 0.09,0 c 0.449,0.988 1.617,1.797 2.875,1.797 1.168,0 2.067,-0.449 2.696,-1.438 0.449,-0.808 0.359,-2.066 0.359,-2.965 l 0,-5.211 -1.438,0 0,5.84 c 0,0.54 0.09,1.169 -0.179,1.707 -0.36,0.54 -0.989,0.809 -1.618,0.809 -0.808,0 -1.437,-0.359 -1.977,-0.898 -0.539,-0.719 -0.718,-1.618 -0.718,-2.516 l 0,-4.942 -1.438,0 0,9.345 1.348,0 0,-1.528" /><path
         id="path42"
         style="fill:#100e0d;fill-opacity:1;fill-rule:evenodd;stroke:none"
         d="m 183.292,102.346 0,0 c 0.449,0.988 1.617,1.797 2.875,1.797 1.168,0 2.066,-0.449 2.696,-1.438 0.449,-0.808 0.449,-2.066 0.449,-2.965 l 0,-5.211 -1.438,0 0,5.84 c 0,0.54 0,1.169 -0.269,1.707 -0.36,0.54 -0.989,0.809 -1.618,0.809 -0.719,0 -1.437,-0.359 -1.886,-0.898 -0.629,-0.719 -0.809,-1.618 -0.809,-2.516 l 0,-4.942 -1.438,0 0,9.345 1.438,0 0,-1.528" /><path
         id="path44"
         style="fill:#100e0d;fill-opacity:1;fill-rule:nonzero;stroke:none"
         d="m 111.501,90.396 1.168,0 0,19.498 -1.168,0 0,-19.498 z" /><path
         id="path46"
         style="fill:#100e0d;fill-opacity:1;fill-rule:evenodd;stroke:none"
         d="m 128.932,94.529 0,6.11 -5.84,0 0,-6.11 -1.438,0 0,12.669 1.438,0 0,-5.391 5.84,0 0,5.391 1.527,0 0,-12.669 -1.527,0" /><path
         id="path48"
         style="fill:#100e0d;fill-opacity:1;fill-rule:evenodd;stroke:none"
         d="m 138.816,98.662 c 0,-1.617 -1.168,-3.145 -2.875,-3.145 -1.169,0 -2.067,0.45 -2.067,1.618 0,1.886 2.067,2.156 3.774,2.156 l 1.168,0 0,-0.629 z m -1.168,1.707 c -1.168,0 -2.516,-0.089 -3.505,-0.539 -0.988,-0.449 -1.707,-1.527 -1.707,-2.605 0,-1.887 1.438,-2.876 3.235,-2.876 1.437,0 2.516,0.629 3.145,1.977 l 0.179,-1.797 1.438,0 c -0.18,0.629 -0.269,1.348 -0.269,1.977 l 0,3.684 c 0,0.988 0,2.246 -0.719,3.055 -0.719,0.808 -1.797,0.898 -2.786,0.898 -1.707,0 -3.683,-0.629 -3.953,-2.605 l 1.258,-0.18 c 0.269,1.258 1.437,1.617 2.516,1.617 1.617,0 2.336,-0.539 2.336,-2.246 l 0,-0.36 -1.168,0" /><path
         id="path50"
         style="fill:#100e0d;fill-opacity:1;fill-rule:evenodd;stroke:none"
         d="m 144.027,103.874 0,-1.618 c 0.449,0.989 1.528,1.887 2.786,1.887 1.347,0 2.425,-0.988 2.605,-2.067 0.539,1.169 1.617,2.067 3.055,2.067 0.988,0 1.887,-0.539 2.336,-1.348 0.449,-0.808 0.449,-1.797 0.449,-2.695 l 0,-5.571 -1.437,0 0,5.571 c 0,0.629 0,1.348 -0.27,1.887 -0.269,0.629 -0.898,0.988 -1.527,0.988 -0.719,0 -1.438,-0.449 -1.797,-1.078 -0.539,-0.719 -0.539,-1.438 -0.539,-2.336 l 0,-5.032 -1.438,0 0,5.93 c 0,0.539 0,1.168 -0.27,1.617 -0.359,0.54 -0.988,0.899 -1.617,0.899 -0.629,0 -1.258,-0.449 -1.707,-0.899 -0.449,-0.628 -0.539,-1.437 -0.539,-2.156 l 0,-5.391 -1.438,0 0,9.345 1.348,0" /><path
         id="path52"
         style="fill:#100e0d;fill-opacity:1;fill-rule:evenodd;stroke:none"
         d="m 157.864,103.874 1.438,0 0,-9.344 -1.438,0 0,9.344 z m -0.09,3.324 1.617,0 0,-1.617 -1.617,0 0,1.617 z" /><path
         id="path54"
         style="fill:#100e0d;fill-opacity:1;fill-rule:nonzero;stroke:none"
         d="m 162.267,94.529 1.348,0 0,12.669 -1.348,0 0,-12.669 z" /><path
         id="path56"
         style="fill:#100e0d;fill-opacity:1;fill-rule:nonzero;stroke:none"
         d="m 77.807,94.529 1.348,0 0,12.669 -1.348,0 0,-12.669 z" /><path
         id="path58"
         style="fill:#100e0d;fill-opacity:1;fill-rule:nonzero;stroke:none"
         d="m 82.12,94.529 1.348,0 0,12.669 -1.348,0 0,-12.669 z" /><path
         id="path60"
         style="fill:#100e0d;fill-opacity:1;fill-rule:evenodd;stroke:none"
         d="m 170.892,94.529 -1.347,-0.18 c -2.067,0 -2.696,1.258 -2.696,3.055 l 0,5.391 -1.617,0 0,1.168 1.617,0 0,2.336 1.438,0.09 0,-2.426 2.066,0 0,-1.168 -2.066,0 0,-5.57 c 0,-1.079 0.359,-1.708 1.527,-1.708 l 1.078,0.09 0,-1.078" /><path
         id="path62"
         style="fill:#100e0d;fill-opacity:1;fill-rule:evenodd;stroke:none"
         d="m 173.229,99.291 c 0,0.809 0.089,1.707 0.449,2.336 0.359,0.809 1.168,1.348 2.066,1.348 0.899,0 1.618,-0.449 2.067,-1.078 0.539,-0.809 0.629,-1.707 0.629,-2.606 0,-0.808 -0.09,-1.617 -0.449,-2.426 -0.45,-0.809 -1.258,-1.348 -2.247,-1.348 -0.808,0 -1.617,0.45 -1.976,1.168 -0.45,0.809 -0.539,1.798 -0.539,2.606 z m -1.618,0 c 0,-2.426 1.258,-4.942 4.043,-4.942 2.876,0 4.313,2.336 4.313,4.942 0,2.426 -1.347,4.852 -4.043,4.852 -2.875,0 -4.313,-2.246 -4.313,-4.852" /></g></g></svg>