<svg id="Layer_1" data-name="Layer 1" xmlns="http://www.w3.org/2000/svg" viewBox="0 0 106.67 38.67"><defs><style>.cls-1{fill:#dbba57;}.cls-2{fill:#fff;}</style></defs><title>Artboard 2 copy</title><path class="cls-1" d="M69.74,27.73a8.39,8.39,0,0,1-2.44.76c-2,0-10.52-2.49-11.86-2.49a1.17,1.17,0,0,0-.79.39c-1,1.27-2.34,3.25-2.65,3.25s-.89-.48-1.36-1.15a46.26,46.26,0,0,1-4.73-9.17s3.66-2.39,3.48-4a2.72,2.72,0,0,0-2.57-2.41c1.21,2.84-.68,4-3,5.63a.7.7,0,0,0-.36.64c0,1.06,3.18,7.45,5.45,10.77a4.36,4.36,0,0,0,2.77,1.8c.84,0,4.12-3.93,4.88-3.93s7.77,3.21,10.28,3.21c1.05,0,3.45-2.58,3.45-2.77a.72.72,0,0,0-.53-.55"/><path class="cls-1" d="M45.52,8.58a2.2,2.2,0,0,0,.1-.55C45.62,7.67,44.35,7,44,7s-.43.14-.53.5c-.38,1.26-2,7.34-2.9,10.91-.22.34-.39.66-.39.66-1.6,2.56-3.35,4-4.62,4a2,2,0,0,1-2-2.18c0-2.2,1.82-6.24,3-6.24a.49.49,0,0,1,.5.43c0,.53-.62,1.53-.62,2s.79.93,1.38.93S39,16,39,15.34c0-.88-1.55-2.08-2.94-2.08-2.09,0-4.12,3.09-4.73,6.06-1.13,2-2.31,3.74-3,3.74-.27,0-.58-.31-.58-.81,0-1.2,1.68-6.41,1.68-7.15s-1.2-.69-1.82-.69a6.3,6.3,0,0,0-2.89-1.15c-1.42,0-3.25,3-4.15,5.82-1.16,2.13-2.42,4-3.13,4-.26,0-.59-.35-.59-.81,0-1.27,1.6-6,1.6-7.12a2.31,2.31,0,0,0-1.89-1.87,6,6,0,0,0-3,1.22l1.61-5.9A2.74,2.74,0,0,0,15.24,8C15.24,7.67,14,7,13.62,7s-.43.14-.53.5C12.45,9.6,9,22.54,9,23.47c0,.48,1.15,1,1.55,1s.43-.24.51-.55c.16-.74,1.24-5.07,1.88-7.1a3.29,3.29,0,0,1,2.32-1.92.84.84,0,0,1,.74.77c0,.91-1.48,5.52-1.48,7.05,0,.86,1.84,1.75,2.66,1.75,1.11,0,2-.92,2.83-2.21A3.37,3.37,0,0,0,22.7,24.5c1.22,0,2.65-1.53,2.65-1.53a3.32,3.32,0,0,0,2.7,1.53c1.26,0,2.24-1.17,3.18-2.72a4.76,4.76,0,0,0,3.88,2.72c1.73,0,3.25-1.09,4.65-2.84a15.19,15.19,0,0,0-.35,1.81c0,.48,1.15,1,1.56,1s.43-.24.5-.55c.17-.74,1.1-4.24,1.81-6.86l.6-2.35s1.1-4.15,1.64-6.16M25.35,20.84c-.67,1.39-1.6,2.08-2.08,2.08a1,1,0,0,1-.81-1c0-2.3,1.84-7,3.13-7,.38,0,1.2.41,1.2.79a25.42,25.42,0,0,1-1.44,5.14"/><path class="cls-2" d="M52.43,23.12a5,5,0,0,1-1.34-3.68v-12a.29.29,0,0,1,.09-.21.25.25,0,0,1,.2-.09h2.87a.29.29,0,0,1,.21.09.32.32,0,0,1,.08.21V19.78a2,2,0,0,0,.39,1.27,1.26,1.26,0,0,0,1,.49,1.22,1.22,0,0,0,1-.49,2,2,0,0,0,.38-1.27V7.47a.32.32,0,0,1,.08-.21.29.29,0,0,1,.21-.09h2.86a.26.26,0,0,1,.21.09.29.29,0,0,1,.09.21v12a5.08,5.08,0,0,1-1.34,3.68,5.18,5.18,0,0,1-7,0"/><path class="cls-2" d="M63.06,24.15a.29.29,0,0,1-.09-.21V7.39a.29.29,0,0,1,.09-.21.28.28,0,0,1,.21-.08h2.81a.35.35,0,0,1,.35.22l2.12,4.58q.08.13.15,0l2.13-4.58a.35.35,0,0,1,.34-.22H74a.26.26,0,0,1,.21.08.29.29,0,0,1,.09.21V23.94a.29.29,0,0,1-.09.21.3.3,0,0,1-.21.08H71.15a.32.32,0,0,1-.21-.08.28.28,0,0,1-.08-.21V13.36c0-.06,0-.1-.07-.11s-.06,0-.08.09L68.8,17.13c-.07.15-.12.22-.17.22s-.09-.07-.17-.22l-1.89-3.84s-.06-.07-.1-.07,0,0,0,.09V23.94a.29.29,0,0,1-.09.21.32.32,0,0,1-.21.08H63.27a.32.32,0,0,1-.21-.08"/><path class="cls-2" d="M85,23a5.18,5.18,0,0,1-3.56,1.22H76.8a.32.32,0,0,1-.21-.08.29.29,0,0,1-.09-.21V7.39a.29.29,0,0,1,.09-.21.28.28,0,0,1,.21-.08h4.09a5.75,5.75,0,0,1,3.83,1.17,4.34,4.34,0,0,1,1.38,3.5,3.92,3.92,0,0,1-1.66,3.53c-.07,0-.08.1,0,.14a4.67,4.67,0,0,1,1.94,4.07A4.46,4.46,0,0,1,85,23M80,10.18V14c0,.09,0,.13.12.13H81a1.66,1.66,0,0,0,1.3-.53,2.17,2.17,0,0,0,.46-1.48,2.34,2.34,0,0,0-.45-1.54A1.61,1.61,0,0,0,81,10.06h-.88a.11.11,0,0,0-.12.12m2.47,10.48A2.62,2.62,0,0,0,82.89,19a2.85,2.85,0,0,0-.46-1.72,1.46,1.46,0,0,0-1.25-.64h-1.1c-.08,0-.12,0-.12.13v4.35c0,.09,0,.12.12.12h1.08a1.54,1.54,0,0,0,1.27-.58"/><path class="cls-2" d="M89.21,23.12a4.75,4.75,0,0,1-1.33-3.51V11.67A4.64,4.64,0,0,1,89.21,8.2a5.5,5.5,0,0,1,7.1,0,4.61,4.61,0,0,1,1.34,3.47v.27a.31.31,0,0,1-.3.3l-2.86.12c-.2,0-.29-.09-.29-.27v-.64a1.65,1.65,0,0,0-.4-1.15,1.34,1.34,0,0,0-1-.44,1.33,1.33,0,0,0-1,.44,1.69,1.69,0,0,0-.39,1.15V19.9A1.64,1.64,0,0,0,91.72,21a1.36,1.36,0,0,0,1,.43,1.37,1.37,0,0,0,1-.43,1.6,1.6,0,0,0,.4-1.14v-.66a.27.27,0,0,1,.29-.29l2.86.12q.3,0,.3.27v.27a4.69,4.69,0,0,1-1.35,3.51,5.45,5.45,0,0,1-7.09,0"/></svg>