<svg xmlns="http://www.w3.org/2000/svg" viewBox="0 0 803.92 196.08"><defs><style>.cls-1{fill:none;}.cls-2{fill:#fff;}.cls-3{fill:#debd3f;}</style></defs><g id="Layer_1" data-name="Layer 1"><polygon class="cls-1" points="647.06 78.43 647.06 98.04 647.06 117.65 647.06 137.25 666.67 137.25 686.28 137.25 686.28 117.65 686.28 98.04 686.28 78.43 666.67 78.43 647.06 78.43"/><polygon class="cls-1" points="686.28 19.61 666.67 19.61 647.06 19.61 647.06 39.22 647.06 58.82 666.67 58.82 686.28 58.82 686.28 39.22 686.28 19.61"/><polygon class="cls-1" points="137.26 137.25 156.86 137.25 156.86 117.65 137.26 117.65 117.65 117.65 117.65 137.25 137.26 137.25"/><rect class="cls-2" x="784.32" y="117.65" width="19.6" height="19.6"/><rect class="cls-2" x="784.32" y="19.61" width="19.6" height="19.61"/><rect class="cls-2" x="764.71" y="137.25" width="19.61" height="19.61"/><rect class="cls-2" x="764.71" width="19.61" height="19.61"/><rect class="cls-2" x="745.1" y="137.25" width="19.61" height="19.61"/><rect class="cls-2" x="745.1" width="19.61" height="19.61"/><rect class="cls-2" x="725.49" y="117.65" width="19.61" height="19.6"/><rect class="cls-2" x="725.49" y="98.04" width="19.61" height="19.61"/><rect class="cls-2" x="725.49" y="78.43" width="19.61" height="19.61"/><rect class="cls-2" x="725.49" y="58.82" width="19.61" height="19.61"/><rect class="cls-2" x="725.49" y="39.22" width="19.61" height="19.6"/><rect class="cls-2" x="725.49" y="19.61" width="19.61" height="19.61"/><rect class="cls-2" x="686.28" y="117.65" width="19.6" height="19.6"/><rect class="cls-2" x="686.28" y="98.04" width="19.6" height="19.61"/><rect class="cls-2" x="686.28" y="78.43" width="19.6" height="19.61"/><rect class="cls-2" x="686.28" y="39.22" width="19.6" height="19.6"/><rect class="cls-2" x="686.28" y="19.61" width="19.6" height="19.61"/><rect class="cls-2" x="666.67" y="137.25" width="19.61" height="19.61"/><rect class="cls-2" x="666.67" y="58.82" width="19.61" height="19.61"/><rect class="cls-2" x="666.67" width="19.61" height="19.61"/><rect class="cls-2" x="647.06" y="137.25" width="19.61" height="19.61"/><rect class="cls-2" x="647.06" y="58.82" width="19.61" height="19.61"/><rect class="cls-2" x="647.06" width="19.61" height="19.61"/><rect class="cls-2" x="627.45" y="137.25" width="19.61" height="19.61"/><rect class="cls-2" x="627.45" y="117.65" width="19.61" height="19.6"/><rect class="cls-2" x="627.45" y="98.04" width="19.61" height="19.61"/><rect class="cls-2" x="627.45" y="78.43" width="19.61" height="19.61"/><rect class="cls-2" x="627.45" y="58.82" width="19.61" height="19.61"/><rect class="cls-2" x="627.45" y="39.22" width="19.61" height="19.6"/><rect class="cls-2" x="627.45" y="19.61" width="19.61" height="19.61"/><rect class="cls-2" x="627.45" width="19.61" height="19.61"/><rect class="cls-2" x="588.24" y="137.25" width="19.6" height="19.61"/><rect class="cls-2" x="588.24" y="117.65" width="19.6" height="19.6"/><rect class="cls-2" x="588.24" y="98.04" width="19.6" height="19.61"/><rect class="cls-2" x="588.24" y="78.43" width="19.6" height="19.61"/><rect class="cls-2" x="588.24" y="58.82" width="19.6" height="19.61"/><rect class="cls-2" x="588.24" y="39.22" width="19.6" height="19.6"/><rect class="cls-2" x="588.24" y="19.61" width="19.6" height="19.61"/><rect class="cls-2" x="588.24" width="19.6" height="19.61"/><rect class="cls-3" x="568.63" y="176.47" width="19.61" height="19.61"/><rect class="cls-2" x="568.63" y="19.61" width="19.61" height="19.61"/><rect class="cls-3" x="549.02" y="176.47" width="19.61" height="19.61"/><rect class="cls-2" x="549.02" y="39.22" width="19.61" height="19.6"/><rect class="cls-3" x="529.41" y="176.47" width="19.61" height="19.61"/><rect class="cls-2" x="529.41" y="19.61" width="19.61" height="19.61"/><rect class="cls-3" x="509.81" y="176.47" width="19.6" height="19.61"/><rect class="cls-2" x="509.81" y="137.25" width="19.6" height="19.61"/><rect class="cls-2" x="509.81" y="117.65" width="19.6" height="19.6"/><rect class="cls-2" x="509.81" y="98.04" width="19.6" height="19.61"/><rect class="cls-2" x="509.81" y="78.43" width="19.6" height="19.61"/><rect class="cls-2" x="509.81" y="58.82" width="19.6" height="19.61"/><rect class="cls-2" x="509.81" y="39.22" width="19.6" height="19.6"/><rect class="cls-2" x="509.81" y="19.61" width="19.6" height="19.61"/><rect class="cls-2" x="509.81" width="19.6" height="19.61"/><rect class="cls-3" x="490.2" y="176.47" width="19.61" height="19.61"/><rect class="cls-3" x="470.59" y="176.47" width="19.61" height="19.61"/><rect class="cls-2" x="470.59" y="117.65" width="19.61" height="19.6"/><rect class="cls-2" x="470.59" y="98.04" width="19.61" height="19.61"/><rect class="cls-2" x="470.59" y="78.43" width="19.61" height="19.61"/><rect class="cls-2" x="470.59" y="58.82" width="19.61" height="19.61"/><rect class="cls-2" x="470.59" y="39.22" width="19.61" height="19.6"/><rect class="cls-2" x="470.59" y="19.61" width="19.61" height="19.61"/><rect class="cls-2" x="470.59" width="19.61" height="19.61"/><rect class="cls-3" x="450.98" y="176.47" width="19.61" height="19.61"/><rect class="cls-2" x="450.98" y="137.25" width="19.61" height="19.61"/><rect class="cls-3" x="431.37" y="176.47" width="19.61" height="19.61"/><rect class="cls-2" x="431.37" y="137.25" width="19.61" height="19.61"/><rect class="cls-3" x="411.77" y="176.47" width="19.6" height="19.61"/><rect class="cls-2" x="411.77" y="117.65" width="19.6" height="19.6"/><rect class="cls-2" x="411.77" y="98.04" width="19.6" height="19.61"/><rect class="cls-2" x="411.77" y="78.43" width="19.6" height="19.61"/><rect class="cls-2" x="411.77" y="58.82" width="19.6" height="19.61"/><rect class="cls-2" x="411.77" y="39.22" width="19.6" height="19.6"/><rect class="cls-2" x="411.77" y="19.61" width="19.6" height="19.61"/><rect class="cls-2" x="411.77" width="19.6" height="19.61"/><rect class="cls-3" x="392.16" y="156.86" width="19.61" height="19.61"/><rect class="cls-3" x="372.55" y="137.25" width="19.61" height="19.61"/><rect class="cls-3" x="372.55" y="117.65" width="19.61" height="19.6"/><rect class="cls-3" x="372.55" y="78.43" width="19.61" height="19.61"/><rect class="cls-3" x="372.55" y="58.82" width="19.61" height="19.61"/><rect class="cls-3" x="352.94" y="98.04" width="19.61" height="19.61"/><rect class="cls-3" x="333.33" y="98.04" width="19.61" height="19.61"/><rect class="cls-3" x="313.73" y="137.25" width="19.6" height="19.61"/><rect class="cls-3" x="313.73" y="117.65" width="19.6" height="19.6"/><rect class="cls-3" x="313.73" y="98.04" width="19.6" height="19.61"/><rect class="cls-3" x="313.73" y="78.43" width="19.6" height="19.61"/><rect class="cls-3" x="313.73" y="58.82" width="19.6" height="19.61"/><rect class="cls-3" x="313.73" y="39.22" width="19.6" height="19.6"/><rect class="cls-3" x="313.73" y="19.61" width="19.6" height="19.61"/><rect class="cls-3" x="313.73" width="19.6" height="19.61"/><rect class="cls-3" x="294.12" y="117.65" width="19.61" height="19.6"/><rect class="cls-3" x="274.51" y="137.25" width="19.61" height="19.61"/><rect class="cls-3" x="254.9" y="137.25" width="19.61" height="19.61"/><rect class="cls-3" x="254.9" y="78.43" width="19.61" height="19.61"/><rect class="cls-3" x="235.3" y="137.25" width="19.6" height="19.61"/><rect class="cls-3" x="235.3" y="58.82" width="19.6" height="19.61"/><rect class="cls-3" x="215.69" y="137.25" width="19.61" height="19.61"/><rect class="cls-3" x="215.69" y="58.82" width="19.61" height="19.61"/><rect class="cls-3" x="196.08" y="117.65" width="19.61" height="19.6"/><rect class="cls-3" x="196.08" y="98.04" width="19.61" height="19.61"/><rect class="cls-3" x="196.08" y="78.43" width="19.61" height="19.61"/><rect class="cls-3" x="176.47" y="137.25" width="19.61" height="19.61"/><rect class="cls-3" x="156.86" y="137.25" width="19.61" height="19.61"/><rect class="cls-3" x="156.86" y="117.65" width="19.61" height="19.6"/><rect class="cls-3" x="156.86" y="98.04" width="19.61" height="19.61"/><rect class="cls-3" x="156.86" y="78.43" width="19.61" height="19.61"/><rect class="cls-3" x="137.26" y="137.25" width="19.6" height="19.61"/><rect class="cls-3" x="137.26" y="98.04" width="19.6" height="19.61"/><rect class="cls-3" x="137.26" y="58.82" width="19.6" height="19.61"/><rect class="cls-3" x="117.65" y="137.25" width="19.61" height="19.61"/><rect class="cls-3" x="117.65" y="98.04" width="19.61" height="19.61"/><rect class="cls-3" x="117.65" y="58.82" width="19.61" height="19.61"/><rect class="cls-3" x="98.04" y="137.25" width="19.61" height="19.61"/><rect class="cls-3" x="98.04" y="117.65" width="19.61" height="19.6"/><rect class="cls-3" x="98.04" y="58.82" width="19.61" height="19.61"/><rect class="cls-3" x="78.43" y="137.25" width="19.61" height="19.61"/><rect class="cls-3" x="58.82" y="117.65" width="19.61" height="19.6"/><rect class="cls-3" x="58.82" y="98.04" width="19.61" height="19.61"/><rect class="cls-3" x="58.82" y="78.43" width="19.61" height="19.61"/><rect class="cls-3" x="39.22" y="58.82" width="19.6" height="19.61"/><rect class="cls-3" x="19.61" y="78.43" width="19.61" height="19.61"/><rect class="cls-3" y="137.25" width="19.61" height="19.61"/><rect class="cls-3" y="117.65" width="19.61" height="19.6"/><rect class="cls-3" y="98.04" width="19.61" height="19.61"/><rect class="cls-3" y="78.43" width="19.61" height="19.61"/><rect class="cls-3" y="58.82" width="19.61" height="19.61"/><rect class="cls-3" y="39.22" width="19.61" height="19.6"/><rect class="cls-3" y="19.61" width="19.61" height="19.61"/><rect class="cls-3" width="19.61" height="19.61"/></g></svg>