<?xml version="1.0" encoding="utf-8"?>
<!-- Generator: Adobe Illustrator 18.0.0, SVG Export Plug-In . SVG Version: 6.00 Build 0)  -->
<!DOCTYPE svg PUBLIC "-//W3C//DTD SVG 1.1//EN" "http://www.w3.org/Graphics/SVG/1.1/DTD/svg11.dtd">
<svg version="1.1" id="Layer_1" xmlns="http://www.w3.org/2000/svg" xmlns:xlink="http://www.w3.org/1999/xlink" x="0px" y="0px"
	 viewBox="0 0 792 612" enable-background="new 0 0 792 612" xml:space="preserve">
<linearGradient id="SVGID_1_" gradientUnits="userSpaceOnUse" x1="323.1416" y1="450.1386" x2="781.9443" y2="450.1386">
	<stop  offset="0" style="stop-color:#FFFFFF;stop-opacity:0"/>
	<stop  offset="1" style="stop-color:#F89938"/>
</linearGradient>
<polygon fill="url(#SVGID_1_)" points="781.9,463.3 771.4,437 323.1,437 323.1,463.3 "/>
<g>
	<path fill="#01679A" d="M331.7,201.7c0-24.8-3.7-23.7-26.6-28.2v-5.9h56.2l84,145h0.5v-145h16.8v179.4H437l-87.9-151.7h-0.5v151.7
		h-16.8V201.7z"/>
	<path fill="#01679A" d="M577,189.2c-7.2-3.5-26.9-12-47.7-12c-14.1,0-25.6,8.3-25.6,25.8c0,41,86.6,37.3,86.6,94.3
		c0,38.1-30.1,52.5-66.9,52.5c-20.5,0-41.1-5.6-46.6-6.9v-21.6c8.3,4.8,29.6,16,50.9,16c16.8,0,33.3-6.9,33.3-31.2
		c0-43.2-86.6-39.2-86.6-95.4c0-29.3,22.4-46.1,60-46.1c18.4,0,35.7,3.5,42.6,4.8V189.2z"/>
	<path fill="#01679A" d="M638.8,201.7c1.6-4.5,4.5-13.9,4.5-15.7c0-10.7-9.9-10.9-20.5-12.5v-5.9h50.1l65,179.4h-27.7l-20-55.4
		h-67.9l-20,55.4h-16.5L638.8,201.7z M626.8,278.9h58.9l-30.4-77.8L626.8,278.9z"/>
</g>
<path fill="#01679A" d="M771.5,436.9L771.5,436.9H325.2c-0.8,0-1.5-0.7-1.5-1.5c0-0.8,0.7-1.5,1.5-1.5h442.1"/>
<linearGradient id="SVGID_2_" gradientUnits="userSpaceOnUse" x1="652.4326" y1="276.4668" x2="771.4805" y2="276.4668">
	<stop  offset="0" style="stop-color:#FFFFFF"/>
	<stop  offset="3.496659e-03" style="stop-color:#F7FAFC"/>
	<stop  offset="2.502508e-02" style="stop-color:#C9DFE9"/>
	<stop  offset="4.924406e-02" style="stop-color:#9EC5D8"/>
	<stop  offset="7.527161e-02" style="stop-color:#78AEC9"/>
	<stop  offset="0.1036" style="stop-color:#589BBC"/>
	<stop  offset="0.1349" style="stop-color:#3C8BB2"/>
	<stop  offset="0.1703" style="stop-color:#267DA9"/>
	<stop  offset="0.2116" style="stop-color:#1573A2"/>
	<stop  offset="0.2626" style="stop-color:#0A6C9D"/>
	<stop  offset="0.3342" style="stop-color:#03689B"/>
	<stop  offset="0.533" style="stop-color:#01679A"/>
</linearGradient>
<path fill="url(#SVGID_2_)" d="M767.2,433.9L652.5,118c-0.3-0.8,0.1-1.6,0.9-1.9c0.8-0.3,1.6,0.1,1.9,0.9l116.1,319.9"/>
<g>
	<defs>
		<filter id="Adobe_OpacityMaskFilter" filterUnits="userSpaceOnUse" x="113.4" y="408" width="177.9" height="47.8">
			<feFlood  style="flood-color:white;flood-opacity:1" result="back"/>
			<feBlend  in="SourceGraphic" in2="back" mode="normal"/>
		</filter>
	</defs>
	<mask maskUnits="userSpaceOnUse" x="113.4" y="408" width="177.9" height="47.8" id="SVGID_3_">
		<g filter="url(#Adobe_OpacityMaskFilter)">
			<defs>
				<filter id="Adobe_OpacityMaskFilter_1_" filterUnits="userSpaceOnUse" x="113.4" y="408" width="177.9" height="47.8">
					<feFlood  style="flood-color:white;flood-opacity:1" result="back"/>
					<feBlend  in="SourceGraphic" in2="back" mode="normal"/>
				</filter>
			</defs>
			<mask maskUnits="userSpaceOnUse" x="113.4" y="408" width="177.9" height="47.8" id="SVGID_3_">
				<g filter="url(#Adobe_OpacityMaskFilter_1_)">
				</g>
			</mask>
			
				<linearGradient id="SVGID_4_" gradientUnits="userSpaceOnUse" x1="84.9334" y1="387.3649" x2="263.0148" y2="387.3649" gradientTransform="matrix(0.9857 -0.1688 0.1688 0.9857 -34.3028 79.0481)">
				<stop  offset="0" style="stop-color:#FFFFFF"/>
				<stop  offset="0.3726" style="stop-color:#FDFDFD"/>
				<stop  offset="0.5069" style="stop-color:#F6F6F6"/>
				<stop  offset="0.6026" style="stop-color:#EBEBEB"/>
				<stop  offset="0.68" style="stop-color:#DADADA"/>
				<stop  offset="0.7463" style="stop-color:#C4C4C4"/>
				<stop  offset="0.805" style="stop-color:#A8A8A8"/>
				<stop  offset="0.8581" style="stop-color:#888888"/>
				<stop  offset="0.9069" style="stop-color:#626262"/>
				<stop  offset="0.9523" style="stop-color:#373737"/>
				<stop  offset="0.9926" style="stop-color:#090909"/>
				<stop  offset="1" style="stop-color:#000000"/>
			</linearGradient>
			<path mask="url(#SVGID_3_)" fill="url(#SVGID_4_)" d="M290.9,420.4c-4.4-13-59.9-16-107.1-7.9c-47.2,8.1-72.1,16.3-70.4,26.4
				c1.7,10,32.2,22,87.7,14.8C248.7,447.4,296,435.3,290.9,420.4z"/>
		</g>
	</mask>
	
		<linearGradient id="SVGID_5_" gradientUnits="userSpaceOnUse" x1="84.9334" y1="387.3649" x2="263.0148" y2="387.3649" gradientTransform="matrix(0.9857 -0.1688 0.1688 0.9857 -34.3028 79.0481)">
		<stop  offset="0" style="stop-color:#000000"/>
		<stop  offset="0.3726" style="stop-color:#020202;stop-opacity:0.6274"/>
		<stop  offset="0.5069" style="stop-color:#090909;stop-opacity:0.4931"/>
		<stop  offset="0.6026" style="stop-color:#141414;stop-opacity:0.3974"/>
		<stop  offset="0.68" style="stop-color:#252525;stop-opacity:0.32"/>
		<stop  offset="0.7463" style="stop-color:#3B3B3B;stop-opacity:0.2537"/>
		<stop  offset="0.805" style="stop-color:#575757;stop-opacity:0.195"/>
		<stop  offset="0.8581" style="stop-color:#777777;stop-opacity:0.1419"/>
		<stop  offset="0.9069" style="stop-color:#9D9D9D;stop-opacity:9.308982e-02"/>
		<stop  offset="0.9523" style="stop-color:#C8C8C8;stop-opacity:4.767627e-02"/>
		<stop  offset="0.9926" style="stop-color:#F6F6F6;stop-opacity:7.380247e-03"/>
		<stop  offset="1" style="stop-color:#FFFFFF;stop-opacity:0"/>
	</linearGradient>
	<path fill="url(#SVGID_5_)" d="M290.9,420.4c-4.4-13-59.9-16-107.1-7.9c-47.2,8.1-72.1,16.3-70.4,26.4c1.7,10,32.2,22,87.7,14.8
		C248.7,447.4,296,435.3,290.9,420.4z"/>
	<path d="M164.1,158.9c0,0,64.7-1.2,105.3,71.5c40.6,72.7,13.1,148.7-22.1,186.2c-38.5,41-77,38.1-100.5,37
		c-23.4-1.1-114.5-43.4-108-163.6C45.4,169.8,164.1,158.9,164.1,158.9z"/>
	<g>
		<g>
			<path fill="#FDB913" stroke="#000000" stroke-width="2.1496" d="M158,453.6c71.2,0.2,124.4-83.2,124.5-147.3
				c0.1-72.1-45.3-147.4-124.4-147.3c-75.4,0-126.8,78.4-126.8,147.3C31.3,379.2,79.2,453.4,158,453.6z"/>
			<path fill="#FDB913" stroke="#000000" stroke-width="0.9554" d="M142.8,306.1"/>
			<path fill="#FFFFFF" stroke="#000000" stroke-width="0.4777" d="M156.3,449.2c69.2,0,122.2-80.2,122.4-143.1
				c0.1-69.2-46.6-144-122-143c-72.2,0.9-121.9,76.6-121.8,143C34.9,376.4,79.6,449.2,156.3,449.2z"/>
			<path fill="#FFFFFF" stroke="#000000" stroke-width="0.4777" d="M142.8,306.1"/>
			<path fill="#FDB913" stroke="#000000" stroke-width="0.4777" d="M148.8,421.1c55.5-0.1,98.5-63.2,98.6-114.9
				c0.1-53.4-40.9-114.8-98.4-113c-55.3,1.7-93.4,62.1-93.4,113C55.6,360.1,88.2,421.2,148.8,421.1z"/>
			<path fill="#FDB913" stroke="#000000" stroke-width="0.4777" d="M142.8,306.1"/>
			<path fill="#00558F" stroke="#000000" stroke-width="0.9554" d="M148.4,418.5c54.3-0.1,95.8-61.7,95.9-112.3
				c0.1-52.3-39.5-111.9-95.8-110.2c-53.9,1.6-91,60.6-91,110.2C57.4,358.7,89.4,418.6,148.4,418.5z"/>
			<path fill="#FFFFFF" stroke="#000000" stroke-width="0.2388" stroke-linejoin="round" d="M149.4,322.1c-3.6,0-5.4-0.1-9-0.1
				c3.5-0.4,5.3-0.6,9-1.1"/>
			<path fill="#FFFFFF" stroke="#FFFFFF" stroke-width="0.7165" stroke-linejoin="round" d="M138.5,383.5c1.7,1.1,2.5,1.6,4.2,2.7
				c1.5-1,2.3-1.5,3.9-2.6c-2.9-18.5-4.7-37-6.2-55.7C139.2,346.4,138.4,364.9,138.5,383.5z"/>
			<path fill="#FFFFFF" stroke="#FFFFFF" stroke-width="0.7165" stroke-linejoin="round" d="M140.4,326.6
				c4.8,18.2,10.1,36.2,16.2,54.1c1.3,0.6,2,0.9,3.4,1.4c0.7-1.2,1-1.8,1.7-3C154,361.8,147,344.4,140.4,326.6z"/>
			<path fill="#FFFFFF" stroke="#FFFFFF" stroke-width="0.7165" stroke-linejoin="round" d="M156.8,380.9c-0.8,1.3-1.1,1.9-1.9,3.2
				c-1.3-0.6-1.9-0.9-3.2-1.5c-4.5-18.5-8.1-37-11.2-55.7C145.3,345.2,150.6,363.1,156.8,380.9z"/>
			<path fill="#FFFFFF" stroke="#FFFFFF" stroke-width="0.7165" stroke-linejoin="round" d="M151.7,382.8c-0.8,0.8-1.2,1.3-2,2.1
				c-1.2-0.5-1.8-0.8-3-1.3c-2.9-18.6-4.7-37.2-6.2-55.9C143.6,346.2,147.1,364.6,151.7,382.8z"/>
			<path fill="#FFFFFF" stroke="#FFFFFF" stroke-width="0.7165" stroke-linejoin="round" d="M140.4,326.6
				c-4.5,17.9-8.7,35.8-12.1,53.9c-1.2,0.6-1.7,0.8-2.9,1.4c-0.8-1.2-1.2-1.8-2-3.1C128.6,361.2,134.3,343.9,140.4,326.6z"/>
			<path fill="#FFFFFF" stroke="#FFFFFF" stroke-width="0.7165" stroke-linejoin="round" d="M128.3,380.7c0.9,1.3,1.4,1.9,2.3,3.3
				c1.1-0.6,1.7-0.9,2.8-1.4c1.6-18.7,4.1-37.1,7-55.6C135.9,344.8,131.7,362.6,128.3,380.7z"/>
			<path fill="#FFFFFF" stroke="#FFFFFF" stroke-width="0.7165" stroke-linejoin="round" d="M133.4,382.7c0.9,0.8,1.4,1.3,2.3,2.1
				c1.1-0.5,1.6-0.8,2.7-1.3c-0.1-18.7,0.8-37.2,2-55.9C137.5,346,135,364.2,133.4,382.7z"/>
			<path fill="#FFFFFF" stroke="#000000" stroke-width="0.2388" stroke-linejoin="round" d="M138.5,383.5c1.7,1.1,2.5,1.6,4.2,2.7
				c1.5-1,2.3-1.5,3.9-2.6c-2.9-18.5-4.7-37-6.2-55.7C139.2,346.4,138.4,364.9,138.5,383.5z"/>
			<path fill="none" stroke="#000000" stroke-width="0.2388" stroke-linejoin="round" d="M142.5,383.9c-1.5-18.6-2-37.2-2.1-55.9"/>
			<path fill="none" stroke="#000000" stroke-width="0.2388" stroke-linejoin="round" d="M149.3,321.5c-3.6,0.2-5.4,0.3-8.8,0.5"/>
			<path fill="#FFFFFF" stroke="#000000" stroke-width="0.2388" stroke-linejoin="round" d="M149.2,323.2c-3.5-0.4-5.3-0.6-8.7-1
				c3.4-0.1,5.1-0.1,8.6-0.2"/>
			<path fill="none" stroke="#000000" stroke-width="0.2388" stroke-linejoin="round" d="M149,322.6c-3.5-0.1-5.2-0.2-8.5-0.4"/>
			<path fill="#FFFFFF" stroke="#000000" stroke-width="0.2388" stroke-linejoin="round" d="M149.2,324.4c-3.6-0.7-5.3-1.1-8.8-1.8
				c3.4,0.3,5.2,0.4,8.7,0.7"/>
			<path fill="none" stroke="#000000" stroke-width="0.2388" stroke-linejoin="round" d="M149.2,323.8c-3.5-0.5-5.3-0.7-8.7-1.2"/>
			<path fill="#FFFFFF" stroke="#000000" stroke-width="0.2388" stroke-linejoin="round" d="M149,325.6c-3.5-1.1-5.2-1.6-8.6-2.7
				c3.4,0.6,5.2,0.9,8.8,1.5"/>
			<path fill="none" stroke="#000000" stroke-width="0.2388" stroke-linejoin="round" d="M149.3,325c-3.6-0.9-5.4-1.3-8.9-2.2"/>
			<path fill="#FFFFFF" stroke="#000000" stroke-width="0.2388" stroke-linejoin="round" d="M149,326.8c-3.5-1.5-5.2-2.2-8.6-3.7
				c3.4,1,5.2,1.4,8.7,2.4"/>
			<path fill="none" stroke="#000000" stroke-width="0.2388" stroke-linejoin="round" d="M149.5,326.4c-3.7-1.3-5.5-2-9-3.3"/>
			<path fill="#FFFFFF" stroke="#000000" stroke-width="0.2388" stroke-linejoin="round" d="M149.4,328.5c-3.6-2-5.4-3-8.9-4.9
				c3.5,1.4,5.3,2.1,9,3.6"/>
			<path fill="none" stroke="#000000" stroke-width="0.2388" stroke-linejoin="round" d="M149.4,327.7c-3.6-1.7-5.5-2.5-9-4.2"/>
			<path fill="#FFFFFF" stroke="#000000" stroke-width="0.2388" stroke-linejoin="round" d="M149.8,330.6c-3.8-2.7-5.7-4.1-9.4-6.8
				c3.5,1.8,5.3,2.8,8.9,4.6"/>
			<path fill="none" stroke="#000000" stroke-width="0.2388" stroke-linejoin="round" d="M149.9,329.7c-3.8-2.4-5.7-3.5-9.4-5.9"/>
			<path fill="#FFFFFF" stroke="#000000" stroke-width="0.2388" stroke-linejoin="round" d="M150.2,333.2c-4-3.6-6-5.4-9.8-9
				c3.6,2.5,5.5,3.8,9.3,6.4"/>
			<path fill="none" stroke="#000000" stroke-width="0.2388" stroke-linejoin="round" d="M150.3,332.1c-4-3.2-6-4.8-9.8-7.9"/>
			<path fill="#FFFFFF" stroke="#000000" stroke-width="0.2388" stroke-linejoin="round" d="M150.5,336.1c-4.1-4.6-6.1-7-10-11.6
				c3.9,3.4,5.9,5.2,9.9,8.7"/>
			<path fill="none" stroke="#000000" stroke-width="0.2388" stroke-linejoin="round" d="M150.2,334.4c-4-3.9-6-5.9-9.8-9.8"/>
			<path fill="#FFFFFF" stroke="#000000" stroke-width="0.2388" stroke-linejoin="round" d="M150.8,340.1c-4.3-6-6.4-9.1-10.4-15.1
				c3.9,4.4,5.9,6.6,10,11"/>
			<path fill="none" stroke="#000000" stroke-width="0.2388" stroke-linejoin="round" d="M150.7,338c-4.2-5.2-6.2-7.8-10.2-13"/>
			<path fill="#FFFFFF" stroke="#000000" stroke-width="0.2388" stroke-linejoin="round" d="M151.2,345.7
				c-4.5-8.1-6.6-12.2-10.8-20.2c4,5.8,6.2,8.8,10.4,14.7"/>
			<path fill="none" stroke="#000000" stroke-width="0.2388" stroke-linejoin="round" d="M150.4,341.5c-4.1-6.4-6.1-9.7-10-16"/>
			<path fill="#FFFFFF" stroke="#000000" stroke-width="0.2388" stroke-linejoin="round" d="M153.1,359.6
				c-4.5-11-8.7-22.2-12.7-33.4c4.2,7.8,6.3,11.8,10.8,19.6"/>
			<path fill="none" stroke="#000000" stroke-width="0.2388" stroke-linejoin="round" d="M151.7,350.7c-4.7-9.8-7-14.8-11.3-24.6"/>
			<path fill="#FFFFFF" stroke="#000000" stroke-width="0.2388" stroke-linejoin="round" d="M140.4,326.6
				c4.8,18.2,10.1,36.2,16.2,54.1c1.3,0.6,2,0.9,3.4,1.4c0.7-1.2,1-1.8,1.7-3C154,361.8,147,344.4,140.4,326.6z"/>
			<path fill="none" stroke="#000000" stroke-width="0.2388" stroke-linejoin="round" d="M140.4,326.6c5.8,18.2,12,36.2,19,53.9"/>
			<path fill="#FFFFFF" stroke="#000000" stroke-width="0.2388" stroke-linejoin="round" d="M156.8,380.9c-0.8,1.3-1.1,1.9-1.9,3.2
				c-1.3-0.6-1.9-0.9-3.2-1.5c-4.5-18.5-8.1-37-11.2-55.7C145.3,345.2,150.6,363.1,156.8,380.9z"/>
			<path fill="none" stroke="#000000" stroke-width="0.2388" stroke-linejoin="round" d="M154.3,382.7c-5.4-18.4-9.9-36.9-13.9-55.7
				"/>
			<path fill="#FFFFFF" stroke="#000000" stroke-width="0.2388" stroke-linejoin="round" d="M151.7,382.8c-0.8,0.8-1.2,1.3-2,2.1
				c-1.2-0.5-1.8-0.8-3-1.3c-2.9-18.6-4.7-37.2-6.2-55.9C143.6,346.2,147.1,364.6,151.7,382.8z"/>
			<path fill="none" stroke="#000000" stroke-width="0.2388" stroke-linejoin="round" d="M149.3,383.8c-3.8-18.6-6.5-37.3-8.8-56.1"
				/>
			<path fill="#FFFFFF" stroke="#000000" stroke-width="0.2388" stroke-linejoin="round" d="M131.8,322.1c3.4,0,5.1,0,8.7-0.1
				c-3.5-0.4-5.2-0.6-8.6-1.1"/>
			<path fill="none" stroke="#000000" stroke-width="0.2388" stroke-linejoin="round" d="M131.9,321.5c3.4,0.2,5,0.3,8.5,0.5"/>
			<path fill="#FFFFFF" stroke="#000000" stroke-width="0.2388" stroke-linejoin="round" d="M132,323.2c3.3-0.4,5-0.6,8.4-1
				c-3.4-0.1-5-0.1-8.3-0.2"/>
			<path fill="none" stroke="#000000" stroke-width="0.2388" stroke-linejoin="round" d="M132.2,322.6c3.2-0.1,4.9-0.2,8.2-0.4"/>
			<path fill="#FFFFFF" stroke="#000000" stroke-width="0.2388" stroke-linejoin="round" d="M132,324.4c3.3-0.7,5-1.1,8.5-1.8
				c-3.4,0.3-5.1,0.4-8.4,0.7"/>
			<path fill="none" stroke="#000000" stroke-width="0.2388" stroke-linejoin="round" d="M132,323.8c3.3-0.5,5-0.7,8.4-1.2"/>
			<path fill="#FFFFFF" stroke="#000000" stroke-width="0.2388" stroke-linejoin="round" d="M132.1,325.5c3.3-1.1,4.9-1.6,8.3-2.7
				c-3.4,0.6-5.1,0.9-8.5,1.5"/>
			<path fill="none" stroke="#000000" stroke-width="0.2388" stroke-linejoin="round" d="M131.9,325c3.4-0.9,5.1-1.3,8.6-2.2"/>
			<path fill="#FFFFFF" stroke="#000000" stroke-width="0.2388" stroke-linejoin="round" d="M132.2,326.8c3.3-1.5,4.9-2.2,8.3-3.7
				c-3.4,1-5.1,1.4-8.4,2.4"/>
			<path fill="none" stroke="#000000" stroke-width="0.2388" stroke-linejoin="round" d="M131.7,326.4c3.4-1.3,5.2-1.9,8.7-3.2"/>
			<path fill="#FFFFFF" stroke="#000000" stroke-width="0.2388" stroke-linejoin="round" d="M131.9,328.5c3.4-2,5.1-3,8.6-4.9
				c-3.5,1.4-5.2,2.1-8.6,3.6"/>
			<path fill="none" stroke="#000000" stroke-width="0.2388" stroke-linejoin="round" d="M131.8,327.7c3.4-1.7,5.1-2.5,8.6-4.2"/>
			<path fill="#FFFFFF" stroke="#000000" stroke-width="0.2388" stroke-linejoin="round" d="M131.4,330.6c3.6-2.7,5.3-4,9-6.7
				c-3.5,1.9-5.2,2.8-8.6,4.6"/>
			<path fill="none" stroke="#000000" stroke-width="0.2388" stroke-linejoin="round" d="M131.4,329.7c3.6-2.3,5.4-3.5,9.1-5.9"/>
			<path fill="#FFFFFF" stroke="#000000" stroke-width="0.2388" stroke-linejoin="round" d="M131.1,333.1c3.7-3.6,5.6-5.4,9.4-9
				c-3.6,2.5-5.4,3.8-8.9,6.4"/>
			<path fill="none" stroke="#000000" stroke-width="0.2388" stroke-linejoin="round" d="M131,332c3.7-3.1,5.6-4.7,9.4-7.9"/>
			<path fill="#FFFFFF" stroke="#000000" stroke-width="0.2388" stroke-linejoin="round" d="M130.8,336.1c3.8-4.6,5.7-6.9,9.6-11.5
				c-3.9,3.5-5.8,5.2-9.5,8.6"/>
			<path fill="none" stroke="#000000" stroke-width="0.2388" stroke-linejoin="round" d="M131.1,334.4c3.7-3.9,5.5-5.9,9.4-9.8"/>
			<path fill="#FFFFFF" stroke="#000000" stroke-width="0.2388" stroke-linejoin="round" d="M130.6,340c3.9-6,5.8-9,9.8-15
				c-3.9,4.4-5.8,6.6-9.6,11"/>
			<path fill="none" stroke="#000000" stroke-width="0.2388" stroke-linejoin="round" d="M130.7,338c3.8-5.2,5.8-7.8,9.7-13"/>
			<path fill="#FFFFFF" stroke="#000000" stroke-width="0.2388" stroke-linejoin="round" d="M130.4,345.6c3.9-8,5.9-12.1,10.1-20.2
				c-4.1,5.8-6,8.8-9.9,14.6"/>
			<path fill="none" stroke="#000000" stroke-width="0.2388" stroke-linejoin="round" d="M131,341.4c3.7-6.4,5.6-9.6,9.4-16"/>
			<path fill="#FFFFFF" stroke="#000000" stroke-width="0.2388" stroke-linejoin="round" d="M129.3,359.4
				c3.5-11.2,7.2-22.3,11.2-33.3c-4.2,7.8-6.2,11.7-10.1,19.5"/>
			<path fill="none" stroke="#000000" stroke-width="0.2388" stroke-linejoin="round" d="M130.1,350.6c4-9.7,6.1-14.7,10.4-24.5"/>
			<path fill="#FFFFFF" stroke="#000000" stroke-width="0.2388" stroke-linejoin="round" d="M140.4,326.6
				c-4.5,17.9-8.7,35.8-12.1,53.9c-1.2,0.6-1.7,0.8-2.9,1.4c-0.8-1.2-1.2-1.8-2-3.1C128.6,361.2,134.3,343.9,140.4,326.6z"/>
			<path fill="none" stroke="#000000" stroke-width="0.2388" stroke-linejoin="round" d="M140.4,326.6
				c-5.4,17.8-10.4,35.6-14.7,53.7"/>
			<path fill="#FFFFFF" stroke="#000000" stroke-width="0.2388" stroke-linejoin="round" d="M128.3,380.7c0.9,1.3,1.4,1.9,2.3,3.3
				c1.1-0.6,1.7-0.9,2.8-1.4c1.6-18.7,4.1-37.1,7-55.6C135.9,344.8,131.7,362.6,128.3,380.7z"/>
			<path fill="none" stroke="#000000" stroke-width="0.2388" stroke-linejoin="round" d="M130.9,382.5c2.4-18.7,5.8-37.1,9.6-55.5"
				/>
			<path fill="#FFFFFF" stroke="#000000" stroke-width="0.2388" stroke-linejoin="round" d="M133.4,382.7c0.9,0.8,1.4,1.3,2.3,2.1
				c1.1-0.5,1.6-0.8,2.7-1.3c-0.1-18.7,0.8-37.2,2-55.9C137.5,346,135,364.2,133.4,382.7z"/>
			<path fill="none" stroke="#000000" stroke-width="0.2388" stroke-linejoin="round" d="M135.9,383.7c0.7-18.8,2.4-37.4,4.5-56"/>
			<path fill="#00558F" stroke="#000000" stroke-width="0.9554" d="M142.8,306.1"/>
			<path fill="#B3B3B3" stroke="#000000" stroke-width="0.2388" d="M214.2,372.2c0,0-2.3-0.3-3.6-1.9c-1-1.1-2.4-5-2.4-5
				c-2.1-5.3-5-10.2-9.8-10.2c-4.8,0.1-10.2,6.8-12.1,12.1c0,0-0.3,0.8-0.7,1.2c-0.4,0.4-1.2,0.3-1.2,0.3c-31.7,1-63.1,0.1-94.8-0.8
				c-1.8,0-3.2,1.7-3.2,3.9v0c0.3,2.2,2,3.9,3.8,4c31.6,1,62.8,1.9,94.4,0.9c0,0,0.8-0.1,1.2,0.2c0.4,0.3,0.8,1.1,0.8,1.1
				c2.2,5.1,7.8,11.3,12.5,11.2c4.7-0.1,7.3-4.9,9.2-10.1c0,0,1.4-3.9,2.3-5C211.9,372.6,214.2,372.2,214.2,372.2z"/>
			<path fill="none" stroke="#000000" stroke-width="0.2388" stroke-linecap="round" d="M88,369c0.6-0.7,1.4-0.6,1.8-0.6
				c31.9,0.9,63.4,1.7,95.3,0.8c0,0,0.9-0.2,1.1-0.4c0.4-0.4,0.5-0.8,0.5-0.8c1.6-4.7,7.2-11.9,11.6-11.9c4.4-0.1,7.2,4.7,9,9.3
				c0,0,0.6,1.6,1.2,3.1"/>
			<path fill="none" stroke="#000000" stroke-width="0.2388" stroke-linecap="round" d="M186.5,375.5c0.4,0.6,0.6,0.9,1,1.5
				c1.9,4.5,7.3,11.5,11.6,11.5c4.3-0.1,6.9-4.7,8.5-9.2c0,0,1.1-3.3,2-5c0.9-1.6,2.1-1.9,2.1-1.9c-0.1,0,0.8,0,0.8,0
				c-1.3,0.5-2.2,1.2-2.2,1.2"/>
			<path d="M210.7,372.3c0,0-0.9,0.4-1.3,1.5c-1.1,3.3-3.1,3.9-4.1,5.4c-1.1,1.5-1.7,3.1-2.8,4.3c-1.2,1.3-3.4,1.1-3.4,1.1
				s2-1.1,2.7-1.6c0.6-0.4,1.7-1.9,1.7-2.8c0.1-0.9,0-2.6,0-2.6s3.6-0.4,4.2-1.4c0.6-1,1.3-3.9,1.3-3.9
				C209.6,372.3,209.9,372.3,210.7,372.3z"/>
			<path d="M188.5,372.6c-0.6,0-0.9,0-1.4,0c0,0,1.8-3.4,2.7-4.8c0.9-1.3,2.1-3.5,2.6-4.3c0.5-0.9,1.2-2.7,1.2-2.7
				c0.4,0.6,0.7,0.8,1.1,1.4c-0.4,2-0.6,3-1,5c-1.4,0.6-2.1,0.8-3.5,1.4C189.5,370.3,189.2,371.1,188.5,372.6z"/>
			<path fill="#B3B3B3" stroke="#000000" stroke-width="0.2388" d="M193.4,366.9c-0.1-0.3,0-0.1,0-0.4c-0.2-3.2,1.8-5.9,4.5-6.1
				c2.7-0.2,5,2.2,5.2,5.4c0,0.3,0,0.6,0,1c0.2-0.1,0.5-0.1,0.8-0.1c2.7-0.2,5,2.2,5.1,5.4c0.2,3.1-1.8,5.8-4.5,6
				c-0.3,0-0.7,0-0.9,0c0,0.3,0.1,0.7,0.1,1c0,3.1-2.1,5.6-4.7,5.7c-2.6,0.1-4.9-2.4-4.9-5.5c0-0.3,0-0.6,0-0.9
				c-0.3,0.1-0.5,0.1-0.8,0.1c-2.7,0.1-5-2.4-5.1-5.5c-0.1-3.1,2-5.8,4.8-5.8C193.3,366.8,193.1,366.8,193.4,366.9z"/>
			<path fill="#00558F" stroke="#000000" stroke-width="0.2388" d="M202.3,376.4c0.6,0.4,1.4,0.6,2.2,0.6c2.2-0.2,3.9-2.4,3.7-5
				c-0.1-2.6-2.1-4.6-4.3-4.5c-0.8,0.1-1.5,0.4-2.1,0.9c0.4-0.8,0.5-1.6,0.4-2.6c-0.2-2.6-2.1-4.7-4.4-4.5c-2.3,0.2-3.9,2.5-3.8,5.1
				c0,0.6,0.2,1.1,0.4,1.6c-0.4-0.2-0.9-0.3-1.4-0.3c-2.3,0.1-4.1,2.3-4,4.9c0.1,2.6,2,4.7,4.2,4.6c0.8,0,1.5-0.3,2.2-0.8
				c-0.4,0.7-0.6,1.6-0.6,2.5c0.1,2.6,1.9,4.7,4.1,4.6c2.2,0,4-2.2,3.9-4.8C203,377.9,202.7,377.1,202.3,376.4z"/>
			<path fill="none" stroke="#000000" stroke-width="0.2388" stroke-linecap="round" d="M88.5,374.8c0.7,0.7,1.5,0.7,1.9,0.7
				c31.8,1,63.1,1.9,95,0.8c0,0,0.9,0.1,1.2,0.3c0.4,0.4,0.6,0.8,0.6,0.8"/>
			<path d="M188,377.9c0,0-0.9-2-1.7-2.4c-0.8-0.4-2.5-0.2-2.5-0.2c-31.6,1-62.8,0-94.4-0.9c-0.6,0-2-1-2.1-2.2c0,0,0.9,1.4,2,1.5
				c31.6,0.9,62.8,1.9,94.5,0.9c0,0,2.1-0.2,2.7,0.3C187,375.4,188,377.9,188,377.9z"/>
			<path fill="#B3B3B3" stroke="#000000" stroke-width="0.2388" d="M181.9,379.3c0.7,0,1.3-0.7,1.3-1.6c-0.2-4.7-0.3-7.1-0.4-11.9
				c0-0.9-0.7-1.6-1.4-1.5l0,0c-0.8,0-1.3,0.7-1.3,1.6c0.2,4.8,0.3,7.2,0.4,11.9C180.5,378.7,181.1,379.3,181.9,379.3L181.9,379.3z"
				/>
			<path fill="none" stroke="#000000" stroke-width="0.2388" d="M180.4,377.3c0,0.9,0.7,1.5,1.4,1.5c0.7,0,1.3-0.7,1.3-1.6"/>
			<path fill="none" stroke="#000000" stroke-width="0.2388" d="M180,366.6c0-0.9,0.6-1.6,1.3-1.6c0.8,0,1.4,0.7,1.4,1.5"/>
			<path stroke="#000000" stroke-width="0.2388" d="M183.1,376.1c0,0.9-0.5,1.6-1.3,1.6c-0.7,0-1.4-0.6-1.4-1.5c0,0.1,0,0.2,0,0.3
				c0,0.9,0.7,1.5,1.4,1.5c0.7,0,1.3-0.7,1.3-1.6C183.1,376.3,183.1,376.2,183.1,376.1z"/>
			<path fill="#BA783E" d="M99.1,367.9c0.1-0.3,0.2-0.6,0.3-0.9"/>
			<path fill="#BA783E" stroke="#000000" stroke-width="0.2388" d="M86.3,362.8c2.2,0.8,4.4-1,6.1-2.5c0.1,0.2,0.2,0.3,0.3,0.5
				c-0.6,3.8-0.2,8.1-1.1,11.7c0.6,0.1,0.9,0.1,1.5,0.2c0-0.3,0.1-0.4,0.1-0.7c1-0.7,2.2-1.7,3.1-2.8c0,0,3.3-1.7,3-1.7
				c0.4-1.3,0.6-2,1-3.3c3-2.8,4.4-6.9,6-10.9c3.1-11.1,4.4-22.2,5.4-33.7c0,0,0.9-0.5,1-0.1c0.2,0.1,2.3-0.2,2.7-1.2
				c0.7,0.2,1,0.3,1.7,0.5c0.9-0.1,1.3-0.1,2.2-0.1c1.5-0.5,2.2-1.8,2.4-3.3c0.5-0.1,0.8-0.1,1.3-0.2c1.2-1.3,1.7-1.9,2.9-3.2
				c-0.7-1.2-1.2-2-2-3.4c0,0-4.5-7.2-5.8-21.1c-0.7-7.6,0.9-21,0.9-21c0.7,0,1.1,0,1.8,0c-2.2-1.4-4.7-3.1-6-6
				c-0.7-7.6,4.2-14.3,2.7-21.7c-3-9.1-11.1-9.8-18.2-6.6c-13.3,9.7-16.3,26.9-18.7,42c-1.2,11.6-2.1,23.3-2.7,34.9
				c-0.5,8.5,0.2,17.3-0.5,25.8c1.6-0.7,3.2-1.9,4.4-3.8c0.9,5.8,0.3,12.5-0.1,18.4c2.3-0.1,4.3-2.2,5.6-4.5
				c0.1,0.1,0.2,0.2,0.3,0.3c-0.2,5.9-0.7,11.4-1.6,16.7C86.1,362.3,86.2,362.5,86.3,362.8z"/>
			<path fill="#BA783E" stroke="#000000" stroke-width="0.2388" d="M212,328.9c-4.7-21.1-3.7-41.8-4.7-63.3c0.2-0.6,0.2-0.9,0.4-1.5
				c-0.5-7.8-3.1-15.1-5.2-21.7c-1.9-5.8-4.7-12.8-10.5-16.2c-3.8-3.7-10-1.6-14.8-0.5c-4.8,2.3-11.7,6.1-11.9,12.7
				c-0.5,5.4,2.1,9.4,2.4,14.6c-0.4,6.3-7.3,10.9-11.1,13.4c2.8,0,4.2-0.1,7-0.1c0,0,1.3,6.7,1,15.3c-0.3,8.2-1.4,17.2-6.3,26.2
				c-0.2,0.3-2.2,3.9-5.7,8.4c2.8,1.2,4.2,1.7,7,2.9c0.2-0.9,0.4-1.3,0.6-2.2c0.2,0.4,0.4,0.3,0.7,0.5c0.7,0.4,1.7,0.2,2.5,0.3
				c0.6-0.1,0.9-0.1,1.5-0.2c0.9-0.4,1.7-1.2,2-2.4c0.4,0.1,0.5,0.2,0.9,0.3c0.2,0.1,0.3,0.2,0.4,0.3c0.8,0.1,2.2,0.6,2.8-0.4
				c0.5,0.9,0.7,1.3,1.2,2.2c0.3,1.5,0.4,2.2,0.7,3.7c3.3,11.8,4.9,25.4,14.8,33.8c0.3,0.2,0.5,0.3,0.9,0.5c0.7,0.3,1.1,0.5,1.8,0.8
				c1.9,3.1,2.9,4.7,4.8,7.8c1.4,1.9,3.1,2.9,4.7,4.1c0.7,0.1,1.7,2.4,2.2,1.7c0.3-0.9,0.4-1.3,0.7-2.2c-0.6-3.2-0.9-4.8-1.5-8
				c1,0.5,2.1,0.4,3.1,0.7c0.6-0.6,0.9-0.9,1.4-1.5c-1.4-4.9-2.3-10.2-3.1-15.5c0-0.4,0-0.7,0-1.1c3.6,2.7,4.9,0.6,4.9,0.6
				c-1.3-5.3-2.1-11.8-2.6-18c0.2-0.1,0.4-0.1,0.6-0.2c0.4,1.2,1,2.3,1.7,3.3c0.8,0.9,1.8,1.6,2.9,1.3
				C210.9,329.2,211.2,329.1,212,328.9z"/>
			<path fill="#FFFFFF" stroke="#000000" stroke-width="0.2388" stroke-linecap="square" stroke-miterlimit="2" d="M152.1,266.3
				c-0.2-1.4-0.8-3.9-1.3-5.5c0.5-2.4-1.4-4.6-0.6-6.8c-1.2-4.1-1.4-8.2-1.2-12.6c-0.4-2.7-0.3-5.6-1-8.1c-0.9-2.9-4-3.8-5.9-4.3
				c-1.9-0.5-4.8-0.7-4.8-0.7c-0.8-0.1-2.3,0.6-2.3,1.4l0,0c0.8,2,0.4,4,0,5.6c-1,0.3-1.5,0.5-2.6,0.8c2,0.7,4,2.8,3.6,4.2
				c-0.4,1.2-2,1.4-2.2,1.2c0,0-2.6-3.3-3-3.5c-0.4-0.1-1.3-1.2-1.2-0.9c0.1,0.1,0.9,1.7,1.5,2.7c0.6,0.9,0.9,2.2,0.9,2.2
				c0.6,0.9,0.9,1.6,0.7,3.4c-0.4,1.3-0.6,2-1.1,3.3c-0.3,1.3-0.5,1.9-0.8,3.1c-0.1,1.6-1.5,3.1-1.4,4.9c-0.5,1.3-1.2,2.8-1,4.1
				c-0.8,2.3-1.1,3.4-1.9,5.6C136.1,266.4,141.2,266.4,152.1,266.3z"/>
			<path fill="#FDB913" stroke="#FDB913" stroke-width="0.2388" stroke-linecap="square" stroke-miterlimit="2" d="M135,229.7
				c0.8,2,0.5,3.9,0,5.6c-1,0.3-1.5,0.5-2.6,0.8c2,0.7,4,2.8,3.6,4.2c-0.4,1.2-2,1.4-2.2,1.2c0,0-2.6-3.3-3-3.5
				c-0.4-0.1-1.3-1.2-1.2-0.9c0.1,0.1,0.9,1.7,1.5,2.7c0.6,0.9,0.9,2.2,0.9,2.2c-4.1-3.1-5.5-3.5-5.5-3.5c-0.3,0.4-0.4,0.6-0.7,0.9
				c0.1-3.3-0.2-6.4,1.4-9C129,228.5,132.5,229.2,135,229.7z"/>
			<path fill="none" stroke="#000000" stroke-width="0.2388" stroke-linecap="square" stroke-miterlimit="2" d="M132.1,242
				c-4.1-2.8-5.5-3.5-5.5-3.5c-0.3,0.4-0.4,0.6-0.7,0.9c0.1-3.3-0.2-6.4,1.4-9c1.6-1.9,5-1.2,7.6-0.7"/>
			<path d="M131.8,248.8c1-1.5,1.7-2.9,2.3-5.2c-0.2-0.2-0.2-0.5-0.4-0.7c-0.4,0.2-0.5,1.9-0.7,2.8
				C132.5,246.9,132.3,247.6,131.8,248.8z"/>
			<path d="M130.6,238c0,0,2.2,2.3,3.2,3.7c1,0.3,2.1-0.3,2.5-1.6c0-0.7-0.6-2-1.6-2.8c-0.4-0.2-0.8-0.7-1.3-0.9
				c0.8,1,2.5,2.1,2,4.2c-0.9,1-1.3,0.6-1.7,0.1C132.5,239.6,131.9,239.1,130.6,238z"/>
			<path d="M131.9,237.7c1.1,0.7,1.7,1.1,2.8,1.8c0,0,0.6,0,0-0.3c-2.3-1.4-3.9-4.9-6.7-3.5c-1,0.7-1.5,2.5-2,3.6
				c0.3-0.4,0.4-0.5,0.6-0.9c0,0,0.8-1.5,1.3-1.7c1.9-0.8,2.9,0.2,2.9,0.2C131.3,237.2,131.5,237.4,131.9,237.7z"/>
			<path d="M134.2,235.1c-0.1,0.2,0.2,0.7,0,0.8c-0.5,0.3-1.7,0.2-2.3,0C132.2,235.8,133.6,234.5,134.2,235.1z"/>
			<path d="M129.2,230.3c-1.6,1.3-1.9,2.8-2.6,4.9C126.7,232.7,127.6,230,129.2,230.3z"/>
			<path d="M131.4,241.2c-2-2.2-2.2-2.2-4.4-3.4c0,0,0.2-0.3,0.3-0.5c2.2,1.3,3.1,2.5,3.1,2.5C130.8,240.3,131,240.6,131.4,241.2z"
				/>
			<path d="M135.1,234c0,0.3,0.1,0.4,0.1,0.6c1.2-1.5,0.9-3.2-0.3-4.9c0.1,0.7,0.2,1,0.3,1.7C135.5,233.2,135.1,233.5,135.1,234z"/>
			<path stroke="#000000" stroke-width="0.2388" stroke-linecap="square" stroke-miterlimit="2" d="M135.3,235.4
				c1.1-0.2,1,2.3,2.4,2.2c1.1,0.1,2.3-0.9,3-2.3c0.9,0.1,1.7,0.3,2.6-0.3c0.1-0.1,0.1-0.1,0.2-0.2c-0.9,0.4-1.8,0.2-2.7-0.2
				c-1.1-0.4-2.1-1.5-3.1-1.5c-0.9-0.1-1.4,0.7-2,1.9C135.5,235.2,135.4,235.2,135.3,235.4z"/>
			<path fill="#FFFFFF" d="M137.3,234.2c-0.1,0.7-0.4,1.5,0.4,1.9c1,0.3,1.2-0.5,1.5-1.4c0.1-0.1,0.8,0.2,0.8,0.3
				c-0.1,0.6-0.6,1.5-1.3,1.8c-0.5,0.2-0.9,0.2-1.3,0c-0.6-0.3-1.1-1.4-1-2.1C136.3,234.4,137,234,137.3,234.2z"/>
			<path d="M127.6,266.4c0.6-0.2,1.1-1,1.8-1.2c0.3,0.4-1.1,0.8-0.8,1.2C128.2,266.4,128,266.4,127.6,266.4z"/>
			<path d="M132.8,266.4c0.6-0.3,1.5-1.7,2.3-1.7c0.4,0.4-0.7,1.1-0.5,1.7C133.8,266.4,133.5,266.4,132.8,266.4z"/>
			<path d="M140.9,266.4c0.6-0.3,1.3-1.7,2.1-1.5c0.7,0.3,0,0.9-0.3,1.5C141.9,266.4,141.6,266.4,140.9,266.4z"/>
			<path d="M149.1,266.4c-0.2-0.4-0.3-0.6-0.5-0.9c-0.1-0.3-0.7-0.9-0.4-1.1c0.7,0.5,0.7,1.1,1.8,2
				C149.6,266.3,149.5,266.3,149.1,266.4z"/>
			<path d="M136.1,253.9c-0.6,0.8-1.3,1.1-2.1,1.2c-0.5,0.1-0.8-0.2-1.2-0.5c0-0.1,0-0.2,0-0.3c0.9,0.3,1.6,0.6,2.5,0
				C135.6,254.1,135.8,253.7,136.1,253.9z"/>
			<path d="M141.4,253.3c-1.3,2.6-2.1,2.1-3.5,0.7c-0.3-0.1,1.4,0.6,1.9,0.4C140.4,254,140.8,253.7,141.4,253.3z"/>
			<path d="M144.5,262.5c-0.9,0.2-1.6,1.7-2.5,0.7c-0.6-0.5-1-1.2-0.8-2.1c0.9,0.7,1.7,0.9,2.7,0.3c0.9-1.6,2.4-2.1,2.5-4.1
				C146.6,259.2,145.4,261.1,144.5,262.5z"/>
			<path d="M137.2,263.3c-0.6-0.2-1.4,0.5-2.1,0c-0.7-0.6-0.6-1.7-0.8-2.6c0.9,1.2,1.6,1.5,2.6,1.3c0.9-1.2,2.4-2.5,3-4.1
				C139.2,259.9,138.3,261.7,137.2,263.3z"/>
			<path d="M130.9,263.3c-0.5-0.5-1,0.4-1.4-0.1c-0.2-1.1-0.5-2.4-0.2-3.6c0.4,0.8,0.1,2.1,1,2.5c1.4,0.2,1.6-2,2.7-2.6
				C132.8,261,131.5,262,130.9,263.3z"/>
			<path d="M82.9,269.2c3.2-7.1,5.8-14.7,8-22.6C88.6,254.4,86.8,262.4,82.9,269.2z"/>
			<path fill="#BA783E" d="M117.5,281.6c-0.5-0.6-0.2-1.8,0.3-2.5C117.7,280.1,117.6,280.6,117.5,281.6z"/>
			<path d="M81.1,306c-0.5,7.5-1.1,15-1.3,22.7c1.5-7.3,2-15.1,2.4-22.7C81.7,306,81.5,306,81.1,306z"/>
			<path d="M87.4,306c0,0.9,0,1.8,0,2.7c-0.5,2.1-1.9,3.8-2.6,5.8c-2.5,6.2-1.8,14.3-6.7,19c0.5,0.9,0.9-0.2,1.4-0.3
				c3.7-2.6,3.3-8.5,5.2-12.5c0.1,6.2-0.1,13,0.5,18.8c1.6-7,0.7-15,0.7-22.3c0.6-2.5,1.7-4.7,3-6.8c0.1-1.4,0.1-2.9,0.1-4.3
				C88.3,306,88,306,87.4,306z"/>
			<path d="M94,306c-0.2,4.9-0.6,9.9-1.1,14.7c-2.1,2.9-2.4,7.1-3.2,10.3c-1.3,5.4-1.8,13.4-7.2,17.1c-0.1,0.2-0.1,0.3-0.2,0.5
				c2.3-0.1,4.4-3.5,5.4-5.8c1.1-3.6,2.1-7.2,3.2-10.9c0.2,7.2-0.6,14.7-0.9,21.6c2.2-7.9,2.2-17.6,2-26.4c0.3-2,0.9-4,2.3-5.2
				c0,0,0.3-7.5,0.7-15.9C94.6,306,94.4,306,94,306z"/>
			<path d="M100.6,306c-0.3,8.7-0.9,17.6-1.6,26.3c-3.5,6.9-5.1,14.9-6.2,22.9c-0.5,3.2-3,5.4-5.2,6.7c-0.7,0-1,0-1.6,0
				c0.1,0.3,0.2,0.5,0.3,0.8c2.6,0.3,4.5-1.4,6.3-3.2c-0.4-2.6,1.5-4.1,1.8-6.4c0.8-3.2,1.1-6.8,2.4-9.7c-0.5,6.5-0.9,13.2-1.4,19.2
				c1.3-3.2,1.4-7.5,1.8-11.1c0.6-4.8,1.1-9.9,1.4-15c0.7-0.9,1.1-1.4,1.9-2.4c0.4-9.4,0.8-18.8,1.1-28.1
				C101.3,306,101.1,306,100.6,306z"/>
			<path d="M105.8,306c-0.5,12.5-1.1,25-1.7,37.5c-4.4,5.9-4.2,15.7-5.8,21.4c-0.4,1.3-1,3.1-1.9,4.3c1.2-0.8,1.8-1.3,3-2.1
				c1.7-5.8,2.9-12.6,4.3-19.1c0.9-1.3,1.3-2,2.2-3.3c0.4-12.9,0.9-25.7,1.2-38.6C106.5,306,106.3,306,105.8,306z"/>
			<path d="M111.9,306c-0.2,4.5-0.7,9.1-0.2,13.5c0.2,0,0.3,0,0.5-0.1c0.5-4,0.6-8.9,0.8-13.4C112.6,306,112.4,306,111.9,306z"/>
			<path d="M114.5,306c-0.2,3.3-0.5,6.8-0.8,10.1c0,0,0.4,0.3,0.4,0c0.7-3.2,0.9-6.8,0.9-10.2C114.8,306,114.7,306,114.5,306z"/>
			<path d="M117.1,306c-0.1,4.3-0.6,9.7-1.6,12.1c0.7,0.2,1,0.3,1.7,0.5c0.6-4.2,0.8-8.3,0.9-12.7C117.6,306,117.5,306,117.1,306z"
				/>
			<path d="M120,306c-0.2,3.2-0.6,6.5-0.6,9.7c0.8-2.6,1.1-6.2,1.3-9.7C120.4,306,120.2,306,120,306z"/>
			<path d="M122.7,306c0,0.1,0,0.1,0,0.1c-0.4,1.9-0.6,7-1,9.1c0.8,1,1.2,1.5,2.1,2.5c0-1.7,5.5-0.9,5.5-0.9
				c-2.8-3.7-4.9-7.3-6.5-10.8C122.8,306,122.8,306,122.7,306z"/>
			<path d="M122.9,306c-3.7-8-4.6-15.6-4.9-21.8c-0.1-5,0.2-8.9,0.2-8.9c-0.5,1.6-0.7,2.3-1.1,3.9c-1.4,1.1-2.5,0.2-3.7-0.5
				c-0.7-1.2-1.7-2.5-1.1-4.2c0.4-0.9,0.9-1.4,1.4-2c-1.2,0.5-2.8,2.7-4.2,0.9c-0.6-2-1.8-3.8-1-6.2c0.4-0.8,0.6-1.7,1.3-2.3
				c-0.6-0.2-1.5,0.5-2.1-0.3c-0.8-1.9-0.6-4-0.3-6.3c0.6-0.8,1-1.6,1.7-2.1c-0.8-0.5-1.8-1.5-1.6-3.1c0.4-3.4,1.4-6.6,3.4-9
				c0-0.1,0-0.1-0.1-0.2c-2.3,2.6-5.1,4.6-7.9,3.2c-0.9-0.6-0.9-2-1-3.1c-1.7,3.1-4.5,3.8-7.3,4.1c-1.5-0.1-2.1-2.3-3.5-2.8
				c0.5,1.4,1.5,3.2,2.6,4.1c-1.3,7.4-3.9,13.8-6.9,20.1c-1.4,1.9-3.7,1.7-5.5,2.1c0.6,1.2,2.1,0.9,2.8,2.1
				c-1.2,10.7-2.2,21.5-3,32.3c0.4,0,0.6,0,1.1,0c0.2-5.4,0.5-10.8,1.1-16c0.4-6.5,0.7-9.8,1.3-16.3c1.1-0.7,1.7-1.1,2.8-1.8
				c0.9,1.2,1.4,1.9,2.3,3.1c-1.3,10.3-2.1,20.6-2.3,31c0.6,0,0.9,0,1.5,0c0.3-9.9,0.6-19.9,1.5-29.8c0.7-0.6,1.9-0.2,2.5-0.3
				c0.6,2.1,1.2,4.1,2.5,5.6c-0.8,7.9-1.1,16.3-1.5,24.5c0.5,0,0.7,0,1.1,0c0.4-11,1.1-23.7,1.1-23.7c0.2-0.4,0.5-0.3,0.8-0.3
				c0.7,2.7,1,6.8,3.8,7.4c0,5.5,0,11.1-0.2,16.6c0.4,0,0.7,0,1.1,0c0.3-8.3,0.6-15.3,0.6-15.3c0.7,1.6,1.7,4.1,3.4,4
				c0.1,0,0.2,0,0.4,0c-0.1,3.7-0.2,7.5-0.3,11.4c0.5,0,0.7,0,1.2,0c0-3.2,0.1-6.5,0.1-9.7c1.4,1,2.6,3.3,4.6,2.6
				c0.1,0.2,0.2,0.3,0.3,0.5c0.1,2.2,0.1,4.4-0.1,6.7c0.4,0,0.7,0,1.1,0c0.1-2.2,0.1-4.3,0.2-6.3c0.4,0.2,1.1,0.8,1.4,1.5
				c0,1.6,0,3.2-0.1,4.8c0.2,0,0.3,0,0.5,0c0-1.5,0.1-3,0.1-4.3c0.8,0.2,1.1,0.3,1.9,0.5c0,1.1,0.1,2.4,0,3.9c0.4,0,0.6,0,0.9,0
				c0-1,0-2.1,0.1-3.2c0.8-0.7,1.1-1.1,1.9-1.8c0.1,1.7,0.1,3.3,0,5c0.3,0,0.4,0,0.6,0c0.1-1.8,0.1-3.6,0.2-5.2c0,0,1.6,4.4,1.9,5.2
				C122.8,306,122.8,306,122.9,306z"/>
			<path fill="#BA783E" stroke="#000000" stroke-width="0.2388" d="M117.6,364.8c-0.8-0.2-1.5-0.4-2.2-0.7c2-15.2,3.4-30.5,6.1-45.6
				c1.1-1.3,0.8-4,5.5-4.7c0.3,0.9-2.9,0.7-3.6,2.9c3.2-2.6,5-1.7,6.9,0.2c5.8,5.7,2,16.8,2.3,24.8c-0.2,0.5-0.3,0.7-0.4,1.2
				c-0.1,6.8-0.1,10.2,0,16.9c-0.7,1.7-0.1,4.1-0.1,6.1c-1.5-0.6-3.3-2.8-5-1.3c-0.2,0-0.3,0-0.5,0
				C123,364.7,121.2,364.8,117.6,364.8z"/>
			<path fill="#BA783E" stroke="#000000" stroke-width="0.2388" d="M123.3,307c-0.4,3.4-0.6,5.1-1,8.5c0,0,2.2-1.6,2.8-1.9
				c0.6-0.3,1.9-0.2,1.9-0.2s-1.4-2.2-1.9-3.1C124.5,309.5,123.3,307,123.3,307z"/>
			<path d="M104.1,357.4c-0.8,1.3-1.3,2.9-2.5,3.8c0.5-3,2.6-5.8,3.5-9.1c3.4-10.8,4.6-21.7,5.7-33
				C111.1,332.1,108.9,345.2,104.1,357.4z"/>
			<path d="M114.2,255.7c-0.5,2.6-0.3,5.2,0.8,7.3c-3-3.6-1.4-9.2-0.5-13.7c0.7-3.2,2.7-6.8,2-10.3
				C118.5,244.4,114.6,250,114.2,255.7z"/>
			<path fill="#BA783E" d="M102.7,249.6c-1.8,8.4-5.4,15.6-9.8,22.4c-0.8,0.9-2.1,1-3,0.5c-0.7-0.4-1.3-1.4-1.7-2.1
				c2.4-6.5,4.9-13.1,6.4-20.1c2.5,0.4,4.6-1.8,6.6-3.5C101.4,247.8,102.2,248.7,102.7,249.6z"/>
			<path fill="#BA783E" d="M107.4,256.9c-1.1,2.3-2.1,5-1.6,7.7c-2.7,4.8-4.8,10.4-8.7,14.1c-1.4,0.8-2.4-0.9-2.8-2.1
				c-1.6-4.6,2.9-7.9,4.1-11.5c1.6-4.6,4-9.8,5.3-15.2c1.6,0.2,3.1-0.7,4.4-2.1C107.3,250.5,105.3,254.6,107.4,256.9z"/>
			<path d="M97,258.9c-0.5-0.6,0.1-1.7,0.3-2.3c0.7-1.8,1.5-4,2.1-6.2c0,0.2,0,0.3,0.1,0.5C98.4,254.1,97.9,255.7,97,258.9z"/>
			<path d="M98.5,273.6c-1,0.9-1.7,2.8-3.1,2.1c-0.2-1.4,1.2-1.1,1.8-1.8c3.2-5.7,5.7-11.8,8.1-18.1
				C103.3,262,100.9,267.8,98.5,273.6z"/>
			<path d="M108.7,261.5c0.8-0.7,1.2-1,2-1.6C110.4,261.1,109.4,261.3,108.7,261.5z"/>
			<path d="M94.5,266.2c-1.1,1.4-1.4,4.1-3.2,4.9c2.1-3.2,3.5-7.3,4.9-11.3C96.3,262.4,94.8,263.7,94.5,266.2z"/>
			<path fill="#BA783E" d="M107.6,273.5c0.4,1,1.9,1,1.4,2.5c-2.2,3.9-3.7,8.6-6.9,11.5c-1.6,0.8-2.7-1.5-3.6-2.8
				c-0.5-1.1-0.6-2.3-0.7-3.6c3.9-4.2,5.7-9.8,8.3-14.8C108.3,267.5,106.2,271.3,107.6,273.5z"/>
			<path d="M110.7,271c0.8-1.4,1.2-2.1,2-3.4C112.3,268.9,111.8,270.1,110.7,271z"/>
			<path d="M115.7,276.4c0.3-0.9,0.5-1.4,0.8-2.3c-0.1,0.6-0.1,0.9-0.2,1.4C116,275.9,115.9,276.1,115.7,276.4z"/>
			<path fill="#BA783E" d="M113.1,280.4c0.1,0,0.2,0,0.4,0c0,0.3,0,0.5,0,0.8c-2.3,4.6-3.4,6.9-5.7,11.5c-0.5,0.7-1.4,0.8-2.1,0.5
				c-1.1-1-2.5-2.4-2.5-4.2c3.4-3.2,4.6-8.3,6.7-12.5C110.4,278,111.3,280.6,113.1,280.4z"/>
			<path d="M100.9,284.9c-0.4,0-0.7,0-1.1,0c-0.2-1,1-0.6,1.4-1.3c1.5-2.1,2.7-4.3,3.8-6.6C104,279.9,102.6,283.1,100.9,284.9z"/>
			<path fill="#BA783E" d="M116.2,281.9c-0.3,2.3,2.2,3.3,1.4,5.7c-1.9,2.9-2.6,6.8-4.7,9.8c-1.5,1.5-2.7-0.7-4-1.5
				c-0.3-0.5-0.5-1.2-0.6-1.8c2.8-3.7,4.2-8.1,5.9-12.3C114.8,282.6,115.6,281.9,116.2,281.9z"/>
			<path d="M106.7,290.9c-0.5,0.4-0.9,0.9-1.5,0.8c2-2,3.4-5.3,4.8-8.1C108.6,286.6,108,288,106.7,290.9z"/>
			<path fill="#BA783E" d="M119.2,294.4c-0.2,1.1-1,2.4-1.9,3.1c-0.4-0.1-0.8,0.1-1.1,0.5c-0.1,0.3,0.1,0.5,0.3,0.6
				c0.8,0,1.6-0.5,2.3-1.1c0.2-0.5,0.6-1.1,0.8-1.5c0.1,0.9,0.4,1.8,0.7,2.7c-0.1,0.2-0.9,0.8-1.2,0.9c-1.5,1.6-3.3,0-4.6-1
				c-0.1-0.2-0.2-0.3-0.4-0.5c1.7-4.1,2.6-6.1,4.3-10.2C118.3,289.9,118.8,292.3,119.2,294.4z"/>
			<path d="M109.9,295.5c2.3-1.2,3.1-4.4,4.3-6.9C113.1,291.1,112.9,295.6,109.9,295.5z"/>
			<path d="M106.1,244c0.6-1.2,0.8-2.5,1.8-3.5C107.9,241.9,106.9,243,106.1,244z"/>
			<path d="M109.5,250.6c0-1.2,1.1-1.6,1.7-2.8C111,248.7,109.9,249.7,109.5,250.6z"/>
			<path d="M164.6,281.6c-0.4,12.2-3.9,24.8-12,34.5c2.8,1.2,4.2,1.8,7,2.9c0.2-0.9,0.4-1.3,0.6-2.2c0.2,0.4,0.4,0.3,0.7,0.5
				c0.7,0.4,0.5,0.3,1.3,0.4c1.1-0.1,1.6-0.1,2.7-0.3c0.9-0.4,1.7-1.2,2-2.4c0.4,0.1,0.5,0.2,0.9,0.3c0.2,0.1,0.3,0.2,0.4,0.3
				c0.8,0.1,2.2,0.6,2.8-0.4c0.5,0.9,0.7,1.3,1.2,2.2c0.3,1.5,0.4,2.2,0.7,3.7c3.3,11.8,4.9,25.4,14.8,33.8c0.3,0.2,0.5,0.3,0.9,0.5
				c0.7,0.3,1.1,0.5,1.8,0.8c1.9,3.1,2.9,4.7,4.8,7.8c1.4,1.9,3.1,2.9,4.7,4.1c0.7,0.1,1.7,2.4,2.2,1.7c0.3-0.9,0.4-1.3,0.7-2.2
				c-0.6-3.2-0.9-4.8-1.5-8c1,0.5,2.1,0.4,3.1,0.7c0.6-0.6,0.9-0.9,1.4-1.5c-0.3,0.1-0.4,0.1-0.7,0.2c-1.5-0.8-3.4-1.1-4.7-2.7
				c-5.2-8.2-6.1-17.4-11.4-25.6c-2.4-14.5-3.5-29.1-4.8-43.8c2-2.1,1.5-6.2,4.6-7c1,12.9,1.6,25.8,2.7,38.8
				c1.2,0.6,2.4,1.5,3.2,2.8c0.6,10.2,2.2,20.5,5.9,30.2c-0.5-3.6-1.7-7.2-2.2-11c-0.6-5.2-0.9-7.8-1.4-13
				c1.6,5.4,2.5,12.1,5.7,14.5c3.4,2.7,4.9,0.6,4.9,0.6c-0.5-0.8-1-0.3-1.7-0.6c-9.4-5.7-6.2-17.9-12.7-25.8
				c-0.9-11.1-1.6-22.2-2.1-33.4c-0.2-1.9-0.2-2.9-0.4-4.8c1.2-2.3,1.7-5,2.3-7.6c1.3-0.4,1.9-0.6,3.2-1.1c0,0.9,0.1,1.3,0.1,2.2
				c-0.2,12-0.2,24.1,0.3,36.1c0.6,0.5,0.8,0.7,1.4,1.2c0.9,8.3,1.1,17.4,4,24.9c-1.9-7.1-2.2-15.6-2.5-23.2
				c4.1,3.5,3.1,9.7,5.5,14.3c0.2-0.1,0.4-0.1,0.6-0.2c-2.3-6.2-1.3-14-7.2-18c-0.5-13-0.6-25.9-0.6-38.9c0.4-0.8,0.6-1.7,1.2-2.4
				c0.7,2.2,3,2.6,4.7,2.5c0.4,17.7,0.8,34.9,3.8,52.4c-1.9-17.8-2.6-35.4-2.8-53.3c0.9-0.4,1.9-1.1,2.6-2.2c-0.2-0.6,0.5-1,0.1-1.5
				c-1.6,1.5-3.6,2.9-5.4,2.1c-0.6-0.8-0.9-1.2-1.5-2c-2.8-6.6-5.1-13.6-7.5-20.4c0.8,0.3,2.4,0.2,3.3-0.6c1.2-1.1,2.2-2.5,2.8-4.1
				c-1.7,1.5-4.5,3-6.8,2c-0.1-0.1-0.2-0.2-0.3-0.3c-3,2.5-7.1,4.8-10.9,3.2c-0.8,2-1.5,4.6-3.8,5.4c-0.7,0.1-1,0.1-1.7,0.2
				c0.4,1.2,1.5,2.4,2,3.6c0.3,2,0.5,4.8-0.6,6.6c-0.7,2-3.4,1.3-2.8,3.7c0.4,1.6,0.2,4.4-0.9,6c-1.7,2-3.8,3.6-5.8,3.4
				c-0.3,1.9-2.7,5.3-2.7,5.3S164.6,279.7,164.6,281.6z"/>
			<path d="M168.4,255.5c2.4-7.5-5-13.5-0.6-21C165.1,242,172.7,248,168.4,255.5z"/>
			<path d="M185,238.4c-0.1,0.1-0.1,0.1-0.1,0.1c-0.5-0.3-1-1.2-0.7-1.8C184.5,237.1,185,237.7,185,238.4z"/>
			<path fill="#BA783E" stroke="#000000" stroke-width="0.2388" d="M191.2,242.2c2.5,6.6,4.5,13.6,7.1,20.2c0,1.6-0.8,2.9-1.7,4.1
				c-1,0.8-2.3,1.3-3.4,0.9c-4.5-6.6-7.8-13.6-10.8-20.8C185.8,246.8,188.7,244.7,191.2,242.2z"/>
			<path d="M177.9,246.2c-1.1,0-2.4-1-3.6-1.7c0.1-0.3,0.2-0.4,0.4-0.7C176.2,243.5,177.2,245.2,177.9,246.2z"/>
			<path d="M203.9,259.8c-1.6-5.4-3.4-10.9-4.5-16.3C201.3,248.7,202.4,254.4,203.9,259.8z"/>
			<path d="M195.4,265c-1.7-0.5-2.3-3.2-3.1-4.8c-1.9-4-4.1-8.3-4.7-13.2C189.2,253.3,193.2,258.7,195.4,265z"/>
			<path fill="#BA783E" stroke="#000000" stroke-width="0.2388" d="M191.5,268.7c0.4,2.5-0.4,4.9-1.5,6.9c-1,1.3-2.2,2.3-3.6,1.9
				c-3.2-4.8-6.4-9.6-8.5-14.9c-0.3-1.3,0.9-2.4,1-3.7c0.5-2.6-0.2-4.8-0.7-7c1.3-1.3,2.2-2.9,2.8-4.7
				C184.6,254.1,186.7,262.1,191.5,268.7z"/>
			<path d="M175.4,255.8c0.4,0.5,0.6,1.2,0.7,1.8c-1.3-1-2.8-1.9-3.7-3.4C173.7,254,174.5,255.1,175.4,255.8z"/>
			<path d="M188.9,274.7c-0.6,1-1.4-0.4-1.7-1c-2.8-6-6-11.8-7.6-18.4C182.7,261.8,185.2,268.6,188.9,274.7z"/>
			<path d="M170.5,267.5c-1.8-1.4-2.9-3.3-3.6-5.4C169,262.7,170.1,265.4,170.5,267.5z"/>
			<path fill="#BA783E" d="M176.4,263.2c2.4,5.8,5.2,11.3,9,16.4c0.4,2.2-0.9,3.7-2,5.2c-1.1,1-2.4,1.4-3.8,1.2c-3-3.7-4.8-8-7-12
				c2.4-2.9,2.6-7,3.2-10.7C176.1,263.2,176.2,263.2,176.4,263.2z"/>
			<path d="M181.2,281c0.6,0.8,2.3,0.2,2,1.8c-0.9,0.6-1.6-0.2-2.3-0.5c-1.9-3.6-4-7.2-5.3-11.1C177.3,274.6,179.3,277.6,181.2,281z
				"/>
			<path fill="#BA783E" d="M171,274.1c1.8,4.7,4.2,9.2,7.2,13.4c0.1,2-1.3,3.6-2.7,4.6c-1.4,0.6-3-0.4-3.3-2
				c-1.2-5.2-7.5-9.4-3.9-15.5C169.2,274.5,170.1,274.3,171,274.1z"/>
			<path d="M174,288c0.5,1.1,2.5,1,1.7,2.6c-1.2,0.2-2.2-0.8-2.7-2c-1.4-4.2-2.1-6.3-3.5-10.5C171.3,282.1,172.2,284.1,174,288z"/>
			<path fill="#BA783E" d="M171.6,292.8c-0.9,2.3-3.1,3-5.1,3.3c-1.2-0.1-3.1-0.6-3.4-1.3c0.4-1.9,1-5.2,1.2-7.8
				c1.6,2.3,1.5,7.1,4.7,7.3c0.5-0.2,0.2-0.8,0.3-1.2c-2.6-1.3-3.5-5.3-4.9-7.9c0.2-1.3,0.2-2.6,0.3-4c0.3-0.3,0.8-0.6,1.4-0.8
				C168.3,285.3,169.4,287.8,171.6,292.8z"/>
			<path fill="#BA783E" stroke="#000000" stroke-width="0.2388" d="M170.5,297.5c1.3-1.1,1.5-4.9,3.6-2.5c0.7-0.1,1.1-0.2,1.8-0.4
				c0.2,0.7,0.3,1.1,0.6,1.8c1,14.4,3.4,28.7,5.9,42.9c3.9,3.9,4.8,9.6,6.9,14.5c-5.6-4.1-8.8-11.5-11.1-18.2
				c-1.8-5.4-3.2-11.2-5-16.7C173.2,318.9,170.9,304.3,170.5,297.5z"/>
			<path fill="#BA783E" d="M166.2,298.3c0.4,4.7,1.4,9.1,2.5,13.6c0.4-2.1-0.6-3.9-0.7-6c-0.2-2.3-0.5-4.8-1-7.2
				c0.5-0.4,1-0.6,1.6-0.5c0.8,5.7,1.8,11.4,3,17.1c-0.5-1.3-1.8-0.3-2.6-0.8c-5.4-3.2-2.7-11-4.6-16.2c0.1-0.3,0.1-0.5,0.2-0.8
				C165.2,297.8,165.5,298,166.2,298.3z"/>
			<path fill="#BA783E" stroke="#000000" stroke-width="0.2388" d="M201.4,366.8c-0.5-3.2-0.8-4.8-1.3-7.9
				c-3.5-4.4-5.2-9.8-6.8-15.1c-0.4,4.7,1,9.2,1.7,13.5c-0.1,0-0.1,0-0.2,0c-2.4-5.9-2.9-12.9-3.7-19.6c-1-1.9-2-4.4-3.9-5.3
				c-1.6-14.6-3.8-29.2-4.6-43.9c-1.2,0-1.9,0-3.1,0c-0.6,1.9-0.8,2.8-1.4,4.6c1.2,15,3.3,29.7,6.1,44.5c5.3,8.9,5.7,20,13.7,27.2
				C199.2,365.6,199.9,366,201.4,366.8z"/>
			<path fill="#BA783E" d="M160.7,314.7c0.2,0.4,0.4,0.6,0.7,0.8c0.7,0.4,1.6,0.5,2.4,0.5c1-0.2,1.8-1.5,2-2.4
				c-2.3-4.5-1.7-11.4-2.5-16.6c-0.2,0.1-0.5-0.5-0.7-0.2c-0.3,1.1-0.9,2.6-1,3.3c0.5,3.6,1.6,7.6,1,11.6c-1-3.4-0.1-7.5-1.3-10.6
				c-0.8,2.1-1.2,3-2,4.7c0.5,3.2,0.7,4.9,1.2,8.2C160.5,314.3,160.6,314.5,160.7,314.7z"/>
			<path fill="#BA783E" d="M158.4,307.6c0.4,2.3,0.6,3.4,1,5.8c0,0-0.7-1.3-1.8-1.5c-1.1-0.2-1.8-0.1-1.8-0.1
				C156.8,310.1,157.3,309.3,158.4,307.6z"/>
			<path fill="#BA783E" stroke="#000000" stroke-width="0.2388" d="M158.4,364.5c-1.7,1-3.5,1.6-5.3,2.3c-0.4-3.9-0.5-5.9-0.8-9.9
				c-0.2-0.2-0.3-0.3-0.5-0.6c-0.5-5.2-0.8-7.8-1.2-12.9c0-0.2,0-0.3,0-0.5c-0.2-0.3-0.3-0.4-0.5-0.6c1.1-8.9-3.8-18.1,0.7-25.6
				c1.6-1.3,3.6-2.4,5.8-1.7c1.2,0.5,2.3,1.7,3.3,2.7c-0.1-0.7-0.6-1.6-1.1-2.3c-1.1-1.7-3-1.8-4.6-2.2c1.2-0.6,2.4-0.6,3.5,0
				c1.7,0.8,2.9,2.8,3.9,4.5c1.3,5.1,1.7,10.8,2.7,16c2,10,4.1,20.4,6.3,30.6c-1.5-0.2-2.6,0.4-4.1,0.3
				C163.2,364.4,161.6,364.4,158.4,364.5z"/>
			<path stroke="#000000" stroke-width="0.2388" d="M166.4,364.4c-8.3-6.9-8.3-18.6-10.2-28.1c-0.5-2.5-0.9-5.2-1.5-7.7
				c0.4,8.2,2.7,16,4.1,24c1.1,2,1,4.7,1.5,7c-0.5,1.7-0.8,3.4-2,4.9C161.6,364.4,163.2,364.4,166.4,364.4z"/>
			<path stroke="#000000" stroke-width="0.2388" d="M126.6,364.6c-1-2.9-1.5-4.4-2.5-7.4c0.3-3.3,0.6-6.7,0.4-10.1
				c-0.9,6.2-2.3,13.6-6.9,17.7C121.2,364.8,123,364.7,126.6,364.6z"/>
			<path d="M131.6,322.9c0,0.1,0,0.1,0,0.1c-1.3-0.5-3.1-0.9-4.2-2.3c-1.6,1.1-3.6,1.3-5.5,1.1c0-0.1,0-0.2,0-0.3
				c1.9-0.9,3.8-1.6,5.5-3.1C128.6,320.2,130.5,321.6,131.6,322.9z"/>
			<path d="M126.8,329.7c0.3,0.1,0.5,0.1,0.8,0.2c1.4,3.7,3.2,7.3,4.3,11.2c-3.1-2.5-3.3-7.6-5-11c-0.9,6.7-1.3,10.1-2.1,16.8
				c0.4-8.7,1.9-16.9,2.7-25.3C127.5,324.4,126.9,326.9,126.8,329.7z"/>
			<path stroke="#000000" stroke-width="0.2388" stroke-linecap="square" stroke-miterlimit="2" d="M157.4,322.6
				c2.8,7.6,4.8,16.2,7.7,23.5c-3.4-7.5-6.1-15.6-8-23.5C157.3,322.6,157.3,322.6,157.4,322.6z"/>
			<path d="M126.1,325.7c-2.4,8.1-2.8,17.4-7.6,24c-0.1-0.1-0.1-0.2-0.2-0.4c2-5.7,3-8.5,5.1-14.2c1.1-4.5,1.6-6.8,2.7-11.3
				C126.1,324.6,126.1,325,126.1,325.7z"/>
			<path d="M126.7,343.9c1.4,5.1,3.1,9.9,4.7,14.9c-2.9-4.1-4.8-9.4-4.9-14.9C126.5,343.9,126.6,343.9,126.7,343.9z"/>
			<path d="M155.4,348.3c-0.7,1.8-1,4.1-2.4,5.7c1-3.7,1.6-5.6,2.6-9.3C156.2,345.4,155.8,347.4,155.4,348.3z"/>
			<path fill="#FFFFFF" stroke="#000000" stroke-width="0.2388" d="M164.6,281.6c-0.1,10.4-2.5,21.1-8.4,29.6
				c-9.5,13.9-15.8,16.8-15.8,16.8s-6.3-2.9-14.9-16.8c-5.4-8.7-7.6-19.3-7.6-29.5C133.5,281.6,149,281.6,164.6,281.6z"/>
			<path fill="#ED1A3B" stroke="#000000" stroke-width="0.2388" d="M138.6,326.9c0-15.1,0-30.2-0.3-45.3c-1.6,0-2.4,0-3.9,0
				c0.2,13.9,0.3,27.8,0.3,41.7C134.7,323.3,136.5,325.1,138.6,326.9z"/>
			<path fill="#ED1A3B" stroke="#000000" stroke-width="0.2388" d="M124,308.4c0-10.8-0.1-16.1-0.2-26.8c-1.4,0-2,0-3.4,0
				c0,7.2,0,10.8,0.1,18C120.5,299.6,122.2,305.3,124,308.4z"/>
			<path fill="#ED1A3B" stroke="#000000" stroke-width="0.2388" d="M131,318.9c0.1-12.5-0.1-24.9-0.3-37.4c-1.4,0-2.1,0-3.5,0
				c0.1,10.8,0.2,21.7,0.2,32.5C127.5,314.1,128.9,316.3,131,318.9z"/>
			<path fill="#ED1A3B" stroke="#000000" stroke-width="0.2388" d="M142.3,326.9c0-15.1,0-30.2-0.3-45.3c1.6,0,2.4,0,4.1,0
				c0.2,13.9,0.3,27.8,0.3,41.7C146.3,323.3,144.5,325.1,142.3,326.9z"/>
			<path fill="#ED1A3B" stroke="#000000" stroke-width="0.2388" d="M157.9,308.4c0-10.8-0.1-16.1-0.1-26.9c1.6,0,2.3,0,3.9,0
				c0,7.2,0,10.9,0,18C161.7,299.6,159.9,305.3,157.9,308.4z"/>
			<path fill="#ED1A3B" stroke="#000000" stroke-width="0.2388" d="M150.3,319c0-12.5-0.1-24.9-0.2-37.4c1.5,0,2.3,0,3.9,0
				c0.1,10.8,0.2,21.7,0.2,32.5C154.1,314.1,152.5,316.3,150.3,319z"/>
			<path fill="#44C8F5" stroke="#000000" stroke-width="0.2388" d="M163.6,266.2c0,0,2.4,13.9,1,15.3c-3.5,3.4-44.2,2.6-46.7,0.1
				c-1.6-1.6,1.2-15.2,1.2-15.2C133.9,266.4,148.8,266.4,163.6,266.2z"/>
			<g>
				<path stroke="#000000" stroke-width="0.2388" stroke-linejoin="round" d="M49.6,337.7c1.1,2.3,1.7,3.5,2.8,5.8
					c-0.2,1.4-0.4,2.1-0.6,3.5C50.9,343.2,50.5,341.4,49.6,337.7z"/>
			</g>
			<g>
				<path fill="#FFFFFF" stroke="#000000" stroke-width="0.2388" stroke-linejoin="round" d="M49.6,337.7c0.1,2.8,0.1,4.2,0.2,7
					c0.8,0.9,1.2,1.3,2,2.3C50.9,343.2,50.5,341.4,49.6,337.7z"/>
			</g>
			<g>
				<path stroke="#000000" stroke-width="0.2388" stroke-linejoin="round" d="M45.6,346.7c1.7-0.8,2.6-1.2,4.3-2
					c0.8,0.9,1.2,1.3,2,2.3C49.4,346.9,48.2,346.8,45.6,346.7z"/>
			</g>
			<g>
				<path fill="#FFFFFF" stroke="#000000" stroke-width="0.2388" stroke-linejoin="round" d="M45.6,346.7c1.8,0.9,2.7,1.4,4.4,2.3
					c0.7-0.8,1.1-1.3,1.8-2.1C49.4,346.9,48.2,346.8,45.6,346.7z"/>
			</g>
			<g>
				<path stroke="#000000" stroke-width="0.2388" stroke-linejoin="round" d="M50.3,356.1c-0.1-2.8-0.2-4.2-0.3-7
					c0.7-0.8,1.1-1.3,1.8-2.1C51.2,350.6,50.9,352.5,50.3,356.1z"/>
			</g>
			<g>
				<path fill="#FFFFFF" stroke="#000000" stroke-width="0.2388" stroke-linejoin="round" d="M50.3,356.1c0.9-2.2,1.4-3.3,2.4-5.6
					c-0.3-1.4-0.5-2.1-0.8-3.6C51.2,350.6,50.9,352.5,50.3,356.1z"/>
			</g>
			<g>
				<path stroke="#000000" stroke-width="0.2388" stroke-linejoin="round" d="M56.8,352.9c-1.7-0.9-2.5-1.4-4.2-2.4
					c-0.3-1.4-0.5-2.1-0.8-3.6C53.8,349.3,54.8,350.5,56.8,352.9z"/>
			</g>
			<g>
				<path fill="#FFFFFF" stroke="#000000" stroke-width="0.2388" stroke-linejoin="round" d="M56.8,352.9c-1.1-2.3-1.6-3.5-2.7-5.8
					c-0.9,0-1.4-0.1-2.3-0.1C53.8,349.3,54.8,350.5,56.8,352.9z"/>
			</g>
			<g>
				<path stroke="#000000" stroke-width="0.2388" stroke-linejoin="round" d="M56.5,341.5c-1,2.2-1.4,3.4-2.4,5.6
					c-0.9,0-1.4-0.1-2.3-0.1C53.7,344.8,54.6,343.7,56.5,341.5z"/>
			</g>
			<g>
				<path fill="#FFFFFF" stroke="#000000" stroke-width="0.2388" stroke-linejoin="round" d="M56.5,341.5c-1.6,0.8-2.4,1.2-4.1,2
					c-0.2,1.4-0.4,2.1-0.6,3.5C53.7,344.8,54.6,343.7,56.5,341.5z"/>
			</g>
			<g>
				<g>
					<path stroke="#000000" stroke-width="0.2388" stroke-linejoin="round" d="M260.2,334.2c0.2,2.8,0.2,4.2,0.4,7
						c-1.2,0.9-1.8,1.4-3.1,2.4C258.6,339.8,259.2,337.9,260.2,334.2z"/>
				</g>
				<g>
					<path fill="#FFFFFF" stroke="#000000" stroke-width="0.2388" stroke-linejoin="round" d="M260.2,334.2c-1.6,2.4-2.5,3.6-4.1,6
						c0.6,1.4,0.9,2.1,1.5,3.5C258.6,339.8,259.2,337.9,260.2,334.2z"/>
				</g>
				<g>
					<path stroke="#000000" stroke-width="0.2388" stroke-linejoin="round" d="M248.7,338.4c3,0.7,4.5,1.1,7.5,1.8
						c0.6,1.4,0.9,2.1,1.5,3.5C254.1,341.5,252.3,340.5,248.7,338.4z"/>
				</g>
				<g>
					<path fill="#FFFFFF" stroke="#000000" stroke-width="0.2388" stroke-linejoin="round" d="M248.7,338.4c2,2.2,3,3.3,4.9,5.5
						c1.6-0.1,2.4-0.1,4-0.2C254.1,341.5,252.3,340.5,248.7,338.4z"/>
				</g>
				<g>
					<path stroke="#000000" stroke-width="0.2388" stroke-linejoin="round" d="M249.4,349.8c1.7-2.4,2.5-3.6,4.1-6
						c1.6-0.1,2.4-0.1,4-0.2C254.4,346.1,252.7,347.3,249.4,349.8z"/>
				</g>
				<g>
					<path fill="#FFFFFF" stroke="#000000" stroke-width="0.2388" stroke-linejoin="round" d="M249.4,349.8c2.9-1.1,4.3-1.6,7.1-2.6
						c0.4-1.4,0.6-2.2,1-3.6C254.4,346.1,252.7,347.3,249.4,349.8z"/>
				</g>
				<g>
					<path stroke="#000000" stroke-width="0.2388" stroke-linejoin="round" d="M261.3,352.6c-1.9-2.2-2.8-3.3-4.8-5.4
						c0.4-1.4,0.6-2.2,1-3.6C259.1,347.2,259.8,349,261.3,352.6z"/>
				</g>
				<g>
					<path fill="#FFFFFF" stroke="#000000" stroke-width="0.2388" stroke-linejoin="round" d="M261.3,352.6c-0.2-2.8-0.2-4.2-0.4-7
						c-1.3-0.8-2-1.2-3.3-2C259.1,347.2,259.8,349,261.3,352.6z"/>
				</g>
				<g>
					<path stroke="#000000" stroke-width="0.2388" stroke-linejoin="round" d="M267.8,343c-2.7,1-4.1,1.5-6.8,2.6
						c-1.3-0.8-2-1.2-3.3-2C261.8,343.3,263.8,343.2,267.8,343z"/>
				</g>
				<g>
					<path fill="#FFFFFF" stroke="#000000" stroke-width="0.2388" stroke-linejoin="round" d="M267.8,343c-2.8-0.7-4.2-1.1-7.1-1.8
						c-1.2,0.9-1.8,1.4-3.1,2.4C261.8,343.3,263.8,343.2,267.8,343z"/>
				</g>
			</g>
			<path stroke="#000000" stroke-width="0.2388" d="M150.5,343.3C150.5,343.3,150.5,343.3,150.5,343.3c2.4-2.8,3.9-6.3,4-10.1
				c0-0.1-0.1-0.1-0.1-0.1c-0.9,3.5-2.8,6.4-3.9,9.7C150.5,343,150.5,343.1,150.5,343.3z"/>
			<path d="M154.4,327.1c0,0-0.1,0-0.1,0c-0.1-1.1-0.1-1.6-0.2-2.7c0.1,0,0.1,0,0.2-0.1c0.1,0.9,0.1,1.4,0.1,2.3
				C154.4,326.8,154.4,326.9,154.4,327.1z"/>
			<path d="M158.9,320.6c-1.7,0.4-3.3-0.1-4.7-0.8c-1.4,1.1-2.8,2-4.5,2.2c0.9-1.5,2.9-2.5,4.2-4.2
				C155.2,319.5,156.9,320.3,158.9,320.6z"/>
			<path fill="#FDB913" stroke="#000000" stroke-width="0.2388" d="M124.1,369.7c0,0,0.8-5.7,4.1-5.6c3.3,0.1,3.1,1,3.8,1.8
				c0.7,0.7,1.4,1.9,1.2,2.5c0,0.1-0.2,0.3-0.3,0.4c-0.1,0.1-1.5,1.1-1.8,1.2c-0.9,0.3-2.6,0.3-3.6,0.4c-1.3,0.1-2.4-0.8-2.8-0.8
				S124.1,369.7,124.1,369.7z"/>
			<path d="M125.4,369.5c0,0-0.6-0.9,0-1.9c0.1-0.2,0.5-0.2,0.7-0.8c0.4-1.1,1.8-1.5,2.6-1.3c1.1,0.2,3.8,2.8,3.8,2.8s0.6,1.2,0,0.7
				c-0.5-0.4-0.8-1-1.5-0.8c-0.7,0.2-1.8,1.3-2.7,0.9c-0.8-0.3-1.6-1.3-2-1.2C126,368,125.4,369.5,125.4,369.5z"/>
			<path fill="#FDB913" stroke="#000000" stroke-width="0.2388" d="M133.2,368.3c0.7,0.5,1.4,1.2,2,2.3c0.6,1.1,0.7,3.3,0.3,4.8
				c-0.3,1.1-2.6,2.5-2.6,2.5s1-3.1,0.8-4.4c-0.2-1.1-0.8-1.7-1.3-2.3c-0.4-0.5-1.3-1.1-1.3-1.1s0.9-1.1,1.4-1.3
				C133.1,368.7,133.2,368.3,133.2,368.3z"/>
			<path d="M132.4,369c0.2-0.1,0.2-0.1,0.4-0.2c0,0,1.4,1.3,1.9,2.8c0.2,0.6,0.5,1.6,0.1,3.3c-0.3,1-0.8,1.8-0.8,1.8
				s0.4-1.2,0.6-2.9c0.1-0.8-0.2-1.9-1-3.1C133.1,370,132.4,369,132.4,369z"/>
			<path fill="#FDB913" stroke="#000000" stroke-width="0.2388" d="M119.9,369.3c0,0-0.2,2.2,0,4c0.2,1.9,1.5,3.9,2.6,4.2
				c1.4,0.4,2.2,0.3,2.2,0.3c-0.5-0.5-1.9-1.8-2.1-3.1c-0.2-1.3,0.2-1.8,0.2-2.6c0-0.9,0.3-1.3,0.3-1.3s-1-0.7-1.5-1
				C121.1,369.5,119.9,369.3,119.9,369.3z"/>
			<path d="M121.3,369.7c0,0-0.4,1.3-0.3,2.4c0.1,1.9,0.3,2.6,0.7,3.4c0.3,0.7,1.7,1.7,1.7,1.7s-1.1-1-1.4-2.6
				c-0.3-1.6-0.2-3.5,0.1-4.4C121.7,370,121.6,369.9,121.3,369.7z"/>
			<path fill="#FDB913" stroke="#000000" stroke-width="0.2388" d="M120.9,364.7c0,0-3.5,0-4.3-0.2c-0.8-0.2-0.9-0.4-1.5-0.4
				c-0.6,0-3.3,0.7-3.9,2.2c-0.5,1.5-0.9,2.3-0.8,2.6c0,0.3,1.2,0.5,1.6,0.7c0.4,0.2,1.8,0.5,2.1,0.6c1.8,0.6,3.1,0.1,3.1,0.1
				s2.1-0.6,2.3-0.9c0.2-0.3,0.6-0.7,0.7-1.2C120.3,367.5,120.9,364.7,120.9,364.7z"/>
			<path fill="#FDB913" stroke="#000000" stroke-width="0.2388" d="M126.1,365.1c0,0-1.7-4.4-2.8-6.1c0,0-1.5,2.7-1.9,3.9
				c-0.4,1.2-1.7,4.2-1.6,4.6c0.1,0.4-0.2,1.3-0.1,1.5c0.1,0.2,0.3,0.2,1.1,0.4c0.8,0.2,1.2,0.5,1.6,0.9c0.4,0.4,1.1,0.5,1.3,0.4
				c0.2,0,0.5-1.1,0.5-1.1s0.4-2,0.8-2.7C125.2,366.3,126.1,365.1,126.1,365.1z"/>
			<path d="M124.7,367.5c0,0-0.6-0.9-1.1-1.2c-0.5-0.3-1.3-0.4-1.3-0.4s-0.7,0.3-0.7,0.7c0,0.3,0,0.7,0.1,0.9
				c0.1,0.1,0.5,0.4,1.2,0.7c0.7,0.2,1.5,0.6,1.5,0.6C124.5,368.3,124.6,368.1,124.7,367.5z"/>
			<path fill="#FDB913" stroke="#000000" stroke-width="0.2388" d="M110.8,369c0,0-0.2,2.2,0.5,4.6c0.5,1.6,1.4,3,2.3,3.5
				c0.9,0.5,3.4,0.3,3.4,0.3s-1.7-0.4-2.8-2.6c-0.5-1.1-0.6-2.6-0.6-3.3c0-0.7,0.2-1.4,0.2-1.4s-1.4-0.4-1.7-0.5
				C111.8,369.4,110.8,369,110.8,369z"/>
			<path d="M111.9,369.5c0,0,0,1.8,0.2,2.8c0.1,1,0.9,2,0.9,2s-0.4-1.3-0.4-2.1c-0.1-0.7-0.1-2.6-0.1-2.6
				C112.2,369.5,112.1,369.5,111.9,369.5z"/>
			<path d="M119.9,366.8c0,0-2-0.2-2.9-0.2c-1,0-1.5,0.3-1.7,0.5c-0.2,0.2-1.5,0.4-1.5,0.4c-0.6,0.8-0.9,1.2-1.6,2
				c0.5,0.1,0.7,0.2,1.1,0.3c1.2-0.2,0.4-1.2,2.5-1.2c1.1,0,3.4-0.9,4-1.3C119.8,367.1,119.8,367,119.9,366.8z"/>
			<path fill="#FDB913" stroke="#000000" stroke-width="0.2388" d="M160.5,364.2c0,0-0.8,0.1-2.1,0.3c-1.4,0.2-3.9,0.1-4.6,1
				c-0.6,0.8-2.5,1.9-3.1,3.5c-0.6,1.6-0.6,2.6-0.4,2.8c0.3,0.3,0.3,0.2,1.1,0.3c0.7,0.1,1.6,0.5,2.6,0.7c1.8,0.3,2.6-0.9,3.2-1.3
				c0.9-0.5,2.7-1.2,3.3-1.4c0.6-0.1,0.3-2.2,0.3-2.2C160.7,366.4,160.6,365.6,160.5,364.2z"/>
			<path fill="#FDB913" stroke="#000000" stroke-width="0.2388" d="M153.8,372.7c0,0,0,2.1,0.7,3.3c0.7,1.3,1.2,1.3,1.9,1.5
				c0.7,0.2,1.6,0.1,1.6,0.1s-1,1.5-2.3,1.3c-1.2-0.2-3.2-2-3.7-2.9c-0.9-1.5-1-4.1-1-4.1s1.4,0.2,1.8,0.3
				C153.2,372.5,153.8,372.7,153.8,372.7z"/>
			<path d="M159.7,366.2c0,0.2-0.7,1-0.7,1c-0.9,0.4-1.4,0.5-2.3,0.9c-0.7,0.4-1,0.6-1.7,1c-0.6,0.5-0.9,0.8-1.6,1.4
				c0,0-0.8,1.1-0.9,1.3c-0.1,0.2-0.1,0.7-0.1,0.7c0.5,0.1,0.7,0.2,1.2,0.4c0,0,0-0.4,0.3-0.8c0.3-0.3,0.6-0.6,0.8-0.8
				c0.5-0.4,1.3-1,1.7-1.1c0.4-0.1,1.6-1,1.8-1.1c0.2-0.2,0.6,0,1.1-0.4C159.8,368,159.7,366.2,159.7,366.2z"/>
			<path d="M152.4,372.3c0,0,0,2,0.3,2.7c0.3,0.7,1,1.5,1,1.5s-0.5-1.5-0.6-2.3c-0.1-0.5,0-1.7,0-1.7
				C152.8,372.4,152.7,372.4,152.4,372.3z"/>
			<path fill="#FDB913" stroke="#000000" stroke-width="0.2388" d="M165.2,364.2c0.6-0.1,1.2,0,2.7-0.4c1.5-0.4,2.6,0,3.6,0.3
				c1.6,0.4,3.4,1.8,3.7,2.3c0.4,0.6,1,2.7,0.1,3.2c-0.8,0.5-1.9,1.2-2.6,1c-0.7-0.3-3-0.3-4.1-0.5c-1.1-0.2-1.8-0.1-1.8-0.1
				C166.2,367.7,165.8,366.5,165.2,364.2z"/>
			<path fill="#FDB913" stroke="#000000" stroke-width="0.2388" d="M175.6,369.5c0,0,0.4,1.1,0.5,2.6c0.1,1.4-0.2,2.5-0.5,3.4
				c-0.4,1.1-2.3,2.1-2.3,2.1s0.8-1.5,1-2.6c0.3-1.1-0.1-2.6-0.3-3.1c-0.1-0.6-0.6-1.3-0.6-1.3s0.4-0.1,0.8-0.3
				C174.5,370.1,175.6,369.5,175.6,369.5z"/>
			<path d="M174.6,370.2c0,0,0.3,0.3,0.6,1.5c0.2,1,0.2,2.4,0.2,2.4s0.3-1.6,0.2-2.5c-0.1-0.9-0.6-1.6-0.6-1.6
				C174.8,370,174.7,370.1,174.6,370.2z"/>
			<path fill="#FDB913" stroke="#000000" stroke-width="0.2388" d="M161.7,361.5c-1,0-2,0.8-2.6,1.7c-0.6,0.9-0.4,2.5-0.1,3.5
				c0.3,1,1.1,2.7,1.9,3.7c0.8,0.9,2.1,1.6,3.4,1.4c1.2-0.1,3.1-0.3,3-1.4c0-1.1-0.5-2.6-0.8-3.7c-0.3-1.1-0.8-2.3-1.4-3.2
				C164.1,362,163.5,361.4,161.7,361.5z"/>
			<path d="M166.5,366.4c0,0,0.2,0.6,0.2,0.8c0,0.2,0.1,0.7,0.1,0.7s-1.1,1-1.7,1c-0.6-0.1-1.6-0.1-2.3-0.9
				c-0.7-0.8-1.2-1.9-1.2-1.9s2.3,1,3.4,1C165.3,367,166.5,366.4,166.5,366.4z"/>
			<path fill="#FDB913" stroke="#000000" stroke-width="0.2388" d="M163,371.5c0,0,0.9,1.1,1,2c0.1,0.9,0,1.9-0.3,2.6
				c-0.3,0.7-1,2.2-1,2.2s0.8,0.1,1.6-0.5c0.8-0.6,1.8-1.7,2.1-3c0.3-1.3,0-3.5,0-3.5s-1.3,0.5-2.4,0.5
				C163.6,371.9,163,371.5,163,371.5z"/>
			<path d="M164.8,372.7c0,0,0,1.7,0,2.2c0,0.5-0.4,1.5-0.4,1.5s0.7-1.3,0.8-2.1c0.1-0.8-0.1-1.8-0.1-1.8
				C164.9,372.6,164.9,372.7,164.8,372.7z"/>
			<path d="M174.3,366c0.7,0.8,1.5,1.9,1,3.1c-0.1,0.2-0.2,0.1-0.4,0.2c-0.7-0.9-0.4-2.7-1.9-2.8c-1.9-1.1-4.5,0.7-6.2-0.8
				c1.8-0.5,4.3-0.6,6.5-0.2C173.7,365.7,173.9,365.8,174.3,366z"/>
			<path fill="#B3B3B3" stroke="#000000" stroke-width="0.2388" d="M99.1,380.3c0.2,1.5,0.3,2.3,0.4,3.8c0.7,0,1,0,1.6,0.1
				c0.2,2.1,0.4,3.2,0.6,5.3c-3.7-0.2-5.6-0.2-9.4-0.3c-0.2-2.1-0.4-3.2-0.6-5.3c0.9,0,1.3,0,2.2,0.1c-0.2-1.5-0.3-2.3-0.4-3.8
				c-0.9,0-1.3,0-2.2,0c-0.2-1.4-0.2-2.1-0.4-3.6c8.4,0.2,12.4,0.4,20.5,0.8c0.1,1.4,0.2,2.2,0.3,3.6c-0.9,0-1.3-0.1-2.2-0.1
				c0.2,1.5,0.3,2.3,0.4,3.8c0.9,0,1.3,0.1,2.2,0.1c0.2,2.2,0.3,3.2,0.6,5.4c-3.7-0.2-5.5-0.3-9.2-0.5c-0.2-2.1-0.3-3.2-0.6-5.3
				c0.7,0,1,0,1.6,0.1c-0.2-1.5-0.3-2.3-0.4-3.8C102.1,380.4,101.1,380.4,99.1,380.3z"/>
			<path fill="none" stroke="#000000" stroke-width="0.2388" d="M110.6,377.3c0.1,1.2,0.2,1.8,0.3,3c-0.9,0-1.3-0.1-2.2-0.1
				c0.2,1.8,0.3,2.7,0.5,4.4"/>
			<path fill="none" stroke="#000000" stroke-width="0.2388" d="M111.4,384.7c0.2,1.9,0.3,2.9,0.5,4.8c-3.4-0.2-5-0.3-8.4-0.4"/>
			<path fill="none" stroke="#000000" stroke-width="0.2388" d="M104.2,380.5c0-0.2,0-0.4-0.1-0.6c-2.3-0.1-3.5-0.2-5.9-0.2
				c0.2,1.8,0.3,2.6,0.5,4.4"/>
			<path fill="none" stroke="#000000" stroke-width="0.2388" d="M100.4,384.2c0.2,1.9,0.3,2.9,0.5,4.7c-3.4-0.1-5.1-0.2-8.6-0.3"/>
			<path fill="none" stroke="#000000" stroke-width="0.2388" d="M93.5,380.2c0-0.2,0-0.4-0.1-0.6c-0.9,0-1.3,0-2.2,0"/>
			<path d="M151.6,266.3c-0.8-2.3-1.2-3.4-1.9-5.6c0.2,0,0.4-0.1,0.6-0.1c-0.6-2.2-0.9-3.3-1.4-5.4c0.3,0,0.4,0,0.7,0.1
				c-0.7-1.8-1.1-2.8-1.8-4.6c0.3,0.1,0.4,0.1,0.7,0.2c-0.3-1.8-0.4-2.7-0.7-4.5c0.2,0,0.3,0,0.5,0c-0.2-1.4-0.4-2-0.6-3.4
				c0.3,0,0.5-0.1,0.8-0.1c-0.4-1.7-0.6-2.6-0.9-4.3c0.2,1.6,0.3,2.4,0.5,4c-0.4-0.1-0.5-0.1-0.9-0.2c0.3,1.4,0.5,2.1,0.8,3.5
				c-0.3-0.1-0.4-0.1-0.7-0.2c0.4,1.9,0.6,2.8,0.9,4.7c-0.4,0-0.6,0-1-0.1c0.7,1.8,1,2.7,1.7,4.5c0,0-1.2-0.6-0.9-0.1
				c0.3,0.5,1.8,5.6,1.8,5.6c-0.4,0-0.5,0.1-0.9,0.1c0.8,2.4,1.2,3.6,2.1,6C151.2,266.3,151.3,266.3,151.6,266.3z"/>
			<path d="M61.9,367.8c0.2,0.5,0.3,1,0.5,1.4c0.2,0.5,0.4,0.9,0.7,1.3c-1.2,1.3-1.7,1.9-2.9,3.2c-0.6,0.6-1.4,1.5-1.9,2.2
				c-0.4,0.7-0.7,1.2-0.7,2.2c-0.1,0.9,0.1,1.7,0.5,2.5c0.8,1.7,1.5,2.2,2.7,1.8c0.6-0.2,1.8-1.4,2.3-2c1.2-1.3,1.9-2,3.1-3.4
				c0.1,0.3,0.2,0.5,0.3,0.8c0.1,0.2,0.2,0.5,0.4,0.7c-1.5,1.6-2.2,2.4-3.7,3.9c-1.2,1.2-2.3,2.3-3.9,1.3c-0.8-0.5-1.6-1.6-2.1-2.8
				c-1-2.2-1.6-4.9-0.6-7c0.3-0.6,0.7-1.2,1.1-1.7C59.4,370.5,60.2,369.6,61.9,367.8z"/>
			<path d="M68.1,380.8c0.4,0.6,0.6,1,1,1.6c0.1,4.4,0.2,8.8,0.1,13.2c1.8-2.5,2.7-3.7,4.6-6.2c0.1,0.2,0.3,0.5,0.4,0.7
				c0.1,0.2,0.3,0.4,0.5,0.6c-2.8,3.6-4.1,5.4-6.8,9.1c-0.4-0.6-0.5-0.8-0.9-1.4c0-3.6,0.1-7,0-10.4c0-1.3,0-2-0.1-3.3
				c-1.8,2.6-2.7,3.8-4.5,6.4c-0.1-0.2-0.2-0.5-0.4-0.7c-0.1-0.2-0.3-0.4-0.4-0.6C64.3,386.2,65.5,384.5,68.1,380.8z"/>
			<path d="M76.4,392.7c0.3,0.4,0.6,0.8,0.9,1.2c0.3,0.4,0.7,0.7,1,1c-2.6,4-3.8,6-6.3,10c-0.3-0.4-0.6-0.8-0.9-1.2
				c-0.3-0.4-0.6-0.7-0.9-1C72.7,398.7,73.9,396.7,76.4,392.7z"/>
			<path d="M78,411.4c-0.3-0.4-0.6-0.8-1-1.1c-0.3-0.3-0.7-0.6-1-0.9c2.1-3.8,3.1-5.8,5.3-9.6c-1-1-2.6-2.1-2.7-2.3
				c0-0.1,0.3-0.4,0.4-0.6c0.1-0.2,0.2-0.5,0.3-0.7c2.8,2.8,4.3,4.2,7.3,7c-0.2,0.2-0.3,0.4-0.5,0.6c-0.1,0.2-0.3,0.7-0.3,0.7
				c-0.2,0-1.6-1.8-2.5-2.7C81.1,405.6,80.1,407.5,78,411.4z"/>
			<path d="M93.4,408.5c-0.1,0.2-0.3,0.4-0.4,0.6c-0.1,0.2-0.3,0.8-0.3,0.8c-0.2,0-1.8-1.9-3.4-3.1c-0.7,1.4-1.1,2.1-1.7,3.6
				c0.6,0.5,1,0.8,1.6,1.3c0.7,0.6,1.9,1.2,2,1.4c0,0.1-0.3,0.4-0.4,0.7c-0.1,0.2-0.3,0.8-0.3,0.8c-0.1,0-1.1-1.1-1.8-1.7
				c-0.6-0.5-1-0.8-1.6-1.3c-0.8,1.7-1.2,2.6-2,4.3c1.6,1.2,3.6,2.3,3.7,2.6c0,0.1-0.3,0.4-0.4,0.7c-0.1,0.2-0.2,0.5-0.3,0.8
				c-2.4-1.9-3.5-2.8-5.8-4.7c2-4.6,3.1-6.9,5.4-11.4C89.9,405.7,91.1,406.6,93.4,408.5z"/>
			<path d="M100.2,413.3c3.4,2.4,3.9,6,2.9,8.9c-1.3,4-4.7,4.7-8,2.5c-1.8-1.2-2.7-1.8-4.6-2.9c1.6-4.9,2.5-7.3,4.2-12.1
				C96.9,411.1,98,411.8,100.2,413.3z M93.3,422.3c0.6,0.4,0.8,0.5,1.4,0.9c2.2,1.4,4.3,1.3,5.7-2.8c1.1-3.3,0.2-5.6-2.1-7.1
				c-0.6-0.4-0.9-0.6-1.6-1C95.4,416.2,94.7,418.2,93.3,422.3z"/>
			<path d="M115.3,424.3c-0.2-1.2-0.7-2.1-1.6-2.5c-1.3-0.6-2-0.1-2.2,1c-0.4,2.5,4.7,4.4,4.2,8.8c-0.3,2.4-2.4,3.3-5.1,2.1
				c-0.9-0.4-2.6-1.5-2.7-2.1c0-0.4,0.6-1.4,0.9-2.2c0.1,0.1,0.2,0.1,0.3,0.1c0.1,1.4,0.9,2.6,2.1,3.2c1.1,0.5,2.1,0.2,2.3-1.1
				c0.4-3-4.8-4.3-4-8.8c0.4-2.2,2-3.3,4.6-2.1c1.2,0.6,2.5,1.8,2.5,2.1c0,0.3-0.6,1-0.8,1.6C115.4,424.3,115.4,424.3,115.3,424.3z"
				/>
			<path d="M122.3,437.9c-0.4-0.2-0.9-0.4-1.3-0.5c-0.4-0.2-0.9-0.2-1.3-0.4c0.1-4.8,0.3-7.2,0.6-11.9c-1.2-0.4-3.1-0.7-3.2-0.9
				c0-0.1,0.1-0.5,0.2-0.8c0-0.3,0-0.6,0-0.8c3.5,1.3,5.2,1.9,8.8,3.2c-0.1,0.3-0.1,0.5-0.1,0.8c0,0.3,0,0.9,0,0.9
				c-0.1,0.1-2-1-3-1.4C122.5,430.8,122.4,433.1,122.3,437.9z"/>
			<path d="M129.2,435.9c-0.3,1.4-0.7,3.7-0.9,3.8c-0.1,0-0.6-0.2-0.8-0.2c-0.3-0.1-0.6-0.1-0.8-0.1c1.5-5.1,2.4-7.6,4.2-12.5
				c0.2,0.1,0.4,0.2,0.7,0.2c0.2,0.1,0.4,0.1,0.7,0.1c2.1,5.9,3.2,8.8,5.9,14.8c-0.5-0.2-1-0.3-1.6-0.4c-0.5-0.1-1.3-0.1-1.5-0.2
				c-0.6-0.5-1.1-3-1.7-4.4C131.7,436.5,130.8,436.3,129.2,435.9z M132.8,435.5c-0.8-2-1.1-3-1.8-4.9c-0.6,1.7-0.8,2.5-1.4,4.2
				C130.9,435.1,131.5,435.2,132.8,435.5z"/>
			<path d="M145.1,442.7c-0.5-0.1-0.9-0.2-1.4-0.2c-0.4,0-0.9,0-1.3,0c-1.1-5-1.5-7.4-2.2-12.3c-1.2-0.1-3,0-3.2-0.1
				c-0.1-0.1,0-0.5,0-0.8c0-0.3-0.1-0.6-0.2-0.8c3.6,0.4,5.3,0.6,8.9,1c0,0.3,0,0.5,0,0.8c0,0.3,0.2,0.9,0.2,0.9
				c-0.1,0.1-2.1-0.5-3.2-0.6C143.5,435.3,144,437.7,145.1,442.7z"/>
			<path d="M153.5,429.5c0,0.3,0,0.6,0.1,0.8c0.1,0.3,0.3,0.8,0.3,0.8c-0.1,0.1-2.4-0.3-4.1-0.3c0.4,1.7,0.6,2.6,1,4.3
				c0.7,0,1.1,0,1.8,0c0.8,0,2-0.3,2.1-0.2c0.1,0,0.1,0.6,0.1,0.9c0.1,0.3,0.3,0.9,0.3,0.9c-0.1,0.1-1.4-0.2-2.2-0.2
				c-0.7,0-1.1,0-1.8,0c0.5,2,0.8,3,1.5,5.1c1.8,0,3.8-0.4,4-0.3c0.1,0.1,0.1,0.6,0.2,0.9c0.1,0.3,0.2,0.6,0.4,0.9
				c-2.7,0-4,0-6.7-0.1c-1.7-5.5-2.4-8.2-3.5-13.6C149.4,429.4,150.8,429.5,153.5,429.5z"/>
			<path d="M161,431.4c-0.7-1-1.5-1.6-2.5-1.5c-1.4,0.1-1.7,1-1.3,2.1c0.8,2.7,5.9,1.7,7.5,6.3c0.9,2.6-0.3,4.6-2.9,4.9
				c-0.9,0.1-2.8-0.1-3.1-0.6c-0.3-0.4-0.2-1.7-0.5-2.6c0.1,0,0.2,0,0.3,0c0.8,1.4,2,2.1,3.2,2c1.1-0.1,1.7-0.9,1.2-2.3
				c-1.2-3.2-6-1.6-7.5-6.4c-0.7-2.3,0.1-4.3,2.8-4.5c1.3-0.1,2.9,0.4,3,0.7c0.1,0.3,0,1.3,0,2C161.2,431.4,161.1,431.4,161,431.4z"
				/>
			<path d="M178.7,440c-3.5,1-7.3-0.9-9.4-5.3c-1.8-3.9-0.7-7.7,3.4-8.8c4.7-1.4,7.7,2.1,9,5.2C183.4,434.9,182.6,438.9,178.7,440z
				 M172.3,434.5c1.2,2.5,3.5,5,5.9,4.3c2.5-0.7,2.1-4.1,0.7-7.3c-1.1-2.5-3.3-5.1-5.7-4.4C170.9,427.7,170.3,430.1,172.3,434.5z"/>
			<path d="M189.3,435.8c-0.4,0.1-0.8,0.2-1.2,0.4c-0.4,0.2-0.7,0.4-1.1,0.6c-3-5.3-4.4-7.9-7-13c2.4-1.1,3.6-1.6,6-2.6
				c0.1,0.3,0.2,0.6,0.3,0.8c0.1,0.3,0.5,0.7,0.5,0.8c-0.1,0.2-2.1,0.6-3.8,1.3c0.8,1.6,1.2,2.4,2.1,4.1c0.7-0.3,1-0.4,1.6-0.7
				c0.6-0.3,1.7-1,1.8-1c0.1,0,0.2,0.6,0.3,0.8c0.1,0.3,0.5,0.8,0.5,0.8c0,0.1-1.4,0.4-2,0.7c-0.6,0.3-1,0.4-1.6,0.7
				C187.2,432,187.9,433.2,189.3,435.8z"/>
			<path d="M197.9,426.1c0.5,1.6,1.6,4,1.5,4.4c0,0.1-0.5,0.2-0.7,0.4c-0.2,0.2-0.4,0.3-0.6,0.5c-1.8-6.1-2.6-9.1-3.8-15.1
				c0.2-0.1,0.4-0.2,0.6-0.3c0.2-0.1,0.4-0.3,0.5-0.4c4.5,3.9,6.9,5.8,11.6,9.8c-0.4,0.2-0.9,0.4-1.3,0.7c-0.4,0.3-1,0.9-1.1,0.9
				c-0.6,0-2.3-2.1-3.4-3.1C199.8,424.8,199.2,425.2,197.9,426.1z M200.1,423c-1.6-1.3-2.3-2-3.9-3.3c0.5,2,0.7,3,1.3,5
				C198.6,424.1,199.1,423.7,200.1,423z"/>
			<path d="M208.4,405.6c0-0.1,0.4-0.2,0.6-0.4c0.2-0.2,0.5-0.6,0.5-0.6c1.3,0,10.1,10,10,10.5c0,0.1-0.9,0.5-1.3,0.9
				c-0.4,0.3-1,1-1.1,1c-1-0.1-6.7-7.3-6.7-7.3c-0.1,0,3.2,9.2,2.8,10.3c0,0.1-0.5,0.4-0.5,0.4c-1,0.2-8.5-5-8.5-5
				c-0.1,0.1,5.3,7.4,5.2,8.1c0,0.1-0.5,0.3-0.7,0.5c-0.2,0.2-0.5,0.6-0.5,0.6c-0.8-0.1-7.6-11.3-7.2-12.6c0-0.1,0.4-0.2,0.6-0.4
				c0.2-0.2,0.4-0.6,0.5-0.6c1.1-0.2,8.7,5.1,8.7,5.1C211,415.9,207.8,406.9,208.4,405.6z"/>
			<path d="M217,397.4c0.2,0.2,0.3,0.5,0.5,0.7c0.2,0.2,0.7,0.6,0.7,0.6c0,0.2-2.1,1.5-3.5,2.9c1.2,1.3,1.8,2,3,3.3
				c0.6-0.6,0.9-0.8,1.5-1.4c0.7-0.6,1.6-1.8,1.7-1.8c0.1,0,0.3,0.5,0.5,0.7c0.2,0.2,0.7,0.6,0.7,0.6c0,0.1-1.3,0.9-1.9,1.5
				c-0.6,0.6-0.9,0.8-1.5,1.4c1.5,1.6,2.2,2.3,3.8,3.9c1.4-1.4,3-3.3,3.2-3.3c0.1,0,0.4,0.5,0.6,0.7c0.2,0.2,0.5,0.4,0.7,0.6
				c-2.3,2.1-3.4,3.1-5.5,5.1c-4.1-4.2-6.1-6.3-9.8-10.5C213.7,400.5,214.8,399.5,217,397.4z"/>
			<path d="M218.1,396.3c1.1-1.3,1.7-1.9,2.9-3.2c0.7-0.7,1.7-1.8,2.6-2.2c1.3-0.4,2.4-0.3,3.5,0.7c1.6,1.4,0.6,4.7,0.6,4.9
				c0.2,0.4,4.8,0.9,7.2,1.3c0.6,0.1,1,0.2,1.6,0.3c-0.5,0.4-1,0.8-1.4,1.3c-0.4,0.5-0.8,0.9-1.2,1.4c-2.1-0.5-3.1-0.7-5.2-1.2
				c-0.7-0.2-1.8-0.4-2.7-0.6c0,0-0.1,0.1-0.1,0.1c2.1,1.8,3.1,2.7,5.2,4.5c-0.4,0.3-0.8,0.7-1.1,1c-0.4,0.4-0.7,0.8-1,1.2
				C224.6,402.1,222.3,400.2,218.1,396.3z M225.2,398.6c1.6-1.4,1.6-2.9-0.1-4.4c-0.2-0.2-0.5-0.4-0.9-0.6c-1.5-0.9-2.5,0.3-3.3,1.2
				C222.7,396.3,223.5,397.1,225.2,398.6z"/>
			<path d="M226.3,387.3c0.4-0.4,0.8-0.7,1.1-1.2c0.3-0.4,0.6-0.9,0.9-1.3c4.7,3.6,7.1,5.4,12,8.9c-0.4,0.4-0.8,0.8-1.1,1.2
				c-0.3,0.4-0.6,0.9-1,1.3C233.3,392.6,230.9,390.9,226.3,387.3z"/>
			<path d="M247.9,379.8c0.5,0.6,0.8,0.8,1.3,1.4c-0.2,1.4-0.9,2.8-1.8,4c-2.8,3.7-7.4,5-11.2,2.6c-4.9-3-4.7-7.6-1.9-11.4
				c0.9-1.2,3-3.1,3.6-3c0.3,0.1,1.1,1.1,1.6,1.6c-0.1,0.1-0.1,0.1-0.2,0.2c-1.5,0-3,0.7-3.9,1.8c-2.2,2.9-0.1,6,2.6,7.7
				c3.2,2,6.5,1.9,8.6-0.8c0.8-1.1,1.2-2.7,1-4C247.8,379.9,247.8,379.9,247.9,379.8z"/>
			<path d="M248.9,374.4c1.2,1.2,3.3,2.9,3.4,3.3c0,0.1-0.4,0.6-0.6,0.9c-0.2,0.3-0.3,0.6-0.5,0.9c-4.3-4.8-6.4-7.3-10.8-12.2
				c0.2-0.2,0.3-0.4,0.5-0.7c0.1-0.2,0.3-0.5,0.4-0.7c6.9,0.7,10.4,1,17.1,1.6c-0.4,0.5-0.7,1-1,1.6c-0.3,0.5-0.6,1.6-0.8,1.7
				c-0.6,0.3-3.3-0.6-5-0.7C250.5,371.7,250,372.6,248.9,374.4z M250,369.8c-2.3-0.2-3.4-0.4-5.7-0.6c1.5,1.6,2.2,2.4,3.7,4.1
				C248.8,371.9,249.2,371.2,250,369.8z"/>
			<path d="M142.8,306.1"/>
			<path d="M40.3,326.4c-0.1-1.2-0.2-1.8-0.3-3c3-4.6,5.8-9.4,8.7-14c-3.7,0.4-5.6,0.6-9.8,1.1c0-0.4,0-0.8,0-1.2
				c0-0.4-0.1-0.8-0.1-1.2c6.1-0.6,8.8-1,14.1-1.6c0,1,0.1,1.5,0.1,2.5c-2.3,3.8-4.5,7.3-6.7,10.9c-0.8,1.4-1.2,2.1-2.1,3.5
				c4-0.4,5.8-0.6,9.5-1.1c0,0.4,0,0.8,0,1.2c0,0.4,0.1,0.8,0.1,1.2C48.8,325.5,46.2,325.8,40.3,326.4z"/>
			<path d="M49.1,299.1c1.4,1,3.6,2.1,3.9,2.7c0.1,0.2-0.1,0.9-0.2,1.4c0,0.5,0,1,0,1.4c-5.2-4.2-7.8-6.3-13.5-10.5
				c0.1-0.4,0.1-0.7,0.2-1.1c0-0.4,0.1-0.7,0.1-1.1c6.4-2.5,9.2-3.8,14.9-6.3c-0.1,0.9-0.3,1.7-0.4,2.6c-0.1,0.9,0.1,2.3-0.2,2.6
				c-0.4,0.5-2.9,0.9-4.3,1.5C49.5,294.9,49.4,296.3,49.1,299.1z M48.5,292.7c-2,0.8-3,1.2-5,2c1.8,1.4,2.7,2.1,4.5,3.5
				C48.2,295.9,48.3,294.9,48.5,292.7z"/>
			<path d="M56.7,275.6c-0.2,0.7-0.4,1.4-0.6,2.2c-0.2,0.7-0.3,1.5-0.4,2.2c-4.5-1.8-6.8-2.7-11.7-4.4c-0.5,2.1-0.9,5.5-1,5.5
				c0,0-0.5-0.3-0.8-0.5c-0.3-0.1-0.6-0.1-0.9-0.2c1.4-6,2.1-9,3.5-15c0.3,0.2,0.5,0.3,0.8,0.4c0.3,0.1,0.9,0.1,0.9,0.2
				c0.2,0.4-1.1,3.3-1.5,5.1C49.9,272.9,52.2,273.8,56.7,275.6z"/>
			<path d="M46.4,260.8c0.3-0.7,0.5-1.4,0.8-2.1c0.2-0.7,0.4-1.4,0.6-2.2c5.1,2.8,7.4,4.2,12.3,7c-0.3,0.7-0.5,1.4-0.7,2.1
				c-0.2,0.7-0.4,1.4-0.6,2.2C53.9,265,51.5,263.6,46.4,260.8z"/>
			<path d="M65.1,250.9c-2.6,5.9-6.3,8-10,4.8c-3.2-2.8-4.4-8.9-1.5-15.5c3.3-7.6,7.7-7,10.3-4.8C67.1,238,67.9,244.4,65.1,250.9z
				 M57.4,251.7c2.1,1.8,5,2.2,6.7-1.8c1.8-4.1,0.1-8.1-2.6-10.5c-2.1-1.8-5.3-2.3-7,1.7C52.9,244.8,53.8,248.5,57.4,251.7z"/>
			<path d="M61.1,225.4c0.6-0.9,0.9-1.4,1.5-2.3c4.5-0.4,9.2-1,14-1.2c-2.8-3.5-4.1-5.3-7-8.8c0.3-0.3,0.5-0.6,0.7-0.9
				c0.2-0.3,0.4-0.6,0.6-1c4.2,5.2,6.2,7.7,10.3,12.9c-0.6,0.8-0.9,1.2-1.6,1.9c-4,0.2-7.6,0.4-11.2,0.8c-1.4,0.2-2,0.2-3.4,0.4
				c2.8,3.6,4.1,5.4,6.8,9.1c-0.2,0.3-0.5,0.6-0.7,0.9c-0.2,0.3-0.4,0.7-0.6,1C67,233.1,65.2,230.5,61.1,225.4z"/>
			<path d="M83.6,215c0.4,2.2,1.3,5.2,1,6c-0.1,0.2-0.7,0.5-1,0.8c-0.3,0.3-0.6,0.7-1,1c-0.9-8.4-1.3-12.6-2.2-21.1
				c0.3-0.2,0.6-0.4,0.8-0.7c0.3-0.2,0.5-0.5,0.8-0.8c5.8,4.1,8.9,6.2,14.4,10.3c-0.6,0.5-1.3,1-1.9,1.5c-0.6,0.6-1.6,1.7-1.8,1.7
				c-0.6,0-2.7-2.4-4.1-3.3C86.6,212.3,85.6,213.2,83.6,215z M87.4,209.6c-1.9-1.4-2.8-2.1-4.7-3.5c0.3,2.8,0.5,4.2,0.8,7
				C85,211.7,85.8,211,87.4,209.6z"/>
			<path d="M100.6,205.5c1.9-1.4,4.8-3.9,4.8-3.9c0,0,0.1,0.8,0.2,1.2c0.1,0.4,0.3,0.7,0.4,1c-3.2,2.4-4.8,3.6-8.2,5.9
				c-2.3-6.8-3.5-10.2-5.9-17c0.6-0.3,1.2-0.7,1.8-1.1c0.6-0.4,1.2-0.9,1.7-1.3C97.6,196.3,98.6,199.4,100.6,205.5z"/>
			<path d="M119.1,180.2c-0.5-1.3-1.4-1.8-2.7-1.2c-1.7,0.9-2.4,2.3-2.2,3.9c0.3,3.8,6.8-0.3,7.2,6.1c0.3,3.6-1.8,7.3-5.1,9
				c-1.2,0.6-3.3,0.8-3.5,0.5c-0.3-0.4,0.3-2.6,0.3-3.8c0.2-0.1,0.2-0.1,0.4-0.2c0.5,1.8,1.8,2.3,3.2,1.6c1.3-0.7,2.4-2.2,2.2-4.2
				c-0.4-4.5-6.7,0.4-7.2-6.3c-0.3-3.2,1.3-6.7,4.7-8.4c1.6-0.8,3.5-0.6,3.6-0.4c0.2,0.4-0.4,2.1-0.6,3.1
				C119.3,180.1,119.2,180.2,119.1,180.2z"/>
			<path d="M132.8,171.4c-0.1,0.4-0.2,0.9-0.2,1.3c0,0.4,0.1,1.1,0,1.2c-0.3,0.4-2.8,0.5-5.1,1.3c-0.2,2.5-0.2,3.8-0.3,6.3
				c0.9-0.3,1.4-0.5,2.3-0.8c1-0.3,2.7-1.2,2.7-1.2c0,0-0.2,0.9-0.2,1.3c0,0.4,0.1,1.1,0.1,1.2c-0.2,0.2-1.7,0.3-2.7,0.7
				c-0.9,0.3-1.4,0.5-2.3,0.8c-0.1,3-0.1,4.4-0.2,7.4c2.2-0.8,5-2.1,5-2.1c0,0-0.1,0.9-0.1,1.3c0,0.4,0.1,0.8,0.1,1.2
				c-3.3,1.1-5,1.7-8.2,2.8c0-7.9,0.2-11.9,0.7-19.8C127.8,173.1,129.4,172.6,132.8,171.4z"/>
			<path d="M146.9,185.6c-0.3,1.1-0.5,1.6-0.9,2.7c-1.6,1.1-3.3,1.7-4.8,1.9c-5,0.7-8-2.7-7.1-8.9c1.2-7.8,5.9-12,11-12.7
				c1.6-0.2,4.5,0.4,4.6,0.8c0.1,0.4-0.8,2.1-1.2,3.2c-0.1,0-0.2,0-0.3,0c-0.6-1.5-1.9-2.4-3.4-2.2c-3.9,0.6-6.3,5.5-7,9.9
				c-0.8,5.1,0.6,8.4,4.2,7.9c1.4-0.2,3.3-1.4,4.5-2.8C146.7,185.5,146.8,185.5,146.9,185.6z"/>
			<path d="M155.2,168.3c0.6,0.1,1.2,0.2,1.9,0.2c0.6,0,1.3-0.1,2-0.1c-1.2,3.4-1.8,5.1-2.8,8.5c-0.5,1.7-1.3,4.1-1.5,5.7
				c-0.2,1.5-0.2,2.4,0.4,3.5c0.6,0.9,1.5,1.3,2.6,1.3c2.4,0,4-1,5.7-3.7c0.8-1.3,1.8-4.8,2.3-6.2c1.1-3.6,1.6-5.4,2.8-8.9
				c0.3,0.1,0.7,0.1,1,0.1c0.3,0,0.7,0,1.1-0.1c-1.4,4.1-2,6.2-3.3,10.4c-1.1,3.4-1.9,6.6-5.2,8.8c-1.7,1.2-3.7,1.6-5.4,1.6
				c-3.2,0-6.3-1.1-6.1-5.1c0.1-1.2,0.3-2.5,0.7-3.7C152.6,175.6,153.4,173.2,155.2,168.3z"/>
			<path d="M176.7,169.4c2.1,0.4,3.1,0.6,5.2,1c1.1,0.2,3,0.5,3.7,1.3c1,1.1,1.2,2.5,0.4,4.4c-1.2,2.8-5.7,4-6.1,4.5
				c-0.6,0.7,0.6,6.2,1,9.3c0.1,0.8,0.1,1.3,0.3,2.1c-0.7-0.2-1.5-0.5-2.2-0.6c-0.8-0.2-1.6-0.2-2.3-0.3c-0.2-2.8-0.3-4.2-0.4-6.9
				c0-0.9-0.2-2.4-0.2-3.6c-0.1,0-0.1,0-0.2,0c-1.6,3.8-2.4,5.7-4,9.6c-0.6-0.2-1.2-0.4-1.8-0.5c-0.6-0.1-1.3-0.2-1.9-0.2
				C171.2,181.2,173,177.1,176.7,169.4z M176.2,179.4c2.5,0.8,4.4-0.4,5.7-3.4c0.2-0.4,0.3-0.8,0.5-1.5c0.7-2.4-1.3-2.6-2.8-2.9
				C178.2,174.7,177.5,176.2,176.2,179.4z"/>
			<path d="M193.1,173.3c0.5,0.2,1.1,0.5,1.7,0.7c0.6,0.2,1.2,0.3,1.8,0.5c-4,7.5-6.1,11.7-10.1,20c-0.6-0.3-1.1-0.6-1.7-0.8
				c-0.6-0.2-1.2-0.3-1.9-0.5C186.9,184.9,189,180.7,193.1,173.3z"/>
			<path d="M196.2,199.2c-0.5-0.4-1-0.8-1.6-1.1c-0.6-0.3-1.2-0.5-1.7-0.8c4.1-7.2,6.3-10.9,10.4-17.6c-1.5-0.8-4.2-1.6-4.3-1.7
				c0-0.1,0.6-0.7,0.8-1.1c0.2-0.4,0.4-0.8,0.6-1.2c4.5,2.2,6.7,3.4,11.1,5.7c-0.3,0.4-0.6,0.7-0.8,1.1c-0.3,0.4-0.6,1.3-0.6,1.3
				c-0.3,0.1-2.3-1.8-3.6-2.5C202.4,188.2,200.2,191.9,196.2,199.2z"/>
			<path d="M210,197.3c1.1-4.9,3.8-14.3,3.8-14.3c0.1,0,1,1.1,1.6,1.6c0.6,0.5,1.7,1.1,1.7,1.4c0.2,0.9-1.3,4.1-1.9,6.2
				c-0.6,2-1.2,4.4-1.2,4.4c0.2,0.1,8-5.2,8.9-5c0.2,0,0.6,0.7,0.9,1c0.3,0.3,1.1,0.8,1.1,0.8c0,0.6-8.1,3.6-11.7,6.1
				c-2.4,3.5-3.5,5.2-5.8,8.6c-0.4-0.5-0.9-1-1.3-1.5c-0.5-0.4-1-0.8-1.5-1.2C206.7,202.1,207.8,200.5,210,197.3z"/>
			<path d="M223.9,216.5c-2.3,1.1-5.5,3.1-6.1,3c-0.1,0-0.5-0.8-0.7-1.2c-0.3-0.4-0.6-0.7-0.9-1.1c8.1-3.4,12.8-5.3,22.4-8.8
				c0.2,0.3,0.4,0.6,0.6,0.9c0.2,0.3,0.5,0.6,0.8,0.8c-5.3,8.8-7.7,13.2-11.7,21.5c-0.6-0.7-1.1-1.3-1.7-1.9
				c-0.6-0.6-1.8-1.5-1.9-1.8c-0.1-0.9,2.4-4,3.5-6.1C226.4,219.7,225.6,218.6,223.9,216.5z M229.3,219.9c1.6-2.9,2.5-4.3,4.2-7.2
				c-3.1,1.2-4.7,1.8-7.7,3.1C227.2,217.4,227.9,218.3,229.3,219.9z"/>
			<path d="M240.9,248.2c-2.2-1.8-4.3-3.8-5.8-6c-3.5-5.3-4-11.7,2.6-15.8c7-4.4,13.7-2,17.9,3.6c1.5,2.1,3,6.4,2.5,7.1
				c-0.3,0.3-2.3,0.6-3.3,1.1c-0.1-0.1-0.1-0.2-0.2-0.4c1.1-2.3,0.8-4.7-0.6-6.7c-3-4.1-8.7-3.5-13.4-0.6c-4.8,3-6.2,7-3.6,10.8
				c0.8,1.3,1.8,1.9,2.7,2.3c2.7-1.6,4-2.5,6.7-4.1c0.4,0.7,0.7,1.3,1.2,2c0.4,0.6,0.9,1.2,1.4,1.8
				C245.7,245.2,244.1,246.2,240.9,248.2z"/>
			<path d="M267,253.5c-0.4,0.1-0.9,0.3-1.3,0.4c-0.4,0.2-1.2,0.7-1.2,0.7c-0.3-0.1-1-3.9-2.3-6.8c-2.6,1.2-3.9,1.8-6.6,2.9
				c0.5,1.2,0.8,1.8,1.2,2.9c0.5,1.3,1.8,3.2,1.7,3.4c0,0.1-1,0.3-1.4,0.4c-0.4,0.2-1.2,0.7-1.3,0.7c-0.2-0.1-0.6-2.3-1.2-3.6
				c-0.5-1.2-0.7-1.8-1.2-2.9c-3.2,1.4-4.8,2.1-7.9,3.5c1.3,2.9,3.3,6.2,3.2,6.4c0,0.1-1,0.3-1.4,0.4c-0.4,0.2-0.9,0.5-1.3,0.7
				c-1.8-4.3-2.7-6.5-4.5-10.8c8.4-3.7,12.8-5.6,21-9.3C264.3,247,265.2,249.2,267,253.5z"/>
			<path d="M269,259.4c0.3,1.2,0.4,1.8,0.6,3c-3.8,5.7-7.7,11.6-11.9,17.3c6-1.6,9-2.4,14.5-4c0,0.4,0.1,0.9,0.2,1.3
				c0.1,0.4,0.2,0.8,0.3,1.2c-8.1,2.3-12.6,3.5-21.5,5.8c-0.2-1-0.3-1.5-0.6-2.6c3.4-4.6,6.7-9,9.7-13.5c1.2-1.7,1.8-2.6,2.9-4.3
				c-6.1,1.7-9.3,2.6-15.7,4.3c-0.1-0.4-0.1-0.8-0.2-1.2c-0.1-0.4-0.2-0.8-0.4-1.2C256,263.1,260.6,261.9,269,259.4z"/>
			<path d="M256.6,304.3c-1.2-0.2-1.7-0.3-2.9-0.4c-1.2-1.7-1.8-3.8-1.9-5.9c-0.5-6.5,3.8-12,10.4-12.6c8.4-0.8,11.9,4.6,12.3,11.3
				c0.1,2-0.4,6-1,6.4c-0.3,0.2-2-0.3-3.1-0.4c0-0.2,0-0.3,0-0.4c1.6-1.3,2.5-3.3,2.4-5.3c-0.3-5.1-5.2-6.8-9.9-6.3
				c-5.5,0.5-9.4,3.5-9.1,8.1c0.1,1.9,1.4,4,2.9,5.2C256.7,304,256.6,304.1,256.6,304.3z"/>
			<path d="M261.7,312.6c4.3-2,12.7-5.7,12.7-5.7c0.1,0.1-0.3,1.8-0.3,2.7c-0.1,0.9,0.2,2.4,0,2.7c-0.4,0.7-3.6,1.5-5.5,2.2
				c-1.8,0.7-3.9,1.6-3.9,1.7c0,0.4,8.4,4.1,8.8,5.1c0.1,0.2-0.2,1-0.2,1.5c0,0.5,0,1.4,0,1.4c-0.4,0.2-7.2-4.9-11.2-7
				c-4-0.2-6-0.3-10.1-0.6c0.1-0.7,0.3-1.5,0.3-2.2c0.1-0.7,0-1.5,0-2.3C256.1,312.3,258,312.4,261.7,312.6z"/>
			<path d="M142.8,306.1"/>
		</g>
	</g>
	<defs>
		<filter id="Adobe_OpacityMaskFilter_2_" filterUnits="userSpaceOnUse" x="55.8" y="194.9" width="154.9" height="178.7">
			<feFlood  style="flood-color:white;flood-opacity:1" result="back"/>
			<feBlend  in="SourceGraphic" in2="back" mode="normal"/>
		</filter>
	</defs>
	<mask maskUnits="userSpaceOnUse" x="55.8" y="194.9" width="154.9" height="178.7" id="SVGID_6_">
		<g filter="url(#Adobe_OpacityMaskFilter_2_)">
			<defs>
				<filter id="Adobe_OpacityMaskFilter_3_" filterUnits="userSpaceOnUse" x="55.8" y="194.9" width="154.9" height="178.7">
					<feFlood  style="flood-color:white;flood-opacity:1" result="back"/>
					<feBlend  in="SourceGraphic" in2="back" mode="normal"/>
				</filter>
			</defs>
			<mask maskUnits="userSpaceOnUse" x="55.8" y="194.9" width="154.9" height="178.7" id="SVGID_6_">
				<g filter="url(#Adobe_OpacityMaskFilter_3_)">
				</g>
			</mask>
			<linearGradient id="SVGID_7_" gradientUnits="userSpaceOnUse" x1="153.4807" y1="304.1796" x2="70.8265" y2="246.3045">
				<stop  offset="0" style="stop-color:#C4C4C4"/>
				<stop  offset="0.1065" style="stop-color:#B9B9B9"/>
				<stop  offset="0.296" style="stop-color:#9B9B9B"/>
				<stop  offset="0.5464" style="stop-color:#696969"/>
				<stop  offset="0.8447" style="stop-color:#262626"/>
				<stop  offset="1" style="stop-color:#000000"/>
			</linearGradient>
			<path mask="url(#SVGID_6_)" fill="url(#SVGID_7_)" d="M210.7,222.5c-10.4,4.5-77.8,52.9-105.6,93c-27,38.8-29.6,58.2-29.6,58.2
				s-50.6-81.8,10.8-147.1C145.1,164,201.6,211.5,210.7,222.5z"/>
		</g>
	</mask>
	<linearGradient id="SVGID_8_" gradientUnits="userSpaceOnUse" x1="153.4807" y1="304.1796" x2="70.8265" y2="246.3045">
		<stop  offset="0" style="stop-color:#FFFFFF"/>
		<stop  offset="0.1811" style="stop-color:#FCFCFC;stop-opacity:0.8189"/>
		<stop  offset="0.3137" style="stop-color:#F3F3F3;stop-opacity:0.6863"/>
		<stop  offset="0.4309" style="stop-color:#E3E3E3;stop-opacity:0.5691"/>
		<stop  offset="0.5391" style="stop-color:#CCCCCC;stop-opacity:0.4609"/>
		<stop  offset="0.6412" style="stop-color:#AFAFAF;stop-opacity:0.3588"/>
		<stop  offset="0.7388" style="stop-color:#8B8B8B;stop-opacity:0.2612"/>
		<stop  offset="0.8328" style="stop-color:#616161;stop-opacity:0.1672"/>
		<stop  offset="0.9215" style="stop-color:#313131;stop-opacity:7.854033e-02"/>
		<stop  offset="1" style="stop-color:#000000;stop-opacity:0"/>
	</linearGradient>
	<path fill="url(#SVGID_8_)" d="M210.7,222.5c-10.4,4.5-77.8,52.9-105.6,93c-27,38.8-29.6,58.2-29.6,58.2s-50.6-81.8,10.8-147.1
		C145.1,164,201.6,211.5,210.7,222.5z"/>
</g>
<g>
	<path fill="#01679A" d="M354.6,406.3h-4.2l-4.3-20.3l-4.3,20.3h-4.2l-6.7-26.1l4.5-0.8l4.3,20l4.1-19.6h4.5l4.2,19.5l4-19.5h4.7
		L354.6,406.3z"/>
	<path fill="#01679A" d="M386,406.3h-4.2l-4.3-20.3l-4.3,20.3H369l-6.7-26.1l4.5-0.8l4.3,20l4.1-19.6h4.5l4.2,19.5l4-19.5h4.7
		L386,406.3z"/>
	<path fill="#01679A" d="M417.4,406.3h-4.2l-4.3-20.3l-4.3,20.3h-4.2l-6.7-26.1l4.5-0.8l4.3,20l4.1-19.6h4.5l4.2,19.5l4-19.5h4.7
		L417.4,406.3z"/>
	<path fill="#01679A" d="M423.9,406.3v-6.6h5.2v6.6H423.9z"/>
	<path fill="#01679A" d="M453.1,406.3l-13.9-27.5v27.5h-4.5V368h4.5l12.9,26.7V368h4.5v38.3H453.1z"/>
	<path fill="#01679A" d="M470.3,406.7c-3.1,0-5.9-0.7-8.4-2.1l0.8-4.8c2.3,1.5,4.5,2.4,7.7,2.4c3.2,0,5.3-1.8,5.3-5
		c0-3.2-1.6-5.4-5.7-8.5c-4.5-3.5-7.7-6.1-7.7-11.9c0-5.2,3.6-9.4,9.4-9.4c3.4,0,5,0.6,6.8,1.7l-0.8,4.9c-1.9-1.5-3.5-2.2-5.9-2.2
		c-3.4,0-4.7,2.3-4.7,4.7c0,3.2,2.1,5.2,5.7,7.9c5,3.8,7.7,6.8,7.7,12.6C480.6,402.8,476.5,406.7,470.3,406.7z"/>
	<path fill="#01679A" d="M503.6,406.7l-3.2-12h-10.8l-2.9,11.6h-4.9l10.9-38.4h5.2l10.6,37.8L503.6,406.7z M495,374.2l-4.2,16.1h8.5
		L495,374.2z"/>
	<path fill="#01679A" d="M511.5,406.3v-6.6h5.2v6.6H511.5z"/>
	<path fill="#01679A" d="M519.5,409.4c0-2.6,1.8-5.1,4.9-6.8c-0.9-0.7-1.3-1.5-1.3-2.4c0-1.3,0.7-2.5,2.3-3.8
		c-2.6-1.4-4.4-4.2-4.4-7.9c0-5.5,3.9-9.2,8.8-9.2c2.1,0,4.2,0.8,5.8,2.2l5.7-2.1l0.7,4.4l-4.3,0.4c0.6,1.2,0.9,2.6,0.9,4.2
		c0,5.5-4,9.1-8.8,9.1c-0.5,0-1-0.1-1.5-0.1c-0.3,0.4-0.4,0.9-0.4,1.5c0,0.7,0.8,1.2,3.2,1.7c7.8,1.6,10.2,3.3,10.2,7.6
		c0,5-4.9,8.1-11,8.1C524.5,416.4,519.5,414.3,519.5,409.4z M536.7,408.7c0-2.1-1.4-3.1-7.9-4.4c-0.5-0.1-0.9-0.2-1.4-0.3
		c-2.1,1.3-3.4,3.1-3.4,4.8c0,2.4,2.1,3.9,6.2,3.9C534.2,412.7,536.7,411.1,536.7,408.7z M534,388.5c0-3.3-1.7-5.7-4.2-5.7
		c-2.8,0-4.2,2.4-4.2,5.7c0,3.2,1.5,5.6,4.2,5.6C532.4,394.1,534,391.8,534,388.5z"/>
	<path fill="#01679A" d="M553.7,406.8c-6,0-10-5-10-13.8c0-8.7,4-13.8,10-13.8c6.1,0,10.2,5.1,10.2,13.8
		C563.9,401.8,559.8,406.8,553.7,406.8z M553.7,383.3c-3.6,0-5.3,4.2-5.3,9.8c0,5.4,1.8,9.7,5.3,9.7c3.6,0,5.4-4.2,5.4-9.7
		C559.1,387.6,557.2,383.3,553.7,383.3z"/>
	<path fill="#01679A" d="M577.7,406.4h-5l-7.4-26.2l4.8-0.8l5.2,21.3l5-20.9h4.9L577.7,406.4z"/>
	<path fill="#01679A" d="M585.4,413.2l-3.6-0.8l15.3-44.9l3.7,0.8L585.4,413.2z"/>
	<path fill="#01679A" d="M614.3,407c-9,0-13.2-8.6-13.2-19.8c0-11.3,4.3-19.9,13.3-19.9c3.5,0,6,0.9,8.3,2.7l-0.8,4.9
		c-2.6-2.1-4.4-3.1-7.5-3.1c-5.8,0-8.2,6.5-8.2,15.3c0,8.8,2.7,15.3,8.5,15.3c2.9,0,5.2-1.2,7.9-3.5l0.7,4.9
		C620.8,405.7,617.9,407,614.3,407z"/>
	<path fill="#01679A" d="M639.1,406.3l-0.4-2.6c-1.9,1.8-3.9,3.2-6.8,3.2c-3.6,0-6.5-2.4-6.5-7.4c0-6.3,5.2-9.3,12.7-10.4v-1.6
		c0-3-1.4-4.1-3.7-4.1c-2.3,0-4.5,1-6.6,2.3l-0.7-4.2c2.5-1.3,4.9-2.2,8.2-2.2c4.9,0,7.5,2.4,7.5,7.9v19.1H639.1z M638.1,392.8
		c-6.2,0.9-8,3.7-8,6.4c0,2.2,1.1,3.6,2.8,3.6c1.8,0,3.6-1.1,5.2-2.9V392.8z"/>
	<path fill="#01679A" d="M652.8,388.8v17.5H648v-26.5h3.7l0.6,3.9c1.4-2.2,3.8-4.3,7-4.5l0.7,4.6C656.8,384.1,654,386.4,652.8,388.8
		z"/>
	<path fill="#01679A" d="M679.9,394h-13.8c0.2,5,2,8.7,5.7,8.7c2.5,0,5-1,7.4-3l0.7,4.3c-1.8,1.6-4.9,2.8-8.5,2.8
		c-6.4,0-10.1-5.2-10.1-13.9c0-7.7,3.3-13.7,9.5-13.7c6.9,0,9,6.3,9,13.3C679.9,392.8,679.9,393.7,679.9,394z M670.9,383
		c-2.5,0-4.2,3.1-4.6,7.5h9C675,386.2,673.4,383,670.9,383z"/>
	<path fill="#01679A" d="M701.4,394h-13.8c0.2,5,2,8.7,5.7,8.7c2.5,0,5-1,7.4-3l0.7,4.3c-1.8,1.6-4.9,2.8-8.5,2.8
		c-6.4,0-10.1-5.2-10.1-13.9c0-7.7,3.3-13.7,9.5-13.7c6.9,0,9,6.3,9,13.3C701.4,392.8,701.4,393.7,701.4,394z M692.3,383
		c-2.5,0-4.2,3.1-4.6,7.5h9C696.4,386.2,694.8,383,692.3,383z"/>
	<path fill="#01679A" d="M710.2,388.8v17.5h-4.8v-26.5h3.7l0.6,3.9c1.4-2.2,3.8-4.3,7-4.5l0.7,4.6
		C714.2,384.1,711.4,386.4,710.2,388.8z"/>
	<path fill="#01679A" d="M727.4,406.8c-2.9,0-5.8-0.9-7.9-2.3l0.7-4.6c2.5,1.7,4.7,2.8,7.3,2.8c2.4,0,3.9-1.3,3.9-3.2
		c0-1.8-1.1-3.3-4.8-5.1c-4.8-2.4-6.7-4.5-6.7-8.3c0-3.6,2.8-7,7.5-7c2.7,0,5.2,0.6,6.8,1.6l-0.7,4.4c-1.6-0.9-3.7-1.9-6-1.9
		c-1.7,0-3.1,0.9-3.1,2.7c0,1.6,0.8,3,4.3,4.7c5.1,2.5,7.2,4.7,7.2,8.7C735.8,403.6,732.9,406.8,727.4,406.8z"/>
</g>
</svg>
