<svg id="Layer_1" data-name="Layer 1" xmlns="http://www.w3.org/2000/svg" xmlns:xlink="http://www.w3.org/1999/xlink" viewBox="0 0 612 612"><defs><style>.cls-1,.cls-10,.cls-7,.cls-9{fill:none;}.cls-2{opacity:0.1;}.cls-3{clip-path:url(#clip-path);}.cls-4{clip-path:url(#clip-path-2);}.cls-5{fill:#010101;}.cls-6{font-size:128px;}.cls-10,.cls-6{font-family:;}.cls-7,.cls-9{stroke:#010101;}.cls-10,.cls-7{stroke-linecap:round;stroke-linejoin:round;}.cls-10,.cls-7,.cls-9{stroke-width:8px;}.cls-8{clip-path:url(#clip-path-3);}.cls-9{stroke-miterlimit:10;}.cls-10{writing-mode:tb;text-orientation:upright;glyph-orientation-vertical:0deg;font-size:78.17px;stroke:#000;}.cls-11{clip-path:url(#clip-path-4);}.cls-12{clip-path:url(#clip-path-5);}</style><clipPath id="clip-path"><rect class="cls-1" width="612" height="612"/></clipPath><clipPath id="clip-path-2"><rect class="cls-1" x="147.19" y="-421.08" width="612" height="612"/></clipPath><clipPath id="clip-path-3"><rect class="cls-1" x="147.19" y="190.92" width="612" height="612"/></clipPath><clipPath id="clip-path-4"><rect class="cls-1" x="-464.81" y="-421.08" width="612" height="612"/></clipPath><clipPath id="clip-path-5"><rect class="cls-1" x="-464.81" y="190.92" width="612" height="612"/></clipPath></defs><title>tile-bg</title><g id="_Group_" data-name="&lt;Group&gt;" class="cls-2"><g class="cls-3"><g class="cls-4"><path class="cls-5" d="M524.81,157.7q30.24,0,46.28,14.72t16,41.71V216H557.69v-1.82q0-20.91-32.27-20.91H452q-32.26,0-32.27,20.91V216H390.25v-1.82q0-27,16-41.71t46.27-14.72Z"/><path class="cls-5" d="M255,133H238.47q-19.11,0-19.11,16.2v29.65q0,16.2,19.11,16.2H255q19.11,0,19.11-16.2V149.18Q274.11,133,255,133Zm-7,45.36h-2.59c-2.16,0-3.24-.92-3.24-2.75V152.42c0-1.94,1.08-2.92,3.24-2.92H248c2.16,0,3.24,1,3.24,2.92v23.17C251.27,177.42,250.19,178.34,248,178.34Zm.81,58.64h20.25L327.9,133H307.32Zm88.78-62H321.09q-19.11,0-19.11,16.2v29.64Q302,237,321.09,237h16.53q19.11,0,19.11-16.2V191.14Q356.73,174.94,337.62,174.94Zm-7,45.36h-2.59q-3.24,0-3.24-2.76V194.38q0-2.92,3.24-2.92h2.59q3.24,0,3.24,2.92v23.16Q333.89,220.3,330.65,220.3Z"/><path class="cls-5" d="M492-38.34V-78q0-4.12-4.7-4.13H482.4V-103.8h14.86q14.3,0,21,6.87t6.68,18.34V-41q0,8.09,2.92,11.76t9.68,3.66h1.32V-3.91h-1.32q-6.76,0-9.68,3.57t-2.92,11.47v38q0,11.48-6.68,18.34t-21,6.87H482.4V52.7h4.89q4.69,0,4.7-4.13V6.62Q492-3.16,496-8.8a13.46,13.46,0,0,1,10.62-6Q492-18.39,492-38.34Z"/><path class="cls-5" d="M177.37-20.64q0-21.53,23.06-21.53h3q13,0,15.82,11.05v-11H245V6.05h8.38q4.77,0,4.77-4.2V-50.56q0-4.19-4.77-4.19H171.27q-4.76,0-4.76,4.19V34.82c0,2.8,1.59,4.19,4.76,4.19h73.95V60.93H163.27q-25.35,0-25.35-23.63V-53q0-23.64,25.35-23.63H261q25,0,25,23.63V2.23q0,23.64-25.35,23.63H219.49V14.24q-2.48,11.62-16,11.62h-3q-23.06,0-23.06-21.53Zm27.83,2.29V2c0,2.55,1.39,3.81,4.19,3.81h4.76q4.57,0,4.58-5.14V-17c0-3.44-1.53-5.15-4.58-5.15h-4.76C206.59-22.16,205.2-20.89,205.2-18.35Z"/><path class="cls-5" d="M305.28-9.63V-36.2h27.87V-9.63Zm0,54.27V18.08h27.87V44.64Z"/><path class="cls-5" d="M192.16,106.29q-16.57,0-25.36-8.06T158,75.37v-1h16.12v1q0,11.44,17.69,11.45h40.26q17.68,0,17.69-11.45v-1h16.13v1q0,14.79-8.79,22.86t-25.36,8.06Z"/><path class="cls-5" d="M666.69,84.63H623q-23.28,0-23.28-19.65V55.8q0-7.92,3.09-12.2t11.8-9l2.53-1.42-.63-.8a69.71,69.71,0,0,1-8.71-10.53,15.85,15.85,0,0,1-2.38-8.47V2.58q0-19.65,23.28-19.64h18.54Q670-17.06,670,2.58V13.35q0,8.71-3.81,13.3-4.28,5.07-15.36,11.41L667.64,56V44.87H689.5V65a19.34,19.34,0,0,1-3,11.09l13.3,14.26H672.23ZM629.78,66.41h19.49L632.16,48.67l-2.69,1.58a6.78,6.78,0,0,0-3.65,6v6.66Q625.82,66.41,629.78,66.41Zm2.54-62.25v10.3q0,4.11,3.64,7.92a33.57,33.57,0,0,0,6.26-4.12,5.84,5.84,0,0,0,1.66-4.44V4.16q0-3.48-4-3.48h-3.64Q632.32.68,632.32,4.16Z"/><path class="cls-5" d="M452.34,12V-7h-20V12H412.75V27.34h19.61v19h20v-19H472V12Z"/><rect class="cls-5" x="280.12" y="78.98" width="85" height="22.7"/><path class="cls-5" d="M388.57,107.45H381l-20.58,36.13v14.58h28.19Z"/><text class="cls-6" transform="translate(465.55 88.81) rotate(90)">?</text><path class="cls-7" d="M386.45,25.81a9.09,9.09,0,0,0,.84-4.31,11.43,11.43,0,0,0-.84-4.3,11.61,11.61,0,0,0-2.51-3.78,11.45,11.45,0,0,0-18,2.4,11.83,11.83,0,0,0-1.12,2.71,11.45,11.45,0,0,0-.39,2.85,11.1,11.1,0,0,0,.34,2.87,11.58,11.58,0,0,0-5.73.06,11.47,11.47,0,0,0-2.7,1.11,11.7,11.7,0,0,0-2.4,1.84,11.43,11.43,0,0,0-2.52,3.79,11.55,11.55,0,0,0,0,8.6,11.29,11.29,0,0,0,2.52,3.78,11.11,11.11,0,0,0,3.78,2.51,11.43,11.43,0,0,0,8.6,0,11.11,11.11,0,0,0,3.78-2.51l12.43,12.43,12.42,12.42L407.37,80.7l12.42,12.43a11.26,11.26,0,0,0-2.51,3.78,11.45,11.45,0,0,0,2.51,12.39,11.43,11.43,0,0,0,16.17,0,12,12,0,0,0,1.84-2.41,11.47,11.47,0,0,0,1.11-2.7,11.54,11.54,0,0,0,.06-5.72,11.54,11.54,0,0,0,5.72-.06,11.4,11.4,0,0,0,2.71-1.12,11,11,0,0,0,2.4-1.84,11.44,11.44,0,0,0-12.38-18.68,11.55,11.55,0,0,0-3.79,2.51L421.21,66.86,408.79,54.44,384,29.63C384.3,28.63,385.56,27.46,386.45,25.81Z"/><polygon class="cls-7" points="582.58 -20.66 608.68 -46.76 601.14 -54.3 582.88 -37.48 582.88 -67.55 570.22 -67.55 570.22 143.78 582.88 143.78 582.58 -20.66"/><line class="cls-7" x1="574.13" y1="-1.91" x2="558.52" y2="-17.51"/><text class="cls-6" transform="matrix(1, -0.01, 0.01, 1, 609, 191.97)">!</text><path class="cls-5" d="M118.4,205.16H85.54a3,3,0,0,1-3-3v-7.29a3,3,0,0,1,3-3h2.27V187H49.42a3,3,0,0,1-3-3V126.72a3,3,0,0,1,3-3H86.21v-5.79H83.94a3,3,0,0,1-3-3v-7.3a3,3,0,0,1,3-3H116.8a3,3,0,0,1,3,3v7.3a3,3,0,0,1-3,3h-3.16v5.79h16.29A11.94,11.94,0,0,1,140.65,117h3.11a12,12,0,0,1,10.76,6.81A31.67,31.67,0,0,1,183,148.09h5.42a3,3,0,0,1,3,3v8.74a3,3,0,0,1-3,3h-5.48a31.68,31.68,0,0,1-28.42,24,12,12,0,0,1-10.76,6.8h-3.11A11.93,11.93,0,0,1,129.93,187H115.24v4.92h3.16a3,3,0,0,1,3,3v7.29A3,3,0,0,1,118.4,205.16ZM89.21,111.93H113.8v-1.3H86.94v1.3Zm18.43,10.7v-4.7H92.21v4.7Zm77.21,31.46v2.74h.57v-2.74ZM155.69,130v50.75a25.61,25.61,0,0,0,0-50.75Zm-15-7a5.91,5.91,0,0,0-3.88,1.46,3,3,0,0,1,1,2.26V184a3,3,0,0,1-1,2.26,5.9,5.9,0,0,0,3.88,1.45h3.11a5.94,5.94,0,0,0,5.48-3.67s0,0,0,0V126.72s0,0,0,0a5.94,5.94,0,0,0-5.48-3.67ZM52.42,181h76.3V129.72H52.42Zm41.39,10.92h15.43v-4.7H93.81Zm21.59,7.29v-1.29H88.54v1.29Z"/></g><g class="cls-8"><path class="cls-5" d="M552.85,296.21v-1.78h13.93v1.89a27.06,27.06,0,0,1-1.23,8.58,41.2,41.2,0,0,1,9.81-4.35l4.23,13.15a33.68,33.68,0,0,1-10.36,2.23,30.2,30.2,0,0,1,6.13,6.47l1.11,1.44L565.22,332a33,33,0,0,1-5.35-9.36,32.22,32.22,0,0,1-5.35,9.47L543.26,324a38.78,38.78,0,0,1,7.25-7.92A40.19,40.19,0,0,1,540,313.82l4.35-13.15a37.65,37.65,0,0,1,9.69,4.34A32.17,32.17,0,0,1,552.85,296.21Z"/><path class="cls-5" d="M390,274.85V245.54h30.74v29.31Zm0,30.55h30.74v16.09l-21.45,39.85H390Z"/><path class="cls-5" d="M530,467.08h-6.12l-1.93,8.55H527v6.86h-6.67l-2,8.86h-9.05l2-8.86h-6.24l-2,8.86H494l2-8.86H491.4v-6.86h6.12l1.93-8.55h-5.11v-6.87H501l2-8.86h9l-2,8.86h6.24l2-8.86h9.11l-2,8.86H530Zm-17.1,8.55,1.87-8.55H508.5l-1.87,8.55Z"/><path class="cls-5" d="M347.18,375.87v43.91q0,22.07-16.23,26a15,15,0,0,1,11.76,6.66q4.47,6.24,4.47,17.06v46.42q0,4.57,5.21,4.57h5.41v23.94H341.36q-15.83,0-23.21-7.6t-7.39-20.29v-42q0-8.75-3.22-12.7t-10.72-3.95h-1.46V433.93h1.46q7.49,0,10.72-4.05t3.22-13V375.24q0-12.69,7.39-20.29t23.21-7.6H357.8v23.94h-5.41Q347.19,371.29,347.18,375.87Z"/><path class="cls-5" d="M492,573.66V534q0-4.12-4.7-4.13H482.4V508.2h14.86q14.3,0,21,6.87t6.68,18.34V571q0,8.09,2.92,11.76t9.68,3.66h1.32v21.64h-1.32q-6.76,0-9.68,3.57t-2.92,11.47v38q0,11.48-6.68,18.34t-21,6.87H482.4V664.7h4.89q4.69,0,4.7-4.13v-42q0-9.78,4.05-15.42a13.46,13.46,0,0,1,10.62-6Q492,593.61,492,573.66Z"/><path class="cls-5" d="M177.37,591.36q0-21.52,23.06-21.53h3q13,0,15.82,11v-11H245v48.22h8.38q4.77,0,4.77-4.2V561.44q0-4.19-4.77-4.19H171.27q-4.76,0-4.76,4.19v85.38c0,2.8,1.59,4.19,4.76,4.19h73.95v21.92H163.27q-25.35,0-25.35-23.63V559q0-23.64,25.35-23.63H261q25,0,25,23.63v55.26q0,23.64-25.35,23.63H219.49V626.24q-2.48,11.63-16,11.62h-3q-23.06,0-23.06-21.53Zm27.83,2.29V614c0,2.55,1.39,3.81,4.19,3.81h4.76q4.57,0,4.58-5.14V595c0-3.44-1.53-5.15-4.58-5.15h-4.76C206.59,589.84,205.2,591.11,205.2,593.65Z"/><path class="cls-5" d="M628.9,276.58Q628.9,255,652,255h3q13,0,15.82,11.06V255h25.73v48.22h8.38q4.77,0,4.77-4.19V246.66q0-4.18-4.77-4.19H622.8q-4.75,0-4.76,4.19V332q0,4.18,4.76,4.19h74v21.91h-82q-25.35,0-25.35-23.63V244.18q0-23.62,25.35-23.63h97.76q25,0,25,23.63v55.27q0,23.63-25.35,23.63H671V311.45q-2.47,11.64-16,11.63h-3q-23.06,0-23.06-21.54Zm27.83,2.29v20.39c0,2.54,1.39,3.81,4.19,3.81h4.76q4.58,0,4.58-5.15V280.2q0-5.15-4.58-5.15h-4.76C658.12,275.05,656.73,276.33,656.73,278.87Z"/><path class="cls-5" d="M305.28,602.37V575.8h27.87v26.57Zm0,54.27V630.08h27.87v26.56Z"/><path class="cls-5" d="M524.81,157.7q30.24,0,46.28,14.72t16,41.71V216H557.69v-1.82q0-20.91-32.27-20.91H452q-32.26,0-32.27,20.91V216H390.25v-1.82q0-27,16-41.71t46.27-14.72Z"/><path class="cls-5" d="M666.69,696.63H623q-23.28,0-23.28-19.65V667.8q0-7.92,3.09-12.2t11.8-9l2.53-1.42-.63-.8a69.71,69.71,0,0,1-8.71-10.53,15.85,15.85,0,0,1-2.38-8.47V614.58q0-19.65,23.28-19.64h18.54q22.8,0,22.81,19.64v10.77q0,8.71-3.81,13.3-4.28,5.07-15.36,11.41L667.64,668V656.87H689.5V677a19.34,19.34,0,0,1-3,11.09l13.3,14.26H672.23Zm-36.91-18.22h19.49l-17.11-17.74-2.69,1.58a6.78,6.78,0,0,0-3.65,6v6.66Q625.82,678.41,629.78,678.41Zm2.54-62.25v10.3q0,4.11,3.64,7.92a33.57,33.57,0,0,0,6.26-4.12,5.84,5.84,0,0,0,1.66-4.44v-9.66q0-3.48-4-3.48h-3.64Q632.32,612.68,632.32,616.16Z"/><path class="cls-5" d="M438.42,560.85l-51-12.79V526.35l78.25,22.35v23.66L387.39,596V574Z"/><path class="cls-5" d="M167.59,298.36,157,340.79h-18l18.59-65.06h19.67l19.66,65.06H178.5Z"/><path class="cls-5" d="M196.82,376.94V351.87H103v25.07Zm0,41.2V393.07H103v25.07Z"/><path class="cls-5" d="M452.34,624V605h-20v19H412.75v15.33h19.61v19h20v-19H472V624Z"/><path class="cls-5" d="M189.13,238.83l15.07-15.07-15.85-15.85L173.27,223l-15.55-15.56-12.16,12.16,15.56,15.56-15.07,15.07,15.85,15.85L177,251l15.56,15.56,12.16-12.16Z"/><path class="cls-5" d="M255,133H238.47q-19.11,0-19.11,16.2v29.65q0,16.2,19.11,16.2H255q19.11,0,19.11-16.2V149.18Q274.11,133,255,133Zm-7,45.36h-2.59c-2.16,0-3.24-.92-3.24-2.75V152.42c0-1.94,1.08-2.92,3.24-2.92H248c2.16,0,3.24,1,3.24,2.92v23.17C251.27,177.42,250.19,178.34,248,178.34Zm.81,58.64h20.25L327.9,133H307.32Zm88.78-62H321.09q-19.11,0-19.11,16.2v29.64Q302,237,321.09,237h16.53q19.11,0,19.11-16.2V191.14Q356.73,174.94,337.62,174.94Zm-7,45.36h-2.59q-3.24,0-3.24-2.76V194.38q0-2.92,3.24-2.92h2.59q3.24,0,3.24,2.92v23.16Q333.89,220.3,330.65,220.3Z"/><path class="cls-5" d="M495.07,255.9H482.3q-3,0-2.95-3.36v-3.9c0-2.23,1-3.36,2.95-3.36h7.26V221.76H479.21q-15.72,0-16.66,17.61H451.12v22.31h11.43q.79,17.74,16.66,17.74H497q8.21,0,12.57-4.1t4.37-14v-12.9c0-2.24,1-3.36,3-3.36h12.24q3,0,2.95,3.36v3.89q0,3.36-2.95,3.36h-7.26v23.52h10.35q15.72,0,16.66-17.47h11.29V239.37H548.83q-.66-17.88-16.66-17.88H514.43q-8.07,0-12.23,4.24T498,239.91v12.63Q498,255.9,495.07,255.9Z"/><path class="cls-7" d="M558.6,383.3a12.46,12.46,0,0,0-3.4-5.05,15.89,15.89,0,0,0-22.47,0,15.93,15.93,0,0,0-4.1,15.4,15.71,15.71,0,0,0,1.56,3.75,16,16,0,0,0,5.57,5.69,15.74,15.74,0,0,0-3.14,2.48,16.17,16.17,0,0,0-2.43,3.2,15.71,15.71,0,0,0-1.56,3.75,15.89,15.89,0,0,0,30,10.35,15.72,15.72,0,0,0,1.25-6.18h97.66A15.89,15.89,0,0,0,688,422.87a15.72,15.72,0,0,0,1.25-6.18,16,16,0,0,0-.55-4.17,15.71,15.71,0,0,0-1.56-3.75,15.77,15.77,0,0,0-5.56-5.68,16.46,16.46,0,0,0,3.14-2.49,16.12,16.12,0,0,0,2.42-3.2,15.71,15.71,0,0,0,1.56-3.75,15.89,15.89,0,0,0,.55-4.17,15.89,15.89,0,0,0-27.12-11.23,15.87,15.87,0,0,0-4.65,11.23H559.94C559.26,388.18,559.36,385.8,558.6,383.3Z"/><ellipse class="cls-7" cx="483.8" cy="355.72" rx="25.97" ry="24.46"/><ellipse class="cls-7" cx="444.71" cy="330.53" rx="10.38" ry="12.69"/><ellipse class="cls-7" cx="468.01" cy="308.26" rx="10.38" ry="12.69"/><ellipse class="cls-7" cx="499.58" cy="308.26" rx="10.38" ry="12.69"/><ellipse class="cls-7" cx="521.88" cy="331.27" rx="10.38" ry="12.69"/><path class="cls-9" d="M350.27,261.87a33.75,33.75,0,0,0-37.93-.91,62.48,62.48,0,0,1,0,56.77,33.75,33.75,0,0,0,37.93-.91,62.61,62.61,0,0,1,0-54.95Z"/><path class="cls-9" d="M312.34,261a33.76,33.76,0,0,0,0,56.77,62.48,62.48,0,0,0,0-56.77Z"/><path class="cls-9" d="M364.41,289.35a33.73,33.73,0,0,0-14.14-27.48,62.61,62.61,0,0,0,0,54.95A33.7,33.7,0,0,0,364.41,289.35Z"/><polygon class="cls-7" points="582.58 591.35 608.68 565.24 601.14 557.7 582.88 574.52 582.88 544.45 570.22 544.45 570.22 755.78 582.88 755.78 582.58 591.35"/><line class="cls-7" x1="574.13" y1="610.09" x2="558.52" y2="594.49"/><text class="cls-10" transform="translate(243.94 248.35)">WOOF</text><path class="cls-5" d="M471.15,440.37v32.87a3,3,0,0,1-3,3h-7.3a3,3,0,0,1-3-3V471h-4.91v38.39a3,3,0,0,1-3,3H392.71a3,3,0,0,1-3-3V472.56h-5.79v2.28a3,3,0,0,1-3,3h-7.3a3,3,0,0,1-3-3V442a3,3,0,0,1,3-3h7.3a3,3,0,0,1,3,3v3.16h5.79V428.84A11.94,11.94,0,0,1,383,418.13V415a11.93,11.93,0,0,1,6.81-10.76,31.68,31.68,0,0,1,24.28-28.49v-5.42a3,3,0,0,1,3-3h8.73a3,3,0,0,1,3,3v5.48a31.66,31.66,0,0,1,24,28.43A11.93,11.93,0,0,1,459.65,415v3.11a12,12,0,0,1-6.71,10.71v14.69h4.91v-3.16a3,3,0,0,1,3-3h7.3A3,3,0,0,1,471.15,440.37Zm-93.23,29.19V445h-1.3v26.87h1.3Zm10.69-18.43h-4.69v15.43h4.69Zm31.47-77.2h2.73v-.58h-2.73ZM396,403.09H446.7a25.61,25.61,0,0,0-50.75,0Zm-7,15a5.9,5.9,0,0,0,1.46,3.88,3,3,0,0,1,2.26-1.05h57.23A3,3,0,0,1,452.2,422a5.94,5.94,0,0,0,1.45-3.88V415a5.94,5.94,0,0,0-3.67-5.48H392.66A5.94,5.94,0,0,0,389,415Zm57.95,88.22V430.06H395.71v76.29ZM457.85,465V449.53h-4.69V465Zm7.3-21.59h-1.3v26.87h1.3Z"/><path class="cls-5" d="M404,434.91a3,3,0,0,0-3,3v60.64a3,3,0,0,0,6,0V437.91A3,3,0,0,0,404,434.91Z"/><path class="cls-5" d="M437.63,436.13a3,3,0,0,0-3,3v60.63a3,3,0,0,0,6,0V439.13A3,3,0,0,0,437.63,436.13Z"/><path class="cls-5" d="M420.2,443.64a3,3,0,0,0-3,3v40.91a3,3,0,0,0,6,0V446.64A3,3,0,0,0,420.2,443.64Z"/><path class="cls-7" d="M605.93,456.07c-2,0-2.81.86-2.81,2.82v28.76l-4.54-9.85c-.86-1.8-2.11-2.42-4.14-2.42h-3.28c-2,0-3.29.62-4.15,2.42l-4.53,9.85V458.89c0-2-.86-2.82-2.82-2.82h-12c-2,0-2.82.86-2.82,2.82v30.17a24.26,24.26,0,0,0,1.41,9.69l3.91,10.79a3.64,3.64,0,0,0,3.44,2.81h10.32a3.14,3.14,0,0,0,3.28-2.34l3.67-12.74c.32-1,.78-1.33,1.41-1.33h.7c.63,0,1.1.31,1.41,1.33L598,510c.47,1.64,1.87,2.34,3.59,2.34H612c1.64,0,2.58-1.25,3.13-2.81l3.9-10.63a24.26,24.26,0,0,0,1.41-9.69V458.89c0-2-.86-2.82-2.81-2.82Z"/><path class="cls-7" d="M148.62,512.35c1.95,0,2.81-.86,2.81-2.81v-15.4H165c2,0,2.82-.86,2.82-2.81V482c0-2-.86-2.82-2.82-2.82h-13.6V471h19.94c1.95,0,2.81-.86,2.81-2.81v-9.3c0-2-.86-2.82-2.81-2.82H136.5c-1.95,0-2.81.86-2.81,2.82v50.65c0,1.95.86,2.81,2.81,2.81Z"/><text class="cls-6" transform="matrix(1, -0.01, 0.01, 1, 609, 191.97)">!</text><path class="cls-5" d="M118.4,205.16H85.54a3,3,0,0,1-3-3v-7.29a3,3,0,0,1,3-3h2.27V187H49.42a3,3,0,0,1-3-3V126.72a3,3,0,0,1,3-3H86.21v-5.79H83.94a3,3,0,0,1-3-3v-7.3a3,3,0,0,1,3-3H116.8a3,3,0,0,1,3,3v7.3a3,3,0,0,1-3,3h-3.16v5.79h16.29A11.94,11.94,0,0,1,140.65,117h3.11a12,12,0,0,1,10.76,6.81A31.67,31.67,0,0,1,183,148.09h5.42a3,3,0,0,1,3,3v8.74a3,3,0,0,1-3,3h-5.48a31.68,31.68,0,0,1-28.42,24,12,12,0,0,1-10.76,6.8h-3.11A11.93,11.93,0,0,1,129.93,187H115.24v4.92h3.16a3,3,0,0,1,3,3v7.29A3,3,0,0,1,118.4,205.16ZM89.21,111.93H113.8v-1.3H86.94v1.3Zm18.43,10.7v-4.7H92.21v4.7Zm77.21,31.46v2.74h.57v-2.74ZM155.69,130v50.75a25.61,25.61,0,0,0,0-50.75Zm-15-7a5.91,5.91,0,0,0-3.88,1.46,3,3,0,0,1,1,2.26V184a3,3,0,0,1-1,2.26,5.9,5.9,0,0,0,3.88,1.45h3.11a5.94,5.94,0,0,0,5.48-3.67s0,0,0,0V126.72s0,0,0,0a5.94,5.94,0,0,0-5.48-3.67ZM52.42,181h76.3V129.72H52.42Zm41.39,10.92h15.43v-4.7H93.81Zm21.59,7.29v-1.29H88.54v1.29Z"/></g><g class="cls-11"><path class="cls-5" d="M177.37-20.64q0-21.53,23.06-21.53h3q13,0,15.82,11.05v-11H245V6.05h8.38q4.77,0,4.77-4.2V-50.56q0-4.19-4.77-4.19H171.27q-4.76,0-4.76,4.19V34.82c0,2.8,1.59,4.19,4.76,4.19h73.95V60.93H163.27q-25.35,0-25.35-23.63V-53q0-23.64,25.35-23.63H261q25,0,25,23.63V2.23q0,23.64-25.35,23.63H219.49V14.24q-2.48,11.62-16,11.62h-3q-23.06,0-23.06-21.53Zm27.83,2.29V2c0,2.55,1.39,3.81,4.19,3.81h4.76q4.57,0,4.58-5.14V-17c0-3.44-1.53-5.15-4.58-5.15h-4.76C206.59-22.16,205.2-20.89,205.2-18.35Z"/><path class="cls-5" d="M119.78,5.43h-7.3l-2.31,10.2h6.11v8.2h-8L105.93,34.4H95.13l2.38-10.57H90.06L87.68,34.4H76.8l2.39-10.57H73.75v-8.2h7.3l2.31-10.2H77.25V-2.76h8L87.6-13.34H98.4L96-2.76h7.45l2.38-10.58h10.88L114.34-2.76h5.44ZM99.37,15.63l2.24-10.2H94.16l-2.24,10.2Z"/><path class="cls-5" d="M54.69,84.63H11q-23.28,0-23.28-19.65V55.8q0-7.92,3.09-12.2t11.8-9l2.53-1.42-.63-.8A69.71,69.71,0,0,1-4.23,21.82a15.85,15.85,0,0,1-2.38-8.47V2.58q0-19.65,23.28-19.64H35.21Q58-17.06,58,2.58V13.35q0,8.71-3.81,13.3-4.27,5.07-15.36,11.41L55.64,56V44.87H77.5V65a19.34,19.34,0,0,1-3,11.09l13.3,14.26H60.23ZM17.78,66.41H37.27L20.16,48.67l-2.69,1.58a6.78,6.78,0,0,0-3.65,6v6.66Q13.82,66.41,17.78,66.41ZM20.32,4.16v10.3q0,4.11,3.64,7.92a33.57,33.57,0,0,0,6.26-4.12,5.84,5.84,0,0,0,1.66-4.44V4.16q0-3.48-4-3.48H24.28Q20.32.68,20.32,4.16Z"/><polygon class="cls-7" points="-29.42 -20.66 -3.32 -46.76 -10.86 -54.3 -29.12 -37.48 -29.12 -67.55 -41.78 -67.55 -41.78 143.78 -29.12 143.78 -29.42 -20.66"/><text class="cls-6" transform="matrix(1, -0.01, 0.01, 1, -3, 191.97)">!</text><path class="cls-5" d="M118.4,205.16H85.54a3,3,0,0,1-3-3v-7.29a3,3,0,0,1,3-3h2.27V187H49.42a3,3,0,0,1-3-3V126.72a3,3,0,0,1,3-3H86.21v-5.79H83.94a3,3,0,0,1-3-3v-7.3a3,3,0,0,1,3-3H116.8a3,3,0,0,1,3,3v7.3a3,3,0,0,1-3,3h-3.16v5.79h16.29A11.94,11.94,0,0,1,140.65,117h3.11a12,12,0,0,1,10.76,6.81A31.67,31.67,0,0,1,183,148.09h5.42a3,3,0,0,1,3,3v8.74a3,3,0,0,1-3,3h-5.48a31.68,31.68,0,0,1-28.42,24,12,12,0,0,1-10.76,6.8h-3.11A11.93,11.93,0,0,1,129.93,187H115.24v4.92h3.16a3,3,0,0,1,3,3v7.29A3,3,0,0,1,118.4,205.16ZM89.21,111.93H113.8v-1.3H86.94v1.3Zm18.43,10.7v-4.7H92.21v4.7Zm77.21,31.46v2.74h.57v-2.74ZM155.69,130v50.75a25.61,25.61,0,0,0,0-50.75Zm-15-7a5.91,5.91,0,0,0-3.88,1.46,3,3,0,0,1,1,2.26V184a3,3,0,0,1-1,2.26,5.9,5.9,0,0,0,3.88,1.45h3.11a5.94,5.94,0,0,0,5.48-3.67s0,0,0,0V126.72s0,0,0,0a5.94,5.94,0,0,0-5.48-3.67ZM52.42,181h76.3V129.72H52.42Zm41.39,10.92h15.43v-4.7H93.81Zm21.59,7.29v-1.29H88.54v1.29Z"/><path class="cls-5" d="M123.86,138.05a3,3,0,0,0-3-3H60.22a3,3,0,0,0,0,6h60.64A3,3,0,0,0,123.86,138.05Z"/><path class="cls-5" d="M122.65,171.64a3,3,0,0,0-3-3H59a3,3,0,1,0,0,6h60.64A3,3,0,0,0,122.65,171.64Z"/><path class="cls-5" d="M115.13,154.21a3,3,0,0,0-3-3H71.22a3,3,0,0,0,0,6h40.91A3,3,0,0,0,115.13,154.21Z"/></g><g class="cls-12"><path class="cls-5" d="M177.37,591.36q0-21.52,23.06-21.53h3q13,0,15.82,11v-11H245v48.22h8.38q4.77,0,4.77-4.2V561.44q0-4.19-4.77-4.19H171.27q-4.76,0-4.76,4.19v85.38c0,2.8,1.59,4.19,4.76,4.19h73.95v21.92H163.27q-25.35,0-25.35-23.63V559q0-23.64,25.35-23.63H261q25,0,25,23.63v55.26q0,23.64-25.35,23.63H219.49V626.24q-2.48,11.63-16,11.62h-3q-23.06,0-23.06-21.53Zm27.83,2.29V614c0,2.55,1.39,3.81,4.19,3.81h4.76q4.57,0,4.58-5.14V595c0-3.44-1.53-5.15-4.58-5.15h-4.76C206.59,589.84,205.2,591.11,205.2,593.65Z"/><path class="cls-5" d="M167.59,298.36,157,340.79h-18l18.59-65.06h19.67l19.66,65.06H178.5Z"/><path class="cls-5" d="M196.82,376.94V351.87H103v25.07Zm0,41.2V393.07H103v25.07Z"/><path class="cls-5" d="M189.13,238.83l15.07-15.07-15.85-15.85L173.27,223l-15.55-15.56-12.16,12.16,15.56,15.56-15.07,15.07,15.85,15.85L177,251l15.56,15.56,12.16-12.16Z"/><path class="cls-5" d="M119.78,617.43h-7.3l-2.31,10.2h6.11v8.2h-8l-2.38,10.57H95.13l2.38-10.57H90.06L87.68,646.4H76.8l2.39-10.57H73.75v-8.2h7.3l2.31-10.2H77.25v-8.19h8l2.38-10.58H98.4L96,609.24h7.45l2.38-10.58h10.88l-2.39,10.58h5.44Zm-20.41,10.2,2.24-10.2H94.16l-2.24,10.2Z"/><path class="cls-5" d="M16.9,276.58Q16.9,255,40,255h3q13,0,15.82,11.06V255H84.56v48.22h8.38q4.77,0,4.77-4.19V246.66q0-4.18-4.77-4.19H10.8Q6,242.47,6,246.66V332q0,4.18,4.76,4.19h74v21.91H2.8q-25.35,0-25.35-23.63V244.18q0-23.62,25.35-23.63h97.76q25,0,25,23.63v55.27q0,23.63-25.35,23.63H59V311.45q-2.48,11.64-16,11.63H40q-23.05,0-23.06-21.54Zm27.83,2.29v20.39c0,2.54,1.39,3.81,4.19,3.81h4.76q4.57,0,4.58-5.15V280.2q0-5.15-4.58-5.15H48.92C46.12,275.05,44.73,276.33,44.73,278.87Z"/><path class="cls-5" d="M54.69,696.63H11q-23.28,0-23.28-19.65V667.8q0-7.92,3.09-12.2t11.8-9l2.53-1.42-.63-.8a69.71,69.71,0,0,1-8.71-10.53,15.85,15.85,0,0,1-2.38-8.47V614.58q0-19.65,23.28-19.64H35.21q22.8,0,22.81,19.64v10.77q0,8.71-3.81,13.3-4.27,5.07-15.36,11.41L55.64,668V656.87H77.5V677a19.34,19.34,0,0,1-3,11.09l13.3,14.26H60.23ZM17.78,678.41H37.27L20.16,660.67l-2.69,1.58a6.78,6.78,0,0,0-3.65,6v6.66Q13.82,678.41,17.78,678.41Zm2.54-62.25v10.3q0,4.11,3.64,7.92a33.57,33.57,0,0,0,6.26-4.12,5.84,5.84,0,0,0,1.66-4.44v-9.66q0-3.48-4-3.48H24.28Q20.32,612.68,20.32,616.16Z"/><path class="cls-5" d="M111.09,548.37V528H35v20.33Zm0,33.41V561.45H35v20.33Z"/><path class="cls-7" d="M-53.4,383.3a12.46,12.46,0,0,0-3.4-5.05,15.83,15.83,0,0,0-5.05-3.4A15.72,15.72,0,0,0-68,373.6a15.73,15.73,0,0,0-6.19,1.25,15.83,15.83,0,0,0-5,3.4,16,16,0,0,0-3.4,5.05,15.9,15.9,0,0,0-1.25,6.18,15.89,15.89,0,0,0,.55,4.17,15.71,15.71,0,0,0,1.56,3.75,16.17,16.17,0,0,0,2.43,3.2,16.16,16.16,0,0,0,3.14,2.49,15.74,15.74,0,0,0-3.14,2.48,16.17,16.17,0,0,0-2.43,3.2,15.71,15.71,0,0,0-1.56,3.75,16,16,0,0,0-.55,4.17,15.9,15.9,0,0,0,1.25,6.18,16,16,0,0,0,3.4,5.05,16,16,0,0,0,5,3.41A15.91,15.91,0,0,0-68,432.57a15.89,15.89,0,0,0,6.18-1.24,16,16,0,0,0,5.05-3.41,15.83,15.83,0,0,0,3.4-5.05,15.72,15.72,0,0,0,1.25-6.18H45.51A15.89,15.89,0,0,0,76,422.87a15.72,15.72,0,0,0,1.25-6.18,16,16,0,0,0-.55-4.17,15.71,15.71,0,0,0-1.56-3.75,15.77,15.77,0,0,0-5.56-5.68,16.46,16.46,0,0,0,3.14-2.49,16.12,16.12,0,0,0,2.42-3.2,15.71,15.71,0,0,0,1.56-3.75,15.89,15.89,0,0,0,.55-4.17,15.89,15.89,0,0,0-27.12-11.23,15.87,15.87,0,0,0-4.65,11.23H-52.06C-52.74,388.18-52.64,385.8-53.4,383.3Z"/><polygon class="cls-7" points="-29.42 591.35 -3.32 565.24 -10.86 557.7 -29.12 574.52 -29.12 544.45 -41.78 544.45 -41.78 755.78 -29.12 755.78 -29.42 591.35"/><path class="cls-7" d="M-6.07,456.07c-2,0-2.81.86-2.81,2.82v28.76l-4.54-9.85c-.86-1.8-2.11-2.42-4.14-2.42h-3.28c-2,0-3.29.62-4.15,2.42l-4.53,9.85V458.89c0-2-.86-2.82-2.82-2.82h-12c-2,0-2.82.86-2.82,2.82v30.17a24.26,24.26,0,0,0,1.41,9.69l3.91,10.79a3.64,3.64,0,0,0,3.44,2.81h10.32A3.14,3.14,0,0,0-24.83,510l3.67-12.74c.32-1,.78-1.33,1.41-1.33h.7c.63,0,1.1.31,1.41,1.33L-14,510c.47,1.64,1.87,2.34,3.59,2.34H0c1.64,0,2.58-1.25,3.13-2.81L7,498.91a24.26,24.26,0,0,0,1.41-9.69V458.89c0-2-.86-2.82-2.81-2.82Z"/><path class="cls-7" d="M66.15,497.58V470.92c0-9.53-4.69-16-24.23-16s-24.31,6.49-24.31,16v26.66c0,9.54,4.77,15.95,24.31,15.95S66.15,507.12,66.15,497.58Zm-30.79-2.81v-21c0-2,.93-3.6,6.56-3.6s6.57,1.57,6.57,3.6v21c0,2.11-.86,3.67-6.57,3.67S35.36,496.88,35.36,494.77Z"/><path class="cls-7" d="M123.76,497.58V470.92c0-9.53-4.69-16-24.23-16s-24.31,6.49-24.31,16v26.66c0,9.54,4.77,15.95,24.31,15.95S123.76,507.12,123.76,497.58ZM93,494.77v-21c0-2,.94-3.6,6.57-3.6s6.57,1.57,6.57,3.6v21c0,2.11-.86,3.67-6.57,3.67S93,496.88,93,494.77Z"/><path class="cls-7" d="M148.62,512.35c1.95,0,2.81-.86,2.81-2.81v-15.4H165c2,0,2.82-.86,2.82-2.81V482c0-2-.86-2.82-2.82-2.82h-13.6V471h19.94c1.95,0,2.81-.86,2.81-2.81v-9.3c0-2-.86-2.82-2.81-2.82H136.5c-1.95,0-2.81.86-2.81,2.82v50.65c0,1.95.86,2.81,2.81,2.81Z"/><text class="cls-6" transform="matrix(1, -0.01, 0.01, 1, -3, 191.97)">!</text><path class="cls-5" d="M118.4,205.16H85.54a3,3,0,0,1-3-3v-7.29a3,3,0,0,1,3-3h2.27V187H49.42a3,3,0,0,1-3-3V126.72a3,3,0,0,1,3-3H86.21v-5.79H83.94a3,3,0,0,1-3-3v-7.3a3,3,0,0,1,3-3H116.8a3,3,0,0,1,3,3v7.3a3,3,0,0,1-3,3h-3.16v5.79h16.29A11.94,11.94,0,0,1,140.65,117h3.11a12,12,0,0,1,10.76,6.81A31.67,31.67,0,0,1,183,148.09h5.42a3,3,0,0,1,3,3v8.74a3,3,0,0,1-3,3h-5.48a31.68,31.68,0,0,1-28.42,24,12,12,0,0,1-10.76,6.8h-3.11A11.93,11.93,0,0,1,129.93,187H115.24v4.92h3.16a3,3,0,0,1,3,3v7.29A3,3,0,0,1,118.4,205.16ZM89.21,111.93H113.8v-1.3H86.94v1.3Zm18.43,10.7v-4.7H92.21v4.7Zm77.21,31.46v2.74h.57v-2.74ZM155.69,130v50.75a25.61,25.61,0,0,0,0-50.75Zm-15-7a5.91,5.91,0,0,0-3.88,1.46,3,3,0,0,1,1,2.26V184a3,3,0,0,1-1,2.26,5.9,5.9,0,0,0,3.88,1.45h3.11a5.94,5.94,0,0,0,5.48-3.67s0,0,0,0V126.72s0,0,0,0a5.94,5.94,0,0,0-5.48-3.67ZM52.42,181h76.3V129.72H52.42Zm41.39,10.92h15.43v-4.7H93.81Zm21.59,7.29v-1.29H88.54v1.29Z"/></g></g></g></svg>