<?xml version="1.0" encoding="utf-8"?>
<!-- Generator: Adobe Illustrator 13.0.0, SVG Export Plug-In . SVG Version: 6.00 Build 14948)  -->
<!DOCTYPE svg PUBLIC "-//W3C//DTD SVG 1.1//EN" "http://www.w3.org/Graphics/SVG/1.1/DTD/svg11.dtd">
<svg version="1.1" id="Layer_1" xmlns="http://www.w3.org/2000/svg" xmlns:xlink="http://www.w3.org/1999/xlink" x="0px" y="0px"
	 width="175.749px" height="30.467px" viewBox="0 0 175.749 30.467" enable-background="new 0 0 175.749 30.467"
	 xml:space="preserve">
<g>
	<polygon fill-rule="evenodd" clip-rule="evenodd" fill="#006BAE" points="11.577,0.218 9.695,4.284 7.019,0.291 7.091,0.218 
		3.835,0.218 0,8.424 3.256,8.424 5.209,4.212 8.031,8.424 10.998,8.424 14.833,0.218 11.577,0.218 	"/>
	<polygon fill-rule="evenodd" clip-rule="evenodd" fill="#006BAE" points="0,8.424 3.835,0.145 7.019,0.145 9.695,4.284 
		11.649,0.145 14.833,0.145 10.998,8.424 8.031,8.424 5.209,4.212 3.256,8.424 0,8.424 	"/>
	<polygon fill-rule="evenodd" clip-rule="evenodd" fill="#006BAE" points="158.673,8.424 162.507,0.145 165.618,0.145 
		168.368,4.284 170.249,0.145 173.505,0.145 169.67,8.424 166.632,8.424 163.882,4.212 161.856,8.424 158.673,8.424 	"/>
	<path fill-rule="evenodd" clip-rule="evenodd" fill="#006BAE" d="M99.993,8.133c-0.651,0.145-1.013,0.218-1.736,0.291
		c-0.796,0.073-1.302,0.073-1.953,0.073s-1.158-0.073-1.664-0.146c-0.507-0.146-0.94-0.291-1.303-0.508
		c-0.651-0.436-1.013-0.944-1.158-1.525c-0.217-0.654-0.072-1.307,0.218-2.106c0.289-0.581,0.65-1.162,1.157-1.67
		c0.435-0.508,1.086-0.944,1.736-1.38c0.724-0.363,1.52-0.654,2.243-0.871C98.329,0.072,99.125,0,99.993,0
		c0.651,0,1.23,0.072,1.809,0.145c0.507,0.146,1.086,0.291,1.593,0.508l-0.869,1.961c-0.434-0.218-0.868-0.363-1.302-0.509
		c-0.435-0.072-0.868-0.145-1.375-0.145c-0.868,0-1.664,0.218-2.388,0.581c-0.724,0.436-1.23,1.017-1.52,1.67s-0.289,1.234,0,1.598
		c0.362,0.436,0.868,0.653,1.592,0.653c0.145,0,0.29,0,0.435-0.073c0.145,0,0.145,0,0.289-0.072l0.507-0.944h-1.303l0.94-1.67h3.69
		L99.993,8.133L99.993,8.133z"/>
	<path fill-rule="evenodd" clip-rule="evenodd" fill="#006BAE" d="M81.109,1.67h0.724c0.506,0,0.868,0.073,1.085,0.291
		c0.145,0.145,0.145,0.436-0.072,0.799c-0.145,0.436-0.434,0.726-0.796,0.872c-0.289,0.218-0.795,0.291-1.375,0.291h-0.651
		L81.109,1.67L81.109,1.67z M77.998,8.424l1.375-2.978h1.085c1.447,0,2.604-0.218,3.545-0.654c0.941-0.508,1.665-1.162,2.026-2.033
		c0.435-0.871,0.362-1.525-0.145-1.961c-0.579-0.436-1.52-0.653-2.966-0.653h-4.486l-3.835,8.279H77.998L77.998,8.424z"/>
	<polygon fill-rule="evenodd" clip-rule="evenodd" fill="#006BAE" points="42.038,8.424 46.017,0.145 49.49,0.145 48.043,3.195 
		51.661,3.195 53.108,0.145 56.653,0.145 52.674,8.424 49.128,8.424 50.576,5.374 47.03,5.374 45.511,8.424 42.038,8.424 	"/>
	<polygon fill-rule="evenodd" clip-rule="evenodd" fill="#006BAE" points="35.236,8.424 38.203,2.251 35.236,2.251 36.25,0.145 
		45.583,0.145 44.498,2.251 41.531,2.251 38.493,8.424 35.236,8.424 	"/>
	<path fill-rule="evenodd" clip-rule="evenodd" fill="#006BAE" d="M18.161,2.904c0.506-0.29,1.085-0.508,1.664-0.508
		c0.579,0,0.94,0.218,1.23,0.508c0.217,0.363,0.217,0.799,0,1.38c-0.217,0.508-0.651,0.944-1.158,1.307
		C19.391,5.955,18.812,6.1,18.233,6.1s-0.94-0.146-1.23-0.509c-0.217-0.363-0.217-0.799,0-1.307
		C17.22,3.704,17.655,3.268,18.161,2.904L18.161,2.904z M13.313,5.955c0,0.508,0.217,0.944,0.579,1.38s0.796,0.726,1.375,0.944
		c0.506,0.146,1.158,0.291,1.953,0.291c0.724,0,1.52-0.145,2.243-0.291c0.723-0.218,1.447-0.508,2.098-0.944
		c0.724-0.436,1.303-0.872,1.736-1.38c0.507-0.508,0.869-1.089,1.158-1.67c0.217-0.653,0.362-1.234,0.29-1.743
		c0-0.508-0.217-0.944-0.579-1.38c-0.29-0.363-0.796-0.654-1.302-0.871C22.285,0.072,21.634,0,20.838,0
		c-0.724,0-1.52,0.072-2.243,0.291c-0.724,0.217-1.447,0.508-2.098,0.871c-0.724,0.436-1.303,0.872-1.809,1.38
		c-0.434,0.508-0.796,1.089-1.085,1.743C13.386,4.866,13.241,5.446,13.313,5.955L13.313,5.955z"/>
	<path fill-rule="evenodd" clip-rule="evenodd" fill="#006BAE" d="M69.75,2.904c0.506-0.29,1.085-0.508,1.664-0.508
		c0.579,0,0.94,0.218,1.158,0.508c0.29,0.363,0.29,0.799,0.072,1.38c-0.29,0.508-0.651,0.944-1.158,1.307
		C70.979,5.955,70.4,6.1,69.822,6.1c-0.579,0-1.013-0.146-1.23-0.509c-0.217-0.363-0.217-0.799,0-1.307
		C68.809,3.704,69.17,3.268,69.75,2.904L69.75,2.904z M64.901,5.955c0,0.508,0.217,0.944,0.579,1.38
		c0.29,0.436,0.796,0.726,1.302,0.944c0.579,0.146,1.23,0.291,2.026,0.291c0.723,0,1.447-0.145,2.243-0.291
		c0.724-0.218,1.447-0.508,2.098-0.944c0.724-0.436,1.302-0.872,1.737-1.38c0.506-0.508,0.868-1.089,1.158-1.67
		c0.217-0.653,0.362-1.234,0.289-1.743c0-0.508-0.217-0.944-0.579-1.38c-0.362-0.363-0.796-0.654-1.375-0.871
		C73.874,0.072,73.15,0,72.426,0c-0.795,0-1.519,0.072-2.243,0.291c-0.724,0.217-1.447,0.508-2.099,0.871
		c-0.723,0.436-1.302,0.872-1.809,1.38c-0.434,0.508-0.796,1.089-1.085,1.743C64.901,4.866,64.829,5.446,64.901,5.955L64.901,5.955z
		"/>
	<path fill-rule="evenodd" clip-rule="evenodd" fill="#006BAE" d="M114.682,0.145h3.4l-2.025,4.43
		c-0.29,0.581-0.362,1.017-0.146,1.307c0.146,0.291,0.507,0.436,1.158,0.436c0.578,0,1.085-0.146,1.519-0.436
		c0.435-0.291,0.797-0.726,1.014-1.307l2.025-4.43h3.4l-2.025,4.502c-0.579,1.307-1.52,2.251-2.677,2.905
		c-1.158,0.653-2.605,1.017-4.342,1.017c-1.664,0-2.821-0.363-3.4-1.017s-0.579-1.598,0-2.905L114.682,0.145L114.682,0.145z"/>
	<path fill-rule="evenodd" clip-rule="evenodd" fill="#006BAE" d="M155.345,2.324l-0.072,3.123h-2.822L155.345,2.324L155.345,2.324z
		 M149.7,8.424l1.303-1.453h4.27v1.453h3.256l-0.435-8.279h-3.473l-8.249,8.279H149.7L149.7,8.424z"/>
	<path fill-rule="evenodd" clip-rule="evenodd" fill="#006BAE" d="M34.73,0.726c-0.579-0.436-1.592-0.581-3.111-0.581h-4.63
		l-3.835,8.279h3.4l1.665-3.486h0.94c0.868,0.073,1.158,1.089,1.158,2.76c0,0.145,0,0.436,0,0.726h3.256L33.428,5.81
		c0-0.291-0.072-0.727-0.217-0.944c-0.072-0.146-0.29-0.291-0.434-0.363c0.579-0.218,0.868-0.436,1.302-0.799
		c0.362-0.291,0.651-0.726,0.869-1.162C35.309,1.743,35.236,1.162,34.73,0.726L34.73,0.726z M31.764,2.687
		c-0.073,0.291-0.434,0.581-0.796,0.726c-0.29,0.145-1.013,0.291-1.664,0.291h-0.651l1.085-2.251h0.651
		c0.579,0,1.013,0.146,1.23,0.291C31.764,1.888,31.908,2.251,31.764,2.687L31.764,2.687z"/>
	<path fill-rule="evenodd" clip-rule="evenodd" fill="#006BAE" d="M65.336,0.726c-0.579-0.436-1.592-0.581-3.111-0.581h-4.558
		l-3.907,8.279h3.4l1.664-3.486h0.941c0.868,0.073,1.23,1.089,1.23,2.76c0,0.145-0.072,0.436-0.072,0.726h3.256L64.106,5.81
		c-0.073-0.291-0.145-0.727-0.29-0.944c-0.072-0.146-0.217-0.291-0.434-0.363c0.579-0.218,0.94-0.436,1.302-0.799
		c0.362-0.291,0.651-0.726,0.868-1.162C65.915,1.743,65.842,1.162,65.336,0.726L65.336,0.726z M62.369,2.687
		c-0.072,0.291-0.434,0.581-0.796,0.726c-0.289,0.145-1.013,0.291-1.592,0.291h-0.723l1.085-2.251h0.651
		c0.579,0,1.085,0.146,1.23,0.291C62.442,1.888,62.514,2.251,62.369,2.687L62.369,2.687z"/>
	<path fill-rule="evenodd" clip-rule="evenodd" fill="#006BAE" d="M112.511,0.726c-0.507-0.436-1.52-0.581-3.111-0.581h-4.559
		l-3.907,8.279h3.474l1.664-3.486h0.94c0.868,0.073,1.157,1.089,1.157,2.76c0,0.145,0,0.436,0,0.726h3.257L111.28,5.81
		c0-0.291-0.145-0.727-0.217-0.944c-0.072-0.146-0.289-0.291-0.434-0.363c0.578-0.218,0.868-0.436,1.229-0.799
		c0.435-0.291,0.724-0.726,0.868-1.162C113.162,1.743,113.09,1.162,112.511,0.726L112.511,0.726z M109.616,2.687
		c-0.072,0.291-0.506,0.581-0.796,0.726c-0.289,0.145-1.013,0.291-1.664,0.291h-0.65l1.085-2.251h0.651
		c0.578,0,1.013,0.146,1.229,0.291C109.616,1.888,109.762,2.251,109.616,2.687L109.616,2.687z"/>
	<polygon fill-rule="evenodd" clip-rule="evenodd" fill="#006BAE" points="122.062,8.424 125.896,0.145 129.08,0.145 130.165,3.413 
		134.145,0.145 137.328,0.145 133.493,8.424 130.237,8.424 132.408,3.704 128.356,7.044 127.343,3.849 125.245,8.424 122.062,8.424 
			"/>
	<polygon fill-rule="evenodd" clip-rule="evenodd" fill="#006BAE" points="134.434,8.424 138.341,0.145 141.524,0.145 
		142.538,3.413 146.517,0.145 149.773,0.145 145.938,8.424 142.61,8.424 144.854,3.704 140.801,7.044 139.788,3.849 137.617,8.424 
		134.434,8.424 	"/>
	<path fill="none" stroke="#006BAE" stroke-width="0.273" stroke-miterlimit="2.6131" d="M17.654,30.355
		c31.619-22.367,126.837-19.1,158.094-19.245"/>
</g>
</svg>
