<?xml version="1.0" encoding="utf-8"?>
<!-- Generator: Adobe Illustrator 18.0.0, SVG Export Plug-In . SVG Version: 6.00 Build 0)  -->
<!DOCTYPE svg PUBLIC "-//W3C//DTD SVG 1.1//EN" "http://www.w3.org/Graphics/SVG/1.1/DTD/svg11.dtd">
<svg version="1.1" id="Layer_1" xmlns="http://www.w3.org/2000/svg" xmlns:xlink="http://www.w3.org/1999/xlink" x="0px" y="0px"
	 viewBox="0 0 380.2 177.9" enable-background="new 0 0 380.2 177.9" xml:space="preserve">
<path fill="#E21B4D" d="M272.1,36.2H256l0,31.6c0,10.3,11,19.1,24.6,19.1c13.6,0,25.5-8.9,25.5-19.1V36.2H290v28.5
	c0,4.7-4,8.5-8.9,8.5c-5,0-9-3.8-9-8.6L272.1,36.2z"/>
<path fill="#E21B4D" d="M16.7,18.8v65.6H0V5.3h30.1c13.1,0,23.8,10.6,23.8,23.5c0,11-7.7,20.2-18.1,22.6l23.2,33H39.1L22.4,58.5
	V39.6l3.9,0c6.2,0,11.2-4.6,11.2-10.3c0-5.7-4.7-10.5-10.9-10.5H16.7z"/>
<path fill="#E21B4D" d="M170.4,84.4V1.5h-15.8l0,39.1c-4.2-4.1-9.5-6.4-15.6-6.4c-13,0-23.6,11.5-23.6,25.8
	c0,14.2,10.6,25.8,23.6,25.8c6.2,0,12-2.4,15.6-6.8v5.4H170.4z M143.5,72.3c-6.4,0-11.6-5.7-11.6-12.7c0-7,5.2-12.7,11.6-12.7
	c6.4,0,11.6,5.7,11.6,12.7C155,66.6,149.8,72.3,143.5,72.3"/>
<path fill="#E21B4D" d="M236.8,41.4c4.3-4,7-9.4,7-15.3c0-5.4-2.1-10.3-5.7-14.2c-3.8-4.1-10.4-6.6-19.4-6.6h-26.9v79.1h34.8
	c13.3-0.2,24.1-10.3,24.1-22.7C250.6,52.7,247.4,46.3,236.8,41.4 M223.4,70.7h-15.1V19.5h10.6c4.6,0,8.5,3.5,8.5,8.2
	s-3.9,8.5-8.5,8.5l-5.6,0v14.3l10.3,0c5.6,0,9.8,4.6,9.8,10.2C233.2,66.3,229.5,70.4,223.4,70.7"/>
<path fill="#E21B4D" d="M73,54.1c0-5.3,4.3-9.6,9.6-9.6c5.3,0,9.6,4.3,9.6,9.6H73z M107.8,63.1c0.1-1.1,0.2-2.2,0.2-3.3
	c0.2-17.1-11-26.4-25.4-26.4c-14.4,0-26.1,11.8-26.1,26.4s11.7,26.4,26.1,26.4c11,0,19.6-5,24-12.8l-12.8-5.9c-1.6,3.5-5.4,6-9.9,6
	c-5.9,0-10.8-4.5-10.8-10.4C73.5,63.1,107.8,63.1,107.8,63.1"/>
<rect x="313.5" y="1.5" fill="#E21B4D" width="15.8" height="82.9"/>
<rect x="340.4" y="1.5" fill="#E21B4D" width="15.8" height="82.9"/>
<path fill="#FFD300" d="M141.8,139.2c0-21.4,17.3-38.7,38.7-38.7c21.4,0,38.7,17.3,38.7,38.7c0,21.4-17.3,38.7-38.7,38.7
	C159.1,177.9,141.8,160.5,141.8,139.2"/>
<path fill-rule="evenodd" clip-rule="evenodd" fill="#FFD300" d="M149.4,116.2c0.6,0.3,1.2,0.6,1.9,1c2.9,2,4.8,3.7,9.2,7.4
	c1.3,1.3,2.8,3.4,3.9,4.7c2.4,3,4.1,5.1,4.4,7.6c0.7,5,1.4,7.8,3.3,12.9c0.2,0.5,1,1.2,1.5,1.8c1.2,1.5,1.7,3.9,3.9,5.2
	c1.2,0.7,1.4,0.8,1.8,1.1c0.6,0.5-0.4,2.3-3.5,1.9c1.6,0.8,1.4,2.6-0.9,2.7c-4.5,0.2-7.3-2.4-7.9-3.1c-0.3-0.3-1.2,0.9-2.8,1.5
	c-1.6,0.8-3.8,0-5.5,0.3c-1.6,0.3-3.7,1.3-5.4,1.4c-3,0.1-3.4-2-3.4-3.8c0-0.4,0-0.7,0-0.8c-0.3,1.1-1.4,3-1.4,3
	c-0.4,0.9-1,2-2.1,2.4l-3.2,0.4c-2.5,1.1-5,1.9-7.6,2.8c-1.5,0.3-3.2,0-4.3-0.9c-0.9-0.7-1.4-1.6-1.9-2.5c-0.5-0.2-1.2,0-1.8-0.2
	c-0.5-0.1-0.8-0.5-1.1-0.8l-2.2-3.7c-0.2-0.5-0.2-1.2,0-1.7c0.4-0.8,1.3-1.2,2.2-1.2c1.6-0.1,3.4-0.6,5,0c0.7-0.8,1.8-0.7,2.8-0.9
	c-0.4-0.6-1-0.9-1.5-1.4c-2.9,0.7-6.1,0.2-8.9-0.3c-2.6-0.6-4.8,0.9-7.4,0.5l-0.8,1.7c-1.2,1.3-1.3,3.5-3.1,4.4
	c-1.3,0.3-2.3,1.2-3.4,1.8c-2,1.1-4.7,0.6-6.9,0.2c-0.9-0.1-1.5,0-2.3,0.3c-0.7,0.5-1.5,1.3-2.3,1.9c-1.3,0.5-2.4,1.6-3.8,1.7
	c-0.8,0-1.6-0.5-2.4-0.3c-1,1.1-1.5,2.9-3.1,3.4c-1.6,0.5-3.6,0.1-5.2-0.3c-0.5,0.2-0.8,0.6-1.4,0.5c-1.1-0.3-2.2-0.6-3.2-1.2
	c-0.4-0.4-0.5-0.9-0.6-1.3c0-0.7,0.6-1.3,0.9-1.9c0.1-0.7,0.1-1.7,0.4-2.4c0.5-1.1,1.6-1.8,2.7-2.3c0.1-0.8,0.6-1.5,1.3-1.9
	c1.3-0.7,2.7-2.3,4.4-1.4l1.8,1.5c1.6-0.7,1.2-2.3,2-3.6c0.4-0.9,0.9-1.9,1.9-1.9c0.7-0.1,1.5,0.1,2.2,0c1-0.3,2.1-0.7,2.8-1.5
	l-0.1-0.6c-1-1.9-1.3-4.2-1.4-6.5c-1.8,0.2-3.7,0.5-5.6,0.1c-2.8-0.4-5.5-2.6-6.6-5.4c-1.2-2.7-0.7-6.5,1.2-8.8
	c1.5-1.8,3.2-3.4,5-4.8c-0.6-0.2-1.3-0.1-1.9-0.3c-2.6-0.4-5.2-2.7-5.8-5.3c-0.4-1.7,0-3.3,0.8-4.7c0.3-0.3,0.6-0.6,1.1-0.4
	c1.3,0.5,1.7,1.2,2.9,1.8l0.7,0.4c3.3,1.1,7.7,1.1,9,5.2c0.8,3.2-1.2,5.6-3.5,7.4c-1.8,1.3-3.6,2.9-4.5,4.8c-0.4,1.4-0.2,2.8,1,3.8
	c1.2,1.2,3.3,1.2,4.8,0.6c2.8-1.2,5.4-3,7.9-4.9c2.4-1.8,5.3-2.5,8.4-2.6c1.4-0.3,2.6-0.9,3.7-1.8c1.9-1.8,3.9-3.3,6.3-3.9
	c1.1-0.2,2.2-0.3,3.3-0.4c0.9-0.4,1.5-1.5,2.2-2c3.3-2.9,7.7-2.8,11.2-5.1c2-1.5,4.2-2.5,6.8-2.4c1.2,0.1,2.3,0.3,3.3,0.7
	L149.4,116.2L149.4,116.2z M152.7,150.2c-2.2,0.1-3.6,0.6-5.1,0.8c0.1,1.4,0.9,2.6,2,4.1C150.2,152.8,152.1,151.9,152.7,150.2"/>
<path fill-rule="evenodd" clip-rule="evenodd" fill="#FFD300" d="M209,150.7c1,1.5,1.6,3,2.5,4.6c0.9-1.7,1.7-3.3,2.5-4.3
	C213.9,150.9,211.3,151.2,209,150.7 M211.1,158.1c-0.1,0.3-0.3,0.4-0.7,0.4c0.3,1.4-0.7,4-3.2,4.1c-1.7,0.1-4.5-1.6-6.1-1.7
	c-1.7-0.1-4.8,1.2-6.6-1.5c-2.4,2.9-5.2,3.7-7.6,3.6c-1.4,0-2.9-0.8-0.8-2.6c-4.6,1.5-4.6-1.6-3.8-2.2c0.5-0.4,1.1-0.7,2.8-2.4
	c6.4-6.7,4-18.3,11-26c2.7-3,4.9-4.7,10.4-8.6c1.9-1.3,3.8-3.2,5.6-4.5l0.1,0.2l0-0.1c1.1-0.8,2.1-1.6,3.3-1.9
	c2.5-0.3,4.8,0.5,6.7,1.8c1,0.7,1.8,1.5,2.6,2.5c0.6,0.6,1.5,0.6,2.3,0.9c2.3,0.4,4.3,1.3,6.2,2.5c1.3,0.8,2.4,2.2,4,2.4
	c1.9,0.3,3.6,0.9,5.3,1.9c2,1.3,3.8,2.9,6.2,3.3c4.8,0.5,8.8,3.2,12.6,5.9c2.2,1.3,4.8,2.8,7.5,1.9c0.8-0.3,1.4-1,1.6-1.7
	c0.2-1.8-0.9-3.2-2-4.5c-2.3-2.7-6.3-5-5.8-8.9c0.7-2.9,3.9-4.6,6.4-5.4c1.4-0.5,3.1-0.3,4.3-1.5c0.6-0.4,0.9-1.8,1.9-1.3
	c0.8,0.5,0.9,1.5,1,2.4c0.4,2.8-0.2,5.6-2.8,7.2c-1.2,0.8-2.5,1.1-3.9,1.4c2.1,1.7,4.2,3.8,5.4,6.2c0.7,1.4,1.1,2.6,1.2,4.2
	c-0.1,3-1.9,5.6-4.5,7.1c-1.5,0.8-3.2,1.1-5,1.1c-0.7,0-1.3-0.2-1.9-0.2c0.3,1.4,0.3,3.3,0,4.9c-0.1,0.8-0.6,1.7-0.6,2.7
	c0.4,0.5,1,0.5,1.5,0.5c1.3,0,2.9-0.1,3.6,1.3c0.6,1.3,0.9,2.8,1.4,4.1c0.2,0.2,0.3,0.7,0.6,0.6c0.9-0.8,1.8-1.9,3.1-1.6
	c1.2,0.8,2.4,1.7,3.6,2.6c0.3,0.3,0.4,0.7,0.5,1.2c1,0.4,2.3,1.1,2.6,2.3c0.2,0.8,0.1,1.6,0.3,2.3c0.3,0.8,1.1,1.8,0.5,2.8l-0.4,0.3
	l-3.8,1.2c-0.3,0-0.6-0.2-0.9-0.5c-2-0.1-4.4,0.5-6-0.9c-0.7-0.6-1.2-1.3-1.7-2.1c-1.2,0.6-2.9,1-4.1,0.2c-2.5-1.9-5-3.8-8.4-3.7
	c-1.5,0.3-3.3,0.7-4.8,0.1c-1.4-1-3-1.5-4.1-3c-1.6-1.7-1.6-3.7-2.2-5.8c-2.2,0.5-4.6,0.2-6.8,0.1c-1.8-0.1-3.5,0.2-5.2,0.6
	c-2.1,0.4-4.4,0.6-6.6,0.5l-1.1,0.8c0.5,0.1,1,0.1,1.4,0.5l0.4,0.4c1.8,0.2,3.9-0.1,5.6,0.3c0.4,0.1,0.8,0.5,1,0.9
	c0.2,0.5,0.2,1.1-0.1,1.5c-0.9,1.2-1.4,2.6-2.6,3.6c-0.3,0.4-1.2-0.1-1.3,0.6c-0.4,1.8-2.1,3.3-3.8,3.7c-0.7,0.1-1.5,0-2.1-0.2
	c-2.1-0.7-4.2-1.3-6.3-1.9c-0.7-0.2-1.3-0.9-1.9-1.3c-0.9,0-2.2,0.3-2.8-0.5c-0.3-0.2-0.6-0.9-0.7-1.2
	C211.9,161.1,211.4,159.5,211.1,158.1"/>
<path fill-rule="evenodd" clip-rule="evenodd" fill="#E21B4D" d="M148.4,128.8c0.6,1.5,0.6,3.5,0.2,5.1c-0.1,0.1-0.2,0.1-0.3,0
	c-0.3-1.4-0.6-2.8-1.1-4.2c-0.3-0.8-1.3-1.5-0.9-2.4c0.2-0.2,0.6-0.2,0.9-0.1C147.7,127.7,148,128.2,148.4,128.8 M164.4,142.8
	c1.1,1.3,1.9,2.7,1.5,4.4c-0.2,0.3-0.1,0.9-0.6,1c-0.2,0.1-0.4-0.1-0.4-0.3c-0.1-0.9-0.1-1.9-0.6-2.6c-0.6-0.6-1.3-1.8-2.3-1.8
	c-0.7,0.2-1.2,1-1.6,1.5c0,0.1-0.1,0.1-0.2,0c-0.4-1,0.4-1.8,0.7-2.6c0.6-0.6,0.5-2.3,1.8-1.8C163.6,141.2,163.8,142.2,164.4,142.8
	 M162.3,154.7c0.1,0.6,0.1,1.5-0.5,1.9c-0.6,0.2-1.4,0.3-2.1,0.2c-0.2-0.1-0.4-0.2-0.3-0.4c0.3-0.9,1.2-1.9,2.2-2.1
	C161.8,154.3,162.2,154.3,162.3,154.7 M89.3,118.2c2.4,0.6,5,0.6,6.8,2.5c1,1.2,1.1,3.3,0.3,4.5c-1.4,2.4-4.2,3.6-5.9,5.7
	c-1.7,1.4-2.3,3.6-1.8,5.8c0.6,1.9,2.5,3.2,4.4,3.3c3,0.1,5.2-1.4,7.6-2.8c2.4-1.7,4.6-3.9,7.3-4.6c1.8-0.6,3.8-0.3,5.6-1
	c1.9-0.4,3.4-2,4.9-3.4c1.7-1.4,3.7-2.2,5.9-2.1c2,0.3,3.1-1.5,4.5-2.7c2.3-2.1,5.3-2.3,8-3.5c1.9-0.6,3.4-2,5.2-2.9
	c1.7-0.7,4-0.9,5.7-0.2c1.1,0.5,2.3,1,3.3,1.8l8.1,6.8c0.1,0.3,0.4,0.5,0.6,0.6c2.3,2.8,4.7,5.5,6.6,8.6c0.6,1.1,0.9,2.2,1.2,3.4
	c0.4,4.6,1.6,8.6,3.1,12.6c0.4,0.6,1.2,1.1,1.6,1.7c1.3,1.8,2.1,4.1,4.2,5.3l1.2,0.6c0.1,0.1,0.1,0.3,0,0.4l-0.2,0.2
	c-2.5,0.4-4.4-1.1-5.7-2.9c-0.8-1.6-1.9-3.3-3.7-4c-0.1,0-0.2,0.1-0.2,0.1c0.2,0.6,0.8,1,1,1.5c0.7,1.1,1.3,2.3,1.6,3.5
	c0.4,1.3,1.8,2.2,2.9,2.9l1.6,0.8c0.2,0.1,0.3,0.4,0.1,0.6l-0.2,0.1c-2.7,0.1-5.1-0.8-7-2.8c-0.4-0.5-1-0.9-1.7-0.9
	c-1.2,1.1-2.4,2.1-4,2.2c-1.7-0.3-3.5-0.3-5,0.3c-1.4,0.5-2.8,1.1-4.3,1.1c-0.7,0-1.5-0.3-1.8-1c0-0.9-0.6-1.9-0.1-2.8l1-1.5
	c0-0.2-0.1-0.4-0.3-0.4c-0.4-0.1-1.1,0.6-1.3-0.1c0.1-1.5,1.6-2.5,2.6-3.5c0.2-1.2,0.7-2.3,1.6-3.3c0-0.1-0.1-0.3-0.3-0.3
	c-1.3,0.2-2.6,0.5-4,0.5c-1.1,0.6-2.5,1-3.8,0.6c-0.3-0.2-0.2-0.5-0.1-0.7c1.4-1.9,1.9-4.3,1.5-6.6c-0.1-0.1-0.1-0.3-0.3-0.3
	c-0.2,0-0.2,0.2-0.3,0.3c-0.3,2.2-1,3.9-2.2,5.8c-0.9,0.9-2.3,0.9-3.5,1.2c-0.3,0.1-0.6,0.4-0.6,0.7c0,0.8,0.5,1.3,0.8,2l2.6,4.8
	c0.1,1.3-0.5,2.6-0.8,3.8c0.1,0.2,0.3,0.1,0.5,0c0.9-0.8,1.5-1.9,1.9-3.1c0.1-0.5-0.1-1.1-0.3-1.5l-2.7-5.4c0.2-0.3,0.6-0.3,0.9-0.4
	c0.6,0,1.2,0.3,1.8,0.5c0.6,1.6,1.3,3.3,2.4,4.7c0.2,0.9,0.5,2.1-0.1,2.8c-0.6,1.2-1.2,2.2-2,3.3c-0.7,0.7-1.7,0.6-2.7,0.7H143
	c-2.4,1.3-4.9,2.1-7.5,2.9c-1.1,0.5-2.4,0.1-3.3-0.6c-0.9-0.7-1.3-1.7-1.9-2.6c-0.7-0.9-1.8-0.1-2.6-0.6c-0.7-1.1-1.4-2.2-2-3.4
	c0-0.3,0-0.6,0.3-0.8c0.9-0.3,1.9-0.3,2.9-0.4c0.9-0.1,1.9,0.1,2.5,0.7c1.2,1.4,1.7,3.3,3.5,4.2c1.4,0.1,2.6-0.3,3.8-0.9
	c0.7-0.4,1.5-1,1.5-1.9c-0.1-1.8-1.3-3.2-2.8-4.2c-1.5-0.8-3.1-1.9-4.2-3.3c-0.6-0.8-0.7-1.7-1-2.5c-0.1-0.2-0.5-0.2-0.6-0.1
	c-0.6,0.5-0.1,1.4-0.1,2c0.1,0.4,0.3,0.9,0.1,1.2c-0.9,0.7-2.1,0.3-3.2,0.4c-2.2-0.1-4.3-1-6.6-0.8c-2.2,0.1-5.2,1.6-6.8-0.6
	c-0.8-2.1-0.6-4.6-0.2-6.7c0-0.2-0.2-0.4-0.4-0.4c-0.2-0.1-0.4,0-0.5,0.2c-0.6,2.1-0.7,4.4-1.2,6.6c-0.8,1.9-2.2,3.9-4.1,4.9
	c-1.7,0.9-3.7,1.2-5.8,1.4c-3.8,0.1-7.3,0.8-9.7,4.1c-0.2,0.3-0.5,0.6-0.4,1c0.1,0.1,0.4,0.2,0.5,0.1c2.6-2.9,5.9-4.1,9.7-3.9
	c3.6,0,7.2-0.6,9.5-3.7c0.6-0.7,1-1.4,1.5-2.2c0.4,0,0.7,0.5,1,0.7c0.1,1.1-0.8,1.8-1.2,2.7c-0.5,1-1,2.2-2,2.8
	c-1.2,0.3-2.2,1.1-3.3,1.7c-1.1,0.5-2.5,0.7-3.8,0.4c-1.6-0.3-3.8-0.7-5.4,0c-0.8,0.5-1.5,1.4-2.3,1.9c-1.1,0.5-2.1,1.4-3.4,1.3
	c-0.9-0.2-2-0.8-2.8,0c-1,0.9-1.2,2.5-2.5,3.1c-1.5,0.8-3.1,0-4.6-0.1c0.2-1.5,0.4-2.9,1.4-4c0.6-0.1,1.1-0.2,1.6-0.6
	c0.6-0.5,1-1.2,1.4-1.9c1.3-0.8,2.8-1.4,3.6-2.8c0.6-1.3,0.6-2.5,1.6-3.7l0.5-0.2l2.7-0.2c1.1-0.5,2.1-1,3.1-1.8
	c0.3-0.3,0.4-0.8,0.3-1.3c-0.5-1.3-0.9-2.2-1.2-3.6c-0.3-1.4-0.1-2.8-0.3-4.4c-0.1-0.1-0.2-0.4-0.4-0.4c-1.8,0.4-3.5,0.9-5.5,0.6
	c-2.7-0.3-5.5-2.1-6.5-4.8c-0.9-2.3-0.7-5.6,1-7.5c1.6-2,3.6-3.5,5.6-5.2c0.3-0.2,0.3-0.6,0.4-0.9c0-0.4-0.4-0.7-0.7-0.9
	c-1.2-0.3-2.6,0.1-3.8-0.4c-2.1-0.7-3.7-2.7-4-4.9c-0.1-1,0.1-1.8,0.6-2.6C86.6,116.6,87.8,117.8,89.3,118.2 M83.3,162.9v0.3
	c-0.5,1.2-0.8,2.6-1.2,4c-0.9-0.1-1.7-0.4-2.4-0.7c-0.2-0.2,0-0.4,0-0.6c0.9-0.8,0.6-1.8,0.8-2.9c0.1-0.6,0.7-1.1,1.3-1.4
	C82.5,161.7,82.9,162.4,83.3,162.9 M87.7,158.7c-0.5,1-1.2,2.2-2.3,2.8c-0.4,0.1-0.9,0.1-1.3-0.1c-0.2-0.2-0.6-0.4-0.6-0.8
	c0.1-0.4-0.1-0.9,0.3-1.1c0.8-0.5,1.6-1,2.4-1.7c0.2-0.1,0.6-0.2,0.7,0C87.3,158.1,87.6,158.3,87.7,158.7 M137.8,158.3
	c0.1,0.4,0.7,0.9,0.3,1.3c-0.8,0.6-1.7,1-2.8,0.9c-0.8-0.6-0.7-1.7-1.4-2.5c-0.2-0.6-1.1-0.6-0.9-1.2l0.3-0.2c1.1,0,2.2,0,3.3-0.2
	C137.7,156.3,137.4,157.6,137.8,158.3"/>
<path fill-rule="evenodd" clip-rule="evenodd" fill="#E21B4D" d="M201,142c0.6,0.8,1.1,1.6,1.5,2.6c0.1,0.2,0,0.4-0.1,0.6
	c-0.1,0.2-0.3,0.4-0.6,0.2c-0.7-0.2-0.6-1.3-1.5-1.2c-0.6,0-1,0.5-1.5,0.8c-0.9,0.8-2.1,1.6-2.3,2.8c-0.2,0.4-0.1,1.1-0.5,1.3
	c-0.2,0.1-0.5-0.1-0.5-0.3c-0.1-1.6,0.4-3.1,1.5-4.2c1.1-0.9,1.9-2.2,2.8-3.3C200.4,141.2,200.8,141.6,201,142 M201.4,155.3
	c0.2,0.4,0.6,0.9,0.3,1.4c-0.4,0.3-1.1,0.1-1.6,0.1c-0.6-0.3-0.8-1.1-0.8-1.8c0-0.2,0-0.3,0.2-0.5
	C200.2,154.5,200.9,154.7,201.4,155.3 M216.4,124.7c0.3,0.4,0,0.8-0.2,1.1c-1.4,1.3-3.1,2.7-4.1,4.3c-0.4,0.5-0.7,1.1-0.9,1.7
	c0,0.1-0.1,0.1-0.2,0.1c-0.3-0.8,0.1-1.7,0.3-2.5c0.7-1.9,2.3-3.7,4-5C215.5,124.3,216.2,124.2,216.4,124.7 M222.1,118.3
	c1.1,0.7,1.5,2.2,2.8,2.5c2.2,0.5,4.4,1,6.4,2c1.4,0.7,2.7,1.7,4,2.8c1.2,0.6,2.7,0.6,4,1c1.9,0.5,3.4,1.9,5.1,3
	c2.2,1.7,5.3,1.5,7.8,2.6c4,1.3,7.2,4.4,10.9,6.2c1.9,1,4.8,1.4,6.7,0.3c1.3-0.9,2.1-2.1,1.8-3.8c-0.7-4.1-5.2-6.2-7.3-9.6
	c-0.4-0.8-0.7-1.9-0.5-2.8c0.8-2,2.9-3.1,4.7-3.8c1.4-0.7,3.2-0.5,4.5-1.3c0.5-0.3,0.9-0.7,1.2-1c0.3,0,0.3,0.3,0.4,0.5
	c0.4,2.4,0,4.9-2.1,6.3c-0.8,0.6-1.8,0.8-2.7,1c-0.8,0.3-2.4-0.3-2.3,1.1c0.2,0.7,0.8,1.1,1.3,1.6c2.8,2.3,5.4,5.3,5.7,8.9
	c0.1,2.8-1.8,5.2-4.2,6.4c-1.8,0.7-4,1-5.9,0.5c-0.5-0.1-1.3-0.6-1.7,0.1c-0.1,0.8,0.4,1.4,0.4,2.1c0.2,1.3,0.2,3-0.2,4.3
	c-0.2,1-1.2,2.2-0.3,3.2c0.9,1.4,2.7,1,4.2,1.2c0.8,0.1,1.1,1,1.3,1.6c0.3,0.8,0.3,1.7,0.6,2.3c0,1.5,1.7,2.1,2.5,3.1
	c1,1.1,1.9,3,3.6,2.9c0.6,1.2,0.9,2.3,1.1,3.7l-0.2,0.2c-1.4,0-3.3,0.4-4.3-0.6c-1.2-0.8-1.6-3-3.4-2.4c-0.8,0.6-1.9,0.8-2.8,0.4
	c-0.9-0.3-1.5-1.1-2.3-1.6c-2.4-1.8-5.6-2.7-8.7-2c-1.8,0.5-3.2-0.8-4.6-1.6c-1.9-0.8-2.4-2.8-2.8-4.5l-0.3-2.1
	c0-0.2,0.2-0.4,0.4-0.5h0.3c1.1,2.5,3.2,5.3,5.9,6.2c2.5,1,4.8-0.3,7.5,0.2c2.5,0.3,4.5,1.9,6.4,3.4c0.2,0,0.3-0.1,0.4-0.3v-0.2
	c-2.3-2.9-5.5-4.4-9.2-4.1c-3.1,0.6-6.1-0.4-7.9-3c-1-1.5-1.7-3.1-2-4.8c-0.3-2-0.7-4.2-1.4-6c-0.2-0.1-0.4-0.3-0.6-0.2l-0.2,0.3
	c0.3,1.9,0.9,4.2,0.2,6.2c-0.5,1.6-2.1,2.2-3.6,2.3c-1.5,0.1-2.9-0.2-4.5-0.2c-3.6-0.1-6.8,1.3-10.5,1c0.3-0.9,0.9-1.8,0.6-2.8
	c-0.1-0.2-0.4-0.2-0.6-0.2c-0.7,0.4-0.6,1.3-1,1.9c-0.8,1.3-2.3,2.5-3.8,2.8c-1.1,0.8-2.1,1.9-3,2.9c-0.3,0.3-0.3,0.9-0.2,1.3
	c0.7,1.8,2.8,2,4.4,2.5c0.8,0.1,1.5-0.2,1.9-0.9c0.7-1.1,0.8-2.9,2.4-3.1h3.5c0.3,0.1,0.5,0.3,0.7,0.6l-0.1,0.5
	c-0.8,0.9-1.1,2.2-2.1,2.8c-0.6,0.2-1.3,0-1.7,0.5c-0.2,1.2-0.5,2.5-1.7,3.1c-0.9,0.8-2.2,0.4-3.2,0.1c-1.9-0.7-3.8-1.1-5.7-1.7
	c-0.8-0.2-1.1-1.2-2-1.4c-0.8-0.2-1.7,0.4-2.4-0.3c-0.4-0.9-0.6-1.5-0.8-2.5c-0.3-0.6-0.5-1.3-0.6-2c-0.1-0.6,0-1,0.2-1.5l2.6-4.7
	c0.2-0.3,0.4-0.6,0.7-0.7c0.6,0.1,1.3,0.4,1.9,0.7l-0.1,0.3l-2.7,4.1c-0.6,1.3,0,2.8,0.6,3.9c0.1,0.1,0.2,0.3,0.3,0.2
	c-0.1-0.8-0.2-1.6,0-2.5c0.2-0.8,0.7-1.5,1.1-2.2l2.1-3.1c0.2-0.5,0.2-1.3-0.2-1.8c-0.9-0.9-2.2-1.2-3-2.4c-1.7-2.3-1.9-5-2.1-7.9
	c0-0.2-0.2-0.5-0.5-0.6c-0.2-0.1-0.4,0.2-0.5,0.3c-0.5,1.9-0.2,4.2,0.3,5.9c0.3,1.3,0.9,2.6,1.5,3.8c0.1,0.2-0.1,0.5-0.3,0.6
	c-1.4,0.1-2.8,0-4.1-0.2c-1.8-0.3-3.1-1.7-4.6-2.8c-0.2-0.1-0.3,0.1-0.4,0.2c0.4,2,2.6,3.2,3.3,5c0.4,1.5,1.9,2.6,2.2,4.2
	c0,0.2-0.2,0.5-0.4,0.6c-0.5,0.1-1-0.2-1.5,0.1c-0.1,0.9,0.5,1.8,0.1,2.6c-0.5,0.8-1.2,1.7-2.1,1.7c-1.8-0.6-3.6-1.4-5.4-1.9
	c-1.3-0.1-2.6,0.1-3.8,0.2c-1.2-0.2-2-1.3-2.9-1.9c-0.3-0.1-0.6-0.1-0.8,0.1c-2,2-4.2,4.2-7.2,4.1c-0.2,0-0.3-0.2-0.3-0.4l0-0.2
	c1.3-1.2,2.9-2.4,3.5-4.1c0.4-1.4,1.6-2.4,2.1-3.7c0.1-0.2-0.1-0.3-0.3-0.4l-0.3,0.2c-1.5,1.5-2.6,3.2-3.7,4.8
	c-1.1,1.1-2.7,1.8-4.4,1.4c-0.2-0.1-0.2-0.4-0.1-0.6c6.2-3.8,6.9-10.6,8.6-16.8c1.2-4.1,2.1-8.3,5.3-11.6c4.8-5.3,10.8-8.4,16.1-13
	c0.8-0.7,1.6-1.4,2.6-1.4C218.3,115.8,220.3,116.8,222.1,118.3 M279.2,162.5c0.5,0.7,0.3,1.8,0.5,2.6c0.1,0.6,0.9,1.1,0.5,1.7
	l-2.2,0.7c-0.4,0-0.2-0.5-0.4-0.7c-0.2-1.3-0.5-2.2-0.9-3.4c-0.1-0.7,0.6-1.2,1.1-1.6C278.3,161.6,278.7,162.2,279.2,162.5
	 M274.1,158c0.8,0.7,1.9,1.2,2.5,2.1c0.1,0.4-0.2,0.8-0.4,1.1c-0.3,0.3-0.7,0.5-1.2,0.5c-0.5,0-0.9-0.3-1.2-0.7
	c-0.5-0.8-1.2-1.5-1.4-2.3C272.7,158.2,273.4,157.4,274.1,158 M225.9,157.2c-0.1,1-0.4,1.9-0.8,2.8c-0.3,0.6-1.2,0.4-1.8,0.3
	c-0.6-0.2-1.6-0.3-1.7-1.2c-0.1-0.8,0.3-1.6,0.7-2.2c0.9-0.1,2,0.1,2.9-0.1C225.6,156.8,225.9,156.9,225.9,157.2"/>
<path fill="#E21B4D" d="M372.7,1c1.8,0,3.3,0.6,4.5,1.9c1.2,1.2,1.9,2.8,1.9,4.5c0,1.8-0.6,3.3-1.9,4.5c-1.2,1.3-2.8,1.9-4.5,1.9
	c-1.8,0-3.3-0.6-4.6-1.9c-1.2-1.2-1.9-2.8-1.9-4.5c0-1.8,0.6-3.3,1.9-4.5C369.4,1.7,370.9,1,372.7,1 M380.2,7.4c0-2-0.7-3.8-2.2-5.3
	c-1.5-1.4-3.2-2.2-5.3-2.2c-2.1,0-3.8,0.7-5.3,2.2c-1.5,1.5-2.2,3.2-2.2,5.3c0,2.1,0.7,3.8,2.2,5.3c1.5,1.5,3.2,2.2,5.3,2.2
	c2.1,0,3.8-0.7,5.3-2.2C379.4,11.3,380.2,9.5,380.2,7.4 M374.7,5.8c0,0.6-0.3,1.1-0.9,1.3c-0.3,0.1-0.8,0.2-1.4,0.2h-1.3V4.3h1.2
	c0.8,0,1.4,0.1,1.8,0.3C374.5,4.9,374.7,5.2,374.7,5.8 M369.7,3.3v8.2h1.4V8.3h1.1c0.8,0,1.3,0.1,1.6,0.3c0.5,0.3,0.8,0.9,0.8,1.9
	v0.6l0,0.2c0,0,0,0.1,0,0.1c0,0,0,0.1,0,0.1h1.4l-0.1-0.1c0-0.1-0.1-0.2-0.1-0.4c0-0.2,0-0.4,0-0.6V9.8c0-0.4-0.2-0.8-0.4-1.3
	c-0.3-0.4-0.8-0.7-1.4-0.8c0.5-0.1,0.9-0.2,1.2-0.4c0.5-0.3,0.8-0.9,0.8-1.6c0-1-0.4-1.7-1.3-2.1c-0.5-0.2-1.2-0.3-2.3-0.3H369.7z"
	/>
</svg>
