<svg xmlns="http://www.w3.org/2000/svg" viewBox="0 0 555.11 89.65"><defs><style>.cls-1{fill:#fff;opacity:0.25;}</style></defs><title>Asset 7</title><g id="Layer_2" data-name="Layer 2"><g id="Layer_1-2" data-name="Layer 1"><path class="cls-1" d="M528.5,27.76H376.31c0-.39,0-.77,0-1.15h0A26.61,26.61,0,0,0,349.73,0H85.65a26.6,26.6,0,0,0-26.6,26.61h0a26.58,26.58,0,0,0,1.88,9.83H26.61A26.6,26.6,0,0,0,0,63H0A26.61,26.61,0,0,0,26.61,89.65H290.69A26.57,26.57,0,0,0,310.35,81H528.5a26.61,26.61,0,0,0,26.61-26.61h0A26.6,26.6,0,0,0,528.5,27.76Z"/></g></g></svg>