<svg xmlns="http://www.w3.org/2000/svg" viewBox="0 0 815.1 124.93"><defs><style>.cls-1{fill:#fff;opacity:0.25;}</style></defs><title>Asset 8</title><g id="Layer_2" data-name="Layer 2"><g id="Layer_1-2" data-name="Layer 1"><path class="cls-1" d="M788.5,0H524.42a26.54,26.54,0,0,0-19.66,8.68H286.6A26.61,26.61,0,0,0,260,35.29h0c0,.12,0,.24,0,.37A26.59,26.59,0,0,0,244.76,44H26.6A26.6,26.6,0,0,0,0,70.57H0A26.6,26.6,0,0,0,26.6,97.18H178.8c0,.38,0,.76,0,1.15h0a26.61,26.61,0,0,0,26.61,26.6H469.46a26.6,26.6,0,0,0,26.6-26.6h0a26.52,26.52,0,0,0-1.45-8.68H729.45A26.61,26.61,0,0,0,756.06,63h0a26.54,26.54,0,0,0-1.89-9.83H788.5a26.6,26.6,0,0,0,26.6-26.6h0A26.6,26.6,0,0,0,788.5,0Z"/></g></g></svg>