<svg xmlns="http://www.w3.org/2000/svg" viewBox="0 0 1063.74 198.52"><defs><style>.cls-1{fill:#fff;opacity:0.25;}</style></defs><title>Asset 5</title><g id="Layer_2" data-name="Layer 2"><g id="Layer_1-2" data-name="Layer 1"><path class="cls-1" d="M40.81,116.91H96.88a40.81,40.81,0,0,0,40.8,40.81H463.84a40.8,40.8,0,0,0,40.8,40.8h518.29a40.81,40.81,0,0,0,40.81-40.8h0a40.81,40.81,0,0,0-40.81-40.81H696.78A40.81,40.81,0,0,0,656,76.11H574.14a64,64,0,0,0,1.24-12.54h0A63.57,63.57,0,0,0,511.81,0h-230A63.56,63.56,0,0,0,224.9,35.3H40.81A40.81,40.81,0,0,0,0,76.11H0A40.81,40.81,0,0,0,40.81,116.91Z"/></g></g></svg>