<svg xmlns="http://www.w3.org/2000/svg" viewBox="0 0 1063.74 198.52"><defs><style>.cls-1{fill:#fff;opacity:0.25;}</style></defs><title>Asset 1</title><g id="Layer_2" data-name="Layer 2"><g id="Layer_1-2" data-name="Layer 1"><path class="cls-1" d="M1022.93,81.61H966.86a40.8,40.8,0,0,0-40.8-40.8H599.9A40.81,40.81,0,0,0,559.1,0H40.81A40.81,40.81,0,0,0,0,40.81H0a40.81,40.81,0,0,0,40.81,40.8H367a40.81,40.81,0,0,0,40.81,40.81H489.6A63.84,63.84,0,0,0,488.36,135h0a63.57,63.57,0,0,0,63.57,63.57h230a63.56,63.56,0,0,0,56.94-35.3h184.09a40.81,40.81,0,0,0,40.81-40.8h0A40.81,40.81,0,0,0,1022.93,81.61Z"/></g></g></svg>