<svg id="HAF_1" data-name="HAF 1" xmlns="http://www.w3.org/2000/svg" viewBox="0 0 357 270"><defs><style>.cls-1{fill:#ac834d;}.cls-2{fill:#f4e4c6;}.cls-3{fill:#7d5b36;}.cls-4{fill:#c6a36c;}.cls-5{fill:#f5e8cd;}.cls-6{fill:#fbe299;}.cls-7{fill:#cfae79;}.cls-8{fill:#af8751;}.cls-9{fill:#9b733f;}.cls-10{fill:#171514;}.cls-11{fill:#ffde77;}.cls-12{fill:#bc9c6e;}.cls-13{fill:#876231;}.cls-14{fill:#e6c596;}.cls-15{fill:#754c29;}.cls-16{fill:#bf9b66;}.cls-17{fill:#dac089;}.cls-18{fill:#d3b78b;}.cls-19{fill:#d3b889;}.cls-20{fill:#c09b6a;}.cls-21{fill:#efdab9;}.cls-22{fill:#c19d6d;}.cls-23{fill:#080809;}.cls-24{fill:#32322e;}.cls-25{fill:#1a1916;}.cls-26{fill:#686868;}.cls-27{fill:#76522f;}.cls-28{fill:#896434;}.cls-29{fill:#a57e4e;}.cls-30{fill:#524a40;}.cls-31{fill:#fff;}.cls-32{fill:#1c1c18;}.cls-33{fill:#4c4b4b;}</style></defs><title>DOG_1</title><polygon class="cls-1" points="114.5 38.08 82.41 76.3 114.14 76.3 154.68 56.56 114.5 38.08"/><polygon class="cls-2" points="157.62 107.95 154.68 56.56 136.9 88.39 157.62 107.95"/><polygon class="cls-3" points="5.69 172.92 40.5 148.66 23.83 119.15 5.69 172.92"/><polygon class="cls-4" points="5.69 172.92 38.76 190.62 54.41 198.44 60.51 184.1 5.69 172.92"/><polygon class="cls-1" points="60.51 184.1 60.51 184.1 54.41 198.44 69.16 229.73 88.19 233.11 60.51 184.1"/><polygon class="cls-1" points="40.5 148.66 5.69 172.92 60.51 184.1 60.51 184.1 40.5 148.66"/><polygon class="cls-5" points="132.46 176.75 116.1 233.11 149.7 202.35 132.46 176.75"/><polyline class="cls-6" points="133.81 138.62 132.46 176.75 156.19 171.91"/><polygon class="cls-7" points="156.19 171.91 156.19 171.91 177.79 177.11 133.81 138.62 156.19 171.91"/><polygon class="cls-6" points="73.61 153.28 91.02 192.56 91.02 192.56 116.81 153.28 73.61 153.28"/><polygon class="cls-8" points="107.2 186.39 123.87 206.35 100.63 214.26 116.1 233.11 132.46 176.75 107.2 186.39"/><polygon class="cls-9" points="107.2 186.39 91.02 192.56 91.02 192.56 100.63 214.26 107.2 186.39 107.2 186.39"/><polygon class="cls-10" points="107.78 105.23 117.88 114.53 134.59 116.66 125.08 97.93 107.78 105.23"/><line class="cls-11" x1="94.41" y1="113.1" x2="107.78" y2="105.23"/><polygon class="cls-4" points="95.48 112.04 105.97 88.39 114.14 76.3 82.41 76.3 94.41 113.1 95.48 112.04"/><polyline class="cls-6" points="125.08 97.93 115.39 77.37 136.9 88.39 154.68 56.56 114.14 76.3 124.32 98.3 95.48 112.04"/><polygon class="cls-12" points="107.2 186.39 107.2 186.39 107.2 186.39 100.63 214.26 123.87 206.35 107.2 186.39"/><polygon class="cls-1" points="157.62 107.95 136.9 88.39 134.59 116.66 133.81 138.62 157.62 107.95"/><polygon class="cls-13" points="132.46 176.75 133.81 138.62 134.59 116.66 116.81 153.28 132.46 176.75"/><polygon class="cls-14" points="92.63 142.26 116.81 153.28 109.44 140.05 92.63 142.26"/><polygon class="cls-8" points="124.17 138.12 109.44 140.05 116.81 153.28 134.59 116.66 117.88 114.53 124.17 138.12"/><polygon class="cls-15" points="94.41 113.1 124.79 98.09 105.97 88.39 94.41 112.88 94.41 113.1"/><polygon class="cls-16" points="94.41 113.1 92.63 142.26 103.82 129.97 94.41 113.1"/><polygon class="cls-17" points="94.41 113.1 103.82 129.97 117.88 114.53 111.41 103.7 94.41 113.1"/><polygon class="cls-1" points="114.14 76.3 105.97 88.39 125.7 99.11 114.14 76.3"/><polygon class="cls-13" points="114.14 76.3 134.59 116.66 136.9 88.39 114.14 76.3"/><polygon class="cls-11" points="109.44 140.05 124.17 138.12 109.44 140.05 109.44 140.05"/><polygon class="cls-18" points="107.2 186.39 132.46 176.75 116.81 153.28 91.02 192.56 107.2 186.39 107.2 186.39 107.2 186.39"/><polygon class="cls-6" points="75.92 125.02 94.41 113.1 82.41 76.3 75.92 125.02"/><polygon class="cls-18" points="92.63 142.26 94.41 113.1 75.92 125.02 92.63 142.26"/><polygon class="cls-5" points="154.33 7.85 163.22 38.08 177.79 62.6 177.79 10.86 154.33 7.85"/><polygon class="cls-6" points="114.5 38.08 154.68 56.56 163.22 38.08 114.5 38.08"/><polygon class="cls-18" points="163.22 38.08 154.68 56.56 177.79 62.6 163.22 38.08"/><polygon class="cls-19" points="154.33 7.85 114.5 38.08 163.22 38.08 154.33 7.85"/><polygon class="cls-4" points="114.5 38.08 66.5 49.45 82.41 76.3 114.5 38.08"/><polygon class="cls-20" points="154.68 56.56 157.62 107.95 177.79 87.69 154.68 56.56"/><polygon class="cls-4" points="149.7 202.35 116.1 233.11 154.4 218.46 149.7 202.35"/><polygon class="cls-21" points="154.4 218.46 116.1 233.11 123.75 254.98 154.45 218.63 154.4 218.46"/><polygon class="cls-1" points="154.45 218.63 123.75 254.98 139.04 259.25 154.5 218.82 154.45 218.63"/><polygon class="cls-22" points="154.5 218.82 139.04 259.25 144.38 256.45 144.38 256.45 144.38 256.45 162.68 246.88 154.5 218.82"/><polygon class="cls-12" points="153.99 182.24 156.19 171.91 132.46 176.75 149.7 202.35 153.99 182.24 153.99 182.24"/><polygon class="cls-21" points="156.19 171.91 153.99 182.24 177.79 177.11 156.19 171.91"/><polygon class="cls-23" points="170.68 207.37 170.68 198.44 165.89 195.24 159.62 207.37 170.68 207.37"/><polygon class="cls-24" points="150.13 200.33 159.62 207.37 165.89 195.24 153.99 182.24 149.7 202.35 154.4 218.46 154.68 218.35 159.62 207.37 150.13 200.33"/><polygon class="cls-25" points="170.68 207.37 159.62 207.37 154.68 218.35 176.53 225.75 170.68 207.37"/><polygon class="cls-11" points="154.45 218.63 154.68 218.35 154.4 218.46 154.45 218.63"/><polygon class="cls-11" points="154.45 218.63 154.5 218.82 154.68 218.35 154.45 218.63"/><polygon class="cls-21" points="176.53 225.75 154.68 218.35 154.5 218.82 162.68 246.88 177.79 238.98 177.79 229.73 176.53 225.75"/><polygon class="cls-11" points="177.79 229.73 177.79 226.18 176.53 225.75 177.79 229.73"/><polygon class="cls-2" points="133.81 138.62 177.79 177.11 157.62 107.95 133.81 138.62"/><polygon class="cls-1" points="82.41 76.3 53.7 74.7 63.16 112.04 82.41 76.3"/><polygon class="cls-3" points="63.16 112.04 71.24 143.92 73.61 153.28 75.92 125.02 82.41 76.3 63.16 112.04"/><polygon class="cls-6" points="66.5 49.45 53.7 74.7 82.41 76.3 66.5 49.45"/><polygon class="cls-6" points="66.5 49.45 114.5 38.08 88.19 27.41 66.5 49.45"/><polygon class="cls-6" points="111.74 25.63 88.19 27.41 114.5 38.08 111.74 25.63"/><polygon class="cls-2" points="111.74 25.63 114.5 38.08 154.33 7.85 111.74 25.63"/><polygon class="cls-26" points="153.99 182.24 153.99 182.24 165.89 195.24 177.79 177.11 153.99 182.24"/><polygon class="cls-12" points="73.61 153.28 116.81 153.28 92.63 142.26 73.61 153.28"/><polygon class="cls-2" points="75.92 125.02 73.61 153.28 92.63 142.26 75.92 125.02"/><polygon class="cls-13" points="23.83 119.15 40.5 148.66 60.51 184.1 73.61 153.28 23.83 119.15"/><polygon class="cls-27" points="91.02 192.56 73.61 153.28 60.51 184.1 91.02 192.56"/><polygon class="cls-28" points="60.51 184.1 88.19 233.11 91.02 192.56 60.51 184.1"/><polygon class="cls-29" points="63.16 112.04 23.83 119.15 73.61 153.28 71.24 143.92 63.16 112.04"/><polygon class="cls-28" points="23.83 119.15 63.16 112.04 53.7 74.7 23.83 119.15"/><polygon class="cls-6" points="92.63 142.26 109.44 140.05 103.82 129.97 92.63 142.26"/><polygon class="cls-11" points="117.88 114.53 103.82 129.97 103.82 129.97 117.88 114.53"/><polygon class="cls-12" points="117.88 114.53 103.82 129.97 109.44 140.05 124.17 138.12 117.88 114.53"/><polygon class="cls-15" points="94.41 112.88 103.82 111.18 118.86 99.11 94.41 112.88"/><path class="cls-10" d="M134.13,116.53s1-19-10.89-19.67-14.12,6.45-16.34,9.13S110.13,118.55,134.13,116.53Z"/><path class="cls-30" d="M134.15,116.36s-7.46,6.25-21.59,1.21c0,0-9.88-5.45-13.11-5.85a52.75,52.75,0,0,0,7.46-5.9S108.53,118.38,134.15,116.36Z"/><path class="cls-31" d="M124,100.33s5.65,2.12,5.45,6.81Z"/><polygon class="cls-19" points="114.5 38.08 114.14 76.3 154.68 56.56 114.5 38.08"/><polygon class="cls-5" points="133.81 138.62 132.46 176.75 156.19 171.91 133.81 138.62"/><polyline class="cls-6" points="177.79 177.11 197.97 107.95 177.79 120.38 177.79 120.38 157.62 107.95 177.79 177.11"/><polygon class="cls-1" points="241.09 38.08 273.18 76.3 241.44 76.3 200.9 56.57 241.09 38.08"/><polygon class="cls-2" points="197.97 107.95 200.9 56.57 218.68 88.39 197.97 107.95"/><line class="cls-18" x1="177.79" y1="119.54" x2="177.79" y2="87.69"/><polyline class="cls-18" points="177.79 119.54 177.79 120.38 197.97 107.95 177.79 87.69 177.79 87.69 157.62 107.95 177.79 120.38"/><polygon class="cls-3" points="349.89 172.92 315.09 148.66 331.76 119.15 349.89 172.92"/><polygon class="cls-4" points="349.89 172.92 316.82 190.62 301.18 198.44 295.08 184.1 349.89 172.92"/><polygon class="cls-1" points="295.08 184.1 295.08 184.1 301.18 198.44 286.42 229.73 267.4 233.11 295.08 184.1"/><polygon class="cls-1" points="315.09 148.66 349.89 172.92 295.08 184.1 295.08 184.1 315.09 148.66"/><polygon class="cls-5" points="223.13 176.75 239.49 233.11 205.88 202.35 223.13 176.75"/><polyline class="cls-6" points="221.77 138.62 223.13 176.75 199.39 171.91"/><polygon class="cls-7" points="199.39 171.91 177.79 177.11 221.77 138.62 199.39 171.91"/><polygon class="cls-6" points="281.98 153.28 264.57 192.56 264.57 192.56 238.77 153.28 281.98 153.28"/><polygon class="cls-8" points="248.39 186.39 231.72 206.35 254.95 214.27 239.49 233.11 223.13 176.75 248.39 186.39"/><polygon class="cls-9" points="248.39 186.39 264.57 192.56 264.57 192.56 254.95 214.27 248.39 186.39 248.39 186.39"/><polygon class="cls-10" points="247.81 105.23 237.71 114.53 221 116.66 230.51 97.94 247.81 105.23"/><line class="cls-11" x1="261.18" y1="113.1" x2="247.81" y2="105.23"/><polygon class="cls-17" points="260.11 112.04 249.62 88.39 241.44 76.3 273.18 76.3 261.18 113.1 260.11 112.04"/><polyline class="cls-6" points="230.51 97.94 240.2 77.37 218.68 88.39 200.9 56.57 241.44 76.3 231.27 98.3 260.11 112.04"/><polygon class="cls-12" points="248.39 186.39 248.39 186.39 248.39 186.39 254.95 214.27 231.72 206.35 248.39 186.39"/><polygon class="cls-1" points="197.97 107.95 218.68 88.39 221 116.66 221.77 138.62 197.97 107.95"/><polygon class="cls-13" points="223.13 176.75 221.77 138.62 221 116.66 238.77 153.28 223.13 176.75"/><polygon class="cls-14" points="262.95 142.26 238.77 153.28 246.15 140.06 262.95 142.26"/><polygon class="cls-8" points="231.41 138.12 246.15 140.06 238.77 153.28 221 116.66 237.71 114.53 231.41 138.12"/><polygon class="cls-27" points="261.18 113.1 230.8 98.09 249.62 88.39 261.18 112.88 261.18 113.1"/><polygon class="cls-16" points="261.18 113.1 262.95 142.26 251.77 129.97 261.18 113.1"/><polygon class="cls-17" points="261.18 113.1 251.77 129.97 237.71 114.53 244.18 103.7 261.18 113.1"/><polygon class="cls-1" points="241.44 76.3 249.62 88.39 229.88 99.11 241.44 76.3"/><polygon class="cls-13" points="241.44 76.3 221 116.66 218.68 88.39 241.44 76.3"/><polygon class="cls-11" points="246.15 140.06 231.41 138.12 246.15 140.06 246.15 140.06"/><polygon class="cls-18" points="248.39 186.39 223.13 176.75 238.77 153.28 264.57 192.56 248.39 186.39 248.39 186.39 248.39 186.39"/><polygon class="cls-6" points="279.67 125.02 261.18 113.1 273.18 76.3 279.67 125.02"/><polygon class="cls-18" points="262.95 142.26 261.18 113.1 279.67 125.02 262.95 142.26"/><polygon class="cls-5" points="201.26 7.85 192.37 38.08 177.79 62.6 177.79 10.86 201.26 7.85"/><polygon class="cls-6" points="241.09 38.08 200.9 56.57 192.37 38.08 241.09 38.08"/><polygon class="cls-18" points="192.37 38.08 200.9 56.57 177.79 62.6 192.37 38.08"/><polygon class="cls-19" points="201.26 7.85 241.09 38.08 192.37 38.08 201.26 7.85"/><polygon class="cls-4" points="241.09 38.08 289.09 49.45 273.18 76.3 241.09 38.08"/><polygon class="cls-20" points="200.9 56.57 197.97 107.95 177.79 87.69 200.9 56.57"/><polygon class="cls-4" points="205.88 202.35 239.49 233.11 201.19 218.46 205.88 202.35"/><polygon class="cls-21" points="201.19 218.46 239.49 233.11 231.84 254.98 201.14 218.63 201.19 218.46"/><polygon class="cls-1" points="201.14 218.63 231.84 254.98 216.55 259.25 201.08 218.82 201.14 218.63"/><polygon class="cls-22" points="201.08 218.82 216.55 259.25 211.21 256.45 211.21 256.45 211.21 256.45 192.9 246.88 201.08 218.82"/><polygon class="cls-12" points="201.6 182.24 199.39 171.91 223.13 176.75 205.88 202.35 201.6 182.24 201.6 182.24"/><polygon class="cls-21" points="199.39 171.91 201.6 182.24 177.79 177.11 199.39 171.91"/><polygon class="cls-23" points="184.9 207.37 184.9 198.44 189.69 195.24 195.97 207.37 184.9 207.37"/><polygon class="cls-24" points="205.45 200.33 195.97 207.37 189.69 195.24 201.6 182.24 205.88 202.35 201.19 218.46 200.9 218.35 195.97 207.37 205.45 200.33"/><polygon class="cls-25" points="184.9 207.37 195.97 207.37 200.9 218.35 179.06 225.75 184.9 207.37"/><polygon class="cls-11" points="201.14 218.63 200.9 218.35 201.19 218.46 201.14 218.63"/><polygon class="cls-11" points="201.14 218.63 201.08 218.82 200.9 218.35 201.14 218.63"/><polygon class="cls-21" points="179.06 225.75 200.9 218.35 201.08 218.82 192.9 246.88 177.79 238.98 177.79 229.73 179.06 225.75"/><polygon class="cls-11" points="177.79 229.73 177.79 226.18 179.06 225.75 177.79 229.73"/><polyline class="cls-32" points="177.79 226.18 179.06 225.75 184.9 207.37 184.9 198.44 177.79 192.56 177.79 192.56 170.68 198.44 170.68 207.37 176.53 225.75 177.79 226.18"/><polyline class="cls-27" points="177.79 260.27 197.97 264.94 211.21 256.45 192.9 246.88 177.79 238.98 177.79 238.98 162.68 246.88 144.38 256.45 157.62 264.94 177.79 260.27"/><polyline class="cls-33" points="177.79 192.56 184.9 198.44 189.69 195.24 177.79 177.11 177.79 177.11 165.89 195.24 170.68 198.44 177.79 192.56"/><polygon class="cls-2" points="221.77 138.62 177.79 177.11 197.97 107.95 221.77 138.62"/><polyline class="cls-7" points="177.79 87.69 200.9 56.57 177.79 62.6 177.79 62.6 154.68 56.56 177.79 87.69"/><polygon class="cls-3" points="292.43 112.04 284.35 143.92 281.98 153.28 279.67 125.02 273.18 76.3 292.43 112.04"/><polygon class="cls-1" points="273.18 76.3 301.89 74.7 292.43 112.04 273.18 76.3"/><polygon class="cls-6" points="289.09 49.45 301.89 74.7 273.18 76.3 289.09 49.45"/><polygon class="cls-6" points="289.09 49.45 241.09 38.08 267.4 27.41 289.09 49.45"/><polygon class="cls-6" points="243.85 25.63 267.4 27.41 241.09 38.08 243.85 25.63"/><polygon class="cls-2" points="243.85 25.63 241.09 38.08 201.26 7.85 243.85 25.63"/><polygon class="cls-26" points="201.6 182.24 201.6 182.24 189.69 195.24 177.79 177.11 201.6 182.24"/><polygon class="cls-12" points="281.98 153.28 238.77 153.28 262.95 142.26 281.98 153.28"/><polygon class="cls-2" points="279.67 125.02 281.98 153.28 262.95 142.26 279.67 125.02"/><polygon class="cls-13" points="331.76 119.15 315.09 148.66 295.08 184.1 281.98 153.28 331.76 119.15"/><polygon class="cls-27" points="264.57 192.56 281.98 153.28 295.08 184.1 264.57 192.56"/><polygon class="cls-28" points="295.08 184.1 295.08 184.1 295.08 184.1 267.4 233.11 264.57 192.56 295.08 184.1"/><polygon class="cls-29" points="292.43 112.04 331.76 119.15 281.98 153.28 284.35 143.92 292.43 112.04"/><polygon class="cls-28" points="331.76 119.15 292.43 112.04 301.89 74.7 331.76 119.15"/><polygon class="cls-6" points="262.95 142.26 246.15 140.06 251.77 129.97 262.95 142.26"/><polygon class="cls-11" points="237.71 114.53 251.77 129.97 251.77 129.97 237.71 114.53"/><polygon class="cls-12" points="237.71 114.53 251.77 129.97 246.15 140.06 231.41 138.12 237.71 114.53"/><polygon class="cls-27" points="261.18 112.88 251.77 111.18 236.73 99.11 261.18 112.88"/><path class="cls-10" d="M221.45,116.3s-1-19,10.89-19.67,14.12,6.45,16.34,9.13S245.45,118.32,221.45,116.3Z"/><path class="cls-30" d="M221.42,116.13s7.46,6.25,21.59,1.21c0,0,11.12-4.75,14.35-5.15,0,0-6.49-3.39-8.7-6.6C248.66,105.59,247,118.15,221.42,116.13Z"/><path class="cls-31" d="M236.24,98.78s5.65,2.12,5.45,6.81Z"/><polygon class="cls-19" points="241.09 38.08 241.44 76.3 200.9 56.57 241.09 38.08"/><polyline class="cls-5" points="199.33 171.91 221.71 138.62 223.06 176.75 199.33 171.91"/><polyline class="cls-21" points="177.79 62.6 192.37 38.08 177.79 10.86 163.22 38.08 177.79 62.6 177.79 61.83"/></svg>