<?xml version="1.0" encoding="UTF-8" standalone="no"?>
<!-- Generator: Adobe Illustrator 17.1.0, SVG Export Plug-In . SVG Version: 6.00 Build 0)  -->

<svg
   xmlns:dc="http://purl.org/dc/elements/1.1/"
   xmlns:cc="http://creativecommons.org/ns#"
   xmlns:rdf="http://www.w3.org/1999/02/22-rdf-syntax-ns#"
   xmlns:svg="http://www.w3.org/2000/svg"
   xmlns="http://www.w3.org/2000/svg"
   xmlns:sodipodi="http://sodipodi.sourceforge.net/DTD/sodipodi-0.dtd"
   xmlns:inkscape="http://www.inkscape.org/namespaces/inkscape"
   version="1.1"
   id="Layer_1"
   x="0px"
   y="0px"
   viewBox="0 119 300 62"
   xml:space="preserve"
   inkscape:version="0.91 r13725"
   sodipodi:docname="network.svg"><metadata
     id="metadata51"><rdf:RDF><cc:Work
         rdf:about=""><dc:format>image/svg+xml</dc:format><dc:type
           rdf:resource="http://purl.org/dc/dcmitype/StillImage" /></cc:Work></rdf:RDF></metadata><defs
     id="defs49"><filter
       style="color-interpolation-filters:sRGB;"
       inkscape:label="Greyscale"
       id="filter4269"><feColorMatrix
         values="0.21 0.72 0.072 -0.05 0 0.21 0.72 0.072 -0.05 0 0.21 0.72 0.072 -0.05 0 0 0 0 1 0 "
         id="feColorMatrix4271" /></filter></defs><sodipodi:namedview
     pagecolor="#ffffff"
     bordercolor="#666666"
     borderopacity="1"
     objecttolerance="10"
     gridtolerance="10"
     guidetolerance="10"
     inkscape:pageopacity="0"
     inkscape:pageshadow="2"
     inkscape:window-width="1280"
     inkscape:window-height="751"
     id="namedview47"
     showgrid="false"
     inkscape:zoom="4.12"
     inkscape:cx="117.16913"
     inkscape:cy="28.862827"
     inkscape:window-x="0"
     inkscape:window-y="1"
     inkscape:window-maximized="1"
     inkscape:current-layer="layer1" /><g
     id="bgd" /><g
     id="hex"
     display="none" /><g
     id="joiners"
     display="none" /><g
     inkscape:groupmode="layer"
     id="layer1"
     inkscape:label="Layer 1"><g
       style="filter:url(#filter4269)"
       id="Layer_4"><g
         id="g7"><polygon
           fill="#435363"
           points="117.011,155.616 117.011,164.576 124.77,169.056 132.53,164.576 132.53,155.616 124.77,151.136       "
           id="polygon9" /><polygon
           fill="#435363"
           points="81.477,155.05 81.477,164.01 89.237,168.49 96.997,164.01 96.997,155.05 89.237,150.571   "
           id="polygon11" /><polygon
           fill="#435363"
           points="186.771,155.31 186.771,164.27 194.531,168.75 202.292,164.27 202.292,155.31 194.531,150.83       "
           id="polygon13" /><polygon
           fill="#435363"
           points="152.388,154.856 152.388,163.816 160.148,168.296 167.908,163.816 167.908,154.856     160.148,150.377   "
           id="polygon15" /><polygon
           fill="#435363"
           points="169.375,124.55 169.375,133.509 177.135,137.989 184.894,133.509 184.894,124.55 177.135,120.07       "
           id="polygon17" /><polygon
           fill="#435363"
           points="125.873,140.147 125.873,149.107 133.633,153.587 141.392,149.107 141.392,140.147     133.633,135.667   "
           id="polygon19" /><polygon
           fill="#435363"
           points="150.12,133.552 150.12,124.592 142.361,120.112 134.601,124.592 134.601,133.552 142.361,138.032       "
           id="polygon21" /><polygon
           fill="#435363"
           points="114.694,133.746 114.694,124.786 106.933,120.307 99.174,124.786 99.174,133.746 106.933,138.226       "
           id="polygon23" /><polygon
           fill="#435363"
           points="29.033,124.744 29.033,133.704 36.793,138.183 44.553,133.704 44.553,124.744 36.793,120.264       "
           id="polygon25" /><polygon
           fill="#435363"
           points="273.007,133.509 273.007,124.549 265.248,120.07 257.489,124.549 257.489,133.509     265.248,137.989   "
           id="polygon27" /><polygon
           fill="#435363"
           points="79.575,133.703 79.575,124.744 71.816,120.264 64.056,124.744 64.056,133.703 71.816,138.183       "
           id="polygon29" /><polygon
           fill="#435363"
           points="20.293,139.871 20.293,148.831 28.053,153.311 35.812,148.831 35.812,139.871 28.053,135.392       "
           id="polygon31" /><polygon
           fill="#435363"
           points="46.49,155.616 46.49,164.576 54.249,169.056 62.009,164.576 62.009,155.616 54.249,151.136   "
           id="polygon33" /><polygon
           fill="#435363"
           points="283.366,140.208 283.366,149.168 291.125,153.648 298.886,149.168 298.886,140.208     291.125,135.728   "
           id="polygon35" /><polygon
           fill="#435363"
           points="213.573,139.677 213.573,148.637 221.332,153.117 229.092,148.637 229.092,139.677     221.332,135.198   "
           id="polygon37" /><polygon
           fill="#435363"
           points="273.718,156.963 273.718,165.923 281.478,170.402 289.237,165.923 289.237,156.963     281.478,152.483   "
           id="polygon39" /><polygon
           fill="#435363"
           points="248.631,139.624 248.631,148.584 256.391,153.064 264.151,148.584 264.151,139.624     256.391,135.144   "
           id="polygon41" /><polygon
           fill="#435363"
           points="204.832,124.55 204.832,133.509 212.592,137.989 220.352,133.509 220.352,124.55 212.592,120.07       "
           id="polygon43" /><path
           fill="#435363"
           d="M-2.526,115.485v68.444h303.5v-68.444H-2.526z M257.173,124.367l8.074-4.661l8.075,4.661v9.324    l-8.075,4.662l-8.074-4.662V124.367z M134.285,124.41l8.076-4.662l8.074,4.662v9.324l-8.074,4.662l-8.076-4.662V124.41z     M115.725,124.864c0-0.482,0.391-0.873,0.874-0.873s0.874,0.391,0.874,0.873c0,0.428-0.309,0.783-0.716,0.858v8.279    c0.407,0.074,0.716,0.429,0.716,0.858c0,0.126-0.028,0.245-0.076,0.353l5.57,3.128c0.167-0.424,0.578-0.726,1.062-0.726    c0.511,0,0.938,0.337,1.084,0.8l6.017-3.283c-0.028-0.086-0.047-0.176-0.047-0.271c0-0.482,0.391-0.873,0.873-0.873    s0.874,0.391,0.874,0.873s-0.391,0.873-0.874,0.873c-0.274,0-0.515-0.128-0.675-0.326l-6.111,3.334    c0,0.005,0.001,0.01,0.001,0.015c0,0.593-0.453,1.075-1.031,1.131v7.638c0.407,0.074,0.716,0.429,0.716,0.858    c0,0.482-0.391,0.873-0.874,0.873c-0.266,0-0.502-0.122-0.662-0.309l-7.172,4.141c0.139,0.39-0.014,0.835-0.385,1.049    c-0.418,0.241-0.952,0.098-1.193-0.32c-0.241-0.418-0.098-0.952,0.32-1.193c0.371-0.214,0.833-0.124,1.101,0.191l7.172-4.141    c-0.033-0.092-0.054-0.189-0.054-0.291c0-0.428,0.309-0.783,0.716-0.858v-7.647c-0.533-0.096-0.939-0.561-0.939-1.122    c0-0.033,0.007-0.063,0.01-0.095l-5.676-3.187c-0.158,0.16-0.378,0.259-0.62,0.259c-0.265,0-0.5-0.121-0.66-0.308l-5.863,3.405    c0.002,0.026,0.008,0.051,0.008,0.078c0,0.482-0.391,0.873-0.873,0.873s-0.874-0.391-0.874-0.873c0-0.482,0.391-0.873,0.874-0.873    c0.341,0,0.633,0.197,0.777,0.482l5.793-3.364c-0.033-0.092-0.054-0.19-0.054-0.294c0-0.428,0.309-0.783,0.716-0.858v-8.28    C116.034,125.647,115.725,125.293,115.725,124.864z M98.859,124.604l8.074-4.662l8.076,4.662v9.324l-8.076,4.662l-8.074-4.662    V124.604z M63.741,124.562l8.075-4.661l8.075,4.661v9.324l-8.075,4.661l-8.075-4.661L63.741,124.562L63.741,124.562z     M25.516,155.246c-0.482,0-0.873-0.391-0.873-0.873c0-0.135,0.033-0.262,0.088-0.376l-5.768-3.35    c-0.16,0.187-0.395,0.308-0.66,0.308c-0.274,0-0.515-0.129-0.675-0.326l-6.21,3.388c0.032,0.105,0.054,0.214,0.054,0.329    c0,0.577-0.429,1.049-0.985,1.127v7.275c0.407,0.074,0.716,0.429,0.716,0.858c0,0.102-0.021,0.198-0.053,0.289l5.785,3.32    c0.072-0.105,0.164-0.197,0.281-0.264c0.418-0.241,0.952-0.098,1.193,0.32c0.241,0.418,0.098,0.952-0.32,1.193    c-0.418,0.241-0.952,0.098-1.193-0.32c-0.116-0.202-0.141-0.43-0.091-0.64l-5.813-3.336c-0.16,0.189-0.396,0.311-0.663,0.311    c-0.266,0-0.502-0.122-0.662-0.309l-7.172,4.14c0.139,0.39-0.014,0.835-0.385,1.049c-0.418,0.241-0.952,0.098-1.193-0.32    c-0.241-0.418-0.098-0.952,0.32-1.193c0.371-0.214,0.833-0.124,1.101,0.191l7.172-4.141c-0.033-0.092-0.054-0.189-0.054-0.291    c0-0.428,0.309-0.783,0.716-0.858v-7.275c-0.556-0.077-0.985-0.55-0.985-1.127c0-0.158,0.032-0.308,0.09-0.444l-5.71-3.206    c-0.158,0.16-0.378,0.259-0.62,0.259c-0.482,0-0.874-0.391-0.874-0.873c0-0.428,0.309-0.783,0.716-0.858v-8.279    c-0.407-0.074-0.716-0.429-0.716-0.858c0-0.482,0.391-0.873,0.874-0.873s0.873,0.391,0.873,0.873c0,0.428-0.309,0.783-0.716,0.858    v8.279c0.407,0.074,0.716,0.429,0.716,0.858c0,0.126-0.028,0.245-0.076,0.353l5.698,3.2c0.209-0.26,0.527-0.43,0.887-0.43    c0.403,0,0.756,0.21,0.959,0.525l6.188-3.376c-0.028-0.086-0.047-0.176-0.047-0.271c0-0.428,0.309-0.783,0.716-0.858v-8.279    c-0.407-0.074-0.716-0.429-0.716-0.858c0-0.482,0.391-0.873,0.873-0.873c0.482,0,0.873,0.391,0.873,0.873    c0,0.428-0.309,0.783-0.716,0.858v8.279c0.407,0.074,0.716,0.429,0.716,0.858c0,0.104-0.021,0.201-0.054,0.294l5.795,3.365    c0.157-0.148,0.367-0.241,0.6-0.241c0.482,0,0.873,0.391,0.873,0.873S25.998,155.246,25.516,155.246z M36.127,149.013    l-8.074,4.662l-8.075-4.662v-9.324l8.075-4.661l8.074,4.661V149.013z M28.718,133.886v-9.324l8.074-4.662l8.075,4.662v9.324    l-8.075,4.662L28.718,133.886z M62.325,164.758l-8.076,4.662l-0.079-0.045l-7.995-4.616v-9.324l8.074-4.662l8.076,4.662    L62.325,164.758L62.325,164.758z M55.438,139.045c0,0.593-0.453,1.075-1.031,1.131v7.638c0.407,0.074,0.716,0.429,0.716,0.858    c0,0.102-0.021,0.198-0.053,0.289l5.785,3.32c0.072-0.105,0.164-0.197,0.282-0.264c0.418-0.241,0.952-0.098,1.193,0.32    c0.241,0.418,0.098,0.952-0.32,1.193s-0.952,0.098-1.193-0.32c-0.116-0.202-0.141-0.43-0.091-0.64l-5.813-3.336    c-0.16,0.189-0.396,0.311-0.663,0.311c-0.266,0-0.502-0.122-0.662-0.309l-7.172,4.141c0.139,0.39-0.014,0.835-0.385,1.049    c-0.418,0.241-0.952,0.098-1.193-0.32s-0.098-0.952,0.32-1.193c0.371-0.214,0.833-0.124,1.101,0.191l7.172-4.141    c-0.033-0.092-0.054-0.189-0.054-0.291c0-0.428,0.309-0.783,0.716-0.858v-7.648c-0.533-0.096-0.938-0.561-0.938-1.122    c0-0.033,0.007-0.063,0.01-0.095l-5.676-3.187c-0.158,0.16-0.378,0.259-0.62,0.259c-0.265,0-0.5-0.121-0.66-0.308l-5.864,3.405    c0.002,0.026,0.008,0.051,0.008,0.078c0,0.482-0.391,0.873-0.874,0.873c-0.482,0-0.873-0.391-0.873-0.873s0.391-0.873,0.873-0.873    c0.341,0,0.633,0.197,0.777,0.482l5.793-3.364c-0.033-0.092-0.054-0.19-0.054-0.294c0-0.428,0.309-0.783,0.716-0.858v-8.279    c-0.407-0.074-0.716-0.429-0.716-0.858c0-0.482,0.391-0.873,0.873-0.873c0.482,0,0.873,0.391,0.873,0.873    c0,0.428-0.309,0.783-0.716,0.858v8.28c0.407,0.074,0.716,0.429,0.716,0.858c0,0.126-0.028,0.245-0.075,0.352l5.57,3.128    c0.167-0.424,0.578-0.726,1.061-0.726c0.511,0,0.938,0.337,1.084,0.8l6.017-3.283c-0.028-0.086-0.047-0.176-0.047-0.271    c0-0.428,0.309-0.783,0.716-0.858v-8.279c-0.407-0.074-0.716-0.429-0.716-0.858c0-0.482,0.391-0.873,0.873-0.873    c0.482,0,0.874,0.391,0.874,0.873c0,0.428-0.309,0.783-0.716,0.858v8.279c0.407,0.074,0.716,0.429,0.716,0.858    c0,0.104-0.021,0.201-0.054,0.294l5.795,3.365c0.157-0.148,0.367-0.241,0.6-0.241c0.482,0,0.873,0.391,0.873,0.873    s-0.391,0.873-0.873,0.873s-0.873-0.391-0.873-0.873c0-0.135,0.033-0.262,0.088-0.376l-5.768-3.349    c-0.16,0.187-0.395,0.308-0.66,0.308c-0.274,0-0.515-0.128-0.675-0.326l-6.111,3.334C55.437,139.035,55.438,139.04,55.438,139.045    z M86.63,170.56c-0.482,0-0.874-0.391-0.874-0.873c0-0.135,0.033-0.262,0.088-0.376l-5.768-3.35    c-0.16,0.187-0.395,0.308-0.66,0.308c-0.274,0-0.515-0.128-0.675-0.326l-6.21,3.388c0.032,0.105,0.054,0.214,0.054,0.329    c0,0.577-0.429,1.049-0.985,1.127v7.275c0.407,0.074,0.716,0.429,0.716,0.858c0,0.482-0.391,0.873-0.874,0.873    s-0.873-0.391-0.873-0.873c0-0.428,0.309-0.783,0.716-0.858v-7.275c-0.556-0.077-0.985-0.55-0.985-1.127    c0-0.158,0.032-0.308,0.09-0.444l-5.71-3.206c-0.158,0.16-0.378,0.259-0.62,0.259c-0.482,0-0.874-0.391-0.874-0.873    c0-0.428,0.309-0.783,0.716-0.858v-8.279c-0.407-0.074-0.716-0.429-0.716-0.858c0-0.482,0.391-0.873,0.874-0.873    s0.874,0.391,0.874,0.873c0,0.428-0.309,0.783-0.716,0.858v8.28c0.407,0.074,0.716,0.429,0.716,0.858    c0,0.126-0.028,0.245-0.076,0.352l5.698,3.2c0.209-0.26,0.527-0.43,0.887-0.43c0.403,0,0.756,0.21,0.959,0.525l6.188-3.376    c-0.028-0.086-0.047-0.176-0.047-0.271c0-0.428,0.309-0.783,0.716-0.858v-8.28c-0.407-0.074-0.716-0.429-0.716-0.858    c0-0.482,0.391-0.873,0.873-0.873s0.874,0.391,0.874,0.873c0,0.428-0.309,0.783-0.716,0.858v8.279    c0.407,0.074,0.716,0.429,0.716,0.858c0,0.104-0.021,0.201-0.054,0.294l5.795,3.365c0.157-0.148,0.367-0.241,0.6-0.241    c0.482,0,0.873,0.391,0.873,0.873S87.113,170.56,86.63,170.56z M97.312,164.192l-8.076,4.662l-8.074-4.662v-9.324l8.075-4.662    l8.076,4.662L97.312,164.192L97.312,164.192z M90.451,138.629c0,0.593-0.453,1.075-1.031,1.131v7.638    c0.407,0.074,0.716,0.429,0.716,0.858c0,0.102-0.021,0.198-0.053,0.289l5.785,3.32c0.072-0.105,0.164-0.197,0.282-0.264    c0.418-0.241,0.952-0.098,1.193,0.32c0.241,0.418,0.098,0.952-0.32,1.193c-0.418,0.241-0.952,0.098-1.193-0.32    c-0.116-0.202-0.141-0.43-0.091-0.64l-5.813-3.336c-0.16,0.189-0.396,0.311-0.663,0.311c-0.266,0-0.502-0.122-0.662-0.31    l-7.172,4.141c0.139,0.39-0.014,0.835-0.385,1.049c-0.418,0.241-0.952,0.098-1.193-0.32c-0.241-0.418-0.098-0.952,0.32-1.193    c0.371-0.214,0.833-0.124,1.101,0.191l7.172-4.141c-0.033-0.092-0.054-0.189-0.054-0.291c0-0.428,0.309-0.783,0.716-0.858v-7.648    c-0.533-0.096-0.938-0.561-0.938-1.122c0-0.033,0.007-0.063,0.01-0.095l-5.676-3.187c-0.158,0.16-0.378,0.259-0.62,0.259    c-0.265,0-0.5-0.121-0.66-0.308l-5.863,3.405c0.002,0.026,0.008,0.051,0.008,0.078c0,0.482-0.391,0.873-0.874,0.873    s-0.873-0.391-0.873-0.873c0-0.482,0.391-0.873,0.873-0.873c0.341,0,0.633,0.197,0.777,0.482l5.793-3.364    c-0.033-0.092-0.054-0.19-0.054-0.294c0-0.428,0.309-0.783,0.716-0.858v-8.279c-0.407-0.074-0.716-0.429-0.716-0.858    c0-0.482,0.391-0.873,0.874-0.873c0.482,0,0.873,0.391,0.873,0.873c0,0.428-0.309,0.783-0.716,0.858v8.28    c0.407,0.074,0.716,0.429,0.716,0.858c0,0.126-0.028,0.245-0.076,0.353l5.57,3.128c0.167-0.424,0.578-0.726,1.061-0.726    c0.511,0,0.938,0.337,1.084,0.8l6.017-3.283c-0.028-0.086-0.047-0.176-0.047-0.271c0-0.428,0.309-0.783,0.716-0.858v-8.28    c-0.407-0.074-0.716-0.429-0.716-0.858c0-0.482,0.391-0.873,0.874-0.873c0.482,0,0.873,0.391,0.873,0.873    c0,0.428-0.309,0.783-0.716,0.858v8.279c0.407,0.074,0.716,0.429,0.716,0.858c0,0.104-0.021,0.201-0.054,0.294l5.795,3.365    c0.157-0.148,0.367-0.241,0.6-0.241c0.482,0,0.874,0.391,0.874,0.873s-0.391,0.873-0.874,0.873s-0.873-0.391-0.873-0.873    c0-0.135,0.033-0.262,0.088-0.376l-5.768-3.35c-0.16,0.187-0.395,0.308-0.66,0.308c-0.274,0-0.515-0.128-0.675-0.326l-6.111,3.334    C90.45,138.619,90.451,138.624,90.451,138.629z M121.949,171.062c-0.482,0-0.873-0.391-0.873-0.873    c0-0.135,0.033-0.262,0.088-0.376l-5.768-3.35c-0.16,0.187-0.395,0.308-0.66,0.308c-0.274,0-0.515-0.129-0.675-0.326l-6.21,3.388    c0.032,0.105,0.054,0.214,0.054,0.329c0,0.577-0.429,1.049-0.985,1.127v7.275c0.407,0.074,0.716,0.429,0.716,0.858    c0,0.482-0.391,0.873-0.873,0.873s-0.874-0.391-0.874-0.873c0-0.428,0.309-0.783,0.716-0.858v-7.275    c-0.556-0.077-0.985-0.55-0.985-1.127c0-0.158,0.032-0.308,0.09-0.444l-5.71-3.206c-0.158,0.16-0.378,0.259-0.62,0.259    c-0.482,0-0.874-0.391-0.874-0.873c0-0.428,0.309-0.783,0.716-0.858v-8.279c-0.407-0.074-0.716-0.429-0.716-0.858    c0-0.482,0.391-0.873,0.874-0.873s0.873,0.391,0.873,0.873c0,0.428-0.309,0.783-0.716,0.858v8.28    c0.407,0.074,0.716,0.429,0.716,0.858c0,0.126-0.028,0.245-0.075,0.353l5.698,3.2c0.209-0.26,0.527-0.43,0.887-0.43    c0.403,0,0.756,0.21,0.959,0.525l6.188-3.376c-0.028-0.086-0.047-0.176-0.047-0.271c0-0.428,0.309-0.783,0.716-0.858v-8.28    c-0.407-0.074-0.716-0.429-0.716-0.858c0-0.482,0.391-0.873,0.874-0.873s0.873,0.391,0.873,0.873c0,0.428-0.309,0.783-0.716,0.858    v8.279c0.407,0.074,0.716,0.429,0.716,0.858c0,0.104-0.021,0.201-0.054,0.294l5.795,3.365c0.157-0.148,0.367-0.241,0.599-0.241    c0.482,0,0.874,0.391,0.874,0.873C122.822,170.671,122.431,171.062,121.949,171.062z M132.845,164.758l-8.075,4.662l-0.079-0.045    l-7.996-4.616v-9.324l8.075-4.662l8.075,4.662L132.845,164.758L132.845,164.758z M125.558,149.289v-9.324l8.075-4.661l8.074,4.661    v9.324l-8.074,4.661L125.558,149.289z M157.529,170.708c-0.482,0-0.873-0.391-0.873-0.873c0-0.135,0.033-0.262,0.088-0.376    l-5.768-3.35c-0.16,0.187-0.395,0.308-0.66,0.308c-0.274,0-0.515-0.129-0.675-0.326l-6.21,3.388    c0.032,0.105,0.054,0.214,0.054,0.329c0,0.577-0.429,1.049-0.985,1.127v7.275c0.407,0.074,0.716,0.429,0.716,0.858    c0,0.482-0.391,0.873-0.873,0.873s-0.874-0.391-0.874-0.873c0-0.428,0.309-0.783,0.716-0.858v-7.275    c-0.556-0.077-0.985-0.55-0.985-1.127c0-0.158,0.032-0.308,0.09-0.445l-5.71-3.206c-0.158,0.16-0.378,0.259-0.62,0.259    c-0.482,0-0.874-0.391-0.874-0.873c0-0.428,0.309-0.783,0.716-0.858v-8.279c-0.407-0.074-0.716-0.429-0.716-0.858    c0-0.482,0.391-0.873,0.874-0.873c0.482,0,0.873,0.391,0.873,0.873c0,0.428-0.309,0.783-0.716,0.858v8.28    c0.407,0.074,0.716,0.429,0.716,0.858c0,0.126-0.028,0.245-0.076,0.353l5.698,3.2c0.209-0.26,0.527-0.43,0.887-0.43    c0.403,0,0.756,0.21,0.959,0.525l6.188-3.376c-0.028-0.086-0.047-0.176-0.047-0.271c0-0.428,0.309-0.783,0.716-0.858v-8.28    c-0.407-0.074-0.716-0.429-0.716-0.858c0-0.482,0.391-0.873,0.874-0.873c0.482,0,0.873,0.391,0.873,0.873    c0,0.428-0.309,0.783-0.716,0.858v8.279c0.407,0.074,0.716,0.429,0.716,0.858c0,0.104-0.021,0.201-0.054,0.294l5.795,3.365    c0.157-0.148,0.367-0.241,0.599-0.241c0.482,0,0.874,0.391,0.874,0.873C158.402,170.317,158.011,170.708,157.529,170.708z     M168.223,163.998l-8.074,4.662l-8.076-4.662v-9.324l8.076-4.662l8.074,4.662V163.998z M174.895,139.733    c-0.482,0-0.874-0.391-0.874-0.873c0-0.027,0.006-0.052,0.008-0.078l-5.863-3.405c-0.16,0.187-0.395,0.308-0.66,0.308    c-0.243,0-0.462-0.099-0.62-0.259l-5.676,3.187c0.003,0.032,0.01,0.063,0.01,0.095c0,0.561-0.405,1.025-0.938,1.122v7.648    c0.407,0.074,0.716,0.429,0.716,0.858c0,0.103-0.021,0.2-0.054,0.291l7.172,4.141c0.268-0.315,0.73-0.405,1.101-0.191    c0.418,0.241,0.561,0.775,0.32,1.193c-0.241,0.418-0.775,0.561-1.193,0.32c-0.371-0.214-0.524-0.659-0.385-1.049l-7.172-4.141    c-0.16,0.188-0.396,0.309-0.662,0.309c-0.267,0-0.503-0.122-0.663-0.311l-5.813,3.336c0.05,0.21,0.025,0.438-0.091,0.64    c-0.241,0.418-0.775,0.561-1.193,0.32c-0.418-0.241-0.561-0.775-0.32-1.193c0.241-0.418,0.775-0.561,1.193-0.32    c0.117,0.068,0.21,0.16,0.282,0.264l5.785-3.32c-0.032-0.091-0.053-0.187-0.053-0.289c0-0.428,0.309-0.783,0.716-0.858v-7.638    c-0.578-0.057-1.031-0.538-1.031-1.131c0-0.005,0.001-0.01,0.001-0.015l-6.111-3.334c-0.16,0.197-0.402,0.326-0.675,0.326    c-0.265,0-0.5-0.121-0.66-0.308l-5.768,3.35c0.055,0.114,0.088,0.241,0.088,0.376c0,0.482-0.391,0.873-0.873,0.873    s-0.874-0.391-0.874-0.873c0-0.482,0.391-0.873,0.874-0.873c0.233,0,0.443,0.093,0.6,0.241l5.795-3.365    c-0.033-0.092-0.054-0.19-0.054-0.294c0-0.428,0.309-0.783,0.716-0.858v-8.28c-0.407-0.074-0.716-0.429-0.716-0.858    c0-0.482,0.391-0.873,0.873-0.873s0.874,0.391,0.874,0.873c0,0.428-0.309,0.783-0.716,0.858v8.28    c0.407,0.074,0.716,0.429,0.716,0.858c0,0.095-0.019,0.185-0.047,0.271l6.017,3.283c0.146-0.462,0.574-0.8,1.084-0.8    c0.484,0,0.895,0.302,1.061,0.726l5.57-3.128c-0.048-0.108-0.075-0.227-0.075-0.353c0-0.428,0.309-0.783,0.716-0.858v-8.28    c-0.407-0.074-0.716-0.429-0.716-0.858c0-0.482,0.391-0.873,0.873-0.873s0.874,0.391,0.874,0.873c0,0.428-0.309,0.783-0.716,0.858    v8.279c0.407,0.074,0.716,0.429,0.716,0.858c0,0.104-0.021,0.201-0.054,0.294l5.793,3.364c0.144-0.285,0.436-0.482,0.777-0.482    c0.482,0,0.873,0.391,0.873,0.873S175.378,139.733,174.895,139.733z M169.06,133.691v-9.324l8.075-4.661l8.075,4.661v9.324    l-8.075,4.661L169.06,133.691z M202.607,164.452l-8.076,4.662l-8.075-4.662v-9.324l8.075-4.662l8.076,4.662V164.452z     M209.719,140.007c-0.482,0-0.873-0.391-0.873-0.873c0-0.135,0.033-0.262,0.088-0.376l-5.768-3.35    c-0.16,0.187-0.395,0.308-0.66,0.308c-0.274,0-0.515-0.128-0.675-0.326l-6.111,3.334c0,0.005,0.001,0.01,0.001,0.015    c0,0.593-0.453,1.075-1.031,1.131v7.638c0.407,0.074,0.716,0.429,0.716,0.858c0,0.102-0.021,0.198-0.053,0.289l5.785,3.32    c0.071-0.105,0.164-0.197,0.281-0.264c0.418-0.241,0.952-0.098,1.193,0.32c0.241,0.418,0.098,0.952-0.32,1.193    c-0.418,0.241-0.952,0.098-1.193-0.32c-0.116-0.202-0.141-0.43-0.091-0.64l-5.813-3.336c-0.16,0.189-0.396,0.311-0.663,0.311    c-0.266,0-0.502-0.122-0.662-0.309l-7.172,4.141c0.139,0.39-0.014,0.835-0.385,1.049c-0.418,0.241-0.952,0.098-1.193-0.32    c-0.241-0.418-0.098-0.952,0.32-1.193c0.371-0.214,0.833-0.124,1.101,0.191l7.172-4.141c-0.033-0.092-0.054-0.189-0.054-0.291    c0-0.428,0.309-0.783,0.716-0.858v-7.648c-0.533-0.096-0.939-0.561-0.939-1.122c0-0.033,0.007-0.063,0.01-0.095l-5.676-3.187    c-0.158,0.16-0.378,0.259-0.62,0.259c-0.265,0-0.5-0.121-0.66-0.308l-5.863,3.405c0.002,0.026,0.008,0.051,0.008,0.078    c0,0.482-0.391,0.873-0.873,0.873c-0.482,0-0.874-0.391-0.874-0.873c0-0.482,0.391-0.873,0.874-0.873    c0.341,0,0.633,0.197,0.777,0.482l5.793-3.364c-0.033-0.092-0.054-0.19-0.054-0.294c0-0.428,0.309-0.783,0.716-0.858v-8.279    c-0.407-0.074-0.716-0.429-0.716-0.858c0-0.482,0.391-0.873,0.874-0.873s0.873,0.391,0.873,0.873c0,0.428-0.309,0.783-0.716,0.858    v8.279c0.407,0.074,0.716,0.429,0.716,0.858c0,0.126-0.028,0.245-0.075,0.353l5.57,3.128c0.167-0.424,0.578-0.726,1.062-0.726    c0.511,0,0.938,0.337,1.084,0.8l6.017-3.283c-0.028-0.086-0.047-0.176-0.047-0.271c0-0.428,0.309-0.783,0.716-0.858v-8.279    c-0.407-0.074-0.716-0.429-0.716-0.858c0-0.482,0.391-0.873,0.874-0.873s0.873,0.391,0.873,0.873c0,0.428-0.309,0.783-0.716,0.858    v8.28c0.407,0.074,0.716,0.429,0.716,0.858c0,0.104-0.021,0.201-0.054,0.294l5.795,3.365c0.157-0.148,0.367-0.241,0.6-0.241    c0.482,0,0.874,0.391,0.874,0.873S210.201,140.007,209.719,140.007z M204.517,133.691v-9.324l8.075-4.662l8.074,4.662v9.324    l-8.074,4.662L204.517,133.691z M213.258,148.819v-9.324l8.074-4.661l8.075,4.661v9.324l-8.075,4.662L213.258,148.819z     M253.829,155.082c-0.482,0-0.873-0.391-0.873-0.873c0-0.027,0.006-0.052,0.008-0.078l-5.863-3.405    c-0.16,0.187-0.395,0.308-0.66,0.308c-0.243,0-0.462-0.099-0.62-0.259l-5.71,3.206c0.058,0.137,0.09,0.287,0.09,0.444    c0,0.577-0.429,1.049-0.985,1.127v7.275c0.407,0.074,0.716,0.429,0.716,0.858c0,0.103-0.021,0.2-0.054,0.291l7.172,4.141    c0.268-0.315,0.73-0.405,1.101-0.191c0.418,0.241,0.561,0.775,0.32,1.193c-0.241,0.418-0.775,0.561-1.193,0.32    c-0.371-0.214-0.524-0.659-0.385-1.049l-7.172-4.141c-0.16,0.188-0.396,0.309-0.662,0.309c-0.267,0-0.503-0.122-0.663-0.311    l-5.813,3.336c0.05,0.21,0.025,0.438-0.091,0.64c-0.241,0.418-0.775,0.561-1.193,0.32c-0.418-0.241-0.561-0.775-0.32-1.193    s0.775-0.561,1.193-0.32c0.117,0.068,0.21,0.16,0.281,0.264l5.785-3.32c-0.032-0.091-0.053-0.187-0.053-0.289    c0-0.428,0.309-0.783,0.716-0.858v-7.275c-0.556-0.077-0.985-0.55-0.985-1.127c0-0.115,0.022-0.224,0.054-0.329l-6.21-3.388    c-0.16,0.197-0.401,0.326-0.675,0.326c-0.265,0-0.5-0.121-0.66-0.308l-5.768,3.35c0.055,0.114,0.088,0.241,0.088,0.376    c0,0.482-0.391,0.873-0.873,0.873c-0.482,0-0.874-0.391-0.874-0.873c0-0.482,0.391-0.873,0.874-0.873    c0.233,0,0.443,0.093,0.6,0.241l5.795-3.365c-0.033-0.092-0.054-0.19-0.054-0.294c0-0.428,0.309-0.783,0.716-0.858v-8.28    c-0.407-0.074-0.716-0.429-0.716-0.858c0-0.482,0.391-0.873,0.874-0.873s0.874,0.391,0.874,0.873c0,0.428-0.309,0.783-0.716,0.858    v8.28c0.407,0.074,0.716,0.429,0.716,0.858c0,0.095-0.019,0.185-0.047,0.271l6.188,3.376c0.203-0.315,0.556-0.525,0.959-0.525    c0.36,0,0.677,0.17,0.887,0.43l5.698-3.2c-0.048-0.108-0.076-0.227-0.076-0.353c0-0.428,0.309-0.783,0.716-0.858v-8.28    c-0.407-0.074-0.716-0.429-0.716-0.858c0-0.482,0.391-0.873,0.873-0.873s0.874,0.391,0.874,0.873c0,0.428-0.309,0.783-0.716,0.858    v8.279c0.407,0.074,0.716,0.429,0.716,0.858c0,0.104-0.021,0.201-0.054,0.294l5.793,3.364c0.144-0.285,0.436-0.482,0.777-0.482    c0.482,0,0.874,0.391,0.874,0.873C254.703,154.691,254.312,155.082,253.829,155.082z M248.316,148.766v-9.324l8.075-4.662    l8.075,4.662v9.324l-8.075,4.662L248.316,148.766z M289.552,166.105l-8.075,4.662l-8.075-4.662v-9.324l8.075-4.661l8.075,4.661    V166.105z M288.692,155.576c-0.482,0-0.874-0.391-0.874-0.873c0-0.135,0.033-0.262,0.088-0.376l-5.768-3.35    c-0.16,0.187-0.395,0.308-0.66,0.308c-0.274,0-0.515-0.128-0.675-0.326l-6.111,3.334c0,0.005,0.001,0.01,0.001,0.015    c0,0.631-0.511,1.142-1.142,1.142c-0.631,0-1.143-0.512-1.143-1.142c0-0.033,0.007-0.063,0.01-0.095l-5.676-3.187    c-0.158,0.16-0.378,0.259-0.62,0.259c-0.265,0-0.5-0.121-0.66-0.308l-5.863,3.405c0.002,0.026,0.008,0.051,0.008,0.078    c0,0.482-0.391,0.873-0.873,0.873s-0.874-0.391-0.874-0.873s0.391-0.873,0.874-0.873c0.341,0,0.633,0.197,0.777,0.482l5.793-3.364    c-0.033-0.092-0.054-0.19-0.054-0.294c0-0.428,0.309-0.783,0.716-0.858v-8.279c-0.407-0.074-0.716-0.429-0.716-0.858    c0-0.482,0.391-0.873,0.874-0.873s0.874,0.391,0.874,0.873c0,0.428-0.309,0.783-0.716,0.858v8.279    c0.407,0.074,0.716,0.429,0.716,0.858c0,0.126-0.028,0.245-0.076,0.353l5.57,3.128c0.167-0.424,0.578-0.726,1.062-0.726    c0.511,0,0.938,0.337,1.084,0.8l6.017-3.283c-0.028-0.086-0.047-0.176-0.047-0.271c0-0.428,0.309-0.783,0.716-0.858v-8.279    c-0.407-0.074-0.716-0.429-0.716-0.858c0-0.482,0.391-0.873,0.873-0.873c0.482,0,0.874,0.391,0.874,0.873    c0,0.428-0.309,0.783-0.716,0.858v8.279c0.407,0.074,0.716,0.429,0.716,0.858c0,0.104-0.021,0.201-0.054,0.294l5.795,3.365    c0.157-0.148,0.367-0.241,0.6-0.241c0.482,0,0.873,0.391,0.873,0.873C289.566,155.185,289.174,155.576,288.692,155.576z     M299.201,149.349l-8.076,4.662l-8.075-4.662v-9.324l8.075-4.662l8.076,4.662V149.349z"
           id="path45" /></g></g></g></svg>